<svg width="15" height="14" viewBox="0 0 15 14" fill="none" xmlns="http://www.w3.org/2000/svg">
<path d="M11.857 10.2108C11.6104 9.62679 11.2526 9.09633 10.8035 8.64895C10.3558 8.20028 9.82544 7.84256 9.24171 7.59554C9.23648 7.59292 9.23125 7.59161 9.22603 7.589C10.0403 7.00086 10.5696 6.04285 10.5696 4.96199C10.5696 3.17144 9.11885 1.7207 7.3283 1.7207C5.53775 1.7207 4.08702 3.17144 4.08702 4.96199C4.08702 6.04285 4.61634 7.00086 5.43058 7.59031C5.42536 7.59292 5.42013 7.59423 5.4149 7.59684C4.82938 7.84386 4.30397 8.19805 3.85307 8.65026C3.4044 9.09799 3.04667 9.62836 2.79965 10.2121C2.55698 10.7836 2.4261 11.3963 2.4141 12.017C2.41375 12.031 2.41619 12.0448 2.42129 12.0578C2.42639 12.0708 2.43404 12.0827 2.44378 12.0926C2.45352 12.1026 2.46517 12.1106 2.47803 12.116C2.49089 12.1214 2.5047 12.1242 2.51865 12.1242H3.30284C3.36034 12.1242 3.40609 12.0784 3.40739 12.0222C3.43353 11.0133 3.83869 10.0683 4.55491 9.3521C5.29596 8.61105 6.28011 8.20328 7.3283 8.20328C8.37649 8.20328 9.36064 8.61105 10.1017 9.3521C10.8179 10.0683 11.2231 11.0133 11.2492 12.0222C11.2505 12.0798 11.2963 12.1242 11.3538 12.1242H12.138C12.1519 12.1242 12.1657 12.1214 12.1786 12.116C12.1914 12.1106 12.2031 12.1026 12.2128 12.0926C12.2226 12.0827 12.2302 12.0708 12.2353 12.0578C12.2404 12.0448 12.2429 12.031 12.2425 12.017C12.2294 11.3923 12.1001 10.7845 11.857 10.2108ZM7.3283 7.20998C6.7284 7.20998 6.16379 6.97603 5.73903 6.55127C5.31426 6.1265 5.08032 5.56189 5.08032 4.96199C5.08032 4.36209 5.31426 3.79748 5.73903 3.37271C6.16379 2.94795 6.7284 2.714 7.3283 2.714C7.9282 2.714 8.49281 2.94795 8.91758 3.37271C9.34235 3.79748 9.57629 4.36209 9.57629 4.96199C9.57629 5.56189 9.34235 6.1265 8.91758 6.55127C8.49281 6.97603 7.9282 7.20998 7.3283 7.20998Z" fill="#3C3C3C"/>
</svg>
