<svg width="69" height="72" viewBox="0 0 69 72" fill="none" xmlns="http://www.w3.org/2000/svg">
<path d="M48.1658 4.9735V27.3085C48.1658 29.2261 46.627 30.7808 44.7289 30.7808L12.3598 30.7809C11.6986 30.7809 11.0495 30.9747 10.4903 31.3376L5.3064 34.7315C3.02057 36.2285 0 34.5707 0 31.8159V30.7767V4.96945C0 3.05184 1.53887 1.49713 3.43693 1.49713L44.7248 1.49707C46.627 1.50119 48.1658 3.0559 48.1658 4.9735Z" fill="white"/>
<path d="M3.70302 35.8234C3.09796 35.8234 2.49288 35.6647 1.93219 35.3515C0.72206 34.6707 0 33.4137 0 31.9854V4.79833C0 2.68516 1.6579 0.96875 3.69898 0.96875L44.591 0.969227C46.6321 0.969227 48.29 2.68564 48.29 4.7988V27.4171C48.29 29.5303 46.6321 31.2467 44.591 31.2467L12.5128 31.2463C11.9158 31.2463 11.3308 31.4258 10.8307 31.7599L5.70779 35.1969C5.09063 35.6146 4.39683 35.8234 3.70302 35.8234ZM3.69898 1.59518C1.9927 1.59518 0.605065 3.03179 0.605065 4.79833V31.9854C0.605065 33.1757 1.21013 34.2281 2.22261 34.8002C3.23509 35.3682 4.41696 35.3222 5.38103 34.6749L10.5039 31.2379C11.105 30.837 11.7988 30.624 12.5168 30.624L44.595 30.6245C46.3013 30.6245 47.6889 29.1879 47.6889 27.4213V4.80298C47.6889 3.03645 46.3013 1.59983 44.595 1.59983L3.69898 1.59935V1.59518Z" fill="black"/>
<path d="M11.4208 23.1494H36.9982C37.8969 23.1494 38.6279 22.0835 38.6279 20.7729C38.6279 19.4624 37.8969 18.3965 36.9982 18.3965H11.4208C10.522 18.3965 9.79102 19.4624 9.79102 20.7729C9.79102 22.0835 10.522 23.1494 11.4208 23.1494Z" fill="#29A37A"/>
<path d="M11.3987 13.6436L21.2829 13.6435C22.1695 13.6435 22.8906 12.5776 22.8906 11.2671C22.8906 9.95654 22.1695 8.89063 21.2829 8.89063L11.3987 8.89065C10.5121 8.89065 9.79102 9.95657 9.79102 11.2671C9.79102 12.5777 10.5121 13.6436 11.3987 13.6436Z" fill="#29A37A"/>
<path d="M11.2284 23.1494H37.2785C38.3552 23.1494 39.2335 22.0817 39.2335 20.7729C39.2335 19.4642 38.3552 18.3965 37.2785 18.3965L11.2284 18.3965C10.1517 18.3965 9.27344 19.4642 9.27344 20.7729C9.27344 22.0817 10.1517 23.1494 11.2284 23.1494ZM11.2284 19.1345H37.2785C38.0192 19.1345 38.6264 19.8676 38.6264 20.7729C38.6264 21.6783 38.0233 22.4114 37.2785 22.4114H11.2284C10.4877 22.4114 9.88056 21.6783 9.88056 20.7729C9.88056 19.8676 10.4836 19.1345 11.2284 19.1345Z" fill="black"/>
<path d="M11.2271 13.6435H21.4583C22.5343 13.6435 23.4121 12.5759 23.4121 11.2671C23.4121 9.95831 22.5343 8.89062 21.4583 8.89062H11.2271C10.1512 8.89062 9.27344 9.95831 9.27344 11.2671C9.27344 12.5759 10.1512 13.6435 11.2271 13.6435ZM11.2271 9.62865H21.4583C22.1986 9.62865 22.8053 10.3618 22.8053 11.2671C22.8053 12.1724 22.2026 12.9055 21.4583 12.9055H11.2271C10.4869 12.9055 9.88018 12.1724 9.88018 11.2671C9.88018 10.3618 10.4829 9.62865 11.2271 9.62865Z" fill="black"/>
<path d="M20.1545 40.1542V62.4891C20.1545 64.4067 21.6934 65.9615 23.5914 65.9615L55.9605 65.9615C56.6217 65.9615 57.2708 66.1553 57.83 66.5182L63.0139 69.9122C65.2997 71.4092 68.3203 69.7514 68.3203 66.9966V65.9574V40.1501C68.3203 38.2325 66.7814 36.6778 64.8834 36.6778L23.5955 36.6777C21.6934 36.6819 20.1545 38.2366 20.1545 40.1542Z" fill="white"/>
<path d="M64.6173 71.004C65.2224 71.004 65.8274 70.8453 66.3881 70.5321C67.5983 69.8514 68.3203 68.5944 68.3203 67.1661V39.979C68.3203 37.8658 66.6624 36.1494 64.6213 36.1494L23.7293 36.1499C21.6882 36.1499 20.0303 37.8663 20.0303 39.9795V62.5978C20.0303 64.711 21.6882 66.4274 23.7293 66.4274L55.8076 66.4269C56.4046 66.4269 56.9895 66.6065 57.4897 66.9406L62.6125 70.3776C63.2297 70.7952 63.9235 71.004 64.6173 71.004ZM64.6213 36.7758C66.3276 36.7758 67.7152 38.2125 67.7152 39.979V67.1661C67.7152 68.3563 67.1102 69.4087 66.0977 69.9809C65.0852 70.5488 63.9033 70.5029 62.9393 69.8556L57.8164 66.4186C57.2153 66.0176 56.5215 65.8047 55.8035 65.8047L23.7253 65.8051C22.019 65.8051 20.6314 64.3685 20.6314 62.602V39.9836C20.6314 38.2171 22.019 36.7805 23.7253 36.7805L64.6213 36.78V36.7758Z" fill="black"/>
<path d="M56.8976 58.3291H31.3202C30.4214 58.3291 29.6904 57.2632 29.6904 55.9526C29.6904 54.6421 30.4214 53.5762 31.3202 53.5762H56.8976C57.7964 53.5762 58.5273 54.6421 58.5273 55.9526C58.5273 57.2632 57.7964 58.3291 56.8976 58.3291Z" fill="#B744B8"/>
<path d="M56.4268 48.7197H30.8494C29.9506 48.7197 29.2196 47.6538 29.2196 46.3433C29.2196 45.0327 29.9506 43.9668 30.8494 43.9668H56.4268C57.3255 43.9668 58.0565 45.0327 58.0565 46.3433C58.0565 47.6538 57.3255 48.7197 56.4268 48.7197Z" fill="#B744B8"/>
<path d="M57.09 58.3301H31.0398C29.9632 58.3301 29.0849 57.2624 29.0849 55.9536C29.0849 54.6448 29.9632 53.5771 31.0398 53.5771L57.09 53.5771C58.1666 53.5771 59.0449 54.6448 59.0449 55.9536C59.0449 57.2624 58.1666 58.3301 57.09 58.3301ZM57.09 54.3152H31.0398C30.2991 54.3152 29.692 55.0483 29.692 55.9536C29.692 56.8589 30.2951 57.592 31.0398 57.592H57.09C57.8307 57.592 58.4378 56.8589 58.4378 55.9536C58.4378 55.0483 57.8347 54.3152 57.09 54.3152Z" fill="black"/>
<path d="M56.6192 48.7207H30.569C29.4923 48.7207 28.6141 47.653 28.6141 46.3442C28.6141 45.0355 29.4923 43.9678 30.569 43.9678L56.6192 43.9678C57.6958 43.9678 58.5741 45.0355 58.5741 46.3442C58.5741 47.653 57.6958 48.7207 56.6192 48.7207ZM56.6192 44.7058H30.569C29.8283 44.7058 29.2212 45.4389 29.2212 46.3442C29.2212 47.2495 29.8242 47.9826 30.569 47.9826H56.6192C57.3599 47.9826 57.967 47.2495 57.967 46.3442C57.967 45.4389 57.3639 44.7058 56.6192 44.7058Z" fill="black"/>
</svg>
