<svg width="924" height="1078" viewBox="0 0 924 1078" fill="none" xmlns="http://www.w3.org/2000/svg">
<path d="M154.197 353.519C129.738 315.359 147.444 264.369 190.289 249.578L488.69 146.568C516.221 137.064 546.76 145.6 565.373 168.002L873.753 539.162C900.337 571.158 893.317 619.14 858.681 642.179L553.764 845.006C521.188 866.675 477.174 857.436 456.061 824.495L154.197 353.519Z" fill="white" fill-opacity="0.5"/>
<path d="M297.142 834.088C255.461 853.606 206.61 828.277 198.542 782.965L145.102 482.841C140.057 454.51 152.864 425.979 177.386 410.92L622.806 137.381C658.039 115.744 704.25 129.197 722.363 166.364L877.161 483.994C894.285 519.129 879.318 561.479 843.921 578.054L297.142 834.088Z" fill="#B744B8" fill-opacity="0.5"/>
<path d="M488.276 618.564C488.276 618.564 441.987 786.169 438.105 851.425C434.235 916.68 461.76 1077.06 461.76 1077.06H528.001C528.001 1077.06 535.958 944.338 543.459 879.96C550.947 815.582 583.124 706.874 575.444 618.564C575.444 618.564 503.962 601.136 488.276 618.564Z" fill="#0E110F"/>
<path d="M456.928 1049.32L456.904 1047.52L507.712 1046.93C507.94 1035.62 510.296 919.012 511.762 894.684C513.169 871.414 518.445 854.238 525.741 830.462C534.48 801.987 546.452 762.995 557.209 692.631L558.988 692.907C548.207 763.404 536.223 802.468 527.46 830.991C520.2 854.646 514.96 871.738 513.553 894.792C512.015 920.214 509.503 1046.57 509.479 1047.84L509.467 1048.72L456.928 1049.32Z" fill="#FFFFFD"/>
<path d="M524.047 408.854C524.047 408.854 477.807 432.041 470.836 454.698C463.864 477.356 462.121 500.025 449.921 508.739C437.721 517.454 434.235 519.197 442.95 526.168C451.664 533.14 489.911 564.571 489.911 564.571L524.047 408.854Z" fill="#FFD857"/>
<path d="M505.201 439.361C505.201 434.637 503.289 430.346 500.188 427.245L487.555 439.878L475.968 451.465C479.069 454.566 483.349 456.477 488.084 456.477C497.544 456.489 505.201 448.821 505.201 439.361Z" fill="#FFFFFD"/>
<path d="M572.305 619.13C572.305 619.13 543.457 710.48 560.682 851.425C568.615 916.308 593.243 1077.06 593.243 1077.06H659.485C659.485 1077.06 662.658 960 661.252 889.576C658.126 733.931 697.479 710.961 659.124 609.85C659.124 609.85 587.991 601.701 572.305 619.13Z" fill="#0E110F"/>
<path d="M537.088 402.4C537.088 402.4 490.018 419.829 488.276 459.927C486.533 500.025 490.019 554.066 490.019 571.495C490.019 588.924 476.075 613.336 488.276 618.565C500.476 623.793 582.415 639.479 659.125 609.85C659.125 609.85 667.84 512.225 667.84 463.413C667.84 414.6 653.897 393.686 605.084 393.686L537.088 402.4Z" fill="#FFD857"/>
<path d="M625.444 595.643L613.857 607.23C616.958 610.331 621.237 612.242 625.973 612.242C635.433 612.242 643.101 604.574 643.101 595.114C643.101 590.39 641.19 586.099 638.089 582.998L625.444 595.643Z" fill="#FFFFFD"/>
<path d="M621.454 479.735C621.454 475.011 619.543 470.72 616.442 467.619L603.809 480.252L592.222 491.839C595.323 494.94 599.602 496.851 604.338 496.851C613.798 496.863 621.454 489.195 621.454 479.735Z" fill="#FFFFFD"/>
<path d="M566.55 522.321L554.962 533.908C558.064 537.009 562.343 538.92 567.078 538.92C576.538 538.92 584.207 531.251 584.207 521.792C584.207 517.068 582.296 512.777 579.194 509.676L566.55 522.321Z" fill="#FFFFFD"/>
<path d="M527.703 446.079C527.703 441.355 525.791 437.064 522.69 433.963L510.057 446.596L498.47 458.183C501.571 461.284 505.85 463.195 510.586 463.195C520.046 463.207 527.703 455.539 527.703 446.079Z" fill="#FFFFFD"/>
<path d="M619.941 554.474C614.58 546.686 603.918 544.702 596.129 550.063C592.235 552.744 589.795 556.746 588.99 561.061L606.551 564.307L622.669 567.288C623.463 562.984 622.621 558.369 619.941 554.474Z" fill="#FFFFFD"/>
<path d="M493.95 600.548C490.055 603.228 487.615 607.23 486.81 611.546L504.371 614.791L520.49 617.772C521.283 613.457 520.442 608.853 517.761 604.947C512.412 597.158 501.751 595.187 493.95 600.548Z" fill="#FFFFFD"/>
<path d="M631.083 441.08C631.877 436.765 631.035 432.161 628.355 428.255C622.994 420.466 612.332 418.483 604.544 423.843C600.649 426.524 598.209 430.526 597.404 434.842L614.965 438.087L631.083 441.08Z" fill="#FFFFFD"/>
<path d="M572.187 593.731C572.98 589.416 572.139 584.812 569.458 580.906C564.098 573.117 553.436 571.134 545.647 576.495C541.753 579.175 539.313 583.178 538.507 587.493L556.068 590.738L572.187 593.731Z" fill="#FFFFFD"/>
<path d="M580.601 473.533C581.394 469.218 580.553 464.614 577.872 460.708C572.512 452.919 561.85 450.936 554.061 456.297C550.167 458.977 547.727 462.98 546.921 467.295L564.482 470.54L580.601 473.533Z" fill="#FFFFFD"/>
<path d="M519.097 544.45C511.236 539.185 500.598 541.289 495.334 549.15C492.701 553.08 491.908 557.708 492.762 561.999L510.287 558.525L526.369 555.34C525.516 551.049 523.028 547.083 519.097 544.45Z" fill="#FFFFFD"/>
<path d="M535.923 492.765C528.062 487.5 517.425 489.603 512.16 497.464C509.528 501.395 508.734 506.023 509.588 510.314L527.113 506.84L543.195 503.655C542.342 499.364 539.854 495.397 535.923 492.765Z" fill="#FFFFFD"/>
<path d="M652.517 510.794C644.656 505.529 634.018 507.633 628.754 515.494C626.121 519.424 625.328 524.052 626.181 528.343L643.706 524.869L659.789 521.684C658.936 517.393 656.447 513.426 652.517 510.794Z" fill="#FFFFFD"/>
<path d="M647.515 568.766C650.616 571.867 654.895 573.778 659.631 573.778C660.473 573.778 661.29 573.694 662.107 573.574C662.612 567.083 663.129 560.015 663.658 552.623L659.114 557.167L647.515 568.766Z" fill="#FFFFFD"/>
<path d="M562.465 618.576C559.231 620.8 557.02 623.937 555.902 627.399C565.974 627.483 576.756 627.098 587.971 626.064C587.526 625.007 586.961 623.973 586.288 622.987C580.927 615.187 570.266 613.215 562.465 618.576Z" fill="#FFFFFD"/>
<path d="M647.984 454.193C645.352 458.124 644.559 462.751 645.412 467.042L662.937 463.569L667.841 462.595C667.829 457.162 667.625 452.078 667.228 447.33C660.184 445.19 652.287 447.763 647.984 454.193Z" fill="#FFFFFD"/>
<path d="M650.314 408.626C650.47 407.773 650.542 406.895 650.578 406.03C643.378 399.815 633.522 396.065 620.372 394.515C618.449 396.81 617.175 399.539 616.634 402.4L634.195 405.645L650.314 408.626Z" fill="#FFFFFD"/>
<path d="M578.185 406.414C578.185 403.12 577.247 400.067 575.637 397.459L569.194 398.288L560.54 406.943L548.953 418.53C552.054 421.631 556.333 423.542 561.069 423.542C570.528 423.542 578.185 415.873 578.185 406.414Z" fill="#FFFFFD"/>
<path d="M538.518 404.01C538.518 403.409 538.482 402.808 538.422 402.231L537.088 402.4C537.088 402.4 523.926 407.28 511.269 417.797C514.106 419.889 517.604 421.139 521.402 421.139C530.861 421.139 538.518 413.47 538.518 404.01Z" fill="#FFFFFD"/>
<path d="M544.936 317.84L522.278 319.583C522.278 319.583 511.821 403.265 557.148 389.31V398.025C557.148 398.025 543.205 401.51 537.976 403.253C537.976 403.253 555.405 415.453 574.589 411.968C593.76 408.482 605.972 394.539 605.972 394.539H596.381L589.409 360.547C589.409 360.547 599.866 353.575 599.866 346.604C599.866 339.632 598.123 337.889 592.895 336.147C587.666 334.404 580.695 343.118 580.695 343.118C580.695 343.118 571.98 327.432 570.237 316.963L544.936 317.84Z" fill="#FFFFFD"/>
<path d="M567.413 413.518C551.246 413.518 538.073 404.443 537.448 403.998L535.981 402.977L537.676 402.412C542.28 400.873 553.338 398.06 556.235 397.339V390.524C547.268 393.012 539.815 391.822 534.07 387.002C515.151 371.124 521.113 321.578 521.365 319.475L521.461 318.742L544.9 316.939L570.971 316.037L571.103 316.818C572.534 325.401 578.832 337.757 580.851 341.531C582.967 339.175 588.508 333.73 593.172 335.281C598.52 337.06 600.756 339.031 600.756 346.592C600.756 353.13 592.559 359.405 590.395 360.943L597.102 393.637H607.944L606.634 395.128C606.129 395.705 594.001 409.347 574.733 412.857C572.245 413.326 569.793 413.518 567.413 413.518ZM540.08 403.541C544.78 406.354 559.131 413.867 574.409 411.09C589.325 408.373 600.071 399.094 603.821 395.44H595.624L588.376 360.126L588.881 359.789C588.977 359.717 598.941 352.998 598.941 346.592C598.941 340.089 597.511 338.634 592.583 336.988C588.784 335.726 583.195 341.387 581.368 343.671L580.527 344.716L579.878 343.538C579.529 342.913 571.476 328.333 569.456 317.876L544.972 318.718L523.072 320.4C522.399 326.675 518.264 371.352 535.224 385.596C540.717 390.199 548.001 391.161 556.86 388.433L558.026 388.072V398.71L557.341 398.878C557.232 398.938 546.09 401.739 540.08 403.541Z" fill="black"/>
<path d="M521.235 340.017C521.235 340.017 515.297 340.51 511.812 326.567C508.326 312.624 508.326 302.154 520.526 295.183C532.726 288.211 548.424 286.469 560.624 293.44C572.824 300.412 581.539 302.154 590.265 298.669C598.979 295.183 605.951 296.926 605.951 310.869C605.951 324.812 614.1 363.227 591.719 371.917L588.522 359.693C588.522 359.693 604.605 353.804 597.441 338.442C597.441 338.442 588.522 330.052 581.551 343.995C581.551 343.995 568.473 329.175 568.473 318.718C568.473 318.718 556.273 327.408 545.816 327.432C534.721 327.468 521.596 323.838 521.235 340.017Z" fill="black"/>
<path d="M442.49 526.576C442.49 526.576 388.401 566.242 399.219 593.887C410.037 621.533 458.994 612.698 488.01 596.676C517.025 580.654 537.916 548.597 537.916 548.597C537.916 548.597 476.146 522.97 442.49 526.576Z" fill="#FFFFFD"/>
<path d="M433.298 612.628C426.711 612.628 420.521 611.774 415.16 609.827C406.914 606.846 401.265 601.593 398.38 594.213C387.43 566.243 439.728 527.479 441.952 525.844L442.144 525.7L442.385 525.676C475.884 522.082 537.63 547.504 538.255 547.769L539.252 548.189L538.663 549.103C538.459 549.427 517.304 581.544 488.433 597.483C472.915 606.041 451.556 612.628 433.298 612.628ZM442.829 527.455C439.308 530.087 389.93 567.698 400.063 593.564C402.755 600.44 408.044 605.344 415.785 608.144C435.473 615.26 466.797 607.363 487.579 595.896C513.326 581.677 532.894 554.343 536.56 549.019C528.386 545.737 473.564 524.294 442.829 527.455Z" fill="black"/>
<path d="M396.587 452.366H527.615L576.896 567.757H430.627C424.605 567.757 419.184 564.079 416.96 558.477L382.92 472.475C379.11 462.824 386.226 452.366 396.587 452.366Z" fill="#FFFFFD"/>
<path d="M578.269 568.658H430.629C424.186 568.658 418.501 564.788 416.133 558.802L382.093 472.8C380.194 467.992 380.795 462.571 383.692 458.292C386.6 454.013 391.42 451.465 396.589 451.465H528.218L528.446 452.018L578.269 568.658ZM396.589 453.268C391.949 453.268 387.79 455.467 385.182 459.302C382.574 463.136 382.057 467.812 383.764 472.127L417.804 558.129C419.895 563.418 424.932 566.843 430.629 566.843H575.54L527.028 453.256H396.589V453.268Z" fill="black"/>
<path d="M633.405 562.348C633.405 559.355 630.989 556.939 627.996 556.939H582.922L541.093 461.177C538.761 455.828 533.472 452.366 527.63 452.366L576.912 567.757H627.996C630.977 567.757 633.405 565.329 633.405 562.348Z" fill="black"/>
<path d="M470.534 518.042C476.509 518.042 481.352 513.199 481.352 507.224C481.352 501.25 476.509 496.406 470.534 496.406C464.56 496.406 459.716 501.25 459.716 507.224C459.716 513.199 464.56 518.042 470.534 518.042Z" fill="black"/>
<path d="M490.053 452.571L488.298 452.15C488.443 451.573 491.796 437.931 498.083 430.334L499.477 431.488C493.455 438.76 490.077 452.438 490.053 452.571Z" fill="black"/>
<path d="M638.165 1048.12H589.136V1046.31H636.266C635.689 1035.15 630.328 929.289 630.641 888.878C630.977 846.424 633.405 771.397 633.429 770.639C633.525 769.846 642.096 699.386 644.884 671.74C647.036 650.369 644.956 646.378 644.86 646.21L646.375 645.236C646.639 645.633 648.899 649.756 646.663 671.908C643.887 699.578 635.304 770.062 635.208 770.771C635.184 771.445 632.756 846.448 632.432 888.878C632.107 931.296 638.045 1046 638.105 1047.16L638.165 1048.12Z" fill="#FFFFFD"/>
<path d="M722.266 543.981C722.266 543.981 739.767 639.142 706.52 649.575C673.273 660.008 654.859 651.775 631.011 637.868C607.164 623.937 556.681 580.665 545.863 563.838C535.045 547.01 525.429 539.798 532.641 532.586C539.853 525.374 559.83 538.536 566.068 543.969C572.306 549.414 562.691 526.576 569.902 526.576C577.114 526.576 578.316 548.212 585.528 554.222C592.74 560.232 653.5 577.011 653.5 577.011L649.967 563.946C649.967 563.946 706.364 532.526 722.266 543.981Z" fill="#FFFFFD"/>
<path d="M679.08 655.141C660.75 655.141 646.662 648.038 630.556 638.638C607.634 625.26 556.201 581.592 545.095 564.332C542.318 560.016 539.638 556.35 537.27 553.117C530.298 543.597 526.091 537.852 531.993 531.95C539.686 524.257 560.084 537.575 566.646 543.297C566.971 543.585 567.199 543.742 567.344 543.814C567.512 542.924 567.139 540.388 566.863 538.489C566.214 534.03 565.468 528.969 567.368 526.77C567.993 526.048 568.846 525.676 569.88 525.676C574.435 525.676 576.683 532.335 579.063 539.39C580.986 545.064 582.969 550.93 586.082 553.526C592.441 558.815 642.744 573.07 652.192 575.714L648.886 563.502L649.499 563.154C651.819 561.856 706.569 531.602 722.772 543.237L723.073 543.453L723.133 543.814C723.854 547.732 740.393 639.888 706.774 650.43C696.34 653.711 687.289 655.141 679.08 655.141ZM538.568 531.349C536.441 531.349 534.614 531.902 533.279 533.236C528.652 537.864 531.44 542.095 538.736 552.059C541.116 555.317 543.821 559.007 546.621 563.358C557.62 580.462 608.692 623.794 631.469 637.088C655.1 650.874 673.058 659.132 706.257 648.723C737.352 638.975 722.58 550.954 721.45 544.523C706.677 534.727 657.144 561.086 651.026 564.416L654.788 578.323L653.261 577.902C650.773 577.217 592.237 561.002 584.953 554.944C581.443 552.023 579.387 545.917 577.38 540.003C575.301 533.861 573.161 527.515 569.904 527.515C569.399 527.515 569.026 527.671 568.75 527.984C567.392 529.558 568.125 534.595 568.666 538.261C569.315 542.696 569.567 544.847 568.257 545.569C567.163 546.158 565.937 545.088 565.48 544.679C560.685 540.484 547.186 531.349 538.568 531.349Z" fill="black"/>
<path d="M620.387 394.539C620.387 394.539 658.85 399.347 682.481 426.644C703.516 450.948 711.678 493.57 715.067 504.761C718.457 515.951 736.126 536.674 726.354 542.07C716.582 547.467 660.317 566.11 646.578 563.754L614.377 460.648C614.377 460.648 596.347 404.155 620.387 394.539Z" fill="#FFD857"/>
<path d="M670.602 507.237L659.015 518.824C662.116 521.925 666.395 523.836 671.131 523.836C680.591 523.836 688.259 516.167 688.259 506.708C688.259 501.984 686.348 497.693 683.247 494.592L670.602 507.237Z" fill="#FFFFFD"/>
<path d="M665.109 461.333C674.569 461.333 682.238 453.664 682.238 444.205C682.238 439.481 680.326 435.19 677.225 432.089L664.593 444.722L653.005 456.309C656.094 459.422 660.385 461.333 665.109 461.333Z" fill="#FFFFFD"/>
<path d="M659.413 489.7C660.207 485.385 659.365 480.781 656.685 476.875C651.324 469.086 640.663 467.103 632.874 472.464C628.979 475.144 626.539 479.147 625.734 483.462L643.295 486.707L659.413 489.7Z" fill="#FFFFFD"/>
<path d="M653.246 434.492C652.392 430.189 649.904 426.222 645.974 423.59C638.113 418.325 627.475 420.429 622.211 428.29C619.578 432.22 618.785 436.848 619.638 441.139L637.163 437.665L653.246 434.492Z" fill="#FFFFFD"/>
<path d="M721.397 517.742L715.075 524.065L703.488 535.652C706.589 538.753 710.868 540.664 715.604 540.664C721.013 540.664 725.821 538.152 728.958 534.233C727.972 529.498 724.619 523.512 721.397 517.742Z" fill="#FFFFFD"/>
<path d="M703.983 466.573C697.612 465.587 690.953 468.243 687.131 473.953C684.498 477.883 683.705 482.511 684.558 486.802L702.083 483.328L708.947 481.97C707.54 477.162 705.894 471.933 703.983 466.573Z" fill="#FFFFFD"/>
<path d="M661.816 411.57C661.936 410.933 662.009 410.296 662.045 409.659C651.191 403.072 640.18 399.226 632.199 397.062C630.072 399.442 628.689 402.303 628.125 405.344L645.686 408.59L661.816 411.57Z" fill="#FFFFFD"/>
<path d="M643.679 539.786C642.296 540.735 641.107 541.853 640.109 543.091L642.873 551.95L654.112 554.029L670.231 557.01C671.024 552.695 670.182 548.091 667.502 544.185C662.141 536.396 651.468 534.425 643.679 539.786Z" fill="#FFFFFD"/>
<path d="M644.389 565.569L644.172 564.884C644.004 564.343 627.008 510.939 620.589 486.936L622.332 486.467C628.342 508.956 643.667 557.336 645.675 563.646L652.778 563.105L652.923 564.908L644.389 565.569Z" fill="black"/>
<path d="M555.564 804.956C555.504 804.163 549.698 724.663 560.516 672.137L562.283 672.497C551.525 724.772 557.307 804.018 557.367 804.812L555.564 804.956Z" fill="black"/>
<path d="M534.042 341.734C531.334 340.208 526.559 337.41 521.227 342.893" stroke="black" stroke-linecap="round"/>
<path d="M566.759 339.029C564.051 337.503 559.276 334.705 553.944 340.188" stroke="black" stroke-linecap="round"/>
<path d="M543.319 344.291C544.713 352.562 532.475 367.234 548.493 365.786" stroke="black" stroke-linecap="round"/>
<ellipse cx="3.21668" cy="3.86002" rx="3.21668" ry="3.86002" transform="matrix(-0.995935 0.0900772 0.0900772 0.995935 562.947 347.038)" fill="black"/>
<ellipse cx="3.21668" cy="3.86002" rx="3.21668" ry="3.86002" transform="matrix(-0.995935 0.0900772 0.0900772 0.995935 532.195 349.819)" fill="black"/>
<path d="M555.876 375.825C552.875 377.816 549.262 381.125 541.26 378.215" stroke="black" stroke-linecap="round"/>
<path d="M282.834 725.139H136.664C127.789 725.139 120.601 717.951 120.601 709.077V662.752C120.601 653.877 127.789 646.689 136.664 646.689H282.834C291.708 646.689 298.896 653.877 298.896 662.752V709.077C298.896 717.951 291.708 725.139 282.834 725.139Z" fill="#FFFFFD"/>
<path d="M282.835 725.743H136.665C127.477 725.743 120 718.265 120 709.078V662.753C120 653.565 127.477 646.088 136.665 646.088H282.835C292.022 646.088 299.5 653.565 299.5 662.753V709.078C299.5 718.273 292.022 725.743 282.835 725.743ZM136.665 647.293C128.143 647.293 121.204 654.232 121.204 662.753V709.078C121.204 717.599 128.143 724.538 136.665 724.538H282.835C291.356 724.538 298.295 717.599 298.295 709.078V662.753C298.295 654.232 291.356 647.293 282.835 647.293H136.665Z" fill="black"/>
<path d="M154.052 703.842C164.462 703.842 172.902 695.402 172.902 684.992C172.902 674.582 164.462 666.143 154.052 666.143C143.642 666.143 135.203 674.582 135.203 684.992C135.203 695.402 143.642 703.842 154.052 703.842Z" fill="#B744B8"/>
<path d="M276.193 691.031H190.868C187.19 691.031 184.21 694.011 184.21 697.689C184.21 701.368 187.19 704.347 190.868 704.347H276.201C279.88 704.347 282.859 701.368 282.859 697.689C282.851 694.011 279.871 691.031 276.193 691.031Z" fill="#FFFFFD"/>
<path d="M191.157 678.984H227.845C231.523 678.984 234.503 676.004 234.503 672.326C234.503 668.648 231.523 665.668 227.845 665.668H191.157C187.479 665.668 184.5 668.648 184.5 672.326C184.508 676.004 187.487 678.984 191.157 678.984Z" fill="#FFFFFD"/>
<path d="M276.192 690.43H190.867C186.868 690.43 183.607 693.682 183.607 697.69C183.607 701.69 186.86 704.95 190.867 704.95H276.2C280.2 704.95 283.46 701.698 283.46 697.69C283.452 693.682 280.192 690.43 276.192 690.43ZM276.192 703.738H190.867C187.526 703.738 184.812 701.023 184.812 697.682C184.812 694.341 187.526 691.626 190.867 691.626H276.2C279.541 691.626 282.256 694.341 282.256 697.682C282.248 701.023 279.533 703.738 276.192 703.738Z" fill="black"/>
<path d="M191.156 679.587H227.835C231.835 679.587 235.096 676.334 235.096 672.327C235.096 668.327 231.843 665.066 227.835 665.066H191.156C187.157 665.066 183.896 668.319 183.896 672.327C183.904 676.334 187.157 679.587 191.156 679.587ZM191.156 666.279H227.835C231.176 666.279 233.891 668.994 233.891 672.335C233.891 675.676 231.176 678.39 227.835 678.39H191.156C187.815 678.39 185.101 675.676 185.101 672.335C185.109 668.994 187.823 666.279 191.156 666.279Z" fill="black"/>
<path d="M732.33 262.544H626.508C611.146 262.544 598.695 250.093 598.695 234.73V169.748C598.695 154.386 611.146 141.935 626.508 141.935H732.33C747.693 141.935 760.144 154.386 760.144 169.748V234.73C760.144 250.093 747.693 262.544 732.33 262.544Z" fill="#FFFFFD"/>
<path d="M732.33 263.248H626.509C610.785 263.248 598 250.463 598 234.739V169.757C598 154.033 610.785 141.248 626.509 141.248H732.33C748.054 141.248 760.839 154.033 760.839 169.757V234.739C760.839 250.454 748.054 263.248 732.33 263.248ZM626.509 142.629C611.554 142.629 599.39 154.793 599.39 169.748V234.73C599.39 249.684 611.554 261.848 626.509 261.848H732.33C747.285 261.848 759.449 249.684 759.449 234.73V169.748C759.449 154.793 747.285 142.629 732.33 142.629H626.509Z" fill="black"/>
<path d="M679.689 195.661C689.438 195.661 697.341 187.758 697.341 178.009C697.341 168.26 689.438 160.356 679.689 160.356C669.94 160.356 662.037 168.26 662.037 178.009C662.037 187.758 669.94 195.661 679.689 195.661Z" fill="#FFD857"/>
<path d="M679.021 198.674C661.508 198.674 647.304 212.868 647.304 230.391V242.026H710.729V230.391C710.729 212.877 696.534 198.674 679.021 198.674Z" fill="#FFD857"/>
<path d="M405.787 368.357H188.743C177.081 368.357 167.632 358.908 167.632 347.246V287.832C167.632 276.171 177.081 266.722 188.743 266.722H405.795C417.457 266.722 426.906 276.171 426.906 287.832V347.246C426.897 358.899 417.448 368.357 405.787 368.357Z" fill="#FFFFFD"/>
<path d="M405.787 368.99H188.744C176.753 368.99 167 359.237 167 347.246V287.832C167 275.841 176.753 266.088 188.744 266.088H405.796C417.786 266.088 427.54 275.841 427.54 287.832V347.246C427.531 359.237 417.778 368.99 405.787 368.99ZM188.744 267.355C177.454 267.355 168.266 276.542 168.266 287.832V347.246C168.266 358.536 177.454 367.723 188.744 367.723H405.796C417.086 367.723 426.273 358.536 426.273 347.246V287.832C426.273 276.542 417.086 267.355 405.796 267.355H188.744Z" fill="black"/>
<path d="M380.141 315.242H214.296C211.593 315.242 209.398 317.438 209.398 320.14V320.646C209.398 323.349 211.593 325.544 214.296 325.544H380.141C382.844 325.544 385.039 323.349 385.039 320.646V320.14C385.039 317.438 382.844 315.242 380.141 315.242Z" fill="#FFFFFD"/>
<path d="M214.844 305.928H297.202C299.904 305.928 302.099 303.733 302.099 301.03V300.524C302.099 297.822 299.904 295.626 297.202 295.626H214.844C212.142 295.626 209.947 297.822 209.947 300.524V301.03C209.947 303.733 212.134 305.928 214.844 305.928Z" fill="#FFFFFD"/>
<path d="M380.141 335.002H214.819C212.117 335.002 209.921 337.197 209.921 339.9V340.406C209.921 343.108 212.117 345.304 214.819 345.304H380.133C382.835 345.304 385.03 343.108 385.03 340.406V339.9C385.039 337.197 382.843 335.002 380.141 335.002Z" fill="#FFFFFD"/>
<path d="M380.144 314.608H214.298C211.25 314.608 208.767 317.091 208.767 320.139V320.646C208.767 323.694 211.25 326.177 214.298 326.177H380.144C383.192 326.177 385.675 323.694 385.675 320.646V320.139C385.675 317.091 383.192 314.608 380.144 314.608ZM384.408 320.654C384.408 323.01 382.491 324.919 380.144 324.919H214.298C211.942 324.919 210.034 323.002 210.034 320.654V320.148C210.034 317.792 211.951 315.883 214.298 315.883H380.144C382.5 315.883 384.408 317.8 384.408 320.148V320.654Z" fill="black"/>
<path d="M214.847 306.561H297.204C300.252 306.561 302.735 304.078 302.735 301.03V300.523C302.735 297.475 300.252 294.992 297.204 294.992H214.847C211.799 294.992 209.316 297.475 209.316 300.523V301.03C209.316 304.078 211.79 306.561 214.847 306.561ZM210.583 300.515C210.583 298.159 212.499 296.25 214.847 296.25H297.204C299.56 296.25 301.468 298.167 301.468 300.515V301.021C301.468 303.377 299.552 305.286 297.204 305.286H214.847C212.491 305.286 210.583 303.369 210.583 301.021V300.515Z" fill="black"/>
<path d="M380.144 334.368H214.822C211.773 334.368 209.291 336.851 209.291 339.899V340.406C209.291 343.454 211.773 345.937 214.822 345.937H380.135C383.184 345.937 385.666 343.454 385.666 340.406V339.899C385.675 336.851 383.192 334.368 380.144 334.368ZM384.408 340.414C384.408 342.77 382.491 344.679 380.144 344.679H214.822C212.466 344.679 210.557 342.762 210.557 340.414V339.908C210.557 337.552 212.474 335.643 214.822 335.643H380.135C382.491 335.643 384.4 337.56 384.4 339.908V340.414H384.408Z" fill="black"/>
</svg>
