<svg width="930" height="878" viewBox="0 0 930 878" fill="none" xmlns="http://www.w3.org/2000/svg">
<path d="M291.398 756.123C248.162 771.9 201.727 742.374 197.674 696.528L172.817 415.324C170.283 386.66 185.549 359.365 211.3 346.52L649.607 127.891C686.606 109.436 731.455 126.9 746.23 165.516L863.393 471.726C877.36 508.231 858.728 549.102 822.011 562.5L291.398 756.123Z" fill="#29A37A" fill-opacity="0.3"/>
<path d="M404.435 117.188C423.616 76.1205 476.176 63.8338 511.575 92.1419L740.144 274.922C762.89 293.112 771.997 323.486 763.01 351.19L623.663 780.777C610.828 820.346 566.522 840.057 528.538 823.096L218.05 684.455C182.325 668.502 166.611 626.363 183.168 590.914L404.435 117.188Z" fill="#B744B8" fill-opacity="0.3"/>
<path d="M466.122 400.118C466.122 400.118 432.726 521.041 429.925 568.121C427.133 615.202 446.992 730.913 446.992 730.913H494.784C494.784 730.913 500.524 635.156 505.936 588.709C511.338 542.261 534.554 463.831 529.012 400.118C529.012 400.118 477.439 387.543 466.122 400.118Z" fill="#0E110F"/>
<path d="M443.506 710.897L443.488 709.597L480.145 709.172C480.31 701.011 482.009 616.884 483.067 599.332C484.082 582.543 487.889 570.15 493.153 552.997C499.458 532.453 508.095 504.321 515.856 453.555L517.14 453.754C509.361 504.616 500.715 532.8 494.393 553.379C489.155 570.445 485.374 582.777 484.36 599.41C483.25 617.751 481.437 708.912 481.42 709.831L481.411 710.464L443.506 710.897Z" fill="#FFFFFD"/>
<path d="M450.859 730.912L454.233 747.268L425.953 767.387V776.198H493.786V761.1L489.667 730.912H450.859Z" fill="black"/>
<path d="M491.93 248.816C491.93 248.816 458.569 265.545 453.539 281.892C448.51 298.238 447.252 314.594 438.45 320.881C429.648 327.168 427.133 328.426 433.42 333.456C439.707 338.485 467.302 361.163 467.302 361.163L491.93 248.816Z" fill="#29A37A"/>
<path d="M478.333 270.826C478.333 267.418 476.954 264.322 474.716 262.085L465.602 271.199L457.242 279.559C459.48 281.797 462.567 283.175 465.984 283.175C472.809 283.184 478.333 277.651 478.333 270.826Z" fill="#FFFFFD"/>
<path d="M526.747 400.525C526.747 400.525 505.934 466.432 518.361 568.121C524.085 614.932 541.854 730.912 541.854 730.912H589.646C589.646 730.912 591.935 646.455 590.92 595.646C588.666 483.352 617.058 466.779 589.385 393.83C589.385 393.83 538.064 387.95 526.747 400.525Z" fill="#0E110F"/>
<path d="M501.34 244.159C501.34 244.159 467.38 256.734 466.122 285.664C464.865 314.594 467.38 353.583 467.38 366.158C467.38 378.732 457.32 396.345 466.122 400.117C474.925 403.89 534.042 415.207 589.387 393.83C589.387 393.83 595.674 323.396 595.674 288.179C595.674 252.961 585.614 237.872 550.397 237.872L501.34 244.159Z" fill="#29A37A"/>
<path d="M565.086 383.58L556.727 391.94C558.964 394.177 562.051 395.556 565.468 395.556C572.293 395.556 577.826 390.023 577.826 383.198C577.826 379.79 576.447 376.694 574.209 374.457L565.086 383.58Z" fill="#FFFFFD"/>
<path d="M562.208 299.955C562.208 296.547 560.829 293.451 558.591 291.214L549.477 300.328L541.117 308.688C543.355 310.925 546.442 312.304 549.859 312.304C556.684 312.313 562.208 306.78 562.208 299.955Z" fill="#FFFFFD"/>
<path d="M522.594 330.681L514.234 339.04C516.472 341.278 519.559 342.657 522.976 342.657C529.801 342.657 535.334 337.124 535.334 330.299C535.334 326.891 533.955 323.795 531.717 321.558L522.594 330.681Z" fill="#FFFFFD"/>
<path d="M494.567 275.674C494.567 272.266 493.188 269.17 490.951 266.933L481.836 276.047L473.477 284.407C475.714 286.644 478.801 288.023 482.218 288.023C489.043 288.032 494.567 282.499 494.567 275.674Z" fill="#FFFFFD"/>
<path d="M561.116 353.878C557.248 348.258 549.556 346.828 543.936 350.695C541.127 352.629 539.366 355.517 538.785 358.63L551.455 360.972L563.084 363.122C563.657 360.018 563.05 356.688 561.116 353.878Z" fill="#FFFFFD"/>
<path d="M470.216 387.118C467.406 389.052 465.645 391.94 465.064 395.053L477.734 397.394L489.364 399.545C489.936 396.432 489.329 393.11 487.395 390.292C483.536 384.672 475.844 383.25 470.216 387.118Z" fill="#FFFFFD"/>
<path d="M569.155 272.066C569.727 268.953 569.12 265.632 567.186 262.813C563.318 257.194 555.626 255.763 550.007 259.631C547.197 261.565 545.436 264.452 544.855 267.566L557.525 269.907L569.155 272.066Z" fill="#FFFFFD"/>
<path d="M526.662 382.201C527.235 379.088 526.628 375.767 524.694 372.948C520.826 367.329 513.134 365.898 507.514 369.766C504.705 371.699 502.944 374.587 502.363 377.701L515.033 380.042L526.662 382.201Z" fill="#FFFFFD"/>
<path d="M532.733 295.481C533.305 292.367 532.698 289.046 530.764 286.228C526.896 280.608 519.204 279.177 513.585 283.045C510.775 284.979 509.015 287.867 508.434 290.98L521.103 293.321L532.733 295.481Z" fill="#FFFFFD"/>
<path d="M488.359 346.646C482.687 342.847 475.012 344.365 471.214 350.036C469.315 352.872 468.742 356.211 469.358 359.307L482.002 356.801L493.605 354.502C492.989 351.407 491.194 348.545 488.359 346.646Z" fill="#FFFFFD"/>
<path d="M500.499 309.356C494.828 305.557 487.153 307.075 483.355 312.746C481.455 315.582 480.883 318.921 481.499 322.017L494.143 319.51L505.746 317.212C505.13 314.117 503.335 311.255 500.499 309.356Z" fill="#FFFFFD"/>
<path d="M584.618 322.364C578.947 318.566 571.272 320.084 567.474 325.755C565.574 328.591 565.002 331.93 565.618 335.026L578.262 332.519L589.865 330.221C589.249 327.125 587.454 324.263 584.618 322.364Z" fill="#FFFFFD"/>
<path d="M581.01 364.19C583.247 366.427 586.334 367.806 589.751 367.806C590.358 367.806 590.948 367.745 591.538 367.658C591.902 362.975 592.275 357.876 592.656 352.543L589.378 355.821L581.01 364.19Z" fill="#FFFFFD"/>
<path d="M519.647 400.126C517.314 401.731 515.719 403.994 514.912 406.492C522.179 406.552 529.958 406.275 538.049 405.529C537.728 404.766 537.321 404.02 536.835 403.309C532.967 397.681 525.275 396.259 519.647 400.126Z" fill="#FFFFFD"/>
<path d="M581.349 281.528C579.449 284.364 578.877 287.702 579.493 290.798L592.137 288.292L595.675 287.59C595.666 283.67 595.519 280.002 595.233 276.576C590.151 275.032 584.453 276.888 581.349 281.528Z" fill="#FFFFFD"/>
<path d="M583.03 248.652C583.142 248.036 583.194 247.403 583.22 246.779C578.026 242.295 570.915 239.589 561.427 238.471C560.04 240.127 559.121 242.096 558.73 244.16L571.4 246.501L583.03 248.652Z" fill="#FFFFFD"/>
<path d="M530.989 247.056C530.989 244.68 530.312 242.478 529.15 240.596L524.502 241.194L518.258 247.438L509.898 255.798C512.136 258.035 515.223 259.414 518.64 259.414C525.465 259.414 530.989 253.881 530.989 247.056Z" fill="#FFFFFD"/>
<path d="M502.37 245.322C502.37 244.888 502.345 244.454 502.301 244.038L501.338 244.16C501.338 244.16 491.843 247.68 482.711 255.268C484.758 256.777 487.281 257.679 490.022 257.679C496.846 257.679 502.37 252.146 502.37 245.322Z" fill="#FFFFFD"/>
<path d="M507.001 183.152L490.654 184.409C490.654 184.409 483.11 244.784 515.812 234.716V241.003C515.812 241.003 505.752 243.518 501.98 244.775C501.98 244.775 514.555 253.577 528.395 251.062C542.227 248.547 551.038 238.488 551.038 238.488H544.118L539.088 213.963C539.088 213.963 546.633 208.934 546.633 203.904C546.633 198.874 545.375 197.617 541.603 196.359C537.83 195.102 532.801 201.389 532.801 201.389C532.801 201.389 526.513 190.072 525.256 182.519L507.001 183.152Z" fill="#FFFFFD"/>
<path d="M523.217 252.182C511.553 252.182 502.049 245.634 501.598 245.314L500.54 244.576L501.763 244.169C505.084 243.059 513.062 241.03 515.152 240.509V235.592C508.683 237.387 503.306 236.529 499.161 233.051C485.511 221.596 489.813 185.849 489.995 184.332L490.064 183.803L506.974 182.502L525.784 181.852L525.88 182.415C526.912 188.607 531.456 197.522 532.913 200.245C534.439 198.545 538.437 194.617 541.801 195.736C545.66 197.019 547.274 198.441 547.274 203.896C547.274 208.613 541.359 213.14 539.798 214.25L544.637 237.838H552.459L551.514 238.914C551.15 239.33 542.4 249.173 528.499 251.705C526.703 252.043 524.934 252.182 523.217 252.182ZM503.497 244.984C506.888 247.013 517.242 252.433 528.264 250.43C539.026 248.47 546.779 241.775 549.485 239.139H543.571L538.341 213.661L538.706 213.418C538.775 213.366 545.964 208.518 545.964 203.896C545.964 199.204 544.932 198.155 541.377 196.967C538.636 196.056 534.604 200.141 533.286 201.789L532.678 202.543L532.21 201.693C531.959 201.242 526.148 190.723 524.692 183.178L507.027 183.785L491.226 185C490.741 189.526 487.757 221.76 499.994 232.037C503.957 235.358 509.212 236.052 515.603 234.083L516.444 233.823V241.498L515.95 241.619C515.872 241.663 507.833 243.683 503.497 244.984Z" fill="black"/>
<path d="M489.902 199.152C489.902 199.152 485.618 199.507 483.103 189.448C480.588 179.388 480.588 171.835 489.39 166.805C498.192 161.775 509.518 160.518 518.32 165.548C527.122 170.577 533.41 171.835 539.705 169.32C545.993 166.805 551.022 168.063 551.022 178.122C551.022 188.182 556.902 215.898 540.755 222.167L538.448 213.348C538.448 213.348 550.051 209.099 544.883 198.016C544.883 198.016 538.448 191.963 533.418 202.022C533.418 202.022 523.983 191.33 523.983 183.785C523.983 183.785 515.181 190.055 507.636 190.072C499.632 190.098 490.162 187.479 489.902 199.152Z" fill="black"/>
<path d="M548.231 730.912L548.144 749.782L522.986 767.387V776.198H593.421V761.1L587.047 730.912H548.231Z" fill="black"/>
<path d="M433.089 333.751C433.089 333.751 394.065 362.369 401.87 382.314C409.675 402.26 444.996 395.886 465.93 384.326C486.865 372.766 501.937 349.638 501.937 349.638C501.937 349.638 457.371 331.149 433.089 333.751Z" fill="#FFFFFD"/>
<path d="M426.456 395.833C421.704 395.833 417.238 395.218 413.37 393.813C407.421 391.662 403.345 387.872 401.264 382.548C393.364 362.368 431.096 334.401 432.7 333.221L432.839 333.117L433.012 333.1C457.181 330.507 501.729 348.848 502.18 349.039L502.9 349.342L502.475 350.002C502.328 350.236 487.065 373.407 466.235 384.907C455.039 391.081 439.629 395.833 426.456 395.833ZM433.333 334.383C430.792 336.282 395.167 363.417 402.478 382.079C404.42 387.04 408.236 390.578 413.821 392.599C428.026 397.732 450.625 392.035 465.619 383.762C484.195 373.503 498.313 353.783 500.958 349.941C495.061 347.573 455.508 332.102 433.333 334.383Z" fill="black"/>
<path d="M399.971 280.209H494.505L530.06 363.461H424.53C420.186 363.461 416.274 360.807 414.67 356.766L390.111 294.717C387.362 287.754 392.496 280.209 399.971 280.209Z" fill="#FFFFFD"/>
<path d="M531.05 364.111H424.531C419.883 364.111 415.781 361.319 414.073 357L389.514 294.951C388.143 291.483 388.577 287.572 390.667 284.484C392.765 281.397 396.243 279.559 399.972 279.559H494.939L495.104 279.958L531.05 364.111ZM399.972 280.859C396.625 280.859 393.624 282.446 391.742 285.213C389.86 287.979 389.487 291.353 390.719 294.466L415.278 356.514C416.787 360.33 420.421 362.801 424.531 362.801H529.081L494.081 280.851H399.972V280.859Z" fill="black"/>
<path d="M570.83 359.558C570.83 357.399 569.086 355.656 566.927 355.656H534.407L504.228 286.566C502.546 282.707 498.73 280.209 494.516 280.209L530.071 363.461H566.927C569.078 363.461 570.83 361.709 570.83 359.558Z" fill="black"/>
<path d="M453.322 327.593C457.633 327.593 461.127 324.099 461.127 319.788C461.127 315.478 457.633 311.983 453.322 311.983C449.012 311.983 445.518 315.478 445.518 319.788C445.518 324.099 449.012 327.593 453.322 327.593Z" fill="black"/>
<path d="M467.405 280.357L466.139 280.053C466.243 279.637 468.662 269.794 473.198 264.313L474.204 265.146C469.859 270.393 467.422 280.261 467.405 280.357Z" fill="black"/>
<path d="M574.264 710.031H538.891V708.73H572.894C572.477 700.674 568.61 624.299 568.835 595.144C569.078 564.514 570.83 510.383 570.847 509.837C570.916 509.264 577.1 458.429 579.112 438.483C580.664 423.064 579.164 420.185 579.094 420.064L580.187 419.361C580.378 419.648 582.008 422.622 580.395 438.605C578.392 458.568 572.2 509.42 572.131 509.932C572.113 510.418 570.361 564.531 570.127 595.144C569.893 625.747 574.177 708.504 574.221 709.337L574.264 710.031Z" fill="#FFFFFD"/>
<path d="M634.941 346.308C634.941 346.308 647.567 414.965 623.58 422.492C599.593 430.019 586.308 424.079 569.102 414.045C551.897 403.995 515.475 372.775 507.67 360.634C499.865 348.493 492.927 343.29 498.13 338.087C503.334 332.884 517.747 342.38 522.247 346.299C526.748 350.228 519.811 333.751 525.014 333.751C530.217 333.751 531.084 349.361 536.287 353.697C541.491 358.033 585.328 370.139 585.328 370.139L582.778 360.712C582.778 360.712 623.467 338.044 634.941 346.308Z" fill="#FFFFFD"/>
<path d="M603.784 426.507C590.559 426.507 580.395 421.382 568.775 414.6C552.237 404.948 515.129 373.443 507.116 360.99C505.113 357.877 503.179 355.232 501.471 352.899C496.441 346.031 493.406 341.885 497.664 337.627C503.214 332.077 517.93 341.686 522.665 345.814C522.9 346.022 523.064 346.135 523.168 346.187C523.29 345.545 523.021 343.715 522.821 342.345C522.353 339.128 521.815 335.477 523.186 333.89C523.637 333.369 524.252 333.101 524.998 333.101C528.285 333.101 529.906 337.905 531.624 342.995C533.011 347.089 534.442 351.321 536.688 353.194C541.275 357.009 577.568 367.294 584.384 369.202L581.999 360.392L582.442 360.14C584.115 359.203 623.617 337.376 635.307 345.77L635.523 345.927L635.567 346.187C636.087 349.014 648.02 415.502 623.764 423.108C616.237 425.475 609.707 426.507 603.784 426.507ZM502.407 337.194C500.873 337.194 499.554 337.593 498.592 338.555C495.253 341.894 497.265 344.947 502.529 352.136C504.246 354.486 506.197 357.148 508.218 360.287C516.153 372.628 553 403.89 569.434 413.482C586.483 423.429 599.439 429.386 623.391 421.876C645.826 414.843 635.168 351.338 634.352 346.698C623.695 339.631 587.957 358.648 583.543 361.051L586.257 371.084L585.156 370.781C583.361 370.286 541.128 358.588 535.873 354.217C533.341 352.11 531.858 347.704 530.409 343.438C528.909 339.006 527.366 334.427 525.015 334.427C524.651 334.427 524.382 334.54 524.183 334.766C523.203 335.902 523.732 339.535 524.122 342.18C524.59 345.38 524.773 346.933 523.827 347.453C523.038 347.878 522.154 347.106 521.824 346.811C518.364 343.785 508.625 337.194 502.407 337.194Z" fill="black"/>
<path d="M561.437 238.488C561.437 238.488 589.187 241.957 606.237 261.651C621.413 279.186 627.301 309.937 629.747 318.011C632.192 326.085 644.94 341.035 637.89 344.929C630.839 348.823 590.245 362.273 580.333 360.573L557.101 286.184C557.101 286.184 544.093 245.426 561.437 238.488Z" fill="#29A37A"/>
<path d="M597.666 319.798L589.307 328.158C591.544 330.395 594.631 331.774 598.048 331.774C604.873 331.774 610.406 326.241 610.406 319.416C610.406 316.008 609.027 312.912 606.79 310.675L597.666 319.798Z" fill="#FFFFFD"/>
<path d="M593.703 286.679C600.528 286.679 606.061 281.146 606.061 274.322C606.061 270.913 604.682 267.817 602.445 265.58L593.331 274.694L584.971 283.054C587.199 285.3 590.295 286.679 593.703 286.679Z" fill="#FFFFFD"/>
<path d="M589.594 307.145C590.166 304.031 589.559 300.71 587.625 297.892C583.758 292.272 576.066 290.841 570.446 294.709C567.636 296.643 565.876 299.531 565.295 302.644L577.965 304.985L589.594 307.145Z" fill="#FFFFFD"/>
<path d="M585.144 267.314C584.528 264.209 582.733 261.347 579.898 259.448C574.226 255.65 566.551 257.168 562.753 262.839C560.854 265.675 560.281 269.014 560.897 272.109L573.541 269.603L585.144 267.314Z" fill="#FFFFFD"/>
<path d="M634.314 327.377L629.752 331.938L621.393 340.298C623.63 342.536 626.717 343.915 630.134 343.915C634.036 343.915 637.505 342.102 639.769 339.275C639.057 335.858 636.638 331.54 634.314 327.377Z" fill="#FFFFFD"/>
<path d="M621.749 290.46C617.153 289.749 612.349 291.665 609.591 295.785C607.692 298.62 607.119 301.959 607.735 305.055L620.379 302.549L625.331 301.569C624.316 298.1 623.128 294.328 621.749 290.46Z" fill="#FFFFFD"/>
<path d="M591.327 250.777C591.414 250.317 591.466 249.857 591.492 249.398C583.661 244.646 575.718 241.871 569.959 240.31C568.424 242.027 567.427 244.091 567.02 246.285L579.689 248.626L591.327 250.777Z" fill="#FFFFFD"/>
<path d="M578.242 343.281C577.244 343.966 576.386 344.773 575.666 345.666L577.661 352.057L585.769 353.557L597.398 355.708C597.97 352.595 597.363 349.273 595.43 346.455C591.562 340.836 583.861 339.413 578.242 343.281Z" fill="#FFFFFD"/>
<path d="M578.755 361.882L578.599 361.388C578.477 360.998 566.215 322.468 561.584 305.15L562.841 304.812C567.177 321.037 578.234 355.942 579.683 360.495L584.808 360.104L584.912 361.405L578.755 361.882Z" fill="black"/>
<path d="M514.669 534.595C514.626 534.022 510.437 476.665 518.242 438.769L519.517 439.029C511.755 476.743 515.926 533.918 515.97 534.491L514.669 534.595Z" fill="black"/>
<path d="M499.142 200.391C497.188 199.289 493.743 197.271 489.896 201.227" stroke="black" stroke-linecap="round"/>
<path d="M522.745 198.439C520.792 197.337 517.347 195.319 513.5 199.275" stroke="black" stroke-linecap="round"/>
<path d="M505.835 202.235C506.841 208.203 498.011 218.789 509.568 217.743" stroke="black" stroke-linecap="round"/>
<ellipse cx="2.32076" cy="2.78492" rx="2.32076" ry="2.78492" transform="matrix(-0.995935 0.0900772 0.0900772 0.995935 519.996 204.217)" fill="black"/>
<ellipse cx="2.32076" cy="2.78492" rx="2.32076" ry="2.78492" transform="matrix(-0.995935 0.0900772 0.0900772 0.995935 497.809 206.224)" fill="black"/>
<path d="M514.895 224.987C512.729 226.424 510.122 228.811 504.349 226.711" stroke="black" stroke-linecap="round"/>
<path d="M340.559 485.398H194.389C185.514 485.398 178.326 478.21 178.326 469.336V423.011C178.326 414.136 185.514 406.948 194.389 406.948H340.559C349.433 406.948 356.621 414.136 356.621 423.011V469.336C356.621 478.21 349.433 485.398 340.559 485.398Z" fill="#FFFFFD"/>
<path d="M340.56 486H194.39C185.202 486 177.725 478.523 177.725 469.335V423.011C177.725 413.823 185.202 406.346 194.39 406.346H340.56C349.747 406.346 357.225 413.823 357.225 423.011V469.335C357.225 478.531 349.747 486 340.56 486ZM194.39 407.55C185.868 407.55 178.929 414.489 178.929 423.011V469.335C178.929 477.857 185.868 484.796 194.39 484.796H340.56C349.081 484.796 356.02 477.857 356.02 469.335V423.011C356.02 414.489 349.081 407.55 340.56 407.55H194.39Z" fill="black"/>
<path d="M211.777 464.099C222.188 464.099 230.627 455.66 230.627 445.25C230.627 434.84 222.188 426.4 211.777 426.4C201.367 426.4 192.928 434.84 192.928 445.25C192.928 455.66 201.367 464.099 211.777 464.099Z" fill="#B744B8"/>
<path d="M333.918 451.289H248.593C244.915 451.289 241.936 454.269 241.936 457.947C241.936 461.625 244.915 464.605 248.593 464.605H333.926C337.605 464.605 340.584 461.625 340.584 457.947C340.576 454.269 337.597 451.289 333.918 451.289Z" fill="#FFFFFD"/>
<path d="M248.883 439.242H285.57C289.248 439.242 292.228 436.262 292.228 432.584C292.228 428.905 289.248 425.926 285.57 425.926H248.883C245.204 425.926 242.225 428.905 242.225 432.584C242.233 436.262 245.212 439.242 248.883 439.242Z" fill="#FFFFFD"/>
<path d="M333.917 450.687H248.592C244.593 450.687 241.332 453.939 241.332 457.947C241.332 461.946 244.585 465.207 248.592 465.207H333.925C337.925 465.207 341.185 461.954 341.185 457.947C341.177 453.939 337.917 450.687 333.917 450.687ZM333.917 463.994H248.592C245.251 463.994 242.537 461.28 242.537 457.939C242.537 454.598 245.251 451.883 248.592 451.883H333.925C337.266 451.883 339.981 454.598 339.981 457.939C339.973 461.28 337.258 463.994 333.917 463.994Z" fill="black"/>
<path d="M248.881 439.844H285.56C289.56 439.844 292.821 436.591 292.821 432.584C292.821 428.584 289.568 425.323 285.56 425.323H248.881C244.882 425.323 241.621 428.576 241.621 432.584C241.629 436.591 244.882 439.844 248.881 439.844ZM248.881 426.536H285.56C288.901 426.536 291.616 429.251 291.616 432.592C291.616 435.933 288.901 438.647 285.56 438.647H248.881C245.54 438.647 242.826 435.933 242.826 432.592C242.834 429.251 245.548 426.536 248.881 426.536Z" fill="black"/>
<path d="M736.055 184.642H630.234C614.871 184.642 602.42 172.19 602.42 156.828V91.8459C602.42 76.4835 614.871 64.0322 630.234 64.0322H736.055C751.418 64.0322 763.869 76.4835 763.869 91.8459V156.828C763.869 172.19 751.418 184.642 736.055 184.642Z" fill="#FFFFFD"/>
<path d="M736.055 185.346H630.234C614.51 185.346 601.725 172.561 601.725 156.837V91.8547C601.725 76.1307 614.51 63.3457 630.234 63.3457H736.055C751.779 63.3457 764.564 76.1307 764.564 91.8547V156.837C764.564 172.551 751.779 185.346 736.055 185.346ZM630.234 64.7271C615.279 64.7271 603.115 76.891 603.115 91.8454V156.827C603.115 171.782 615.279 183.946 630.234 183.946H736.055C751.01 183.946 763.174 171.782 763.174 156.827V91.8454C763.174 76.891 751.01 64.7271 736.055 64.7271H630.234Z" fill="black"/>
<path d="M683.414 117.759C693.163 117.759 701.067 109.856 701.067 100.106C701.067 90.3573 693.163 82.4541 683.414 82.4541C673.665 82.4541 665.762 90.3573 665.762 100.106C665.762 109.856 673.665 117.759 683.414 117.759Z" fill="#29A37A"/>
<path d="M682.746 120.771C665.233 120.771 651.029 134.966 651.029 152.488V164.124H714.454V152.488C714.454 134.975 700.259 120.771 682.746 120.771Z" fill="#29A37A"/>
<path d="M356.512 233.615H139.468C127.807 233.615 118.357 224.166 118.357 212.504V153.09C118.357 141.429 127.807 131.979 139.468 131.979H356.52C368.182 131.979 377.631 141.429 377.631 153.09V212.504C377.622 224.157 368.173 233.615 356.512 233.615Z" fill="#FFFFFD"/>
<path d="M356.512 234.248H139.469C127.478 234.248 117.725 224.495 117.725 212.504V153.09C117.725 141.099 127.478 131.346 139.469 131.346H356.521C368.511 131.346 378.265 141.099 378.265 153.09V212.504C378.256 224.495 368.503 234.248 356.512 234.248ZM139.469 132.612C128.179 132.612 118.991 141.8 118.991 153.09V212.504C118.991 223.794 128.179 232.981 139.469 232.981H356.521C367.811 232.981 376.998 223.794 376.998 212.504V153.09C376.998 141.8 367.811 132.612 356.521 132.612H139.469Z" fill="black"/>
<path d="M330.867 180.5H165.021C162.319 180.5 160.123 182.696 160.123 185.398V185.904C160.123 188.606 162.319 190.802 165.021 190.802H330.867C333.569 190.802 335.764 188.606 335.764 185.904V185.398C335.764 182.696 333.569 180.5 330.867 180.5Z" fill="#FFFFFD"/>
<path d="M165.57 171.186H247.927C250.629 171.186 252.824 168.99 252.824 166.288V165.782C252.824 163.079 250.629 160.884 247.927 160.884H165.57C162.867 160.884 160.672 163.079 160.672 165.782V166.288C160.672 168.99 162.859 171.186 165.57 171.186Z" fill="#FFFFFD"/>
<path d="M330.866 200.26H165.544C162.842 200.26 160.646 202.455 160.646 205.157V205.664C160.646 208.366 162.842 210.562 165.544 210.562H330.858C333.56 210.562 335.756 208.366 335.756 205.664V205.157C335.764 202.455 333.569 200.26 330.866 200.26Z" fill="#FFFFFD"/>
<path d="M330.869 179.866H165.023C161.975 179.866 159.492 182.349 159.492 185.397V185.904C159.492 188.952 161.975 191.435 165.023 191.435H330.869C333.917 191.435 336.4 188.952 336.4 185.904V185.397C336.4 182.349 333.917 179.866 330.869 179.866ZM335.133 185.912C335.133 188.268 333.216 190.177 330.869 190.177H165.023C162.667 190.177 160.759 188.26 160.759 185.912V185.406C160.759 183.05 162.676 181.141 165.023 181.141H330.869C333.225 181.141 335.133 183.058 335.133 185.406V185.912Z" fill="black"/>
<path d="M165.572 171.819H247.929C250.978 171.819 253.46 169.336 253.46 166.288V165.781C253.46 162.733 250.978 160.25 247.929 160.25H165.572C162.524 160.25 160.041 162.733 160.041 165.781V166.288C160.041 169.336 162.515 171.819 165.572 171.819ZM161.308 165.773C161.308 163.417 163.225 161.508 165.572 161.508H247.929C250.285 161.508 252.194 163.425 252.194 165.773V166.279C252.194 168.635 250.277 170.544 247.929 170.544H165.572C163.216 170.544 161.308 168.627 161.308 166.279V165.773Z" fill="black"/>
<path d="M330.869 199.626H165.547C162.498 199.626 160.016 202.109 160.016 205.157V205.664C160.016 208.712 162.498 211.195 165.547 211.195H330.86C333.909 211.195 336.391 208.712 336.391 205.664V205.157C336.4 202.109 333.917 199.626 330.869 199.626ZM335.133 205.672C335.133 208.028 333.216 209.936 330.869 209.936H165.547C163.191 209.936 161.282 208.02 161.282 205.672V205.165C161.282 202.809 163.199 200.901 165.547 200.901H330.86C333.216 200.901 335.125 202.818 335.125 205.165V205.672H335.133Z" fill="black"/>
<path d="M220.725 776.346L758.725 776.346" stroke="black" stroke-width="2" stroke-linecap="square"/>
</svg>
