<svg width="873" height="762" viewBox="0 0 873 762" fill="none" xmlns="http://www.w3.org/2000/svg">
<mask id="mask0_443_1220" style="mask-type:alpha" maskUnits="userSpaceOnUse" x="0" y="0" width="873" height="762">
<rect width="873" height="762" fill="#29A37A"/>
</mask>
<g mask="url(#mask0_443_1220)">
<path d="M257.181 671.432C213.773 684.479 169.6 653.46 167.135 608.201L149.968 292.987C148.384 263.905 164.974 236.881 191.623 225.131L633.16 30.4453C671.223 13.6623 715.437 33.5802 728.087 73.209L839.45 422.08C851.348 459.352 830.384 499.141 792.914 510.403L257.181 671.432Z" fill="white" fill-opacity="0.3"/>
</g>
<path d="M714.792 242.313H602.206C591.252 242.313 582.371 233.431 582.371 222.477V131.235C582.371 120.281 591.252 111.399 602.206 111.399H714.792C725.746 111.399 734.627 120.281 734.627 131.235V222.477C734.627 233.431 725.746 242.313 714.792 242.313Z" fill="#FFFFFD"/>
<path d="M611.6 143.82H611.327C608.823 143.82 606.795 145.848 606.795 148.353V207.279C606.795 209.783 608.823 211.811 611.327 211.811H611.6C614.104 211.811 616.132 209.783 616.132 207.279V148.353C616.132 145.853 614.104 143.82 611.6 143.82Z" fill="black"/>
<path d="M630.276 143.82H630.003C627.499 143.82 625.471 145.848 625.471 148.353V207.279C625.471 209.783 627.499 211.811 630.003 211.811H630.276C632.78 211.811 634.808 209.783 634.808 207.279V148.353C634.813 145.853 632.78 143.82 630.276 143.82Z" fill="black"/>
<path d="M648.956 143.82H648.683C646.179 143.82 644.15 145.848 644.15 148.353V207.279C644.15 209.783 646.179 211.811 648.683 211.811H648.956C651.46 211.811 653.488 209.783 653.488 207.279V148.353C653.493 145.853 651.46 143.82 648.956 143.82Z" fill="black"/>
<path d="M667.635 143.82H667.362C664.858 143.82 662.83 145.848 662.83 148.353V207.279C662.83 209.783 664.858 211.811 667.362 211.811H667.635C670.139 211.811 672.168 209.783 672.168 207.279V148.353C672.168 145.853 670.139 143.82 667.635 143.82Z" fill="black"/>
<path d="M686.315 143.82H686.042C683.538 143.82 681.51 145.848 681.51 148.353V207.279C681.51 209.783 683.538 211.811 686.042 211.811H686.315C688.819 211.811 690.847 209.783 690.847 207.279V148.353C690.847 145.853 688.819 143.82 686.315 143.82Z" fill="black"/>
<path d="M611.6 192.264H611.327C608.823 192.264 606.795 194.292 606.795 196.796V207.279C606.795 209.783 608.823 211.811 611.327 211.811H611.6C614.104 211.811 616.132 209.783 616.132 207.279V196.796C616.132 194.297 614.104 192.264 611.6 192.264Z" fill="#B744B8"/>
<path d="M630.276 179.494H630.003C627.499 179.494 625.471 181.522 625.471 184.027V207.283C625.471 209.788 627.499 211.816 630.003 211.816H630.276C632.78 211.816 634.808 209.788 634.808 207.283V184.027C634.813 181.522 632.78 179.494 630.276 179.494Z" fill="#B744B8"/>
<path d="M648.956 167.415H648.683C646.179 167.415 644.15 169.443 644.15 171.947V207.284C644.15 209.788 646.179 211.816 648.683 211.816H648.956C651.46 211.816 653.488 209.788 653.488 207.284V171.947C653.493 169.443 651.46 167.415 648.956 167.415Z" fill="#B744B8"/>
<path d="M667.635 170.157H667.362C664.858 170.157 662.83 172.185 662.83 174.69V207.279C662.83 209.783 664.858 211.811 667.362 211.811H667.635C670.139 211.811 672.168 209.783 672.168 207.279V174.69C672.168 172.185 670.139 170.157 667.635 170.157Z" fill="#B744B8"/>
<path d="M686.315 154.834H686.042C683.538 154.834 681.51 156.862 681.51 159.366V207.279C681.51 209.783 683.538 211.811 686.042 211.811H686.315C688.819 211.811 690.847 209.783 690.847 207.279V159.366C690.847 156.862 688.819 154.834 686.315 154.834Z" fill="#B744B8"/>
<path d="M704.995 143.939H704.722C702.218 143.939 700.189 145.968 700.189 148.472V207.279C700.189 209.783 702.218 211.811 704.722 211.811H704.995C707.499 211.811 709.527 209.783 709.527 207.279V148.477C709.527 145.973 707.499 143.939 704.995 143.939Z" fill="#B744B8"/>
<path d="M598.82 189.928C598.666 189.928 598.513 189.913 598.359 189.878C597.789 189.754 597.303 189.407 596.985 188.906C596.346 187.88 596.638 186.511 597.64 185.856L646.916 153.54C647.417 153.212 648.037 153.108 648.612 153.257L667.014 157.973C667.44 158.082 667.882 157.983 668.229 157.705L686.592 142.987C686.735 142.868 686.899 142.774 687.068 142.695L716.29 129.802C716.816 129.569 717.401 129.559 717.936 129.772C718.482 129.99 718.908 130.412 719.141 130.962C719.612 132.078 719.102 133.382 718.011 133.863L689.22 146.568C689.106 146.617 689.001 146.682 688.907 146.756L669.533 162.287C669.012 162.709 668.313 162.857 667.669 162.694L649.068 157.923C648.691 157.829 648.289 157.894 647.962 158.112L599.99 189.576C599.633 189.809 599.232 189.928 598.82 189.928ZM597.62 188.509C597.828 188.842 598.146 189.07 598.523 189.149C598.889 189.228 599.266 189.159 599.579 188.951L647.551 157.487C648.051 157.16 648.671 157.055 649.247 157.204L667.847 161.975C668.274 162.084 668.715 161.985 669.062 161.707L688.436 146.176C688.58 146.057 688.744 145.963 688.917 145.883L717.708 133.179C718.432 132.861 718.769 131.994 718.457 131.245C718.303 130.883 718.021 130.6 717.664 130.456C717.316 130.317 716.935 130.322 716.592 130.476L687.375 143.369C687.261 143.419 687.157 143.483 687.063 143.558L668.7 158.275C668.174 158.697 667.48 158.846 666.835 158.682L648.438 153.966C648.061 153.872 647.66 153.936 647.332 154.155L598.056 186.471C597.387 186.913 597.194 187.825 597.62 188.509Z" fill="black"/>
<path d="M597.303 188.707C596.767 187.849 597.015 186.714 597.848 186.163L647.124 153.847C647.541 153.574 648.046 153.49 648.527 153.614L666.93 158.329C667.465 158.468 668.035 158.344 668.472 157.992L686.834 143.274C686.953 143.175 687.087 143.096 687.231 143.031L716.449 130.143C717.361 129.742 718.412 130.173 718.804 131.105C719.196 132.038 718.774 133.124 717.867 133.525L689.076 146.225C688.932 146.289 688.803 146.369 688.679 146.468L669.305 161.999C668.868 162.346 668.303 162.47 667.763 162.336L649.162 157.566C648.681 157.442 648.175 157.526 647.759 157.799L599.787 189.263C598.949 189.813 597.838 189.565 597.303 188.707Z" fill="#FFFFFD"/>
<path d="M714.793 242.684H602.207C591.065 242.684 582 233.62 582 222.477V131.235C582 120.092 591.065 111.027 602.207 111.027H714.793C725.935 111.027 735 120.092 735 131.235V222.477C735 233.62 725.93 242.684 714.793 242.684ZM602.207 111.771C591.476 111.771 582.744 120.504 582.744 131.235V222.477C582.744 233.208 591.476 241.941 602.207 241.941H714.793C725.524 241.941 734.256 233.208 734.256 222.477V131.235C734.256 120.504 725.524 111.771 714.793 111.771H602.207Z" fill="black"/>
<mask id="mask1_443_1220" style="mask-type:alpha" maskUnits="userSpaceOnUse" x="24" y="140" width="770" height="622">
<rect x="24" y="140" width="770" height="622" fill="#D9D9D9"/>
</mask>
<g mask="url(#mask1_443_1220)">
<path d="M275.023 615.815H120.476C109.981 615.815 101.475 607.308 101.475 596.813V539.289C101.475 528.794 109.981 520.287 120.476 520.287H275.023C285.518 520.287 294.025 528.794 294.025 539.289V596.813C294.025 607.308 285.518 615.815 275.023 615.815Z" fill="#FFFFFD"/>
<path d="M275.023 616.29H120.477C109.734 616.29 101 607.556 101 596.813V539.289C101 528.547 109.734 519.812 120.477 519.812H275.023C285.766 519.812 294.5 528.547 294.5 539.289V596.813C294.5 607.556 285.766 616.29 275.023 616.29ZM120.477 520.763C110.26 520.763 101.95 529.073 101.95 539.289V596.813C101.95 607.03 110.26 615.34 120.477 615.34H275.023C285.24 615.34 293.55 607.03 293.55 596.813V539.289C293.55 529.073 285.24 520.763 275.023 520.763H120.477Z" fill="black"/>
<path d="M158.84 606.448C180.095 606.448 197.325 589.218 197.325 567.963C197.325 546.709 180.095 529.479 158.84 529.479C137.586 529.479 120.355 546.709 120.355 567.963C120.355 589.218 137.586 606.448 158.84 606.448Z" fill="#F2C946"/>
<path d="M197.333 567.962C197.333 581.143 190.701 592.779 180.599 599.714L158.791 567.867L195.464 556.105C196.68 559.842 197.333 563.826 197.333 567.962Z" fill="black"/>
<path d="M195.464 556.106L158.791 567.868V529.479H158.842C175.962 529.479 190.473 540.651 195.464 556.106Z" fill="#FFFFFD"/>
<path d="M158.314 568.52V529.003H158.789C175.809 529.003 190.706 539.84 195.919 555.96L196.064 556.41L158.314 568.52ZM159.265 529.953V567.215L194.861 555.802C189.692 540.448 175.479 530.13 159.265 529.953Z" fill="black"/>
<path d="M224.175 551.007H219.273C217.524 551.007 216.106 549.588 216.106 547.84V542.937C216.106 541.189 217.524 539.771 219.273 539.771H224.175C225.923 539.771 227.342 541.189 227.342 542.937V547.84C227.342 549.588 225.929 551.007 224.175 551.007Z" fill="#F2C946"/>
<path d="M224.175 573.485H219.273C217.524 573.485 216.106 572.067 216.106 570.318V565.416C216.106 563.668 217.524 562.249 219.273 562.249H224.175C225.923 562.249 227.342 563.668 227.342 565.416V570.318C227.342 572.067 225.929 573.485 224.175 573.485Z" fill="black"/>
<path d="M224.175 595.965H219.273C217.524 595.965 216.106 594.546 216.106 592.798V587.895C216.106 586.147 217.524 584.729 219.273 584.729H224.175C225.923 584.729 227.342 586.147 227.342 587.895V592.798C227.342 594.546 225.929 595.965 224.175 595.965Z" fill="#FFFFFD"/>
<path d="M224.175 596.44H219.273C217.265 596.44 215.631 594.806 215.631 592.798V587.896C215.631 585.888 217.265 584.254 219.273 584.254H224.175C226.183 584.254 227.817 585.888 227.817 587.896V592.798C227.817 594.806 226.183 596.44 224.175 596.44ZM219.273 585.198C217.791 585.198 216.581 586.407 216.581 587.89V592.792C216.581 594.274 217.791 595.484 219.273 595.484H224.175C225.657 595.484 226.867 594.274 226.867 592.792V587.89C226.867 586.407 225.657 585.198 224.175 585.198H219.273Z" fill="black"/>
<path d="M272.94 543.343H238.908C237.711 543.343 236.742 544.312 236.742 545.509C236.742 546.706 237.711 547.675 238.908 547.675H272.94C274.137 547.675 275.106 546.706 275.106 545.509C275.106 544.312 274.137 543.343 272.94 543.343Z" fill="#FFFFFD"/>
<path d="M272.94 565.822H238.909C237.711 565.822 236.742 566.791 236.742 567.988C236.742 569.186 237.711 570.155 238.909 570.155H272.94C274.138 570.155 275.107 569.186 275.107 567.988C275.107 566.791 274.138 565.822 272.94 565.822Z" fill="#FFFFFD"/>
<path d="M272.94 588.294H238.909C237.711 588.294 236.742 589.263 236.742 590.46C236.742 591.657 237.711 592.626 238.909 592.626H272.94C274.138 592.626 275.107 591.657 275.107 590.46C275.107 589.263 274.138 588.294 272.94 588.294Z" fill="#FFFFFD"/>
<path d="M238.907 548.15H272.939C274.396 548.15 275.58 546.965 275.58 545.508C275.58 544.052 274.396 542.867 272.939 542.867H238.907C237.45 542.867 236.266 544.052 236.266 545.508C236.266 546.965 237.456 548.15 238.907 548.15ZM238.907 543.817H272.939C273.87 543.817 274.63 544.577 274.63 545.508C274.63 546.44 273.87 547.2 272.939 547.2H238.907C237.976 547.2 237.216 546.44 237.216 545.508C237.216 544.577 237.976 543.817 238.907 543.817Z" fill="black"/>
<path d="M272.939 565.346H238.907C237.45 565.346 236.266 566.53 236.266 567.987C236.266 569.444 237.45 570.628 238.907 570.628H272.939C274.396 570.628 275.58 569.444 275.58 567.987C275.58 566.53 274.396 565.346 272.939 565.346ZM272.939 569.678H238.907C237.976 569.678 237.216 568.918 237.216 567.987C237.216 567.056 237.976 566.296 238.907 566.296H272.939C273.87 566.296 274.63 567.056 274.63 567.987C274.63 568.918 273.87 569.678 272.939 569.678Z" fill="black"/>
<path d="M272.939 587.818H238.907C237.45 587.818 236.266 589.003 236.266 590.46C236.266 591.916 237.45 593.101 238.907 593.101H272.939C274.396 593.101 275.58 591.916 275.58 590.46C275.58 589.003 274.396 587.818 272.939 587.818ZM272.939 592.151H238.907C237.976 592.151 237.216 591.391 237.216 590.46C237.216 589.529 237.976 588.768 238.907 588.768H272.939C273.87 588.768 274.63 589.529 274.63 590.46C274.63 591.397 273.87 592.151 272.939 592.151Z" fill="black"/>
<path d="M355.523 499.812L301.343 742.812H314.343L368.523 499.812H355.523Z" fill="white"/>
<path d="M300.713 743.312H314.733L314.823 742.922L369.143 499.312H355.123L355.033 499.703L300.713 743.312ZM313.943 742.312H301.963L355.923 500.312H367.903L313.943 742.312Z" fill="#606060"/>
<path d="M300.083 707.5V730.632L271.073 750.932V761.082H352.293V743.682L344.5 707.5H300.083Z" fill="#0E1110"/>
<path d="M458.692 423.392C458.692 423.392 468.692 457.392 453.692 519.392C441.692 545.392 387.152 540.192 344.692 535.392C344.692 535.392 346.562 569.592 349.692 594.392C352.822 619.192 351.692 671.392 350.692 708.392H295.692C295.692 708.392 254.692 606.392 244.692 485.392C240.572 435.552 434.692 401.392 458.692 423.392Z" fill="#0E1110"/>
<path d="M286.673 684.062H332.493L332.423 683.242C326.773 619.212 319.253 519.342 318.483 509.102C323.053 509.272 346.313 509.512 407.183 500.832C421.613 498.772 432.073 492.462 438.273 482.072C452.993 457.392 438.523 417.442 438.373 417.042L436.963 417.562C437.113 417.952 451.333 457.242 436.973 481.302C431.023 491.282 420.923 497.352 406.963 499.342C338.643 509.082 317.923 507.572 317.723 507.552L316.853 507.482L316.923 508.352C317.003 509.422 324.923 615.272 330.853 682.542H286.673V684.062Z" fill="white"/>
<path d="M538.693 423.812C538.693 423.812 569.693 483.812 550.693 515.812C533.693 541.812 468.153 537.612 425.693 532.812C425.693 532.812 426.563 570.012 429.693 594.812C432.823 619.612 431.693 671.812 430.693 708.812H375.693C375.693 708.812 334.693 606.812 324.693 485.812C320.573 435.972 514.693 401.812 538.693 423.812Z" fill="#0E1110"/>
<path d="M382.5 707.5L382.083 730.632L353.073 750.932V761.082H434.293V743.682L426.5 707.5H382.5Z" fill="#0E1110"/>
<path d="M369.673 683.062H415.493L415.423 682.242C409.773 618.212 402.253 518.342 401.483 508.102C406.053 508.272 429.313 508.512 490.183 499.832C504.613 497.772 515.073 491.462 521.273 481.072C535.993 456.392 521.523 416.442 521.373 416.042L519.963 416.562C520.113 416.952 534.333 456.242 519.973 480.302C514.023 490.282 503.923 496.352 489.963 498.342C421.643 508.082 400.923 506.572 400.723 506.552L399.853 506.482L399.923 507.352C400.003 508.422 407.923 614.272 413.853 681.542H369.673V683.062Z" fill="white"/>
<path d="M231.892 455.093L180.202 751.463C179.232 757.033 174.542 761.083 169.062 761.083C162.012 761.083 156.672 754.482 157.922 747.302L209.612 450.932C210.582 445.362 215.272 441.312 220.752 441.312C227.812 441.312 233.142 447.913 231.892 455.093Z" fill="#FFFFFD"/>
<path d="M169.061 761.843C174.911 761.843 179.901 757.533 180.941 751.593L232.631 455.222C233.281 451.492 232.271 447.722 229.871 444.852C227.581 442.122 224.261 440.562 220.761 440.562C214.911 440.562 209.921 444.872 208.881 450.812L157.191 747.182C156.541 750.912 157.551 754.692 159.951 757.552C162.241 760.272 165.561 761.843 169.061 761.843ZM220.751 442.062C223.811 442.062 226.711 443.433 228.721 445.823C230.841 448.343 231.731 451.673 231.151 454.963L179.461 751.333C178.551 756.553 174.181 760.333 169.061 760.333C166.001 760.333 163.101 758.963 161.091 756.573C158.971 754.053 158.081 750.722 158.661 747.432L210.351 451.062C211.261 445.852 215.641 442.062 220.751 442.062Z" fill="#0E1110"/>
<path d="M369.722 349.862C369.722 349.862 365.372 362.912 361.022 360.012C356.672 357.112 277.232 310.542 267.642 304.092C258.042 297.642 251.472 295.262 259.112 304.432C266.752 313.602 250.562 307.352 243.422 305.402C236.292 303.452 226.132 306.352 230.482 313.602C234.832 320.852 252.242 319.402 259.492 329.552C266.742 339.702 310.252 420.922 362.472 420.922C362.472 420.922 379.772 425.512 413.912 391.312C448.042 357.112 369.722 349.862 369.722 349.862Z" fill="#FFFFFD"/>
<path d="M364.893 421.913C370.963 421.913 387.473 418.873 414.433 391.853C422.013 384.253 424.733 377.293 422.513 371.163C416.163 353.613 371.673 349.293 369.783 349.123L369.193 349.073L369.003 349.633C368.183 352.103 365.463 358.703 362.833 359.603C362.333 359.773 361.893 359.713 361.423 359.403C359.693 358.253 346.653 350.523 330.153 340.743C305.063 325.883 273.843 307.383 268.043 303.483C257.113 296.143 255.833 297.573 255.343 298.113C254.423 299.133 255.343 301.113 258.513 304.923C260.713 307.553 260.313 308.213 260.303 308.243C259.453 309.513 251.403 307.043 247.533 305.853C246.083 305.413 244.733 304.993 243.603 304.683C238.883 303.393 232.203 304.073 229.663 307.433C228.703 308.703 227.953 310.863 229.833 313.993C231.993 317.603 237.053 319.163 242.403 320.823C248.363 322.663 255.123 324.763 258.873 330.003C259.713 331.183 261.053 333.323 262.893 336.293C276.023 357.403 315.953 421.603 362.373 421.693C362.683 421.753 363.523 421.913 364.893 421.913ZM370.233 350.673C375.553 351.243 415.463 356.053 421.113 371.673C423.113 377.213 420.513 383.643 413.373 390.793C380.063 424.173 362.833 420.243 362.653 420.213L362.463 420.193C316.843 420.193 277.193 356.453 264.173 335.503C262.313 332.513 260.973 330.353 260.103 329.133C256.063 323.483 249.053 321.313 242.863 319.393C237.793 317.823 233.003 316.343 231.133 313.223C229.973 311.283 229.883 309.643 230.873 308.343C232.773 305.833 238.433 304.823 243.223 306.133C244.333 306.433 245.673 306.853 247.103 307.293C254.953 309.703 260.193 311.133 261.563 309.073C262.293 307.973 261.713 306.403 259.683 303.963C256.923 300.643 256.553 299.473 256.523 299.143C257.223 299.093 260.113 299.953 267.223 304.733C273.053 308.653 304.303 327.163 329.403 342.033C345.233 351.413 358.913 359.513 360.603 360.643C361.453 361.203 362.393 361.343 363.333 361.013C366.723 359.853 369.453 352.863 370.233 350.673Z" fill="#0E1110"/>
<path d="M438.643 253.713C438.643 253.713 400.173 273.003 394.373 291.853C388.573 310.703 387.123 329.563 376.973 336.813C366.823 344.063 363.923 345.513 371.173 351.313C378.423 357.113 410.243 383.263 410.243 383.263L438.643 253.713Z" fill="#B744B8"/>
<path d="M572.442 504.773L623.792 735.083C624.672 739.043 621.662 742.802 617.602 742.802C614.632 742.802 612.052 740.743 611.412 737.843L560.062 507.532C559.182 503.572 562.192 499.812 566.252 499.812C569.222 499.812 571.802 501.873 572.442 504.773Z" fill="#FFFFFD"/>
<path d="M617.603 743.562C619.763 743.562 621.783 742.592 623.143 740.902C624.503 739.212 625.003 737.032 624.533 734.922L573.183 504.612C572.453 501.342 569.603 499.062 566.263 499.062C564.103 499.062 562.083 500.032 560.723 501.722C559.363 503.412 558.863 505.593 559.333 507.703L610.683 738.012C611.413 741.282 614.253 743.562 617.603 743.562ZM572.443 504.773L571.713 504.932L623.063 735.243C623.433 736.913 623.033 738.623 621.963 739.963C620.893 741.293 619.303 742.062 617.593 742.062C614.953 742.062 612.703 740.262 612.133 737.682L560.783 507.372C560.413 505.702 560.813 503.993 561.883 502.653C562.953 501.323 564.543 500.552 566.243 500.552C568.883 500.552 571.133 502.352 571.703 504.932L572.443 504.773Z" fill="#0E1110"/>
<path d="M440.853 537.802C440.853 537.802 562.523 549.812 584.523 511.812C606.523 473.812 621.523 376.812 601.523 322.812C601.523 322.812 584.033 418.042 581.283 421.432C578.523 424.812 569.523 465.812 518.523 471.812C467.523 477.812 441.183 487.802 440.853 537.802Z" fill="#FFFFFD"/>
<path d="M482.862 540.352C489.732 540.352 497.052 540.202 504.482 539.812C548.772 537.482 575.912 528.182 585.172 512.192C596.192 493.162 605.522 459.132 609.522 423.402C614.022 383.212 611.432 347.402 602.232 322.562L601.282 320.002L600.792 322.682C593.802 360.752 582.682 418.342 580.702 420.962C580.242 421.532 579.742 422.712 578.922 424.692C574.212 435.982 561.712 465.982 518.442 471.072C493.102 474.052 473.512 478.022 460.252 487.712C446.672 497.632 440.272 513.552 440.112 537.812V538.492L440.792 538.562C441.012 538.572 459.362 540.352 482.862 540.352ZM601.752 325.702C620.802 381.452 604.352 476.072 583.872 511.442C563.212 547.132 451.452 538.012 441.612 537.132C442.152 489.592 465.872 478.772 518.612 472.562C562.762 467.372 575.962 435.682 580.302 425.262C580.992 423.612 581.532 422.302 581.862 421.902C584.482 418.692 598.502 343.312 601.752 325.702Z" fill="#0E1110"/>
<path d="M449.224 249.462C449.224 249.462 410.064 263.962 408.614 297.322C407.164 330.682 410.064 375.642 410.064 390.142C410.064 404.642 398.464 424.952 408.614 429.302C418.764 433.652 486.934 446.702 550.754 422.052C550.754 422.052 558.004 340.832 558.004 300.222C558.004 259.612 546.404 242.202 505.794 242.202L449.224 249.462Z" fill="#B744B8"/>
<path d="M520.392 331.003L539.922 332.623C542.622 332.843 544.072 335.913 542.532 338.143L531.262 354.463C529.712 356.713 526.292 356.423 525.152 353.933L516.882 335.983C515.762 333.543 517.692 330.783 520.392 331.003Z" fill="#FFFFFD"/>
<path d="M478.392 360.003L497.922 361.623C500.622 361.843 502.072 364.913 500.532 367.143L489.262 383.463C487.712 385.713 484.292 385.423 483.152 382.933L474.882 364.983C473.762 362.543 475.692 359.783 478.392 360.003Z" fill="#FFFFFD"/>
<path d="M471.392 296.003L490.922 297.623C493.622 297.843 495.072 300.913 493.532 303.143L482.262 319.463C480.712 321.713 477.292 321.423 476.152 318.933L467.882 300.983C466.762 298.543 468.692 295.783 471.392 296.003Z" fill="#FFFFFD"/>
<path d="M507.392 254.003L526.922 255.623C529.622 255.843 531.072 258.913 529.532 261.143L518.262 277.463C516.712 279.713 513.292 279.423 512.152 276.933L503.882 258.983C502.762 256.543 504.692 253.783 507.392 254.003Z" fill="#FFFFFD"/>
<path d="M430.392 327.003L449.922 328.623C452.622 328.843 454.072 331.913 452.532 334.143L441.262 350.463C439.712 352.713 436.292 352.423 435.152 349.933L426.882 331.983C425.762 329.543 427.692 326.783 430.392 327.003Z" fill="#FFFFFD"/>
<path d="M407.392 280.003L426.922 281.623C429.622 281.843 431.072 284.913 429.532 287.143L418.262 303.463C416.712 305.713 413.292 305.423 412.152 302.933L403.882 284.983C402.762 282.543 404.692 279.783 407.392 280.003Z" fill="#FFFFFD"/>
<path d="M449.161 267.953L442.151 252.733C446.361 250.523 449.221 249.463 449.221 249.463L465.771 247.343C467.181 248.423 467.671 250.513 466.541 252.153L455.271 268.473C453.721 270.723 450.301 270.433 449.161 267.953Z" fill="#FFFFFD"/>
<path d="M518.922 455.093L570.612 751.463C571.582 757.033 576.272 761.083 581.752 761.083C588.802 761.083 594.142 754.482 592.892 747.302L541.202 450.932C540.232 445.362 535.542 441.312 530.062 441.312C523.002 441.312 517.672 447.913 518.922 455.093Z" fill="#FFFFFD"/>
<path d="M581.752 761.843C585.252 761.843 588.572 760.282 590.862 757.552C593.272 754.692 594.272 750.912 593.622 747.182L541.932 450.812C540.892 444.872 535.902 440.562 530.052 440.562C526.552 440.562 523.232 442.122 520.942 444.852C518.532 447.712 517.532 451.492 518.182 455.222L518.922 455.093L518.182 455.222L569.872 751.593C570.912 757.533 575.902 761.843 581.752 761.843ZM530.062 442.062C535.182 442.062 539.552 445.852 540.462 451.062L592.152 747.432C592.722 750.722 591.842 754.053 589.722 756.573C587.712 758.963 584.812 760.333 581.752 760.333C576.632 760.333 572.262 756.543 571.352 751.333L519.662 454.963C519.092 451.673 519.972 448.343 522.092 445.823C524.102 443.433 527.002 442.062 530.062 442.062Z" fill="#0E1110"/>
<path d="M604.524 353.812C604.524 353.812 611.304 409.432 589.414 422.622C589.414 422.622 567.524 438.812 511.524 420.812C455.524 402.812 418.524 391.812 418.524 391.812L442.524 374.812C442.524 374.812 535.524 378.812 542.524 376.812C549.524 374.812 545.504 354.522 545.504 354.522C545.504 354.522 596.524 340.812 604.524 353.812Z" fill="#FFFFFD"/>
<path d="M559.203 430.123C580.163 430.123 589.283 423.653 589.853 423.233C611.843 409.983 605.543 356.023 605.263 353.733L605.243 353.573L605.153 353.433C596.953 340.113 547.403 353.243 545.293 353.813L544.613 353.993L544.753 354.683C545.833 360.143 547.503 374.623 542.303 376.103C535.493 378.043 443.473 374.113 442.543 374.073L442.283 374.063L416.813 392.103L418.293 392.543C418.663 392.653 455.923 403.743 511.273 421.543C531.503 428.023 547.273 430.123 559.203 430.123ZM603.793 354.073C604.173 357.423 609.663 409.543 589.023 421.983C588.753 422.183 566.633 437.743 511.753 420.103C462.563 404.293 427.653 393.773 420.213 391.543L442.743 375.583C449.213 375.863 535.803 379.523 542.723 377.543C549.643 375.563 547.103 359.123 546.363 355.083C552.363 353.533 596.393 342.703 603.793 354.073Z" fill="#0E1110"/>
<path d="M511.123 417.562C511.123 412.673 507.463 408.713 502.953 408.713H461.263C458.183 408.713 455.363 406.832 453.973 403.852L427.893 317.172C426.503 314.192 423.683 312.312 420.603 312.312H288.193C281.963 312.312 278.023 319.572 281.053 325.482L316.243 421.883C317.683 424.693 320.413 426.422 323.383 426.422H502.953C507.463 426.422 511.123 422.452 511.123 417.562Z" fill="#FFFFFD"/>
<path d="M323.393 427.172H502.953C507.873 427.172 511.873 422.863 511.873 417.562C511.873 412.262 507.873 407.963 502.953 407.963H461.263C458.473 407.963 455.953 406.283 454.673 403.583L428.573 316.852C427.053 313.592 423.993 311.562 420.603 311.562H288.193C285.183 311.562 282.393 313.183 280.743 315.883C278.913 318.883 278.783 322.683 280.393 325.823L315.543 422.133C317.153 425.273 320.143 427.172 323.393 427.172ZM502.953 409.463C507.043 409.463 510.373 413.102 510.373 417.562C510.373 422.032 507.043 425.672 502.953 425.672H323.383C320.703 425.672 318.223 424.092 316.913 421.532L281.763 325.222C280.353 322.462 280.463 319.222 282.023 316.662C283.423 314.372 285.673 313.062 288.193 313.062H420.613C423.403 313.062 425.923 314.743 427.203 317.443L453.303 404.172C454.823 407.432 457.883 409.463 461.273 409.463H502.953V409.463Z" fill="#0E1110"/>
<path d="M459.363 178.992L440.513 180.442C440.513 180.442 431.813 250.062 469.523 238.452V245.702C469.523 245.702 457.923 248.602 453.573 250.052C453.573 250.052 468.073 260.202 484.033 257.302C499.993 254.402 510.143 242.802 510.143 242.802H502.163L496.363 214.522C496.363 214.522 505.063 208.722 505.063 202.922C505.063 197.122 503.613 195.672 499.263 194.222C494.913 192.772 489.113 200.022 489.113 200.022C489.113 200.022 481.863 186.972 480.413 178.262L459.363 178.992Z" fill="#FFFFFD"/>
<path d="M478.073 258.592C480.053 258.592 482.093 258.432 484.163 258.052C500.193 255.132 510.283 243.782 510.703 243.302L511.793 242.062H502.773L497.193 214.862C498.993 213.582 505.813 208.362 505.813 202.922C505.813 196.632 503.953 194.992 499.503 193.512C495.633 192.222 491.023 196.752 489.253 198.712C487.583 195.562 482.333 185.282 481.153 178.152L481.043 177.502L459.323 178.252L439.853 179.752L439.773 180.362C439.553 182.112 434.603 223.332 450.333 236.542C455.113 240.552 461.313 241.532 468.773 239.472V245.142C466.363 245.752 457.163 248.092 453.333 249.362L451.923 249.832L453.143 250.682C453.663 251.042 464.623 258.592 478.073 258.592ZM508.363 243.562C505.243 246.602 496.313 254.322 483.893 256.582C471.183 258.892 459.243 252.642 455.333 250.302C460.323 248.792 469.603 246.472 469.703 246.452L470.273 246.312V237.462L469.303 237.762C461.933 240.032 455.873 239.242 451.303 235.402C437.193 223.562 440.633 186.382 441.193 181.162L459.413 179.762L479.783 179.062C481.463 187.762 488.163 199.882 488.453 200.412L488.993 201.392L489.693 200.522C491.213 198.622 495.863 193.902 499.023 194.962C503.123 196.332 504.313 197.542 504.313 202.952C504.313 208.282 496.033 213.872 495.943 213.932L495.523 214.212L501.553 243.592H508.363V243.562Z" fill="#0E1110"/>
<path d="M439.652 197.442C439.652 197.442 434.712 197.852 431.812 186.252C428.912 174.652 428.912 165.942 439.062 160.142C449.212 154.342 462.272 152.892 472.422 158.692C482.572 164.492 489.822 165.942 497.082 163.042C504.332 160.142 510.132 161.592 510.132 173.192C510.132 184.792 516.912 216.752 498.292 223.982L495.632 213.812C495.632 213.812 509.012 208.912 503.052 196.132C503.052 196.132 495.632 189.152 489.832 200.752C489.832 200.752 478.952 188.422 478.952 179.722C478.952 179.722 468.802 186.952 460.102 186.972C450.872 187.002 439.952 183.982 439.652 197.442Z" fill="#0E1110"/>
<path d="M525.062 242.422C525.062 242.422 557.112 249.042 574.182 269.622C591.252 290.212 599.472 315.302 602.292 324.612C605.112 333.922 619.812 351.162 611.682 355.652C603.552 360.142 551.972 366.762 540.532 364.802C540.532 364.802 536.682 364.302 534.682 360.302C532.682 356.302 500.672 259.312 525.062 242.422Z" fill="#B744B8"/>
<path d="M528.683 300.102L548.213 301.722C550.913 301.942 552.363 305.012 550.823 307.242L539.553 323.562C538.003 325.812 534.583 325.522 533.443 323.032L525.173 305.082C524.053 302.642 525.983 299.872 528.683 300.102Z" fill="#FFFFFD"/>
<path d="M548.453 284.042L540.183 266.092C539.053 263.632 540.983 260.872 543.683 261.092L563.213 262.712C565.913 262.932 567.363 266.002 565.823 268.232L554.553 284.552C553.003 286.822 549.593 286.522 548.453 284.042Z" fill="#FFFFFD"/>
<path d="M564.683 343.102L584.213 344.722C586.913 344.942 588.363 348.012 586.823 350.242L578.553 362.222C575.143 362.682 571.683 363.112 568.273 363.492L561.173 348.082C560.053 345.642 561.983 342.872 564.683 343.102Z" fill="#FFFFFD"/>
<path d="M586.682 300.102L593.252 300.652C596.552 307.832 598.942 314.332 600.572 319.222L597.572 323.572C596.022 325.822 592.602 325.532 591.462 323.042L583.192 305.092C582.052 302.642 583.982 299.872 586.682 300.102Z" fill="#FFFFFD"/>
<path d="M191.833 426.812H571.203C577.453 426.812 582.523 431.883 582.523 438.133V440.503C582.523 446.753 577.453 451.823 571.203 451.823H191.833C185.583 451.823 180.513 446.753 180.513 440.503V438.133C180.523 431.883 185.583 426.812 191.833 426.812Z" fill="#FFFFFD"/>
<path d="M191.833 452.563H571.203C577.853 452.563 583.273 447.153 583.273 440.493V438.123C583.273 431.473 577.863 426.053 571.203 426.053H191.833C185.183 426.053 179.763 431.463 179.763 438.123V440.493C179.773 447.153 185.183 452.563 191.833 452.563ZM571.203 427.563C577.033 427.563 581.773 432.303 581.773 438.133V440.503C581.773 446.333 577.033 451.073 571.203 451.073H191.833C186.003 451.073 181.263 446.333 181.263 440.503V438.133C181.263 432.303 186.003 427.563 191.833 427.563H571.203Z" fill="#0E1110"/>
<path d="M364.672 378.312C359.701 378.312 355.672 374.283 355.672 369.312C355.672 364.342 359.701 360.312 364.672 360.312C369.642 360.312 373.672 364.342 373.672 369.312C373.672 374.283 369.642 378.312 364.672 378.312Z" fill="#0E1110"/>
<path d="M544.594 366.123C545.934 366.123 546.814 365.893 546.844 365.883L546.444 364.433L546.644 365.153L546.444 364.433C546.094 364.523 537.904 366.603 533.794 355.723C529.444 344.213 521.624 310.553 521.544 310.223L520.084 310.563C520.164 310.903 528.004 344.663 532.394 356.263C535.634 364.843 541.414 366.123 544.594 366.123Z" fill="#0E1110"/>
<path d="M407.483 312.352L408.983 312.272C408.973 312.022 407.773 286.872 415.373 277.492L414.203 276.542C406.243 286.372 407.433 311.292 407.483 312.352Z" fill="#0E1110"/>
<path d="M350.943 621.462L352.413 621.162C352.153 619.912 326.533 496.092 333.733 473.542C337.083 463.052 361.713 453.112 361.963 453.012L361.403 451.622C360.363 452.042 335.863 461.932 332.303 473.092C324.983 496.012 349.873 616.352 350.943 621.462Z" fill="#0E1110"/>
<path d="M448.221 195.141C445.93 193.871 441.889 191.543 437.43 196.197" stroke="black" stroke-linecap="round"/>
<path d="M475.77 192.66C473.479 191.39 469.438 189.062 464.979 193.715" stroke="black" stroke-linecap="round"/>
<path d="M456.052 197.239C457.278 204.2 447.056 216.639 460.545 215.32" stroke="black" stroke-linecap="round"/>
<ellipse cx="2.71069" cy="3.25282" rx="2.71069" ry="3.25282" transform="matrix(-0.995249 0.0973671 0.0973671 0.995249 472.608 199.433)" fill="black"/>
<ellipse cx="2.71069" cy="3.25282" rx="2.71069" ry="3.25282" transform="matrix(-0.995249 0.0973671 0.0973671 0.995249 446.708 201.966)" fill="black"/>
<path d="M466.826 223.734C464.308 225.43 461.284 228.241 454.523 225.838" stroke="black" stroke-linecap="round"/>
</g>
</svg>
