<svg width="68" height="48" viewBox="0 0 68 48" fill="none" xmlns="http://www.w3.org/2000/svg">
<path d="M1.96289 44.1532C6.37941 43.1717 9.60794 43.5848 13.7403 35.3201C16.6846 29.4313 26.4991 5.38584 14.231 3.91367C1.96289 2.4415 15.0875 27.1733 21.5919 32.3757C26.4991 36.3007 29.0819 42.0465 25.5176 43.1717C16.1939 46.1152 23.0049 24.9376 27.4805 21.5799C31.4063 18.6346 33.3692 20.5975 36.3136 23.0511C41.1408 27.0738 37.295 35.81 45.6373 33.3563C50.5446 31.3925 47.1095 23.5419 51.526 22.5604C61.1188 20.4287 71.541 38.2889 61.8312 40.7172C52.0168 43.1717 56.4333 7.34795 61.8312 5.87668" stroke="black" stroke-width="2" stroke-dasharray="5 4"/>
<path d="M3.0302 47.2684C4.70374 47.2684 6.0604 45.9117 6.0604 44.2382C6.0604 42.5647 4.70374 41.208 3.0302 41.208C1.35667 41.208 0 42.5647 0 44.2382C0 45.9117 1.35667 47.2684 3.0302 47.2684Z" fill="black"/>
<path d="M62.9516 11.0633C65.7391 11.0633 67.9988 8.80356 67.9988 6.01603C67.9988 3.22849 65.7391 0.96875 62.9516 0.96875C60.164 0.96875 57.9043 3.22849 57.9043 6.01603C57.9043 8.80356 60.164 11.0633 62.9516 11.0633Z" fill="#B744B8"/>
</svg>
