<svg width="14" height="14" viewBox="0 0 14 14" fill="none" xmlns="http://www.w3.org/2000/svg">
<g clip-path="url(#clip0_303_3424)">
<path d="M8.57372 8.25989C8.57372 8.18225 8.60456 8.10778 8.65946 8.05288C8.71437 7.99797 8.78883 7.96713 8.86648 7.96713H9.95388C10.0315 7.96713 10.106 7.99797 10.1609 8.05288C10.2158 8.10778 10.2466 8.18225 10.2466 8.25989V9.34729C10.2466 9.42494 10.2158 9.4994 10.1609 9.5543C10.106 9.60921 10.0315 9.64005 9.95388 9.64005H8.86648C8.78883 9.64005 8.71437 9.60921 8.65946 9.5543C8.60456 9.4994 8.57372 9.42494 8.57372 9.34729V8.25989ZM3.13672 6.16874C3.13672 6.09109 3.16756 6.01663 3.22247 5.96172C3.27737 5.90682 3.35183 5.87598 3.42948 5.87598H4.51688C4.59452 5.87598 4.66899 5.90682 4.72389 5.96172C4.7788 6.01663 4.80964 6.09109 4.80964 6.16874V7.25614C4.80964 7.33378 4.7788 7.40825 4.72389 7.46315C4.66899 7.51805 4.59452 7.5489 4.51688 7.5489H3.42948C3.35183 7.5489 3.27737 7.51805 3.22247 7.46315C3.16756 7.40825 3.13672 7.33378 3.13672 7.25614V6.16874ZM3.55495 6.29421V7.13067H4.39141V6.29421H3.55495ZM5.85522 6.16874C5.85522 6.09109 5.88606 6.01663 5.94097 5.96172C5.99587 5.90682 6.07033 5.87598 6.14798 5.87598H7.23538C7.31302 5.87598 7.38749 5.90682 7.44239 5.96172C7.4973 6.01663 7.52814 6.09109 7.52814 6.16874V7.25614C7.52814 7.33378 7.4973 7.40825 7.44239 7.46315C7.38749 7.51805 7.31302 7.5489 7.23538 7.5489H6.14798C6.07033 7.5489 5.99587 7.51805 5.94097 7.46315C5.88606 7.40825 5.85522 7.33378 5.85522 7.25614V6.16874ZM6.27345 6.29421V7.13067H7.10991V6.29421H6.27345ZM8.57372 6.16874C8.57372 6.09109 8.60456 6.01663 8.65946 5.96172C8.71437 5.90682 8.78883 5.87598 8.86648 5.87598H9.95388C10.0315 5.87598 10.106 5.90682 10.1609 5.96172C10.2158 6.01663 10.2466 6.09109 10.2466 6.16874V7.25614C10.2466 7.33378 10.2158 7.40825 10.1609 7.46315C10.106 7.51805 10.0315 7.5489 9.95388 7.5489H8.86648C8.78883 7.5489 8.71437 7.51805 8.65946 7.46315C8.60456 7.40825 8.57372 7.33378 8.57372 7.25614V6.16874ZM8.99195 6.29421V7.13067H9.82841V6.29421H8.99195ZM3.13672 8.25989C3.13672 8.18225 3.16756 8.10778 3.22247 8.05288C3.27737 7.99797 3.35183 7.96713 3.42948 7.96713H4.51688C4.59452 7.96713 4.66899 7.99797 4.72389 8.05288C4.7788 8.10778 4.80964 8.18225 4.80964 8.25989V9.34729C4.80964 9.42494 4.7788 9.4994 4.72389 9.5543C4.66899 9.60921 4.59452 9.64005 4.51688 9.64005H3.42948C3.35183 9.64005 3.27737 9.60921 3.22247 9.5543C3.16756 9.4994 3.13672 9.42494 3.13672 9.34729V8.25989ZM3.55495 8.38536V9.22182H4.39141V8.38536H3.55495ZM5.85522 8.25989C5.85522 8.18225 5.88606 8.10778 5.94097 8.05288C5.99587 7.99797 6.07033 7.96713 6.14798 7.96713H7.23538C7.31302 7.96713 7.38749 7.99797 7.44239 8.05288C7.4973 8.10778 7.52814 8.18225 7.52814 8.25989V9.34729C7.52814 9.42494 7.4973 9.4994 7.44239 9.5543C7.38749 9.60921 7.31302 9.64005 7.23538 9.64005H6.14798C6.07033 9.64005 5.99587 9.60921 5.94097 9.5543C5.88606 9.4994 5.85522 9.42494 5.85522 9.34729V8.25989ZM6.27345 8.38536V9.22182H7.10991V8.38536H6.27345ZM3.13672 10.351C3.13672 10.2734 3.16756 10.1989 3.22247 10.144C3.27737 10.0891 3.35183 10.0583 3.42948 10.0583H4.51688C4.59452 10.0583 4.66899 10.0891 4.72389 10.144C4.7788 10.1989 4.80964 10.2734 4.80964 10.351V11.4384C4.80964 11.5161 4.7788 11.5906 4.72389 11.6455C4.66899 11.7004 4.59452 11.7312 4.51688 11.7312H3.42948C3.35183 11.7312 3.27737 11.7004 3.22247 11.6455C3.16756 11.5906 3.13672 11.5161 3.13672 11.4384V10.351ZM3.55495 10.4765V11.313H4.39141V10.4765H3.55495ZM5.85522 10.351C5.85522 10.2734 5.88606 10.1989 5.94097 10.144C5.99587 10.0891 6.07033 10.0583 6.14798 10.0583H7.23538C7.31302 10.0583 7.38749 10.0891 7.44239 10.144C7.4973 10.1989 7.52814 10.2734 7.52814 10.351V11.4384C7.52814 11.5161 7.4973 11.5906 7.44239 11.6455C7.38749 11.7004 7.31302 11.7312 7.23538 11.7312H6.14798C6.07033 11.7312 5.99587 11.7004 5.94097 11.6455C5.88606 11.5906 5.85522 11.5161 5.85522 11.4384V10.351ZM6.27345 10.4765V11.313H7.10991V10.4765H6.27345Z" fill="#3C3C3C"/>
<path d="M6.2778 2.32124C6.25158 2.63848 6.3368 2.95493 6.5188 3.21609C6.70079 3.47725 6.96816 3.66677 7.27486 3.75201C7.46725 3.80554 7.63245 3.63909 7.63245 3.43959C7.63245 3.29279 7.51032 3.17778 7.37314 3.12466C7.21577 3.06372 7.08395 2.95083 6.99952 2.80472C6.91509 2.6586 6.88312 2.48802 6.90891 2.32124H8.36895C8.34273 2.63848 8.42795 2.95493 8.60995 3.21609C8.79195 3.47725 9.05932 3.66677 9.36601 3.75201C9.5584 3.80554 9.7236 3.63909 9.7236 3.43959C9.7236 3.29279 9.60147 3.17778 9.4643 3.12466C9.30693 3.06372 9.17511 2.95083 9.09068 2.80472C9.00625 2.6586 8.97427 2.48802 9.00006 2.32124H11.3928C12.2585 2.32124 12.9649 3.02847 12.9649 3.90424V11.2045C12.9649 12.3002 12.0761 13.1952 10.9745 13.1952H2.40875C1.88103 13.1944 1.37518 12.9843 1.00203 12.6112C0.62888 12.238 0.418853 11.7322 0.417969 11.2045V3.90424C0.417969 3.02847 1.12478 2.31706 1.9901 2.32124H2.09549C2.11782 2.05139 2.21975 1.79425 2.38836 1.58238C2.55697 1.37052 2.78468 1.21348 3.04263 1.13115C3.30058 1.04883 3.57717 1.04492 3.83734 1.11994C4.09751 1.19495 4.32956 1.34551 4.50408 1.55253C4.63234 1.40013 4.7924 1.27765 4.97302 1.1937C5.15365 1.10974 5.35047 1.06634 5.54966 1.06655C5.96914 1.06655 6.3443 1.25517 6.59523 1.55253C6.72349 1.40013 6.88355 1.27765 7.06418 1.1937C7.24481 1.10974 7.44162 1.06634 7.64081 1.06655C8.0603 1.06655 8.43545 1.25517 8.68639 1.55253C8.86091 1.34551 9.09296 1.19495 9.35313 1.11994C9.6133 1.04492 9.88988 1.04883 10.1478 1.13115C10.4058 1.21348 10.6335 1.37052 10.8021 1.58238C10.9707 1.79425 11.0726 2.05139 11.095 2.32124H10.4634C10.4367 2.14777 10.3491 1.98945 10.2165 1.87455C10.0838 1.75964 9.91456 1.69562 9.73905 1.69391C9.56353 1.6922 9.39311 1.75292 9.25821 1.86522C9.12332 1.97752 9.03271 2.1341 9.00257 2.30702L9.00382 2.32124H8.36895L8.3702 2.30702C8.34042 2.13517 8.25092 1.97936 8.11747 1.86706C7.98403 1.75475 7.81522 1.69317 7.64081 1.69317C7.4664 1.69317 7.29759 1.75475 7.16415 1.86706C7.03071 1.97936 6.9412 2.13517 6.91142 2.30702L6.91267 2.32124H6.2778ZM4.81817 2.32124H4.18664C4.16042 2.63848 4.24565 2.95493 4.42764 3.21609C4.60964 3.47725 4.87701 3.66677 5.18371 3.75201C5.37609 3.80554 5.54129 3.63909 5.54129 3.43959C5.54129 3.29279 5.41917 3.17778 5.28199 3.12466C5.12462 3.06372 4.9928 2.95083 4.90837 2.80472C4.82394 2.6586 4.79197 2.48802 4.81775 2.32124H6.2778L6.27905 2.30702C6.24927 2.13517 6.15976 1.97936 6.02632 1.86706C5.89288 1.75475 5.72407 1.69317 5.54966 1.69317C5.37525 1.69317 5.20644 1.75475 5.073 1.86706C4.93955 1.97936 4.85005 2.13517 4.82026 2.30702L4.82152 2.32124H4.81775H4.81817ZM2.0934 2.35177C2.07459 2.66426 2.16353 2.97375 2.34537 3.22858C2.5272 3.48341 2.79094 3.66816 3.09255 3.75201C3.28494 3.80554 3.45014 3.63909 3.45014 3.43959C3.45014 3.29279 3.32802 3.17778 3.19084 3.12466C3.03347 3.06372 2.90165 2.95083 2.81722 2.80472C2.73279 2.6586 2.70082 2.48802 2.7266 2.32124H4.18664L4.1879 2.30702C4.15802 2.13383 4.0675 1.97692 3.93253 1.86436C3.79756 1.75179 3.62694 1.69092 3.4512 1.69263C3.27546 1.69434 3.10606 1.75852 2.97331 1.87369C2.84055 1.98886 2.7531 2.1475 2.7266 2.32124H2.40875C2.303 2.32063 2.19748 2.33086 2.09382 2.35177H2.0934ZM1.25443 11.2045C1.25531 11.5103 1.37715 11.8033 1.59335 12.0196C1.80954 12.2358 2.10253 12.3578 2.40833 12.3588H9.41411V11.7314H8.86623C8.78858 11.7314 8.71412 11.7006 8.65921 11.6457C8.60431 11.5908 8.57346 11.5163 8.57346 11.4387V10.3513C8.57346 10.2736 8.60431 10.1992 8.65921 10.1443C8.71412 10.0894 8.78858 10.0585 8.86623 10.0585H9.95363C9.98195 10.0585 10.0101 10.0626 10.0373 10.0706C10.3593 9.79291 10.7705 9.64017 11.1958 9.64028H12.1284V4.83063H1.25443V11.2045ZM9.83234 11.4219V12.2722L12.046 10.0585H11.1958C10.8345 10.0596 10.4884 10.2036 10.2329 10.4591C9.97744 10.7145 9.83344 11.0607 9.83234 11.4219ZM8.9917 10.4767V11.3132H9.41745V11.3078L9.41913 11.2885C9.44065 11.0001 9.53256 10.7214 9.6868 10.4767H8.9917Z" fill="#3C3C3C"/>
</g>
<defs>
<clipPath id="clip0_303_3424">
<rect width="13.3834" height="13.3834" fill="white" transform="translate(0 0.230469)"/>
</clipPath>
</defs>
</svg>
