<svg width="70" height="47" viewBox="0 0 70 47" fill="none" xmlns="http://www.w3.org/2000/svg">
<path d="M9.30818 8.8584H9.15666C7.76543 8.8584 6.63867 9.98516 6.63867 11.3764V44.113C6.63867 45.5042 7.76543 46.631 9.15666 46.631H9.30818C10.6994 46.631 11.8262 45.5042 11.8262 44.113V11.3764C11.8262 9.98792 10.6994 8.8584 9.30818 8.8584Z" fill="black"/>
<path d="M19.6832 8.8584H19.5317C18.1404 8.8584 17.0137 9.98516 17.0137 11.3764V44.113C17.0137 45.5042 18.1404 46.631 19.5317 46.631H19.6832C21.0744 46.631 22.2012 45.5042 22.2012 44.113V11.3764C22.2039 9.98792 21.0744 8.8584 19.6832 8.8584Z" fill="black"/>
<path d="M30.0601 8.8584H29.9086C28.5174 8.8584 27.3906 9.98516 27.3906 11.3764V44.113C27.3906 45.5042 28.5174 46.631 29.9086 46.631H30.0601C31.4514 46.631 32.5781 45.5042 32.5781 44.113V11.3764C32.5809 9.98792 31.4514 8.8584 30.0601 8.8584Z" fill="black"/>
<path d="M40.439 8.8584H40.2875C38.8963 8.8584 37.7695 9.98516 37.7695 11.3764V44.113C37.7695 45.5042 38.8963 46.631 40.2875 46.631H40.439C41.8303 46.631 42.957 45.5042 42.957 44.113V11.3764C42.957 9.98792 41.8303 8.8584 40.439 8.8584Z" fill="black"/>
<path d="M50.816 8.8584H50.6645C49.2732 8.8584 48.1465 9.98516 48.1465 11.3764V44.113C48.1465 45.5042 49.2732 46.631 50.6645 46.631H50.816C52.2072 46.631 53.334 45.5042 53.334 44.113V11.3764C53.334 9.98792 52.2072 8.8584 50.816 8.8584Z" fill="black"/>
<path d="M9.30818 35.7715H9.15666C7.76543 35.7715 6.63867 36.8982 6.63867 38.2895V44.1133C6.63867 45.5046 7.76543 46.6313 9.15666 46.6313H9.30818C10.6994 46.6313 11.8262 45.5046 11.8262 44.1133V38.2895C11.8262 36.901 10.6994 35.7715 9.30818 35.7715Z" fill="#B744B8"/>
<path d="M19.6832 28.6777H19.5317C18.1404 28.6777 17.0137 29.8045 17.0137 31.1957V44.1162C17.0137 45.5075 18.1404 46.6342 19.5317 46.6342H19.6832C21.0744 46.6342 22.2012 45.5075 22.2012 44.1162V31.1957C22.2039 29.8045 21.0744 28.6777 19.6832 28.6777Z" fill="#B744B8"/>
<path d="M30.0601 21.9668H29.9086C28.5174 21.9668 27.3906 23.0935 27.3906 24.4848V44.1163C27.3906 45.5075 28.5174 46.6343 29.9086 46.6343H30.0601C31.4514 46.6343 32.5781 45.5075 32.5781 44.1163V24.4848C32.5809 23.0935 31.4514 21.9668 30.0601 21.9668Z" fill="#B744B8"/>
<path d="M40.439 23.4902H40.2875C38.8963 23.4902 37.7695 24.617 37.7695 26.0082V44.1135C37.7695 45.5047 38.8963 46.6315 40.2875 46.6315H40.439C41.8303 46.6315 42.957 45.5047 42.957 44.1135V26.0082C42.957 24.617 41.8303 23.4902 40.439 23.4902Z" fill="#B744B8"/>
<path d="M50.816 14.9775H50.6645C49.2732 14.9775 48.1465 16.1043 48.1465 17.4955V44.1134C48.1465 45.5047 49.2732 46.6314 50.6645 46.6314H50.816C52.2072 46.6314 53.334 45.5047 53.334 44.1134V17.4955C53.334 16.1043 52.2072 14.9775 50.816 14.9775Z" fill="#B744B8"/>
<path d="M61.193 8.9248H61.0414C59.6502 8.9248 58.5234 10.0516 58.5234 11.4428V44.1133C58.5234 45.5045 59.6502 46.6313 61.0414 46.6313H61.193C62.5842 46.6313 63.711 45.5045 63.711 44.1133V11.4456C63.711 10.0543 62.5842 8.9248 61.193 8.9248Z" fill="#B744B8"/>
<path d="M2.20755 34.4735C2.12215 34.4735 2.03675 34.4652 1.95135 34.4459C1.63453 34.377 1.36455 34.1842 1.18823 33.9059C0.832849 33.3357 0.995391 32.5753 1.55188 32.2117L28.9274 14.2579C29.2057 14.0761 29.55 14.0182 29.8696 14.1009L40.0931 16.7208C40.33 16.7814 40.5752 16.7263 40.768 16.5721L50.9695 8.39549C51.0493 8.32937 51.1402 8.27702 51.2339 8.23294L67.4686 1.07018C67.7606 0.940695 68.0857 0.935186 68.3832 1.05365C68.6863 1.17486 68.9232 1.40904 69.0527 1.71483C69.3144 2.33469 69.0306 3.05922 68.4246 3.32645L52.4295 10.3845C52.3662 10.4121 52.3083 10.4479 52.256 10.4892L41.4926 19.1176C41.2033 19.3518 40.8148 19.4344 40.4567 19.3435L30.123 16.6933C29.9137 16.6409 29.6905 16.6767 29.5087 16.798L2.85771 34.2779C2.65935 34.4073 2.43621 34.4735 2.20755 34.4735ZM1.54085 33.6856C1.65656 33.8701 1.83287 33.9969 2.04225 34.0409C2.24611 34.085 2.45549 34.0465 2.62904 33.9307L29.28 16.4508C29.5583 16.269 29.9027 16.2112 30.2222 16.2938L40.5559 18.944C40.7928 19.0046 41.038 18.9495 41.2308 18.7953L51.9943 10.1669C52.0742 10.1008 52.1651 10.0484 52.2615 10.0043L68.2565 2.94627C68.6587 2.76995 68.8461 2.28786 68.6725 1.87186C68.5871 1.67076 68.4301 1.51372 68.2317 1.43383C68.0389 1.35669 67.8267 1.35944 67.6367 1.44484L51.4047 8.60761C51.3414 8.63515 51.2835 8.67097 51.2312 8.71229L41.0297 16.8889C40.7377 17.123 40.352 17.2057 39.9939 17.1148L29.7732 14.4949C29.5638 14.4425 29.3406 14.4783 29.1588 14.5995L1.78329 32.5533C1.41137 32.7985 1.30393 33.3054 1.54085 33.6856Z" fill="black"/>
<path d="M1.38973 31.9653L1.39115 31.9644L28.7667 14.0106L28.767 14.0104C29.1153 13.7823 29.5407 13.711 29.9447 13.8149L1.38973 31.9653ZM1.38973 31.9653C0.699111 32.4216 0.498093 33.3556 0.938188 34.0605C1.38229 34.7719 2.31362 34.9842 3.01701 34.5222L29.6674 17.0427L1.38973 31.9653ZM40.1681 16.4348L29.9453 13.8151L29.6678 17.0425C29.782 16.9678 29.9182 16.9455 30.0484 16.9791L30.0489 16.9792L40.3826 19.6295L40.3866 19.6304C40.8381 19.7423 41.3115 19.6381 41.6749 19.3491L41.6763 19.3479L52.4394 10.7198C52.4759 10.6906 52.5111 10.6691 52.5508 10.6512C52.5512 10.651 52.5516 10.6508 52.552 10.6507L68.5442 3.59657L68.5448 3.59631C69.3052 3.25972 69.6442 2.36283 69.3241 1.601L68.8639 1.79437L69.3241 1.60099C69.0015 0.833476 68.1236 0.463408 67.3531 0.802621L67.3527 0.802771L51.1208 7.96277L51.1181 7.96399C51.0058 8.01434 50.8922 8.08016 50.7862 8.16779L40.5881 16.3417L40.5868 16.3427C40.4662 16.44 40.3121 16.4721 40.1695 16.4352L40.1681 16.4348Z" fill="#FFFFFD" stroke="black"/>
</svg>
