<svg width="788" height="971" viewBox="0 0 788 971" fill="none" xmlns="http://www.w3.org/2000/svg">
<mask id="mask0_477_926" style="mask-type:alpha" maskUnits="userSpaceOnUse" x="0" y="0" width="788" height="971">
<rect width="788" height="971" fill="#D9D9D9"/>
</mask>
<g mask="url(#mask0_477_926)">
<path d="M722.843 371.801C760.587 398.139 763.077 453.11 727.87 482.753L547.943 634.245C525.93 652.779 494.818 655.953 469.516 642.247L99.2628 441.673C62.9083 421.979 51.4537 375.233 74.5846 340.963L228.226 113.33C250.092 80.9337 294.252 72.7196 326.305 95.0868L722.843 371.801Z" fill="white" fill-opacity="0.5"/>
<path d="M218.733 619.579C174.096 627.456 133.857 591.481 136.706 546.244L152.08 302.141C153.911 273.074 173.549 248.177 201.391 239.626L571.352 126.003C611.117 113.791 652.696 138.746 660.621 179.583L714.983 459.712C722.437 498.121 696.961 535.183 658.431 541.982L218.733 619.579Z" fill="#FFD857" fill-opacity="0.5"/>
</g>
<mask id="mask1_477_926" style="mask-type:alpha" maskUnits="userSpaceOnUse" x="102" y="26" width="607" height="945">
<rect x="102" y="26" width="607" height="945" fill="#D9D9D9"/>
</mask>
<g mask="url(#mask1_477_926)">
<path d="M270.674 574.399L201.169 886.134H217.846L287.352 574.399H270.674Z" fill="white"/>
<path d="M200.362 886.776H218.348L218.463 886.275L288.148 573.758H270.163L270.047 574.258L200.362 886.776ZM217.335 885.493H201.966L271.189 575.041H286.558L217.335 885.493Z" fill="#606060"/>
<path d="M202.244 842.594L202.116 870.509L164.9 896.551V909.572H269.094V887.25L259.665 842.594H202.244Z" fill="black"/>
<path d="M403.034 476.363C403.034 476.363 415.862 519.981 396.619 599.518C381.225 632.872 311.258 626.201 256.788 620.044C256.788 620.044 259.187 663.917 263.202 695.732C267.217 727.547 265.768 794.512 264.485 841.978H193.928C193.928 841.978 141.33 711.127 128.502 555.901C123.216 491.963 372.245 448.14 403.034 476.363Z" fill="#0E110F"/>
<path d="M182.35 810.766H241.131L241.041 809.714C233.793 727.573 224.145 599.453 223.158 586.317C229.02 586.535 258.86 586.843 336.947 575.708C355.459 573.065 368.878 564.97 376.831 551.641C395.715 519.98 377.152 468.73 376.96 468.217L375.151 468.884C375.343 469.384 393.586 519.788 375.164 550.653C367.531 563.456 354.574 571.243 336.665 573.796C249.02 586.291 222.439 584.354 222.183 584.328L221.067 584.239L221.156 585.355C221.259 586.727 231.419 722.518 239.027 808.816H182.35V810.766Z" fill="white"/>
<path d="M505.653 476.902C505.653 476.902 545.422 553.874 521.048 594.926C499.239 628.28 415.16 622.892 360.69 616.734C360.69 616.734 361.806 664.457 365.822 696.271C369.837 728.086 368.387 795.052 367.104 842.517H296.547C296.547 842.517 243.95 711.666 231.121 556.44C225.836 492.502 474.865 448.68 505.653 476.902Z" fill="#0E110F"/>
<path d="M548.959 580.762L614.834 876.218C615.963 881.298 612.102 886.121 606.893 886.121C603.083 886.121 599.773 883.479 598.952 879.759L533.077 584.303C531.949 579.223 535.81 574.399 541.018 574.399C544.828 574.399 548.138 577.042 548.959 580.762Z" fill="#FFFFFD"/>
<path d="M606.889 887.097C609.66 887.097 612.251 885.852 613.996 883.684C615.74 881.516 616.382 878.72 615.779 876.013L549.904 580.557C548.968 576.362 545.311 573.438 541.027 573.438C538.256 573.438 535.664 574.682 533.92 576.85C532.175 579.018 531.533 581.815 532.136 584.521L598.011 879.977C598.948 884.172 602.591 887.097 606.889 887.097ZM548.955 580.763L548.018 580.968L613.893 876.423C614.368 878.566 613.855 880.759 612.482 882.478C611.109 884.185 609.069 885.172 606.876 885.172C603.489 885.172 600.603 882.863 599.871 879.553L533.997 584.098C533.522 581.956 534.035 579.762 535.408 578.043C536.78 576.337 538.82 575.349 541.001 575.349C544.388 575.349 547.274 577.658 548.005 580.968L548.955 580.763Z" fill="black"/>
<path d="M380.145 623.135C380.145 623.135 536.231 638.542 564.454 589.793C592.677 541.045 611.92 416.607 586.262 347.333C586.262 347.333 563.825 469.5 560.297 473.849C556.757 478.185 545.211 530.782 479.785 538.479C414.359 546.176 380.569 558.992 380.145 623.135Z" fill="#FFFFFD"/>
<path d="M434.034 626.407C442.847 626.407 452.238 626.214 461.769 625.714C518.587 622.725 553.404 610.794 565.283 590.281C579.421 565.868 591.39 522.213 596.521 476.376C602.294 424.818 598.971 378.879 587.169 347.013L585.95 343.729L585.322 347.167C576.354 396.005 562.089 469.885 559.549 473.246C558.959 473.977 558.317 475.491 557.266 478.031C551.223 492.515 535.188 531 479.678 537.53C447.171 541.353 422.039 546.446 405.029 558.877C387.607 571.603 379.397 592.026 379.192 623.148V624.021L380.064 624.11C380.346 624.123 403.887 626.407 434.034 626.407ZM586.553 351.041C610.992 422.56 589.889 543.944 563.616 589.319C537.112 635.104 393.739 623.405 381.116 622.276C381.809 561.289 412.238 547.408 479.896 539.442C536.535 532.784 553.468 492.13 559.036 478.762C559.921 476.646 560.614 474.965 561.037 474.452C564.398 470.334 582.384 373.632 586.553 351.041Z" fill="black"/>
<path d="M381.117 258.842C381.117 258.842 331.766 283.588 324.325 307.77C316.884 331.952 315.024 356.147 302.003 365.447C288.982 374.748 285.262 376.608 294.563 384.049C303.863 391.489 344.684 425.036 344.684 425.036L381.117 258.842Z" fill="#29A37A"/>
<path d="M395.017 251.952C395.017 251.952 344.78 270.554 342.92 313.35C341.06 356.146 344.78 413.823 344.78 432.425C344.78 451.026 329.899 477.081 342.92 482.662C355.941 488.242 443.394 504.983 525.266 473.361C525.266 473.361 534.566 369.167 534.566 317.07C534.566 264.973 519.685 242.639 467.588 242.639L395.017 251.952Z" fill="#29A37A"/>
<path d="M343.983 451.887H361.943V433.426C361.943 432.361 362.802 431.502 363.867 431.502C364.932 431.502 365.791 432.361 365.791 433.426V451.887H383.751C384.816 451.887 385.676 452.746 385.676 453.811C385.676 454.876 384.816 455.735 383.751 455.735H365.791V473.195C365.791 474.26 364.932 475.119 363.867 475.119C362.802 475.119 361.943 474.26 361.943 473.195V455.735H343.983C342.918 455.735 342.059 454.876 342.059 453.811C342.059 452.746 342.918 451.887 343.983 451.887Z" fill="#FFFFFD"/>
<path d="M388.888 306.924H370.928V324.383C370.928 325.448 370.069 326.308 369.004 326.308C367.939 326.308 367.08 325.448 367.08 324.383V306.924H349.12C348.055 306.924 347.195 306.064 347.195 304.999C347.195 303.935 348.055 303.075 349.12 303.075H367.08V284.615C367.08 283.55 367.939 282.69 369.004 282.69C370.069 282.69 370.928 283.55 370.928 284.615V303.075H388.888C389.953 303.075 390.812 303.935 390.812 304.999C390.812 306.064 389.953 306.924 388.888 306.924Z" fill="#FFFFFD"/>
<path d="M424.807 464.715H442.767V446.254C442.767 445.19 443.627 444.33 444.691 444.33C445.756 444.33 446.616 445.19 446.616 446.254V464.715H464.576C465.64 464.715 466.5 465.574 466.5 466.639C466.5 467.704 465.64 468.563 464.576 468.563H446.616V486.023C446.616 487.088 445.756 487.947 444.691 487.947C443.627 487.947 442.767 487.088 442.767 486.023V468.563H424.807C423.742 468.563 422.883 467.704 422.883 466.639C422.883 465.574 423.742 464.715 424.807 464.715Z" fill="#FFFFFD"/>
<path d="M368.996 379.405C368.996 378.34 369.856 377.48 370.92 377.48H388.88V359.02C388.88 357.955 389.74 357.096 390.805 357.096C391.869 357.096 392.729 357.955 392.729 359.02V377.48H410.689C411.754 377.48 412.613 378.34 412.613 379.405C412.613 380.469 411.754 381.329 410.689 381.329H392.729V398.789C392.729 399.853 391.869 400.713 390.805 400.713C389.74 400.713 388.88 399.853 388.88 398.789V381.329H370.92C369.856 381.329 368.996 380.469 368.996 379.405Z" fill="#FFFFFD"/>
<path d="M415.823 272.286H433.783V253.826C433.783 252.761 434.642 251.901 435.707 251.901C436.772 251.901 437.631 252.761 437.631 253.826V272.286H455.591C456.656 272.286 457.516 273.146 457.516 274.21C457.516 275.275 456.656 276.135 455.591 276.135H437.631V293.594C437.631 294.659 436.772 295.519 435.707 295.519C434.642 295.519 433.783 294.659 433.783 293.594V276.135H415.823C414.758 276.135 413.898 275.275 413.898 274.21C413.898 273.146 414.758 272.286 415.823 272.286Z" fill="#FFFFFD"/>
<path d="M486.381 422.381H504.341V403.92C504.341 402.856 505.201 401.996 506.266 401.996C507.33 401.996 508.19 402.856 508.19 403.92V422.381H526.15C527.215 422.381 528.074 423.24 528.074 424.305C528.074 425.37 527.215 426.229 526.15 426.229H508.19V443.689C508.19 444.754 507.33 445.613 506.266 445.613C505.201 445.613 504.341 444.754 504.341 443.689V426.229H486.381C485.317 426.229 484.457 425.37 484.457 424.305C484.457 423.24 485.317 422.381 486.381 422.381Z" fill="#FFFFFD"/>
<path d="M464.58 378.263V360.804H446.62C445.555 360.804 444.695 359.944 444.695 358.879C444.695 357.814 445.555 356.955 446.62 356.955H464.58V338.495C464.58 337.43 465.439 336.57 466.504 336.57C467.569 336.57 468.428 337.43 468.428 338.495V356.955H486.388C487.453 356.955 488.312 357.814 488.312 358.879C488.312 359.944 487.453 360.804 486.388 360.804H468.428V378.263C468.428 379.328 467.569 380.188 466.504 380.188C465.439 380.188 464.58 379.328 464.58 378.263Z" fill="#FFFFFD"/>
<path d="M526.15 292.811H508.19V310.271C508.19 311.336 507.33 312.195 506.266 312.195C505.201 312.195 504.341 311.336 504.341 310.271V292.811H486.381C485.317 292.811 484.457 291.952 484.457 290.887C484.457 289.822 485.317 288.963 486.381 288.963H504.341V270.502C504.341 269.438 505.201 268.578 506.266 268.578C507.33 268.578 508.19 269.438 508.19 270.502V288.963H526.15C527.215 288.963 528.074 289.822 528.074 290.887C528.074 291.952 527.215 292.811 526.15 292.811Z" fill="#FFFFFD"/>
<path d="M294.064 384.498C294.064 384.498 236.335 426.832 247.881 456.338C259.427 485.844 311.678 476.415 342.646 459.314C373.601 442.227 395.91 408 395.91 408C395.91 408 329.984 380.65 294.064 384.498Z" fill="#FFFFFD"/>
<path d="M284.255 476.338C303.741 476.338 326.538 469.308 343.112 460.161C373.927 443.151 396.492 408.873 396.723 408.526L397.352 407.551L396.287 407.102C395.62 406.833 329.732 379.7 293.966 383.523L293.709 383.549L293.504 383.703C291.118 385.448 235.314 426.82 247 456.672C250.079 464.549 256.109 470.155 264.909 473.336C270.618 475.415 277.225 476.338 284.255 476.338ZM394.452 408.436C390.552 414.12 369.667 443.292 342.176 458.468C320.008 470.706 286.564 479.135 265.551 471.54C257.289 468.551 251.644 463.317 248.771 455.979C237.969 428.359 290.656 388.231 294.415 385.422C327.23 382.061 385.742 404.934 394.452 408.436Z" fill="black"/>
<path d="M247.867 306.243H387.711L440.309 429.398H284.197C277.77 429.398 271.985 425.472 269.611 419.481L233.281 327.693C229.214 317.391 236.796 306.243 247.867 306.243Z" fill="#FFFFFD"/>
<path d="M284.2 430.347H441.773L388.355 305.269H247.869C242.353 305.269 237.209 307.988 234.104 312.555C231 317.122 230.358 322.908 232.398 328.039L268.728 419.828C271.256 426.229 277.324 430.347 284.2 430.347ZM438.861 428.423H284.2C278.119 428.423 272.744 424.767 270.512 419.122L234.181 327.334C232.359 322.728 232.911 317.738 235.695 313.646C238.479 309.553 242.917 307.206 247.869 307.206H387.085L438.861 428.423Z" fill="black"/>
<path d="M500.602 423.625C500.602 420.431 498.023 417.852 494.829 417.852H446.721L402.078 315.647C399.576 309.938 393.945 306.243 387.71 306.243L440.307 429.398H494.829C498.023 429.398 500.602 426.806 500.602 423.625Z" fill="black"/>
<path d="M592.673 403.061C592.673 403.061 611.352 504.625 575.868 515.76C540.384 526.896 520.73 518.108 495.278 503.265C469.826 488.41 415.946 442.227 404.401 424.267C392.855 406.307 382.592 398.61 390.289 390.912C397.986 383.215 419.307 397.263 425.965 403.061C432.624 408.872 422.361 384.498 430.058 384.498C437.755 384.498 439.038 407.59 446.735 414.004C454.432 420.418 519.281 438.327 519.281 438.327L515.509 424.382C515.496 424.369 575.688 390.835 592.673 403.061Z" fill="#FFFFFD"/>
<path d="M546.571 521.699C555.333 521.699 564.98 520.185 576.154 516.683C612.048 505.433 594.383 407.076 593.614 402.894L593.549 402.509L593.229 402.278C575.949 389.834 517.514 422.149 515.026 423.522L514.371 423.894L517.899 436.928C507.816 434.106 454.128 418.904 447.342 413.246C444.019 410.475 441.903 404.215 439.85 398.16C437.31 390.629 434.898 383.522 430.049 383.522C428.933 383.522 428.035 383.92 427.368 384.69C425.341 387.037 426.123 392.438 426.829 397.198C427.124 399.225 427.522 401.919 427.342 402.881C427.188 402.791 426.944 402.624 426.598 402.329C419.594 396.223 397.823 382.009 389.613 390.219C383.314 396.518 387.804 402.65 395.245 412.81C397.772 416.261 400.633 420.174 403.596 424.779C415.437 443.201 470.344 489.82 494.808 504.086C511.972 514.118 527.02 521.699 546.571 521.699ZM591.792 403.625C592.998 410.488 608.764 504.432 575.577 514.836C540.157 525.946 520.978 517.132 495.757 502.418C471.447 488.229 416.938 441.982 405.2 423.727C402.211 419.07 399.324 415.145 396.784 411.668C388.997 401.021 386.021 396.505 390.96 391.579C398.119 384.433 418.952 398.224 425.328 403.779C425.828 404.215 427.137 405.357 428.291 404.728C429.69 403.958 429.42 401.662 428.728 396.928C428.15 393.003 427.368 387.64 428.817 385.947C429.112 385.601 429.51 385.447 430.049 385.447C433.525 385.447 435.822 392.22 438.028 398.776C440.158 405.087 442.364 411.604 446.11 414.722C453.872 421.2 516.36 438.493 519.015 439.224L520.644 439.673L516.629 424.83C523.159 421.303 576.026 393.17 591.792 403.625Z" fill="black"/>
<path d="M487.184 242.921C487.184 242.921 528.299 251.413 550.198 277.815C572.096 304.229 607.439 395.248 597.009 401.008C586.58 406.768 526.529 426.665 511.866 424.151C511.866 424.151 508.197 426.216 504.348 418.519C500.5 410.822 456.883 260.74 487.184 242.921Z" fill="#29A37A"/>
<path d="M503.077 374.915H521.037V356.455C521.037 355.39 521.896 354.53 522.961 354.53C524.026 354.53 524.885 355.39 524.885 356.455V374.915H542.845C543.91 374.915 544.77 375.774 544.77 376.839C544.77 377.904 543.91 378.764 542.845 378.764H524.885V396.223C524.885 397.288 524.026 398.148 522.961 398.148C521.896 398.148 521.037 397.288 521.037 396.223V378.764H503.077C502.012 378.764 501.152 377.904 501.152 376.839C501.152 375.774 502.012 374.915 503.077 374.915Z" fill="#FFFFFD"/>
<path d="M568.504 392.875H586.464V374.415C586.464 373.35 587.323 372.49 588.388 372.49C589.453 372.49 590.312 373.35 590.312 374.415V392.875H598.805C598.92 394.325 598.933 395.62 598.843 396.723H590.312V404.036C589.119 404.51 587.849 405.011 586.464 405.537V396.723H568.504C567.439 396.723 566.579 395.864 566.579 394.799C566.579 393.734 567.439 392.875 568.504 392.875Z" fill="#FFFFFD"/>
<path d="M540.926 315.262C540.926 314.197 541.785 313.338 542.85 313.338H560.81V294.877C560.81 294.557 560.887 294.274 561.028 294.005C562.234 296.096 563.44 298.277 564.659 300.535V313.338H571.15C571.766 314.608 572.369 315.89 572.984 317.186H564.659V334.646C564.659 335.711 563.799 336.57 562.734 336.57C561.67 336.57 560.81 335.711 560.81 334.646V317.186H542.85C541.785 317.186 540.926 316.327 540.926 315.262Z" fill="#FFFFFD"/>
<path d="M490.255 294.095V275.634C490.255 274.569 491.115 273.71 492.18 273.71C493.244 273.71 494.104 274.569 494.104 275.634V294.095H512.064C513.129 294.095 513.988 294.954 513.988 296.019C513.988 297.084 513.129 297.943 512.064 297.943H494.104V315.403C494.104 316.468 493.244 317.327 492.18 317.327C491.115 317.327 490.255 316.468 490.255 315.403V297.943H477.632C477.504 296.648 477.388 295.365 477.286 294.095H490.255Z" fill="#FFFFFD"/>
<path d="M506.287 252.402C506.287 251.337 507.147 250.478 508.212 250.478H510.508C513.228 251.606 516.063 252.889 518.949 254.326H508.212C507.147 254.326 506.287 253.467 506.287 252.402Z" fill="#FFFFFD"/>
<path d="M528.095 273.71C527.03 273.71 526.171 272.851 526.171 271.786V258.188C527.454 258.932 528.737 259.714 530.02 260.522V271.773C530.02 272.851 529.16 273.71 528.095 273.71Z" fill="#FFFFFD"/>
<path d="M326.775 376.339C320.398 376.339 315.229 371.169 315.229 364.793C315.229 358.416 320.398 353.247 326.775 353.247C333.151 353.247 338.32 358.416 338.32 364.793C338.32 371.169 333.151 376.339 326.775 376.339Z" fill="black"/>
<path d="M403.114 161.55L378.932 163.41C378.932 163.41 367.771 252.723 416.148 237.829V247.129C416.148 247.129 401.267 250.85 395.686 252.71C395.686 252.71 414.288 265.731 434.762 262.01C455.237 258.29 468.258 243.409 468.258 243.409H458.021L450.58 207.13C450.58 207.13 461.741 199.689 461.741 192.249C461.741 184.808 459.881 182.948 454.3 181.088C448.72 179.228 441.279 188.528 441.279 188.528C441.279 188.528 431.979 171.787 430.118 160.613L403.114 161.55Z" fill="#FFFFFD"/>
<path d="M427.101 263.665C429.641 263.665 432.258 263.46 434.914 262.973C455.478 259.227 468.422 244.666 468.961 244.05L470.359 242.46H458.788L451.63 207.566C453.939 205.924 462.688 199.227 462.688 192.248C462.688 184.179 460.302 182.075 454.593 180.177C449.628 178.522 443.714 184.333 441.444 186.848C439.301 182.807 432.566 169.619 431.053 160.472L430.911 159.638L403.048 160.6L378.07 162.525L377.968 163.307C377.686 165.552 371.335 218.432 391.515 235.378C397.647 240.522 405.601 241.78 415.171 239.137V246.411C412.079 247.193 400.277 250.195 395.363 251.824L393.555 252.427L395.12 253.518C395.787 253.98 409.847 263.665 427.101 263.665ZM465.946 244.384C461.944 248.284 450.488 258.187 434.555 261.087C418.25 264.05 402.932 256.032 397.916 253.03C404.318 251.093 416.223 248.117 416.351 248.091L417.082 247.912V236.558L415.838 236.943C406.37 239.855 398.609 238.842 392.746 233.916C374.645 218.727 379.058 171.03 379.777 164.333L403.15 162.537L429.282 161.639C431.437 172.8 440.033 188.349 440.405 189.028L441.097 190.286L441.995 189.17C443.945 186.732 449.911 180.69 453.964 182.037C459.224 183.794 460.751 185.347 460.751 192.287C460.751 199.125 450.129 206.296 450.013 206.373L449.474 206.732L457.21 244.422H465.946V244.384Z" fill="black"/>
<path d="M379.378 163.679C379.378 163.679 431.975 194.468 440.955 188.053C449.935 181.639 450.076 179.574 456.426 181.896C462.764 184.205 461.904 192.838 461.058 195.571C460.211 198.303 449.948 207.296 449.948 207.296L457.209 243.422C457.209 243.422 544.443 234.442 572.666 317.827C572.666 317.827 576.515 266.513 557.272 242.139C546.008 227.861 523.918 201.087 495.913 196.802C483.713 194.942 483.302 184.205 487.151 172.659C490.999 161.113 471.757 141.87 458.928 141.87C446.099 141.87 435.836 129.042 425.574 126.476C415.311 123.91 396.068 123.91 379.391 132.89C362.713 141.87 355.978 187.899 379.878 206.578C379.852 206.578 376.812 175.225 379.378 163.679Z" fill="black"/>
<path d="M480.303 517.03L546.614 897.232C547.858 904.377 553.875 909.573 560.905 909.573C569.949 909.573 576.799 901.106 575.196 891.895L508.885 511.694C507.641 504.548 501.624 499.353 494.594 499.353C485.537 499.353 478.699 507.819 480.303 517.03Z" fill="#FFFFFD"/>
<path d="M560.899 910.547C565.389 910.547 569.648 908.546 572.586 905.043C575.677 901.374 576.96 896.525 576.126 891.74L509.815 511.539C508.481 503.919 502.08 498.39 494.575 498.39C490.085 498.39 485.826 500.391 482.888 503.893C479.796 507.562 478.513 512.411 479.347 517.196L480.297 517.03L479.347 517.196L545.658 897.398C546.992 905.018 553.394 910.547 560.899 910.547ZM494.588 500.314C501.156 500.314 506.762 505.176 507.929 511.86L574.24 892.061C574.972 896.281 573.843 900.553 571.123 903.786C568.545 906.852 564.824 908.61 560.899 908.61C554.33 908.61 548.724 903.748 547.557 897.064L481.246 516.863C480.515 512.642 481.644 508.37 484.363 505.138C486.942 502.071 490.662 500.314 494.588 500.314Z" fill="black"/>
<path d="M112.078 517.03L45.7674 897.232C44.523 904.377 38.5064 909.573 31.4763 909.573C22.4322 909.573 15.5817 901.106 17.1853 891.895L83.4963 511.694C84.7407 504.548 90.7573 499.353 97.7874 499.353C106.844 499.353 113.682 507.819 112.078 517.03Z" fill="#FFFFFD"/>
<path d="M31.4745 910.547C38.9793 910.547 45.3807 905.018 46.7149 897.398L113.026 517.196C113.86 512.411 112.564 507.575 109.485 503.893C106.547 500.391 102.288 498.39 97.7984 498.39C90.2937 498.39 83.8922 503.919 82.558 511.539L16.247 891.74C15.4131 896.525 16.7088 901.374 19.7877 905.043C22.7254 908.533 26.9845 910.547 31.4745 910.547ZM97.7855 500.314C101.711 500.314 105.431 502.071 108.01 505.138C110.73 508.37 111.871 512.642 111.127 516.863L44.8162 897.064C43.6488 903.76 38.0428 908.61 31.4745 908.61C27.549 908.61 23.8286 906.852 21.2501 903.786C18.5304 900.553 17.3887 896.281 18.1328 892.061L84.4438 511.86C85.6112 505.176 91.2301 500.314 97.7855 500.314Z" fill="black"/>
<path d="M60.6862 480.751H547.365C555.383 480.751 561.887 487.255 561.887 495.273V498.313C561.887 506.331 555.383 512.835 547.365 512.835H60.6862C52.6684 512.835 46.1643 506.331 46.1643 498.313V495.273C46.1771 487.255 52.6684 480.751 60.6862 480.751Z" fill="#FFFFFD"/>
<path d="M60.694 513.784H547.36C555.891 513.784 562.844 506.844 562.844 498.3V495.26C562.844 486.728 555.903 479.775 547.36 479.775H60.694C52.1629 479.775 45.2098 486.716 45.2098 495.26V498.3C45.2098 506.844 52.1501 513.784 60.694 513.784ZM547.36 481.713C554.839 481.713 560.919 487.793 560.919 495.272V498.313C560.919 505.792 554.839 511.873 547.36 511.873H60.694C53.2149 511.873 47.1341 505.792 47.1341 498.313V495.272C47.1341 487.793 53.2149 481.713 60.694 481.713H547.36Z" fill="black"/>
<path d="M304.877 842.594L304.748 870.509L267.533 896.551V909.572H371.727V887.25L362.298 842.594H304.877Z" fill="black"/>
<path d="M288.83 809.484H347.611L347.521 808.432C340.273 726.29 330.626 598.171 329.638 585.035C335.501 585.253 365.34 585.561 443.428 574.425C461.939 571.783 475.358 563.688 483.312 550.359C502.196 518.698 483.633 467.448 483.44 466.935L481.631 467.602C481.824 468.102 500.066 518.506 481.644 549.371C474.011 562.174 461.054 569.961 443.146 572.514C355.501 585.009 328.92 583.072 328.663 583.046L327.547 582.956L327.637 584.072C327.739 585.445 337.9 721.236 345.507 807.534H288.83V809.484Z" fill="white"/>
<path d="M264.804 730.459L266.69 730.074C266.357 728.471 233.49 569.627 242.726 540.698C247.024 527.241 278.621 514.49 278.941 514.361L278.223 512.578C276.889 513.117 245.459 525.804 240.892 540.121C231.501 569.524 263.432 723.904 264.804 730.459Z" fill="black"/>
<path d="M513.895 425.434C514.947 425.434 515.627 425.331 515.652 425.331L515.344 423.432C514.921 423.509 505.056 424.985 502.721 414.491C500.181 403.06 481.092 331.785 480.9 331.066L479.04 331.567C479.232 332.285 498.308 403.522 500.835 414.914C502.939 424.305 510.444 425.434 513.895 425.434Z" fill="black"/>
<path d="M342.755 306.269L344.679 306.205C344.679 306.09 344.422 294.582 354.621 283.345L353.197 282.049C342.447 293.89 342.729 305.769 342.755 306.269Z" fill="black"/>
<path d="M389.339 182.285C386.324 180.533 381.008 177.323 374.946 183.396" stroke="black" stroke-linecap="round"/>
<path d="M426.077 179.734C423.062 177.981 417.747 174.771 411.684 180.845" stroke="black" stroke-linecap="round"/>
<path d="M399.706 185.291C401.148 194.591 387.202 210.871 405.193 209.482" stroke="black" stroke-linecap="round"/>
<ellipse cx="3.60902" cy="4.33083" rx="3.60902" ry="4.33083" transform="matrix(-0.997034 0.0769567 0.0769567 0.997034 421.68 188.663)" fill="black"/>
<ellipse cx="3.60902" cy="4.33083" rx="3.60902" ry="4.33083" transform="matrix(-0.997034 0.0769567 0.0769567 0.997034 387.141 191.329)" fill="black"/>
<path d="M413.32 220.854C409.923 223.043 405.821 226.702 396.887 223.319" stroke="black" stroke-linecap="round"/>
</g>
<path d="M189.828 267.79H97.5013C88.0153 267.79 80.3242 260.099 80.3242 250.613V193.499C80.3242 184.013 88.0153 176.322 97.5013 176.322H189.828C199.314 176.322 207.005 184.013 207.005 193.499V250.613C207.005 260.099 199.314 267.79 189.828 267.79Z" fill="#FFFFFD"/>
<path d="M189.826 268.112H97.4992C87.8499 268.112 80 260.262 80 250.613V193.499C80 183.85 87.8499 176 97.4992 176H189.826C199.475 176 207.325 183.85 207.325 193.499V250.613C207.325 260.262 199.475 268.112 189.826 268.112ZM97.4992 176.644C88.2064 176.644 80.6441 184.206 80.6441 193.499V250.613C80.6441 259.906 88.2064 267.468 97.4992 267.468H189.826C199.119 267.468 206.681 259.906 206.681 250.613V193.499C206.681 184.206 199.119 176.644 189.826 176.644H97.4992Z" fill="black"/>
<path d="M127.988 209.392V235.123C127.988 238.67 131.849 240.873 134.902 239.065L156.957 225.998C159.976 224.211 159.946 219.831 156.902 218.088L134.846 205.428C131.793 203.668 127.988 205.875 127.988 209.392Z" fill="#29A37A"/>
<path d="M18.5698 420.702C18.5698 419.219 19.1497 417.792 20.187 416.732C23.3544 413.487 30.2246 406.204 32.0314 402.412C34.3959 397.426 38.634 398.798 39.8831 400.917C41.1322 403.036 40.1285 412.884 37.8867 416.877H50.3558C50.3558 416.877 55.5977 416.754 55.5977 421.617C55.5977 426.48 51.8614 427.227 51.8614 427.227C51.8614 427.227 54.1031 427.729 54.1031 430.841C54.1031 433.952 51.1142 435.201 51.1142 435.201C51.1142 435.201 53.3559 435.949 53.3559 438.068C53.3559 440.187 52.6087 443.432 50.4896 443.432C50.4896 443.432 52.7314 443.812 52.7314 447.302C52.7314 450.793 51.7387 452.544 48.114 452.544H24.2466C21.1014 452.544 18.5586 450.001 18.5586 446.856V420.702H18.5698Z" fill="#FFD857"/>
<path d="M7.53943 453.514C3.36821 453.514 0 450.135 0 445.975V424.16C0 419.988 3.37937 416.62 7.53943 416.62C11.7106 416.62 15.0789 419.999 15.0789 424.16V445.975C15.0789 450.146 11.6995 453.514 7.53943 453.514Z" fill="#FFD857"/>
<path d="M697 323.193V350.182C697 352.495 695.46 354.375 693.564 354.375H658.35C657.687 354.375 657.04 354.613 656.479 355.047L651.299 359.147C649.011 360.958 646 358.951 646 355.625V354.375V323.193C646 320.88 647.54 319 649.436 319H693.572C695.46 319 697 320.88 697 323.193Z" fill="#29A37A"/>
<path d="M659.236 337.645H682.21C683.333 337.645 684.243 336.735 684.243 335.612C684.243 334.489 683.333 333.579 682.21 333.579H659.236C658.113 333.579 657.203 334.489 657.203 335.612C657.203 336.735 658.113 337.645 659.236 337.645Z" fill="#FFFFFD"/>
<path d="M659.357 328.909H681.787C682.909 328.909 683.819 327.999 683.819 326.877C683.819 325.754 682.909 324.844 681.787 324.844H659.357C658.234 324.844 657.324 325.754 657.324 326.877C657.333 327.999 658.234 328.909 659.357 328.909Z" fill="#FFFFFD"/>
<path d="M682.21 342.587H659.236C658.113 342.587 657.203 343.497 657.203 344.62C657.203 345.743 658.113 346.653 659.236 346.653H682.21C683.333 346.653 684.243 345.743 684.243 344.62C684.243 343.497 683.333 342.587 682.21 342.587Z" fill="#FFFFFD"/>
<path d="M658.515 160.744L630.625 144.012L658.515 127.28L661.033 131.458L640.114 144.012L661.033 156.565L658.515 160.744Z" fill="black"/>
<path d="M636.345 150.357C639.85 150.357 642.69 147.516 642.69 144.012C642.69 140.507 639.85 137.667 636.345 137.667C632.841 137.667 630 140.507 630 144.012C630 147.516 632.841 150.357 636.345 150.357Z" fill="#FFD857"/>
<path d="M658.798 136.69C662.303 136.69 665.144 133.85 665.144 130.345C665.144 126.841 662.303 124 658.798 124C655.294 124 652.453 126.841 652.453 130.345C652.453 133.85 655.294 136.69 658.798 136.69Z" fill="#FFD857"/>
<path d="M658.798 165C662.303 165 665.144 162.159 665.144 158.655C665.144 155.15 662.303 152.31 658.798 152.31C655.294 152.31 652.453 155.15 652.453 158.655C652.453 162.159 655.294 165 658.798 165Z" fill="#FFD857"/>
</svg>
