<svg width="981" height="882" viewBox="0 0 981 882" fill="none" xmlns="http://www.w3.org/2000/svg">
<mask id="mask0_496_1092" style="mask-type:alpha" maskUnits="userSpaceOnUse" x="0" y="0" width="912" height="806">
<rect width="912" height="806" fill="#D9D9D9"/>
</mask>
<g mask="url(#mask0_496_1092)">
<path d="M308.636 70.5988C324.132 28.0037 375.407 11.1429 413.159 36.2286L676.084 210.941C700.342 227.061 712.085 256.516 705.569 284.903L597.616 755.226C588.31 795.77 545.908 819.301 506.58 805.745L160.354 686.412C123.364 673.663 104.006 633.069 117.382 596.301L308.636 70.5988Z" fill="#B744B8" fill-opacity="0.3"/>
<path d="M243.151 758.141C201.47 777.659 152.619 752.33 144.55 707.018L91.1104 406.893C86.0658 378.563 98.8732 350.031 123.395 334.972L568.815 61.4333C604.048 39.7964 650.258 53.2493 668.372 90.4164L823.17 408.046C840.293 443.181 825.327 485.532 789.93 502.107L243.151 758.141Z" fill="#29A37A" fill-opacity="0.3"/>
</g>
<path d="M552.53 322.72H486.18C483.32 322.72 481 325.04 481 327.9C481 330.76 483.32 333.08 486.18 333.08H552.53C555.39 333.08 557.71 330.76 557.71 327.9C557.71 325.04 555.39 322.72 552.53 322.72Z" fill="#F3F3F7"/>
<path d="M486.42 313.36H514.94C517.8 313.36 520.12 311.04 520.12 308.18C520.12 305.32 517.8 303 514.94 303H486.42C483.56 303 481.24 305.32 481.24 308.18C481.24 311.04 483.56 313.36 486.42 313.36Z" fill="#F3F3F7"/>
<path d="M204.055 629.973H59.4996C49.4354 629.973 41.2783 623.402 41.2783 615.294V493.041C41.2783 484.934 49.4354 478.362 59.4996 478.362H204.055C214.12 478.362 222.277 484.934 222.277 493.041V615.294C222.277 623.397 214.12 629.973 204.055 629.973Z" fill="#F3F3F7"/>
<path d="M204.056 630.34H59.5001C49.199 630.34 40.8232 623.592 40.8232 615.294V493.046C40.8232 484.748 49.199 478 59.5001 478H204.056C214.357 478 222.733 484.748 222.733 493.046V615.294C222.733 623.588 214.357 630.34 204.056 630.34ZM59.5001 478.734C49.7031 478.734 41.7343 485.154 41.7343 493.046V615.294C41.7343 623.186 49.7031 629.606 59.5001 629.606H204.056C213.853 629.606 221.822 623.186 221.822 615.294V493.046C221.822 485.154 213.853 478.734 204.056 478.734H59.5001Z" fill="black"/>
<path d="M71.842 541.614C68.5318 541.614 65.8472 543.777 65.8472 546.444V605.346C65.8472 608.013 68.5318 610.176 71.842 610.176C75.1522 610.176 77.8368 608.013 77.8368 605.346V546.444C77.8368 543.777 75.1522 541.614 71.842 541.614Z" fill="black"/>
<path d="M95.8146 541.614C92.5044 541.614 89.8198 543.777 89.8198 546.444V605.346C89.8198 608.013 92.5044 610.176 95.8146 610.176C99.1248 610.176 101.809 608.013 101.809 605.346V546.444C101.809 543.777 99.1248 541.614 95.8146 541.614Z" fill="black"/>
<path d="M119.789 541.614C116.479 541.614 113.794 543.777 113.794 546.444V605.346C113.794 608.013 116.479 610.176 119.789 610.176C123.099 610.176 125.784 608.013 125.784 605.346V546.444C125.784 543.777 123.099 541.614 119.789 541.614Z" fill="black"/>
<path d="M143.768 541.614C140.458 541.614 137.773 543.777 137.773 546.444V605.346C137.773 608.013 140.458 610.176 143.768 610.176C147.078 610.176 149.763 608.013 149.763 605.346V546.444C149.756 543.777 147.072 541.614 143.768 541.614Z" fill="black"/>
<path d="M167.74 541.614C164.43 541.614 161.745 543.777 161.745 546.444V605.346C161.745 608.013 164.43 610.176 167.74 610.176C171.05 610.176 173.735 608.013 173.735 605.346V546.444C173.729 543.777 171.05 541.614 167.74 541.614Z" fill="black"/>
<path d="M191.714 541.614C188.404 541.614 185.719 543.777 185.719 546.444V605.346C185.719 608.013 188.404 610.176 191.714 610.176C195.024 610.176 197.709 608.013 197.709 605.346V546.444C197.703 543.777 195.024 541.614 191.714 541.614Z" fill="black"/>
<path d="M106.758 514.521H68.3086C66.5979 514.521 65.2095 516.166 65.2095 518.191C65.2095 520.217 66.5979 521.861 68.3086 521.861H106.758C108.469 521.861 109.858 520.217 109.858 518.191C109.858 516.166 108.469 514.521 106.758 514.521Z" fill="#F3F3F7"/>
<path d="M68.4409 507.886H84.8704C86.5811 507.886 87.9695 506.242 87.9695 504.217C87.9695 502.191 86.5811 500.547 84.8704 500.547H68.4409C66.7302 500.547 65.3418 502.191 65.3418 504.217C65.3418 506.242 66.7302 507.886 68.4409 507.886Z" fill="#F3F3F7"/>
<path d="M106.758 514.154H68.3085C66.4283 514.154 64.8994 515.965 64.8994 518.191C64.8994 520.417 66.4283 522.228 68.3085 522.228H106.758C108.638 522.228 110.167 520.417 110.167 518.191C110.167 515.965 108.638 514.154 106.758 514.154ZM106.758 521.494H68.3085C66.7713 521.494 65.5192 520.011 65.5192 518.191C65.5192 516.371 66.7713 514.888 68.3085 514.888H106.758C108.295 514.888 109.548 516.371 109.548 518.191C109.548 520.011 108.295 521.494 106.758 521.494Z" fill="black"/>
<path d="M68.4413 508.253H84.8749C86.755 508.253 88.2839 506.443 88.2839 504.216C88.2839 501.99 86.755 500.18 84.8749 500.18H68.4413C66.5611 500.18 65.0322 501.99 65.0322 504.216C65.0322 506.443 66.5611 508.253 68.4413 508.253ZM68.4413 500.914H84.8749C86.4121 500.914 87.6641 502.396 87.6641 504.216C87.6641 506.037 86.4121 507.519 84.8749 507.519H68.4413C66.9041 507.519 65.6521 506.037 65.6521 504.216C65.6521 502.396 66.9041 500.914 68.4413 500.914Z" fill="black"/>
<path d="M71.842 580.725C68.5318 580.725 65.8472 582.887 65.8472 585.554V605.351C65.8472 608.018 68.5318 610.181 71.842 610.181C75.1522 610.181 77.8368 608.018 77.8368 605.351V585.554C77.8368 582.882 75.1522 580.725 71.842 580.725Z" fill="#29A37A"/>
<path d="M95.8146 568.169C92.5044 568.169 89.8198 570.332 89.8198 572.998V605.346C89.8198 608.013 92.5044 610.176 95.8146 610.176C99.1248 610.176 101.809 608.013 101.809 605.346V572.998C101.809 570.332 99.1248 568.169 95.8146 568.169Z" fill="#29A37A"/>
<path d="M119.789 587.481C116.479 587.481 113.794 589.644 113.794 592.311V605.346C113.794 608.013 116.479 610.175 119.789 610.175C123.099 610.175 125.784 608.013 125.784 605.346V592.311C125.784 589.644 123.099 587.481 119.789 587.481Z" fill="#29A37A"/>
<path d="M143.768 568.169C140.458 568.169 137.773 570.332 137.773 572.998V605.346C137.773 608.013 140.458 610.176 143.768 610.176C147.078 610.176 149.763 608.013 149.763 605.346V572.998C149.756 570.332 147.072 568.169 143.768 568.169Z" fill="#29A37A"/>
<path d="M167.74 552.722C164.43 552.722 161.745 554.884 161.745 557.551V605.351C161.745 608.018 164.43 610.181 167.74 610.181C171.05 610.181 173.735 608.018 173.735 605.351V557.551C173.729 554.88 171.05 552.722 167.74 552.722Z" fill="#29A37A"/>
<path d="M191.714 560.443C188.404 560.443 185.719 562.606 185.719 565.273V605.347C185.719 608.014 188.404 610.176 191.714 610.176C195.024 610.176 197.709 608.014 197.709 605.347V565.273C197.703 562.606 195.024 560.443 191.714 560.443Z" fill="#29A37A"/>
<path d="M367.908 167.98H193.592C184.756 167.98 177.6 160.823 177.6 151.988V76.5919C177.6 67.7562 184.756 60.5996 193.592 60.5996H367.908C376.744 60.5996 383.9 67.7562 383.9 76.5919V151.988C383.9 160.815 376.744 167.98 367.908 167.98Z" fill="#F3F3F7"/>
<path d="M367.908 168.58H193.592C184.444 168.58 177 161.135 177 151.988V76.592C177 67.4444 184.444 60 193.592 60H367.908C377.056 60 384.5 67.4444 384.5 76.592V151.988C384.5 161.135 377.056 168.58 367.908 168.58ZM193.592 61.1994C185.108 61.1994 178.199 68.1081 178.199 76.592V151.988C178.199 160.472 185.108 167.38 193.592 167.38H367.908C376.392 167.38 383.301 160.472 383.301 151.988V76.592C383.301 68.1081 376.392 61.1994 367.908 61.1994H193.592Z" fill="black"/>
<path d="M228.903 149.46C220.3 149.46 213.615 141.936 209.945 137.81C207.314 134.851 203.939 133.508 201.237 132.908C198.446 132.293 196.391 129.942 196.239 127.087C196.015 122.881 199.917 119.595 203.995 120.642C207.882 121.634 212.487 123.705 216.27 127.959C218.924 130.941 224.442 137.146 229.407 136.747C232.534 136.499 235.812 133.716 239.131 128.495C250.645 110.407 255.259 106.241 263.831 106.241C270.875 106.241 276.217 109.12 282.262 116.172C282.67 116.652 291.761 127.375 296.807 127.375C300.173 127.375 306.026 125.28 314.766 115.293C320.315 108.944 324.809 106.241 329.783 106.241C339.514 106.241 350.709 119.187 363.247 133.604C364.334 134.859 365.294 136.227 365.294 137.89V138.242C365.294 142.776 359.808 146.726 356.466 143.663C350.381 138.098 334.716 118.923 329.783 118.923C328.887 118.923 326.52 118.923 321.131 125.088C312.319 135.163 304.363 140.057 296.815 140.057C287.851 140.057 282.11 133.284 277.048 127.311C276.648 126.839 276.249 126.368 275.849 125.904C270.843 120.067 267.661 118.923 263.839 118.923C260.28 118.923 257.937 118.923 246.271 137.258C241.449 144.839 236.004 148.925 230.087 149.396C229.687 149.444 229.295 149.46 228.903 149.46Z" fill="black"/>
<path d="M329.526 114.918C329.526 109.904 323.705 107.137 319.819 110.312C318.211 111.623 316.54 113.286 314.765 115.309C306.025 125.297 300.18 127.392 296.806 127.392C291.76 127.392 282.669 116.661 282.261 116.189C276.216 109.136 270.874 106.258 263.83 106.258C255.258 106.258 250.636 110.416 239.13 128.511C235.803 133.733 232.533 136.515 229.406 136.763C224.441 137.163 218.915 130.958 216.269 127.975C212.59 123.833 208.129 121.762 204.314 120.739C200.236 119.643 196.238 122.802 196.238 127.024V127.104C196.39 129.95 198.453 132.309 201.236 132.925C203.939 133.525 207.313 134.86 209.944 137.827C213.614 141.953 220.299 149.477 228.903 149.477C229.294 149.477 229.686 149.461 230.078 149.429C235.995 148.957 241.44 144.871 246.262 137.291C257.929 118.956 260.279 118.956 263.83 118.956C267.644 118.956 270.834 120.099 275.84 125.936C276.24 126.4 276.64 126.872 277.039 127.344C282.101 133.317 287.842 140.09 296.806 140.09C304.354 140.09 312.31 135.196 321.122 125.121C323.593 122.298 325.424 120.771 326.775 119.939C328.511 118.86 329.526 116.941 329.526 114.918Z" fill="#FFD857"/>
<path d="M243.792 85.332H199.621C197.654 85.332 196.062 86.9233 196.062 88.8903C196.062 90.8574 197.654 92.4486 199.621 92.4486H243.792C245.759 92.4486 247.35 90.8574 247.35 88.8903C247.35 86.9233 245.759 85.332 243.792 85.332Z" fill="#F3F3F7"/>
<path d="M199.773 78.8949H218.652C220.619 78.8949 222.21 77.3037 222.21 75.3366C222.21 73.3696 220.619 71.7783 218.652 71.7783H199.773C197.806 71.7783 196.215 73.3696 196.215 75.3366C196.215 77.3037 197.806 78.8949 199.773 78.8949Z" fill="#F3F3F7"/>
<path d="M243.792 84.7324H199.621C197.326 84.7324 195.463 86.5955 195.463 88.8904C195.463 91.1853 197.326 93.0484 199.621 93.0484H243.792C246.086 93.0484 247.95 91.1853 247.95 88.8904C247.95 86.6035 246.086 84.7324 243.792 84.7324ZM243.792 91.857H199.621C197.99 91.857 196.662 90.5296 196.662 88.8984C196.662 87.2672 197.99 85.9398 199.621 85.9398H243.792C245.423 85.9398 246.75 87.2672 246.75 88.8984C246.75 90.5296 245.423 91.857 243.792 91.857Z" fill="black"/>
<path d="M199.773 79.4947H218.652C220.947 79.4947 222.81 77.6316 222.81 75.3367C222.81 73.0418 220.947 71.1787 218.652 71.1787H199.773C197.478 71.1787 195.615 73.0418 195.615 75.3367C195.615 77.6316 197.478 79.4947 199.773 79.4947ZM199.773 72.3701H218.652C220.283 72.3701 221.611 73.6975 221.611 75.3287C221.611 76.9599 220.283 78.2873 218.652 78.2873H199.773C198.142 78.2873 196.815 76.9599 196.815 75.3287C196.815 73.6975 198.142 72.3701 199.773 72.3701Z" fill="black"/>
<mask id="mask1_496_1092" style="mask-type:alpha" maskUnits="userSpaceOnUse" x="354" y="51" width="558" height="804">
<rect x="354" y="51" width="558" height="804" fill="#D9D9D9"/>
</mask>
<g mask="url(#mask1_496_1092)">
<path d="M1367.91 710.79H499.75C472.14 710.79 449.75 688.4 449.75 660.79V205.33C449.75 177.72 472.14 155.33 499.75 155.33H1367.91C1395.52 155.33 1417.91 177.72 1417.91 205.33V660.79C1417.91 688.4 1395.52 710.79 1367.91 710.79Z" fill="#F3F3F7"/>
<path d="M1367.91 711.54H499.75C471.77 711.54 449 688.77 449 660.79V205.33C449 177.35 471.77 154.58 499.75 154.58H1367.91C1395.89 154.58 1418.66 177.35 1418.66 205.33V660.79C1418.66 688.77 1395.89 711.54 1367.91 711.54ZM499.75 156.08C472.59 156.08 450.5 178.17 450.5 205.33V660.79C450.5 687.95 472.59 710.04 499.75 710.04H1367.91C1395.07 710.04 1417.16 687.95 1417.16 660.79V205.33C1417.16 178.17 1395.07 156.08 1367.91 156.08H499.75Z" fill="black"/>
<path d="M1417.91 223.51H449.75V205.33C449.75 177.72 472.14 155.33 499.75 155.33H1367.91C1395.52 155.33 1417.91 177.72 1417.91 205.33V223.51Z" fill="#F3F3F7"/>
<path d="M1418.66 224.26H449V205.33C449 177.35 471.77 154.58 499.75 154.58H1367.91C1395.89 154.58 1418.66 177.35 1418.66 205.33V224.26ZM450.5 222.76H1417.16V205.33C1417.16 178.17 1395.07 156.08 1367.91 156.08H499.75C472.59 156.08 450.5 178.17 450.5 205.33V222.76Z" fill="black"/>
<path d="M493.87 199.92C500.774 199.92 506.37 194.323 506.37 187.42C506.37 180.516 500.774 174.92 493.87 174.92C486.967 174.92 481.37 180.516 481.37 187.42C481.37 194.323 486.967 199.92 493.87 199.92Z" fill="#B744B8"/>
<path d="M544 199.92C550.904 199.92 556.5 194.323 556.5 187.42C556.5 180.516 550.904 174.92 544 174.92C537.096 174.92 531.5 180.516 531.5 187.42C531.5 194.323 537.096 199.92 544 199.92Z" fill="#FFD857"/>
<path d="M594.13 199.92C601.033 199.92 606.63 194.323 606.63 187.42C606.63 180.516 601.033 174.92 594.13 174.92C587.226 174.92 581.63 180.516 581.63 187.42C581.63 194.323 587.226 199.92 594.13 199.92Z" fill="#29A37A"/>
</g>
<path d="M609.62 562.45H505.75C494.7 562.45 485.75 553.5 485.75 542.45V380.75C485.75 369.7 494.7 360.75 505.75 360.75H609.63C620.68 360.75 629.63 369.7 629.63 380.75V542.45C629.62 553.5 620.67 562.45 609.62 562.45Z" fill="#F3F3F7"/>
<path d="M609.62 563.2H505.75C494.31 563.2 485 553.89 485 542.45V380.75C485 369.31 494.31 360 505.75 360H609.63C621.07 360 630.38 369.31 630.38 380.75V542.45C630.37 553.9 621.07 563.2 609.62 563.2ZM505.75 361.5C495.14 361.5 486.5 370.14 486.5 380.75V542.45C486.5 553.06 495.14 561.7 505.75 561.7H609.63C620.24 561.7 628.88 553.06 628.88 542.45V380.75C628.88 370.14 620.24 361.5 609.63 361.5H505.75Z" fill="black"/>
<path d="M558.36 381.85C530.9 381.85 508.65 404.11 508.65 431.56C508.65 459.01 530.91 481.27 558.36 481.27C585.82 481.27 608.07 459.01 608.07 431.56C608.07 404.11 585.81 381.85 558.36 381.85ZM558.36 461.53C541.81 461.53 528.39 448.11 528.39 431.56C528.39 415.01 541.81 401.59 558.36 401.59C574.92 401.59 588.33 415.01 588.33 431.56C588.33 448.11 574.91 461.53 558.36 461.53Z" fill="black"/>
<path d="M608.07 431.56C608.14 454.3 592.17 474.21 570.63 479.75C564.4 481.35 558.33 476.67 558.33 470.24V469.95C558.33 465.5 561.31 461.52 565.63 460.46C596.74 452.79 594.34 409.54 565.7 402.54C561.32 401.47 558.32 397.43 558.32 392.92C558.32 386.5 564.38 381.79 570.6 383.4C591.85 388.88 608.17 408.39 608.07 431.56Z" fill="#B744B8"/>
<path d="M601.44 529.29H514.34C510.93 529.29 508.17 532.05 508.17 535.46C508.17 538.87 510.93 541.63 514.34 541.63H601.44C604.85 541.63 607.61 538.87 607.61 535.46C607.61 532.05 604.85 529.29 601.44 529.29Z" fill="#F3F3F7"/>
<path d="M601.44 505.14H514.34C510.93 505.14 508.17 507.9 508.17 511.31C508.17 514.72 510.93 517.48 514.34 517.48H601.44C604.85 517.48 607.61 514.72 607.61 511.31C607.61 507.9 604.85 505.14 601.44 505.14Z" fill="#F3F3F7"/>
<path d="M601.44 528.54H514.34C510.53 528.54 507.42 531.64 507.42 535.46C507.42 539.28 510.52 542.38 514.34 542.38H601.44C605.25 542.38 608.36 539.28 608.36 535.46C608.36 531.64 605.25 528.54 601.44 528.54ZM601.44 540.87H514.34C511.35 540.87 508.92 538.44 508.92 535.45C508.92 532.46 511.35 530.03 514.34 530.03H601.44C604.43 530.03 606.86 532.46 606.86 535.45C606.86 538.44 604.43 540.87 601.44 540.87Z" fill="black"/>
<path d="M514.34 518.23H601.44C605.25 518.23 608.36 515.13 608.36 511.31C608.36 507.5 605.26 504.39 601.44 504.39H514.34C510.53 504.39 507.42 507.49 507.42 511.31C507.43 515.12 510.53 518.23 514.34 518.23ZM514.34 505.89H601.44C604.43 505.89 606.86 508.32 606.86 511.31C606.86 514.3 604.43 516.73 601.44 516.73H514.34C511.35 516.73 508.92 514.3 508.92 511.31C508.93 508.32 511.36 505.89 514.34 505.89Z" fill="black"/>
<path d="M681.14 562.45H785.01C796.06 562.45 805.01 553.5 805.01 542.45V380.75C805.01 369.7 796.06 360.75 785.01 360.75H681.13C670.08 360.75 661.13 369.7 661.13 380.75V542.45C661.14 553.5 670.09 562.45 681.14 562.45Z" fill="#F3F3F7"/>
<path d="M681.14 563.2H785.01C796.45 563.2 805.76 553.89 805.76 542.45V380.75C805.76 369.31 796.45 360 785.01 360H681.13C669.69 360 660.38 369.31 660.38 380.75V542.45C660.39 553.9 669.69 563.2 681.14 563.2ZM785.01 361.5C795.62 361.5 804.26 370.14 804.26 380.75V542.45C804.26 553.06 795.62 561.7 785.01 561.7H681.13C670.52 561.7 661.88 553.06 661.88 542.45V380.75C661.88 370.14 670.52 361.5 681.13 361.5H785.01Z" fill="black"/>
<path d="M732.399 381.85C759.859 381.85 782.109 404.11 782.109 431.56C782.109 459.01 759.849 481.27 732.399 481.27C704.939 481.27 682.689 459.01 682.689 431.56C682.689 404.11 704.949 381.85 732.399 381.85ZM732.399 461.53C748.949 461.53 762.369 448.11 762.369 431.56C762.369 415.01 748.949 401.59 732.399 401.59C715.839 401.59 702.429 415.01 702.429 431.56C702.429 448.11 715.849 461.53 732.399 461.53Z" fill="black"/>
<path d="M682.689 431.56C682.619 454.3 698.589 474.21 720.129 479.75C726.359 481.35 732.429 476.67 732.429 470.24V469.95C732.429 465.5 729.449 461.52 725.129 460.46C694.019 452.79 696.419 409.54 725.059 402.54C729.439 401.47 732.439 397.43 732.439 392.92C732.439 386.5 726.379 381.79 720.159 383.4C698.909 388.88 682.589 408.39 682.689 431.56Z" fill="#FFD857"/>
<path d="M689.32 529.29H776.42C779.83 529.29 782.59 532.05 782.59 535.46C782.59 538.87 779.83 541.63 776.42 541.63H689.32C685.91 541.63 683.15 538.87 683.15 535.46C683.15 532.05 685.91 529.29 689.32 529.29Z" fill="#F3F3F7"/>
<path d="M689.32 505.14H776.42C779.83 505.14 782.59 507.9 782.59 511.31C782.59 514.72 779.83 517.48 776.42 517.48H689.32C685.91 517.48 683.15 514.72 683.15 511.31C683.15 507.9 685.91 505.14 689.32 505.14Z" fill="#F3F3F7"/>
<path d="M689.32 528.54H776.42C780.23 528.54 783.34 531.64 783.34 535.46C783.34 539.28 780.24 542.38 776.42 542.38H689.32C685.51 542.38 682.4 539.28 682.4 535.46C682.4 531.64 685.51 528.54 689.32 528.54ZM689.32 540.87H776.42C779.41 540.87 781.84 538.44 781.84 535.45C781.84 532.46 779.41 530.03 776.42 530.03H689.32C686.33 530.03 683.9 532.46 683.9 535.45C683.9 538.44 686.33 540.87 689.32 540.87Z" fill="black"/>
<path d="M776.42 518.23H689.32C685.51 518.23 682.4 515.13 682.4 511.31C682.4 507.5 685.5 504.39 689.32 504.39H776.42C780.23 504.39 783.34 507.49 783.34 511.31C783.33 515.12 780.23 518.23 776.42 518.23ZM776.42 505.89H689.32C686.33 505.89 683.9 508.32 683.9 511.31C683.9 514.3 686.33 516.73 689.32 516.73H776.42C779.41 516.73 781.84 514.3 781.84 511.31C781.83 508.32 779.4 505.89 776.42 505.89Z" fill="black"/>
<path d="M614.39 666.75H505.75C497.47 666.75 490.75 660.03 490.75 651.75V620.75C490.75 612.47 497.47 605.75 505.75 605.75H614.39C622.67 605.75 629.39 612.47 629.39 620.75V651.75C629.39 660.03 622.67 666.75 614.39 666.75Z" fill="#F3F3F7"/>
<path d="M614.39 667.5H505.75C497.07 667.5 490 660.43 490 651.75V620.75C490 612.07 497.07 605 505.75 605H614.39C623.07 605 630.14 612.07 630.14 620.75V651.75C630.14 660.43 623.07 667.5 614.39 667.5ZM505.75 606.5C497.89 606.5 491.5 612.89 491.5 620.75V651.75C491.5 659.61 497.89 666 505.75 666H614.39C622.25 666 628.64 659.61 628.64 651.75V620.75C628.64 612.89 622.25 606.5 614.39 606.5H505.75Z" fill="black"/>
<path d="M516.76 650.18C524.851 650.18 531.41 643.621 531.41 635.53C531.41 627.439 524.851 620.88 516.76 620.88C508.669 620.88 502.11 627.439 502.11 635.53C502.11 643.621 508.669 650.18 516.76 650.18Z" fill="#FFD857"/>
<path d="M949.012 666.418H867.391C850.244 666.418 836.342 652.515 836.342 635.368V391.631C836.342 374.484 850.244 360.582 867.391 360.582H949.012C966.159 360.582 980.062 374.484 980.062 391.631V635.368C980.062 652.515 966.159 666.418 949.012 666.418Z" fill="#FFFFFD"/>
<path d="M949.012 667H867.391C849.949 667 835.76 652.81 835.76 635.369V391.631C835.76 374.19 849.949 360 867.391 360H949.012C966.454 360 980.644 374.19 980.644 391.631V635.369C980.644 652.81 966.454 667 949.012 667ZM867.391 361.164C850.594 361.164 836.924 374.834 836.924 391.631V635.369C836.924 652.166 850.594 665.836 867.391 665.836H949.012C965.81 665.836 979.479 652.166 979.479 635.369V391.631C979.479 374.834 965.81 361.164 949.012 361.164H867.391Z" fill="black"/>
<path d="M908.439 466.181C932.15 466.181 951.372 446.959 951.372 423.248C951.372 399.536 932.15 380.314 908.439 380.314C884.727 380.314 865.505 399.536 865.505 423.248C865.505 446.959 884.727 466.181 908.439 466.181Z" fill="#29A37A"/>
<path d="M951.372 423.248C951.372 437.958 943.974 450.937 932.703 458.668L908.376 423.14L949.291 410.021C950.642 414.19 951.372 418.63 951.372 423.248Z" fill="#FFFFFD"/>
<path d="M949.291 410.021L908.376 423.139V380.314H908.438C927.534 380.314 943.718 392.781 949.291 410.021Z" fill="black"/>
<path d="M880.96 501.08H873.198C871.055 501.08 869.316 499.342 869.316 497.199V489.437C869.316 487.294 871.055 485.556 873.198 485.556H880.96C883.102 485.556 884.841 487.294 884.841 489.437V497.199C884.841 499.342 883.102 501.08 880.96 501.08Z" fill="#29A37A"/>
<path d="M880.96 536.011H873.198C871.055 536.011 869.316 534.272 869.316 532.13V524.367C869.316 522.225 871.055 520.486 873.198 520.486H880.96C883.102 520.486 884.841 522.225 884.841 524.367V532.13C884.841 534.272 883.102 536.011 880.96 536.011Z" fill="black"/>
<path d="M880.96 570.942H873.198C871.055 570.942 869.316 569.203 869.316 567.06V559.298C869.316 557.156 871.055 555.417 873.198 555.417H880.96C883.102 555.417 884.841 557.156 884.841 559.298V567.06C884.841 569.203 883.102 570.942 880.96 570.942Z" fill="#FFFFFD"/>
<path d="M880.96 571.523H873.197C870.737 571.523 868.734 569.52 868.734 567.06V559.297C868.734 556.837 870.737 554.834 873.197 554.834H880.96C883.42 554.834 885.423 556.837 885.423 559.297V567.06C885.423 569.52 883.42 571.523 880.96 571.523ZM873.197 555.998C871.381 555.998 869.898 557.481 869.898 559.297V567.06C869.898 568.876 871.381 570.359 873.197 570.359H880.96C882.776 570.359 884.259 568.876 884.259 567.06V559.297C884.259 557.481 882.776 555.998 880.96 555.998H873.197Z" fill="black"/>
<path d="M946.745 489.452H909.098C906.637 489.452 904.635 491.447 904.635 493.915V493.97C904.635 496.43 906.63 498.433 909.098 498.433H946.745C949.206 498.433 951.209 496.438 951.209 493.97V493.915C951.209 491.447 949.214 489.452 946.745 489.452Z" fill="#FFFFFD"/>
<path d="M946.745 524.382H909.098C906.637 524.382 904.635 526.377 904.635 528.845V528.9C904.635 531.36 906.63 533.363 909.098 533.363H946.745C949.206 533.363 951.209 531.368 951.209 528.9V528.845C951.209 526.377 949.214 524.382 946.745 524.382Z" fill="#FFFFFD"/>
<path d="M946.745 559.313H909.098C906.637 559.313 904.635 561.308 904.635 563.777V563.831C904.635 566.292 906.63 568.294 909.098 568.294H946.745C949.206 568.294 951.209 566.3 951.209 563.831V563.777C951.209 561.308 949.214 559.313 946.745 559.313Z" fill="#FFFFFD"/>
<path d="M946.474 626.069H872.577C869.961 626.069 867.842 628.188 867.842 630.804C867.842 633.42 869.961 635.539 872.577 635.539H946.474C949.09 635.539 951.209 633.42 951.209 630.804C951.209 628.188 949.09 626.069 946.474 626.069Z" fill="#FFFFFD"/>
<path d="M872.833 617.499H946.086C948.702 617.499 950.821 615.38 950.821 612.764C950.821 610.148 948.702 608.029 946.086 608.029H872.833C870.217 608.029 868.098 610.148 868.098 612.764C868.098 615.38 870.217 617.499 872.833 617.499Z" fill="#FFFFFD"/>
<path d="M909.098 499.007H946.745C949.524 499.007 951.791 496.74 951.791 493.915C951.791 491.136 949.524 488.869 946.745 488.869H909.098C906.319 488.869 904.052 491.136 904.052 493.915V493.969C904.052 496.748 906.319 499.007 909.098 499.007ZM905.217 493.915C905.217 491.772 906.956 490.033 909.098 490.033H946.745C948.888 490.033 950.626 491.772 950.626 493.969C950.626 496.111 948.888 497.85 946.745 497.85H909.098C906.956 497.85 905.217 496.111 905.217 493.969V493.915Z" fill="black"/>
<path d="M946.745 523.8H909.098C906.319 523.8 904.052 526.066 904.052 528.845V528.9C904.052 531.679 906.319 533.945 909.098 533.945H946.745C949.524 533.945 951.791 531.679 951.791 528.853C951.791 526.059 949.524 523.8 946.745 523.8ZM946.745 532.773H909.098C906.956 532.773 905.217 531.034 905.217 528.892V528.838C905.217 526.695 906.956 524.956 909.098 524.956H946.745C948.888 524.956 950.626 526.695 950.626 528.892C950.626 531.034 948.888 532.773 946.745 532.773Z" fill="black"/>
<path d="M946.745 558.73H909.098C906.319 558.73 904.052 560.997 904.052 563.776V563.83C904.052 566.609 906.319 568.876 909.098 568.876H946.745C949.524 568.876 951.791 566.609 951.791 563.784C951.791 560.989 949.524 558.73 946.745 558.73ZM946.745 567.704H909.098C906.956 567.704 905.217 565.965 905.217 563.823V563.768C905.217 561.626 906.956 559.887 909.098 559.887H946.745C948.888 559.887 950.626 561.626 950.626 563.823C950.626 565.965 948.888 567.704 946.745 567.704Z" fill="black"/>
<path d="M946.474 625.486H872.576C869.642 625.486 867.259 627.869 867.259 630.804C867.259 633.738 869.642 636.121 872.576 636.121H946.474C949.408 636.121 951.791 633.738 951.791 630.804C951.791 627.869 949.408 625.486 946.474 625.486ZM946.474 634.956H872.576C870.287 634.956 868.424 633.093 868.424 630.804C868.424 628.514 870.287 626.651 872.576 626.651H946.474C948.764 626.651 950.627 628.514 950.627 630.804C950.627 633.093 948.764 634.956 946.474 634.956Z" fill="black"/>
<path d="M872.833 618.081H946.086C949.02 618.081 951.403 615.698 951.403 612.763C951.403 609.829 949.02 607.446 946.086 607.446H872.833C869.899 607.446 867.516 609.829 867.516 612.763C867.516 615.698 869.899 618.081 872.833 618.081ZM872.833 608.603H946.086C948.376 608.603 950.239 610.466 950.239 612.756C950.239 615.046 948.376 616.909 946.086 616.909H872.833C870.543 616.909 868.68 615.046 868.68 612.756C868.68 610.466 870.543 608.603 872.833 608.603Z" fill="black"/>
<path d="M932.548 459.474L932.222 458.993L907.452 422.821L949.664 409.291L949.842 409.842C951.24 414.15 951.954 418.66 951.954 423.248C951.954 437.6 944.882 451.021 933.029 459.148L932.548 459.474ZM909.3 423.457L932.851 457.86C944.091 449.919 950.789 437.026 950.789 423.255C950.789 418.986 950.161 414.787 948.911 410.758L909.3 423.457Z" fill="black"/>
<path d="M784.53 667.75H675.89C667.61 667.75 660.89 661.03 660.89 652.75V621.75C660.89 613.47 667.61 606.75 675.89 606.75H784.53C792.81 606.75 799.53 613.47 799.53 621.75V652.75C799.53 661.03 792.81 667.75 784.53 667.75Z" fill="#F3F3F7"/>
<path d="M784.53 668.5H675.89C667.21 668.5 660.14 661.43 660.14 652.75V621.75C660.14 613.07 667.21 606 675.89 606H784.53C793.21 606 800.28 613.07 800.28 621.75V652.75C800.28 661.43 793.21 668.5 784.53 668.5ZM675.89 607.5C668.03 607.5 661.64 613.89 661.64 621.75V652.75C661.64 660.61 668.03 667 675.89 667H784.53C792.39 667 798.78 660.61 798.78 652.75V621.75C798.78 613.89 792.39 607.5 784.53 607.5H675.89Z" fill="black"/>
<path d="M686.9 651.18C694.991 651.18 701.55 644.621 701.55 636.53C701.55 628.439 694.991 621.88 686.9 621.88C678.809 621.88 672.25 628.439 672.25 636.53C672.25 644.621 678.809 651.18 686.9 651.18Z" fill="#29A37A"/>
<path d="M632.07 276.07L486.93 276.72C483.66 276.72 481 279.38 481 282.65C481 285.92 483.66 288.58 486.93 288.58L632.07 287.93C635.34 287.93 638 285.27 638 282C638 278.73 635.34 276.07 632.07 276.07ZM632.07 286.43L486.93 287.08C484.49 287.08 482.5 285.09 482.5 282.65C482.5 280.21 484.49 278.22 486.93 278.22L632.07 277.57C634.51 277.57 636.5 279.56 636.5 282C636.5 284.44 634.51 286.43 632.07 286.43Z" fill="black"/>
<path d="M487.17 268.86L780.07 268.86C783.34 268.86 786 266.2 786 262.93C786 259.66 783.34 257 780.07 257L487.17 257C483.9 257 481.24 259.66 481.24 262.93C481.24 266.2 483.9 268.86 487.17 268.86ZM487.17 258.51L780.07 258.51C782.51 258.51 784.5 260.5 784.5 262.94C784.5 265.38 782.51 267.37 780.07 267.37L487.17 267.37C484.73 267.37 482.74 265.38 482.74 262.94C482.74 260.5 484.72 258.51 487.17 258.51Z" fill="black"/>
<path d="M486.93 307.86L779.83 307.86C783.1 307.86 785.76 305.2 785.76 301.93C785.76 298.66 783.1 296 779.83 296L486.93 296C483.66 296 481 298.66 481 301.93C481 305.2 483.66 307.86 486.93 307.86ZM486.93 297.51L779.83 297.51C782.27 297.51 784.26 299.5 784.26 301.94C784.26 304.38 782.27 306.37 779.83 306.37L486.93 306.37C484.49 306.37 482.5 304.38 482.5 301.94C482.5 299.5 484.48 297.51 486.93 297.51Z" fill="black"/>
<path d="M486.69 346.86L779.59 346.86C782.86 346.86 785.521 344.2 785.521 340.93C785.521 337.66 782.86 335 779.59 335L486.69 335C483.42 335 480.76 337.66 480.76 340.93C480.76 344.2 483.42 346.86 486.69 346.86ZM486.69 336.51L779.59 336.51C782.03 336.51 784.021 338.5 784.021 340.94C784.021 343.38 782.03 345.37 779.59 345.37L486.69 345.37C484.25 345.37 482.26 343.38 482.26 340.94C482.26 338.5 484.24 336.51 486.69 336.51Z" fill="black"/>
<path d="M486.93 326.86L779.83 326.86C783.1 326.86 785.76 324.2 785.76 320.93C785.76 317.66 783.1 315 779.83 315L486.93 315C483.66 315 481 317.66 481 320.93C481 324.2 483.66 326.86 486.93 326.86ZM486.93 316.51L779.83 316.51C782.27 316.51 784.26 318.5 784.26 320.94C784.26 323.38 782.27 325.37 779.83 325.37L486.93 325.37C484.49 325.37 482.5 323.38 482.5 320.94C482.5 318.5 484.48 316.51 486.93 316.51Z" fill="black"/>
<path d="M206.96 797.57H153.75C145.47 797.57 138.75 790.85 138.75 782.57V735.75C138.75 727.47 145.47 720.75 153.75 720.75H206.96C215.24 720.75 221.96 727.47 221.96 735.75V782.57C221.96 790.85 215.24 797.57 206.96 797.57Z" fill="#F3F3F7"/>
<path d="M206.96 798.32H153.75C145.07 798.32 138 791.25 138 782.57V735.75C138 727.07 145.07 720 153.75 720H206.96C215.64 720 222.71 727.07 222.71 735.75V782.57C222.71 791.25 215.64 798.32 206.96 798.32ZM153.74 721.5C145.88 721.5 139.49 727.89 139.49 735.75V782.57C139.49 790.43 145.88 796.82 153.74 796.82H206.95C214.81 796.82 221.2 790.43 221.2 782.57V735.75C221.2 727.89 214.81 721.5 206.95 721.5H153.74Z" fill="black"/>
<path d="M181.81 784.88C196.053 784.88 207.6 773.333 207.6 759.09C207.6 744.846 196.053 733.3 181.81 733.3C167.566 733.3 156.02 744.846 156.02 759.09C156.02 773.333 167.566 784.88 181.81 784.88Z" fill="#F3F3F7"/>
<path d="M181.81 733.3C181.74 733.3 181.67 733.3 181.6 733.31V759.57L199.69 777.66C204.56 772.97 207.6 766.38 207.6 759.09C207.6 744.84 196.06 733.3 181.81 733.3Z" fill="#29A37A"/>
<path d="M163.72 777.45C168.38 782.04 174.76 784.87 181.81 784.87C188.75 784.87 195.05 782.12 199.69 777.66L181.6 759.57L163.72 777.45Z" fill="black"/>
<path d="M181.81 785.62C167.18 785.62 155.27 773.72 155.27 759.08C155.27 744.45 167.17 732.54 181.81 732.54C196.44 732.54 208.35 744.44 208.35 759.08C208.35 773.72 196.45 785.62 181.81 785.62ZM181.81 734.05C168 734.05 156.77 745.28 156.77 759.09C156.77 772.9 168 784.13 181.81 784.13C195.62 784.13 206.85 772.9 206.85 759.09C206.85 745.28 195.62 734.05 181.81 734.05Z" fill="black"/>
<path d="M342.077 447.81C342.077 447.81 303.567 587.25 300.337 641.54C297.117 695.83 320.017 829.26 320.017 829.26H375.127C375.127 829.26 381.747 718.84 387.987 665.28C394.217 611.72 420.987 521.28 414.597 447.81C414.597 447.81 355.137 433.3 342.077 447.81Z" fill="#B744B8"/>
<path d="M324.477 829.251L328.367 848.111L295.757 871.321V881.471H373.977V864.061L369.227 829.251H324.477Z" fill="#0E110F"/>
<path d="M315.917 805.561L359.647 805.051L359.657 804.321C359.677 803.261 361.767 698.131 363.047 676.991C364.207 657.811 368.577 643.591 374.617 623.911C381.897 600.181 391.877 567.671 400.847 509.031L399.367 508.801C390.417 567.341 380.457 599.781 373.187 623.471C367.117 643.251 362.727 657.541 361.557 676.901C360.327 697.141 358.367 794.151 358.187 803.561L315.917 804.051V805.561Z" fill="#FFFFFD"/>
<path d="M371.847 273.331C371.847 273.331 333.377 292.621 327.577 311.471C321.777 330.321 320.327 349.181 310.177 356.431C300.027 363.681 297.127 365.131 304.377 370.931C311.627 376.731 343.447 402.881 343.447 402.881L371.847 273.331Z" fill="#0E110F"/>
<path d="M341.898 292.98L350.768 369.45L348.468 379.96L338.708 295.84C339.728 294.87 340.798 293.92 341.898 292.98Z" fill="#FFFFFD"/>
<path d="M367.448 275.681L366.638 297.071L362.408 316.381L363.878 277.721C365.198 276.951 366.398 276.261 367.448 275.681Z" fill="#FFFFFD"/>
<path d="M401.907 447.811C401.907 447.811 387.987 524.281 402.317 641.531C408.917 695.511 429.407 829.251 429.407 829.251H484.517C484.517 829.251 487.157 731.861 485.987 673.271C483.387 543.781 516.127 524.671 484.217 440.551C484.217 440.551 414.957 433.311 401.907 447.811Z" fill="#B744B8"/>
<path d="M382.687 267.961C382.687 267.961 343.527 282.461 342.077 315.821C340.627 349.181 343.527 394.141 343.527 408.641C343.527 423.141 331.927 443.451 342.077 447.801C352.227 452.151 420.397 465.201 484.217 440.551C484.217 440.551 491.467 359.331 491.467 318.721C491.467 278.111 479.867 260.711 439.257 260.711L382.687 267.961Z" fill="#0E110F"/>
<path d="M358.967 451.001L369.377 274.831C371.567 273.441 373.637 272.271 375.457 271.311L409.507 453.141L431.767 261.671L437.977 260.871L460.117 447.721L485.247 281.711C486.227 283.711 487.077 285.861 487.807 288.161L463.727 447.211C461.387 447.841 459.057 448.421 456.727 448.961L434.907 264.831L412.807 454.891C410.607 454.991 408.437 455.061 406.287 455.111L372.787 276.171L362.367 452.431C359.867 452.051 357.547 451.661 355.427 451.261L342.907 387.601C342.657 381.001 342.377 373.531 342.147 365.651L358.967 451.001Z" fill="#FFFFFD"/>
<path d="M436.767 829.251L436.657 851.011L407.657 871.321V881.471H488.877V864.061L481.517 829.251H436.767Z" fill="#0E110F"/>
<path d="M303.987 371.281C303.987 371.281 258.987 404.281 267.987 427.281C276.987 450.281 317.717 442.931 341.857 429.601C365.987 416.281 383.377 389.601 383.377 389.601C383.377 389.601 331.987 368.281 303.987 371.281Z" fill="#FFFFFD"/>
<path d="M296.338 442.871C311.528 442.871 329.298 437.391 342.218 430.261C366.238 417.001 383.828 390.281 384.008 390.011L384.498 389.251L383.668 388.901C383.148 388.691 331.788 367.541 303.908 370.521L303.708 370.541L303.548 370.661C301.688 372.021 258.188 404.271 267.298 427.541C269.698 433.681 274.398 438.051 281.258 440.531C285.708 442.151 290.858 442.871 296.338 442.871ZM382.238 389.941C379.198 394.371 362.918 417.111 341.488 428.941C324.208 438.481 298.138 445.051 281.758 439.131C275.318 436.801 270.918 432.721 268.678 427.001C260.258 405.471 301.328 374.191 304.258 372.001C329.838 369.381 375.448 387.211 382.238 389.941Z" fill="#0E110F"/>
<path d="M267.978 310.28H376.988L417.988 406.28H296.298C291.288 406.28 286.778 403.22 284.928 398.55L256.608 327C253.438 318.97 259.348 310.28 267.978 310.28Z" fill="#FFFFFD"/>
<path d="M296.297 407.021H419.127L377.487 309.521H267.977C263.677 309.521 259.667 311.641 257.247 315.201C254.827 318.761 254.327 323.271 255.917 327.271L284.237 398.82C286.207 403.81 290.937 407.021 296.297 407.021ZM416.857 405.521H296.297C291.557 405.521 287.367 402.671 285.627 398.271L257.307 326.72C255.887 323.13 256.317 319.24 258.487 316.05C260.657 312.86 264.117 311.03 267.977 311.03H376.497L416.857 405.521Z" fill="#0E110F"/>
<path d="M464.988 401.78C464.988 399.29 462.978 397.28 460.488 397.28H422.988L388.188 317.61C386.238 313.16 381.848 310.28 376.988 310.28L417.988 406.28H460.488C462.978 406.28 464.988 404.26 464.988 401.78Z" fill="#0E110F"/>
<path d="M536.758 385.75C536.758 385.75 551.318 464.92 523.658 473.6C495.998 482.28 480.678 475.43 460.838 463.86C440.998 452.28 398.998 416.28 389.998 402.28C380.998 388.28 372.998 382.28 378.998 376.28C384.998 370.28 401.618 381.23 406.808 385.75C411.998 390.28 403.998 371.28 409.998 371.28C415.998 371.28 416.998 389.28 422.998 394.28C428.998 399.28 479.548 413.24 479.548 413.24L476.608 402.37C476.598 402.36 523.518 376.22 536.758 385.75Z" fill="#FFFFFD"/>
<path d="M500.817 478.23C507.647 478.23 515.167 477.05 523.877 474.32C551.857 465.55 538.087 388.88 537.487 385.62L537.437 385.32L537.187 385.141C523.717 375.441 478.167 400.631 476.227 401.701L475.717 401.99L478.467 412.151C470.607 409.951 428.757 398.1 423.467 393.69C420.877 391.53 419.227 386.65 417.627 381.93C415.647 376.06 413.767 370.521 409.987 370.521C409.117 370.521 408.417 370.83 407.897 371.43C406.317 373.26 406.927 377.47 407.477 381.18C407.707 382.76 408.017 384.86 407.877 385.61C407.757 385.54 407.567 385.41 407.297 385.18C401.837 380.42 384.867 369.34 378.467 375.74C373.557 380.65 377.057 385.43 382.857 393.35C384.827 396.04 387.057 399.09 389.367 402.68C398.597 417.04 441.397 453.38 460.467 464.5C473.847 472.32 485.577 478.23 500.817 478.23ZM536.067 386.19C537.007 391.54 549.297 464.77 523.427 472.88C495.817 481.54 480.867 474.671 461.207 463.201C442.257 452.141 399.767 416.09 390.617 401.86C388.287 398.23 386.037 395.171 384.057 392.461C377.987 384.161 375.667 380.64 379.517 376.8C385.087 371.22 401.337 381.98 406.307 386.31C406.697 386.65 407.717 387.54 408.617 387.05C409.707 386.45 409.497 384.66 408.957 380.97C408.507 377.91 407.897 373.73 409.027 372.41C409.257 372.14 409.567 372.021 409.987 372.021C412.697 372.021 414.487 377.3 416.207 382.41C417.867 387.33 419.587 392.411 422.507 394.841C428.557 399.891 477.267 413.37 479.337 413.94L480.607 414.29L477.477 402.72C482.567 399.97 523.777 378.04 536.067 386.19Z" fill="#0E110F"/>
<path d="M454.527 260.921C454.527 260.921 486.577 267.541 503.647 288.121C520.717 308.701 548.267 379.661 540.137 384.151C532.007 388.641 485.197 404.151 473.767 402.191C473.767 402.191 470.907 403.801 467.907 398.801C464.907 393.801 450.777 330.251 445.907 309.801C440.907 288.811 440.157 269.041 454.527 260.921Z" fill="#0E110F"/>
<path d="M516.908 309.661L478.748 402.241C477.298 402.361 475.998 402.401 474.928 402.331L514.788 305.621C515.498 306.931 516.208 308.281 516.908 309.661Z" fill="#FFFFFD"/>
<path d="M522.528 321.26L511.378 394.64C510.148 395.02 508.908 395.39 507.668 395.75L519.848 315.57C520.758 317.44 521.648 319.33 522.528 321.26Z" fill="#FFFFFD"/>
<path d="M539.837 368.33L527.187 389.42C525.557 390 523.827 390.6 522.027 391.21L538.587 363.61C539.057 365.25 539.467 366.83 539.837 368.33Z" fill="#FFFFFD"/>
<path d="M452.808 262.021C453.358 261.641 453.928 261.271 454.538 260.931C454.538 260.931 455.208 261.071 456.368 261.361L451.118 332.231C450.168 328.121 449.268 324.231 448.458 320.721L452.808 262.021Z" fill="#FFFFFD"/>
<path d="M490.417 276.301L470.037 401.401C469.367 400.851 468.647 400.031 467.917 398.811C467.717 398.481 467.477 397.901 467.197 397.111L487.207 274.211C488.287 274.871 489.357 275.571 490.417 276.301Z" fill="#FFFFFD"/>
<path d="M486.528 273.79L453.728 343.54C453.298 341.68 452.868 339.84 452.448 338.03L483.488 272.03C484.508 272.59 485.518 273.17 486.528 273.79Z" fill="#FFFFFD"/>
<path d="M329.488 364.921C324.517 364.921 320.488 360.891 320.488 355.921C320.488 350.95 324.517 346.921 329.488 346.921C334.458 346.921 338.488 350.95 338.488 355.921C338.488 360.891 334.458 364.921 329.488 364.921Z" fill="#0E110F"/>
<path d="M388.987 197.491L370.137 198.941C370.137 198.941 361.437 268.561 399.147 256.951V264.201C399.147 264.201 387.547 267.101 383.197 268.551C383.197 268.551 397.697 278.701 413.657 275.801C429.607 272.901 439.767 261.301 439.767 261.301H431.787L425.987 233.021C425.987 233.021 434.687 227.221 434.687 221.421C434.687 215.621 433.237 214.171 428.887 212.721C424.537 211.271 418.737 218.521 418.737 218.521C418.737 218.521 411.487 205.471 410.037 196.761L388.987 197.491Z" fill="#FFFFFD"/>
<path d="M407.697 277.091C409.677 277.091 411.717 276.931 413.787 276.551C429.817 273.631 439.907 262.281 440.327 261.801L441.417 260.561H432.397L426.817 233.361C428.617 232.081 435.437 226.861 435.437 221.421C435.437 215.131 433.577 213.491 429.127 212.011C425.257 210.721 420.647 215.251 418.877 217.211C417.207 214.061 411.957 203.781 410.777 196.651L410.667 196.001L388.947 196.751L369.477 198.251L369.397 198.861C369.177 200.611 364.227 241.831 379.957 255.041C384.737 259.051 390.937 260.031 398.397 257.971V263.641C395.987 264.251 386.787 266.591 382.957 267.861L381.547 268.331L382.767 269.181C383.287 269.541 394.247 277.091 407.697 277.091ZM437.977 262.061C434.857 265.101 425.927 272.821 413.507 275.081C400.797 277.391 388.857 271.141 384.947 268.801C389.937 267.291 399.217 264.971 399.317 264.951L399.887 264.811V255.961L398.917 256.261C391.537 258.531 385.487 257.741 380.917 253.901C366.807 242.061 370.247 204.881 370.807 199.661L389.027 198.261L409.397 197.561C411.077 206.261 417.777 218.381 418.067 218.911L418.607 219.891L419.307 219.021C420.827 217.121 425.477 212.401 428.637 213.461C432.737 214.831 433.927 216.041 433.927 221.451C433.927 226.781 425.647 232.371 425.557 232.431L425.137 232.711L431.167 262.091H437.977V262.061Z" fill="#0E110F"/>
<path d="M370.488 199.151C370.488 199.151 411.488 223.151 418.488 218.151C425.488 213.151 425.598 211.541 430.548 213.351C435.498 215.161 434.818 221.881 434.158 224.011C433.498 226.151 425.498 233.151 425.498 233.151L431.158 261.311C431.158 261.311 499.158 254.311 521.158 319.311C521.158 319.311 524.158 279.311 509.158 260.311C500.378 249.181 483.158 228.311 461.328 224.971C451.818 223.521 451.498 215.151 454.498 206.151C457.498 197.151 442.498 182.151 432.498 182.151C422.498 182.151 414.498 172.151 406.498 170.151C398.498 168.151 383.498 168.151 370.498 175.151C357.498 182.151 352.248 218.031 370.878 232.591C370.858 232.591 368.488 208.151 370.488 199.151Z" fill="#0E110F"/>
<path d="M473.688 404.47C477.468 404.47 481.308 402.76 481.528 402.66L480.908 401.29C480.848 401.32 474.378 404.19 470.588 402.36C469.328 401.75 468.518 400.69 468.128 399.13C467.788 397.77 467.018 394.9 465.958 390.93C460.828 371.73 448.798 326.78 447.148 310.24L445.658 310.39C447.328 327.06 459.368 372.09 464.518 391.32C465.578 395.28 466.348 398.14 466.678 399.49C467.178 401.48 468.268 402.9 469.938 403.71C471.078 404.26 472.378 404.47 473.688 404.47Z" fill="#0E110F"/>
<path d="M342.898 310.29C343.128 300.17 354.918 287.81 355.038 287.69L353.958 286.65C353.458 287.17 341.648 299.55 341.398 310.26L342.898 310.29Z" fill="#0E110F"/>
<path d="M425.907 804.561H466.697L466.657 803.771C466.607 802.811 461.657 707.381 461.937 672.091C462.207 636.791 464.237 574.391 464.257 573.761C464.327 573.241 471.467 514.601 473.777 491.581C475.627 473.141 473.757 469.721 473.537 469.391L472.287 470.221C472.347 470.331 474.077 473.651 472.287 491.431C469.977 514.431 462.837 573.061 462.767 573.641C462.737 574.331 460.717 636.751 460.447 672.071C460.187 705.691 464.647 793.751 465.127 803.051H425.907V804.561Z" fill="#FFFFFD"/>
<path d="M396.978 602.26L398.478 602.151C398.428 601.491 393.618 535.56 402.568 492.07L401.098 491.771C392.098 535.461 396.928 601.6 396.978 602.26Z" fill="#0E110F"/>
<path d="M381.282 211.851C378.938 210.53 374.806 208.109 370.192 212.854" stroke="black" stroke-linecap="round"/>
<path d="M409.593 209.511C407.25 208.189 403.117 205.768 398.503 210.514" stroke="black" stroke-linecap="round"/>
<path d="M389.309 214.065C390.515 221.224 379.924 233.921 393.786 232.667" stroke="black" stroke-linecap="round"/>
<ellipse cx="2.78381" cy="3.34058" rx="2.78381" ry="3.34058" transform="matrix(-0.995935 0.0900772 0.0900772 0.995935 406.295 216.441)" fill="black"/>
<ellipse cx="2.78381" cy="3.34058" rx="2.78381" ry="3.34058" transform="matrix(-0.995935 0.0900772 0.0900772 0.995935 379.679 218.849)" fill="black"/>
<path d="M400.175 241.355C397.577 243.078 394.45 245.942 387.525 243.423" stroke="black" stroke-linecap="round"/>
</svg>
