<svg width="460" height="518" viewBox="0 0 460 518" fill="none" xmlns="http://www.w3.org/2000/svg">
<path d="M432.451 201.011H233.078C218.399 201.011 206.498 193 206.498 183.12V18.227C206.498 8.34666 218.399 0.335938 233.078 0.335938H432.451C447.13 0.335938 459.031 8.34666 459.031 18.227V183.12C459.031 193 447.13 201.011 432.451 201.011Z" fill="#FFFFFD"/>
<path d="M432.451 201.346H233.079C218.147 201.346 206 193.17 206 183.12V18.2265C206 8.17621 218.147 0 233.079 0H432.451C447.383 0 459.53 8.17621 459.53 18.2265V183.12C459.53 193.17 447.383 201.346 432.451 201.346ZM233.079 0.670915C218.699 0.670915 206.997 8.54745 206.997 18.2265V183.12C206.997 192.799 218.699 200.675 233.079 200.675H432.451C446.831 200.675 458.533 192.799 458.533 183.12V18.2265C458.533 8.54745 446.831 0.670915 432.451 0.670915H233.079V0.670915Z" fill="black"/>
<path d="M241.473 85.998C240.895 85.998 240.43 86.2306 240.43 86.5124V178.28C240.43 178.566 240.895 178.795 241.473 178.795C242.051 178.795 242.516 178.562 242.516 178.28V86.5169C242.516 86.2306 242.051 85.998 241.473 85.998Z" fill="black"/>
<path d="M256.764 63.2363C256.186 63.2363 255.721 63.4689 255.721 63.7507V155.518C255.721 155.805 256.186 156.033 256.764 156.033C257.342 156.033 257.807 155.8 257.807 155.518V63.7507C257.807 63.4689 257.342 63.2363 256.764 63.2363Z" fill="black"/>
<path d="M272.053 36.6367C271.475 36.6367 271.01 36.8693 271.01 37.1511V128.919C271.01 129.205 271.475 129.433 272.053 129.433C272.631 129.433 273.096 129.201 273.096 128.919V37.1511C273.096 36.8648 272.625 36.6367 272.053 36.6367Z" fill="black"/>
<path d="M287.344 39.7402C286.766 39.7402 286.301 39.9728 286.301 40.2546V132.022C286.301 132.309 286.766 132.537 287.344 132.537C287.922 132.537 288.387 132.304 288.387 132.022V40.2591C288.381 39.9728 287.916 39.7402 287.344 39.7402Z" fill="black"/>
<path d="M302.627 51.7012C302.049 51.7012 301.584 51.9338 301.584 52.2156V143.983C301.584 144.27 302.049 144.498 302.627 144.498C303.205 144.498 303.671 144.265 303.671 143.983V52.2156C303.671 51.9338 303.205 51.7012 302.627 51.7012Z" fill="black"/>
<path d="M317.918 39.293C317.34 39.293 316.875 39.5255 316.875 39.8073V131.575C316.875 131.861 317.34 132.09 317.918 132.09C318.496 132.09 318.962 131.857 318.962 131.575V39.8118C318.962 39.5256 318.496 39.293 317.918 39.293Z" fill="black"/>
<path d="M333.209 67.2119C332.631 67.2119 332.166 67.4445 332.166 67.7263V159.494C332.166 159.78 332.631 160.008 333.209 160.008C333.787 160.008 334.253 159.776 334.253 159.494V67.7308C334.253 67.4445 333.781 67.2119 333.209 67.2119Z" fill="black"/>
<path d="M348.493 38.1885C347.914 38.1885 347.449 38.4211 347.449 38.7028V130.471C347.449 130.757 347.914 130.985 348.493 130.985C349.071 130.985 349.536 130.752 349.536 130.471V38.7028C349.536 38.4211 349.071 38.1885 348.493 38.1885Z" fill="black"/>
<path d="M363.784 20.6279C363.205 20.6279 362.74 20.8605 362.74 21.1423V112.91C362.74 113.196 363.205 113.424 363.784 113.424C364.362 113.424 364.827 113.192 364.827 112.91V21.1423C364.827 20.856 364.362 20.6279 363.784 20.6279Z" fill="black"/>
<path d="M379.073 16.6699C378.494 16.6699 378.029 16.9025 378.029 17.1843V108.952C378.029 109.238 378.494 109.466 379.073 109.466C379.651 109.466 380.116 109.234 380.116 108.952V17.1888C380.116 16.9025 379.644 16.6699 379.073 16.6699Z" fill="black"/>
<path d="M394.364 24.2061C393.785 24.2061 393.32 24.4386 393.32 24.7204V116.488C393.32 116.774 393.785 117.003 394.364 117.003C394.942 117.003 395.407 116.77 395.407 116.488V24.7204C395.4 24.4342 394.935 24.2061 394.364 24.2061Z" fill="black"/>
<path d="M409.647 19.7559C409.069 19.7559 408.604 19.9884 408.604 20.2702V112.038C408.604 112.324 409.069 112.552 409.647 112.552C410.225 112.552 410.69 112.32 410.69 112.038V20.2702C410.69 19.984 410.225 19.7559 409.647 19.7559Z" fill="black"/>
<path d="M241.659 104.113C239.546 104.113 237.838 105.267 237.838 106.685V159.415C237.838 160.837 239.552 161.986 241.659 161.986C243.772 161.986 245.48 160.832 245.48 159.415V106.69C245.48 105.267 243.772 104.113 241.659 104.113Z" fill="#FFD857"/>
<path d="M256.95 85.8018C254.837 85.8018 253.129 86.9557 253.129 88.3736V132.207C253.129 133.629 254.843 134.779 256.95 134.779C259.063 134.779 260.771 133.625 260.771 132.207V88.3736C260.771 86.9513 259.056 85.8018 256.95 85.8018Z" fill="#FFD857"/>
<path d="M272.233 64.918C270.12 64.918 268.412 66.0719 268.412 67.4898V99.8816C268.412 101.304 270.127 102.453 272.233 102.453C274.34 102.453 276.054 101.299 276.054 99.8816V67.4898C276.061 66.0719 274.346 64.918 272.233 64.918Z" fill="#FFD857"/>
<path d="M287.522 87.7295C285.409 87.7295 283.701 88.8835 283.701 90.3013V113.157C283.701 114.58 285.416 115.729 287.522 115.729C289.635 115.729 291.343 114.575 291.343 113.157V90.3013C291.343 88.8835 289.635 87.7295 287.522 87.7295Z" fill="#FFD857"/>
<path d="M302.813 107.315C300.7 107.315 298.992 108.469 298.992 109.887V125.117C298.992 126.539 300.707 127.689 302.813 127.689C304.926 127.689 306.634 126.535 306.634 125.117V109.887C306.634 108.469 304.92 107.315 302.813 107.315Z" fill="#FFD857"/>
<path d="M318.096 73.3008C315.983 73.3008 314.275 74.4548 314.275 75.8726V112.715C314.275 114.137 315.983 115.287 318.096 115.287C320.209 115.287 321.917 114.133 321.917 112.715V75.8726C321.924 74.4548 320.209 73.3008 318.096 73.3008Z" fill="#FFD857"/>
<path d="M333.387 85.3281C331.274 85.3281 329.566 86.4821 329.566 87.9V124.071C329.566 125.494 331.281 126.643 333.387 126.643C335.5 126.643 337.208 125.489 337.208 124.071V87.9044C337.208 86.4821 335.5 85.3281 333.387 85.3281Z" fill="#FFD857"/>
<path d="M348.678 56.3037C346.565 56.3037 344.857 57.4532 344.857 58.8756V111.605C344.857 113.027 346.572 114.177 348.678 114.177C350.785 114.177 352.499 113.023 352.499 111.605V58.8756C352.499 57.4532 350.791 56.3037 348.678 56.3037Z" fill="#FFD857"/>
<path d="M363.969 47.0049C361.856 47.0049 360.148 48.1589 360.148 49.5767V85.7838C360.148 87.2061 361.863 88.3556 363.969 88.3556C366.083 88.3556 367.79 87.2061 367.79 85.7838V49.5767C367.79 48.1589 366.076 47.0049 363.969 47.0049Z" fill="#FFD857"/>
<path d="M379.252 34.7852C377.139 34.7852 375.431 35.9391 375.431 37.357V90.0865C375.431 91.5088 377.146 92.6583 379.252 92.6583C381.365 92.6583 383.073 91.5043 383.073 90.0865V37.3615C383.08 35.9391 381.365 34.7852 379.252 34.7852Z" fill="#FFD857"/>
<path d="M394.542 35.9658C392.428 35.9658 390.721 37.1198 390.721 38.5377V103.979C390.721 105.401 392.428 106.551 394.542 106.551C396.655 106.551 398.363 105.401 398.363 103.979V38.5377C398.363 37.1153 396.655 35.9658 394.542 35.9658Z" fill="#FFD857"/>
<path d="M409.833 37.8711C407.72 37.8711 406.012 39.0251 406.012 40.4429V63.263C406.012 64.6853 407.72 65.8348 409.833 65.8348C411.946 65.8348 413.654 64.6809 413.654 63.263V40.4429C413.654 39.0206 411.939 37.8711 409.833 37.8711Z" fill="#FFD857"/>
<path d="M220.944 385.497H27.3151C12.5077 385.497 0.502197 373.492 0.502197 358.685V166.316C0.502197 151.508 12.5077 139.503 27.3151 139.503H220.937C235.745 139.503 247.75 151.508 247.75 166.316V358.685C247.757 373.492 235.751 385.497 220.944 385.497Z" fill="#FFFFFD"/>
<path d="M220.945 386H27.3156C12.2535 386 0 373.747 0 358.684V166.316C0 151.253 12.2535 139 27.3156 139H220.938C236 139 248.254 151.253 248.254 166.316V358.684C248.26 373.747 236.007 386 220.945 386ZM27.3156 140.005C12.8098 140.005 1.00548 151.81 1.00548 166.316V358.684C1.00548 373.19 12.8098 384.995 27.3156 384.995H220.938C235.444 384.995 247.248 373.19 247.248 358.684V166.316C247.248 151.81 235.444 140.005 220.938 140.005H27.3156Z" fill="black"/>
<path d="M124.175 349.581C172.158 349.581 211.056 310.683 211.056 262.701C211.056 214.718 172.158 175.82 124.175 175.82C76.1926 175.82 37.2949 214.718 37.2949 262.701C37.2949 310.683 76.1926 349.581 124.175 349.581Z" fill="#FFFFFD"/>
<path d="M124.176 350.085C75.9933 350.085 36.793 310.884 36.793 262.701C36.793 214.519 75.9933 175.318 124.176 175.318C172.359 175.318 211.559 214.519 211.559 262.701C211.559 310.884 172.359 350.085 124.176 350.085ZM124.176 176.331C76.5497 176.331 37.7985 215.075 37.7985 262.708C37.7985 310.341 76.543 349.086 124.176 349.086C171.809 349.086 210.554 310.341 210.554 262.708C210.554 215.075 171.802 176.331 124.176 176.331Z" fill="black"/>
<path d="M124.179 315.448C153.311 315.448 176.927 291.832 176.927 262.701C176.927 233.569 153.311 209.953 124.179 209.953C95.0475 209.953 71.4316 233.569 71.4316 262.701C71.4316 291.832 95.0475 315.448 124.179 315.448Z" fill="black"/>
<path d="M124.178 281.028C134.3 281.028 142.505 272.823 142.505 262.702C142.505 252.58 134.3 244.375 124.178 244.375C114.057 244.375 105.852 252.58 105.852 262.702C105.852 272.823 114.057 281.028 124.178 281.028Z" fill="#FFFFFD"/>
<path d="M124.177 281.531C113.794 281.531 105.348 273.085 105.348 262.701C105.348 252.318 113.794 243.872 124.177 243.872C134.56 243.872 143.006 252.318 143.006 262.701C143.006 273.085 134.56 281.531 124.177 281.531ZM124.177 244.878C114.35 244.878 106.353 252.874 106.353 262.701C106.353 272.528 114.35 280.525 124.177 280.525C134.004 280.525 142.001 272.528 142.001 262.701C142.001 252.874 134.004 244.878 124.177 244.878Z" fill="black"/>
<path d="M122.188 255.328L119.855 243.966C119.332 241.432 116.202 240.487 114.372 242.324L111.529 245.166L61.738 195.167L62.4151 194.496V178.563C62.4151 177.531 62.0062 176.532 61.2822 175.795L45.1342 159.432C42.654 156.918 38.384 158.681 38.3907 162.207L38.4175 171.746L38.1025 171.431C36.2055 169.52 33.1153 169.514 31.2049 171.417C29.2945 173.321 29.2878 176.405 31.1915 178.315L31.2585 178.382L22.9666 177.879C19.4005 177.665 17.4097 181.928 19.8697 184.522L35.2469 200.751C35.9843 201.535 37.0166 201.977 38.0891 201.977L54.8136 202.038L104.625 252.057L102.004 254.678C100.127 256.555 101.166 259.766 103.787 260.188L115.692 262.098C119.634 262.729 122.985 259.229 122.188 255.328Z" fill="#B744B8"/>
<path d="M330.441 516.518H132.561C120.823 516.518 111.316 507.011 111.316 495.273V432.56C111.316 420.822 120.823 411.315 132.561 411.315H330.441C342.179 411.315 351.686 420.822 351.686 432.56V495.273C351.686 507.011 342.179 516.518 330.441 516.518Z" fill="#FFFFFD" stroke="black"/>
<path d="M156.1 488.184C170.193 488.184 181.618 476.759 181.618 462.666C181.618 448.573 170.193 437.148 156.1 437.148C142.007 437.148 130.582 448.573 130.582 462.666C130.582 476.759 142.007 488.184 156.1 488.184Z" fill="#29A37A"/>
<path d="M205.939 471.342H321.448C326.152 471.342 329.962 475.152 329.973 479.856C329.972 484.559 326.162 488.368 321.459 488.368H205.939C201.236 488.368 197.426 484.559 197.426 479.855C197.426 475.152 201.236 471.342 205.939 471.342Z" fill="#FFFFFD" stroke="black"/>
<path d="M255.995 454.033H206.33C201.638 454.033 197.827 450.224 197.816 445.52C197.817 440.816 201.626 437.007 206.33 437.007H255.995C260.699 437.007 264.508 440.817 264.508 445.52C264.508 450.224 260.699 454.033 255.995 454.033Z" fill="#FFFFFD" stroke="black"/>
</svg>
