<svg width="328" height="583" viewBox="0 0 328 583" fill="none" xmlns="http://www.w3.org/2000/svg">
<path d="M218.211 446.023L218.293 461.489L251.611 480.531V488.858H184.976V474.583L181.489 446.023H218.211Z" fill="black"/>
<path d="M118.192 230.167C118.192 230.167 213.682 216.31 223.527 236C223.527 236 233.372 246.666 236.654 267.177C239.936 287.688 238.295 338.555 221.886 446.032H177.583C177.583 446.032 174.137 367.984 171.758 345.881C169.379 323.779 168.558 296.712 168.558 296.712C168.558 296.712 119.808 303.202 111.128 302.456C82.4123 300.002 107.206 238.281 118.192 230.167Z" fill="#0E110F"/>
<path d="M193.698 426.505H224.645V425.275H194.879L188.307 272.575L187.626 272.682C156.86 277.539 113.517 276.784 113.074 276.776L113.049 278.006C113.475 278.015 156.31 278.761 187.134 274.003L193.698 426.505Z" fill="#FFFFFD"/>
<path d="M131.639 226.163C131.639 226.163 140.959 278.212 127.266 383.9C121.531 428.146 89.4519 537.912 89.4519 537.912H44.2377C44.2377 537.912 45.5012 462.071 56.4868 415.265C79.9349 315.394 34.7125 288.024 60.8926 219.009C60.8926 219.009 120.932 214.259 131.639 226.163Z" fill="#0E110F"/>
<path d="M59.0723 518.394H95.0156V517.164H60.4015C65.882 449.379 74.0945 410.942 79.534 385.484C81.4128 376.689 83.0373 369.083 84.0793 362.421C87.4594 340.86 84.6864 323.5 80.0919 294.736C79.1402 288.755 78.1475 282.577 77.1056 275.652C70.9851 235.246 81.5523 199.163 81.6589 198.802L80.4775 198.449C80.3709 198.81 69.7297 235.139 75.8912 275.833C76.9414 282.757 77.9259 288.943 78.8858 294.924C83.4557 323.566 86.2205 340.86 82.8731 362.225C81.8312 368.854 80.215 376.434 78.3362 385.213C72.8721 410.786 64.6185 449.437 59.1298 517.713L59.0723 518.394Z" fill="#FFFFFD"/>
<path d="M211.279 160.701C211.279 160.701 214.848 171.407 218.416 169.028C221.985 166.649 287.161 128.441 295.029 123.149C302.905 117.858 308.295 115.905 302.027 123.428C295.759 130.952 309.042 125.824 314.9 124.224C320.749 122.624 329.085 125.004 325.516 130.952C321.947 136.9 307.663 135.71 301.715 144.038C295.767 152.365 260.07 219.001 217.227 219.001C217.227 219.001 203.033 222.767 175.024 194.708C147.022 166.649 211.279 160.701 211.279 160.701Z" fill="#FFFFFD"/>
<path d="M215.242 219.804C216.374 219.804 217.055 219.673 217.309 219.616C255.394 219.542 288.154 166.87 298.926 149.55C300.436 147.122 301.535 145.358 302.224 144.39C305.293 140.091 310.839 138.376 315.729 136.858C320.118 135.496 324.269 134.217 326.05 131.255C327.592 128.687 326.977 126.915 326.189 125.873C324.097 123.116 318.625 122.558 314.752 123.617C313.825 123.871 312.718 124.207 311.528 124.576C308.353 125.553 301.748 127.579 301.051 126.529C301.035 126.504 300.715 125.971 302.52 123.805C305.129 120.671 305.883 119.055 305.12 118.218C304.718 117.775 303.668 116.602 294.701 122.624C289.942 125.815 264.336 140.993 243.76 153.185C230.215 161.217 219.508 167.551 218.088 168.503C217.711 168.757 217.342 168.806 216.932 168.667C214.774 167.928 212.542 162.513 211.87 160.487L211.714 160.027L211.23 160.068C209.679 160.216 173.178 163.752 167.968 178.151C166.147 183.18 168.378 188.89 174.597 195.126C196.708 217.31 210.262 219.804 215.242 219.804ZM318.674 124.347C321.496 124.347 324.105 125.184 325.196 126.628C326.009 127.694 325.935 129.048 324.983 130.631C323.449 133.191 319.519 134.405 315.359 135.693C310.281 137.269 304.521 139.041 301.215 143.684C300.501 144.685 299.402 146.457 297.876 148.911C287.186 166.099 254.663 218.393 217.235 218.393L217.079 218.418C216.94 218.451 202.796 221.667 175.475 194.281C169.617 188.415 167.484 183.139 169.125 178.594C173.76 165.771 206.496 161.832 210.869 161.365C211.509 163.17 213.748 168.896 216.538 169.848C217.309 170.111 218.08 170.004 218.778 169.545C220.172 168.617 231.396 161.964 244.392 154.26C264.985 142.06 290.607 126.874 295.39 123.666C301.223 119.744 303.611 119.03 304.169 119.079C304.136 119.35 303.84 120.318 301.568 123.034C299.902 125.036 299.426 126.324 300.025 127.226C301.149 128.908 305.448 127.743 311.889 125.766C313.062 125.405 314.161 125.069 315.072 124.814C316.237 124.494 317.476 124.347 318.674 124.347Z" fill="black"/>
<path d="M154.734 81.8076C154.734 81.8076 186.296 97.6338 191.054 113.099C195.813 128.564 197.002 144.038 205.33 149.986C213.657 155.934 216.037 157.124 210.088 161.882C204.14 166.641 178.034 188.095 178.034 188.095L154.734 81.8076Z" fill="#29A37A"/>
<path d="M187.666 106.699C188.166 107.388 188.642 108.086 189.061 108.783L165.752 132.092L165.128 129.237L187.666 106.699Z" fill="#FFFFFD"/>
<path d="M206.628 150.913C207.358 151.43 208.039 151.914 208.654 152.365L197.258 163.761L201.976 168.478C201.352 168.987 200.713 169.512 200.064 170.045L195.519 165.5L177.117 183.902L176.493 181.047L193.78 163.761L166.787 136.768L165.811 132.313L195.527 162.03L206.628 150.913Z" fill="#FFFFFD"/>
<path d="M144.192 77.4013C144.192 77.4013 176.32 89.2976 177.51 116.667C178.699 144.037 176.32 180.924 176.32 192.82C176.32 204.716 185.837 221.38 177.51 224.948C169.182 228.517 113.253 239.224 60.8931 219C60.8931 219 54.9449 152.364 54.9449 119.047C54.9449 85.7287 64.462 71.4531 97.7798 71.4531L144.192 77.4013Z" fill="#FFFFFD"/>
<path d="M144.192 77.4013C144.192 77.4013 176.32 89.2976 177.51 116.667C178.699 144.037 176.32 180.924 176.32 192.82C176.32 204.716 185.837 221.38 177.51 224.948C169.182 228.517 113.253 239.224 60.8931 219C60.8931 219 54.9449 152.364 54.9449 119.047C54.9449 85.7287 64.462 71.4531 97.7798 71.4531L144.192 77.4013Z" fill="#29A37A"/>
<path d="M55.7398 104.484C55.871 103.442 56.0187 102.441 56.1828 101.449L61.3679 106.634L91.2154 76.7863L86.5307 72.1017C87.5481 71.9704 88.6064 71.8637 89.6812 71.7735L92.9547 75.047L96.54 71.4617C96.9502 71.4535 97.3522 71.4453 97.7789 71.4453L99.7808 71.6996L94.694 76.7863L124.55 106.642L150.722 80.4701C151.427 80.8475 152.174 81.2659 152.953 81.7254L126.297 108.381L156.145 138.229L177.525 116.848C177.574 117.948 177.615 119.072 177.648 120.204L157.884 139.968L177.402 159.486C177.369 160.618 177.328 161.751 177.296 162.858L156.145 141.707L126.297 171.555L156.145 201.402L176.639 180.908C176.59 182.171 176.549 183.377 176.516 184.518L157.884 203.15L178.879 224.145C178.493 224.465 178.042 224.744 177.517 224.965C177.255 225.08 176.935 225.203 176.582 225.326L156.145 204.889L130.038 230.995C128.898 230.995 127.741 230.987 126.576 230.979L154.405 203.15L124.558 173.302L94.7105 203.15L122.441 230.881C121.243 230.84 120.037 230.799 118.815 230.733L92.9711 204.889L74.3309 223.529C73.4366 223.267 72.5423 223.004 71.648 222.725L91.2236 203.15L61.3762 173.302L57.6104 177.068C57.5365 175.993 57.4627 174.902 57.3888 173.811L59.6451 171.555L57.0689 168.979C56.9868 167.74 56.9047 166.501 56.8309 165.262L61.3844 169.816L91.2318 139.968L61.3844 110.121L54.9767 116.528C54.9931 115.314 55.0259 114.116 55.0752 112.951L59.6451 108.381L55.7398 104.484ZM154.397 139.968L124.55 110.121L94.7022 139.968L124.55 169.816L154.397 139.968ZM63.1155 171.555L92.9629 201.402L122.81 171.555L92.9629 141.707L63.1155 171.555ZM92.9629 138.229L122.81 108.381L92.9629 78.5339L63.1155 108.381L92.9629 138.229Z" fill="#FFFFFD"/>
<path d="M138.835 19.6927L154.3 20.8823C154.3 20.8823 161.438 78.001 130.499 68.4757V74.4239C130.499 74.4239 140.016 76.8032 143.585 77.9928C143.585 77.9928 131.689 86.3202 118.595 83.941C105.509 81.5617 97.1731 72.0446 97.1731 72.0446H103.72L108.479 48.8427C108.479 48.8427 101.341 44.0842 101.341 39.3257C101.341 34.5671 102.531 33.3775 106.099 32.1879C109.668 30.9983 114.427 36.9464 114.427 36.9464C114.427 36.9464 120.375 26.2397 121.565 19.0938L138.835 19.6927Z" fill="#FFFFFD"/>
<path d="M123.494 84.9992C134.528 84.9992 143.52 78.8049 143.947 78.5014L144.948 77.804L143.791 77.4184C140.649 76.3683 133.101 74.4485 131.124 73.9562V69.3043C137.244 70.9944 142.331 70.1904 146.252 66.9004C159.166 56.0625 155.097 22.2441 154.916 20.8084L154.851 20.3079L138.852 19.0772L121.057 18.4619L120.967 18.9952C119.99 24.8449 115.691 33.279 114.321 35.8633C112.877 34.2553 109.095 30.5387 105.912 31.5971C102.261 32.8113 100.735 34.1569 100.735 39.3174C100.735 43.7806 106.33 48.0632 107.807 49.1134L103.229 71.4292H95.8285L96.7227 72.4466C97.0673 72.8404 105.346 82.1523 118.497 84.548C120.195 84.8598 121.869 84.9992 123.494 84.9992ZM142.15 78.1896C138.942 80.1095 129.155 85.2454 118.719 83.342C108.521 81.4878 101.194 75.154 98.6426 72.6599H104.238L109.185 48.5555L108.841 48.3258C108.775 48.2765 101.974 43.6903 101.974 39.3174C101.974 34.8788 102.95 33.8779 106.314 32.7621C108.906 31.8924 112.721 35.7649 113.968 37.3237L114.543 38.0375L114.986 37.2335C115.224 36.8069 120.72 26.855 122.099 19.7172L138.811 20.2915L153.759 21.4401C154.219 25.7228 157.041 56.2184 145.465 65.9405C141.715 69.0828 136.752 69.7391 130.697 67.8768L129.901 67.6306V74.8915L130.369 75.0063C130.443 75.0474 138.056 76.9508 142.15 78.1896Z" fill="black"/>
<path d="M155.013 34.8212C155.013 34.8212 159.066 35.1575 161.446 25.6405C163.825 16.1234 163.825 8.97744 155.497 4.21891C147.17 -0.539613 136.455 -1.72926 128.128 3.02927C119.8 7.7878 113.852 8.97743 107.896 6.59817C101.948 4.21891 97.1891 5.40853 97.1891 14.9256C97.1891 24.4426 91.6265 50.6638 106.903 56.5955L109.085 48.2517C109.085 48.2517 98.108 44.2315 102.998 33.7464C102.998 33.7464 109.085 28.0197 113.844 37.5368C113.844 37.5368 122.77 27.4208 122.77 20.283C122.77 20.283 131.098 26.2148 138.236 26.2312C145.808 26.2558 154.767 23.7863 155.013 34.8212Z" fill="black"/>
<path d="M6.2934 158.805C6.2934 158.805 -3.36314 204.651 2.58501 220.116C8.53317 235.581 27.5755 251.054 46.6096 260.572C65.6519 270.089 87.0653 281.993 98.9698 284.372C110.866 286.752 114.435 286.752 108.487 278.424C102.539 270.097 101.349 267.718 101.349 267.718L108.487 261.769L95.4009 262.959L44.2303 198.702L52.6234 180.595C52.6316 180.587 32.334 174.893 6.2934 158.805Z" fill="#FFFFFD"/>
<path d="M108.321 286.351C110.052 286.351 111.094 285.998 111.611 285.194C112.448 283.906 111.685 281.838 108.986 278.056C104.474 271.739 102.701 268.842 102.127 267.85L110.389 260.958L95.6621 262.295L44.9345 198.597L53.467 180.178L52.7697 179.981C52.5646 179.924 32.2506 174.123 6.59556 158.264L5.84894 157.805L5.66846 158.658C5.27466 160.537 -3.95523 204.857 1.99293 220.314C7.38319 234.319 24.7765 250.333 46.3211 261.098C50.1279 263.001 54.0906 265.036 57.9303 266.996C73.3216 274.881 89.2299 283.028 98.829 284.948C103.169 285.842 106.246 286.351 108.321 286.351ZM106.582 262.558L100.585 267.554L100.806 267.989C100.855 268.088 102.086 270.508 107.993 278.778C110.192 281.855 111.062 283.791 110.586 284.529C109.708 285.891 103.325 284.611 99.0997 283.766C89.6647 281.879 73.8303 273.773 58.521 265.93C54.6813 263.961 50.7104 261.926 46.8954 260.023C25.6133 249.382 8.4498 233.629 3.1662 219.895C-2.20766 205.931 5.44698 166.149 6.72686 159.79C29.5432 173.77 48.0358 179.825 51.777 180.974L43.5234 198.785L43.7613 199.081L95.137 263.6L106.582 262.558Z" fill="black"/>
<path d="M90.1105 71.7402C90.1105 71.7402 63.2822 72.6427 46.6192 86.9183C29.9561 101.194 19.2495 128.564 15.6806 135.71C12.1117 142.847 -2.17211 154.752 3.78425 159.51C9.73241 164.269 45.4296 183.311 54.9548 183.311C54.9548 183.311 56.4644 176.477 60.5666 171.554C64.6687 166.632 92.9738 94.0233 92.9738 94.0233C92.9738 94.0233 97.1006 82.2746 90.1105 71.7402Z" fill="#29A37A"/>
<path d="M79.4235 73.0039L94.4375 87.1974L94.2651 90.5038L76.5027 73.5618C77.5118 73.3567 78.4882 73.168 79.4235 73.0039Z" fill="#FFFFFD"/>
<path d="M14.4198 137.827C14.9121 137.089 15.3388 136.375 15.6751 135.71C15.6833 135.686 15.6997 135.661 15.7079 135.636L44.1442 164.073L73.9917 134.225L44.1442 104.378L18.161 130.361C19.0306 128.458 20.048 126.251 21.2049 123.839L42.4049 102.638L37.0065 97.24C37.5151 96.5837 38.0238 95.9437 38.5489 95.3038L44.1442 100.899L69.8402 75.2031C71.4483 74.7437 73.0236 74.3417 74.525 73.9971L45.8835 102.638L75.731 132.486L78.299 129.918L75.5915 136.104L45.8835 165.812L57.5091 177.438L56.4507 179.858L44.1442 167.551L35.1276 176.568C34.34 176.207 33.5442 175.838 32.7484 175.469L42.4049 165.812L14.4198 137.827Z" fill="#FFFFFD"/>
<path d="M83.4218 537.912L83.5038 555.757L107.305 572.42V580.747H40.6689V566.471L46.6991 537.912H83.4218Z" fill="black"/>
<path d="M144.766 489.522H257.166V581.411H144.766V489.522Z" fill="#FFFFFD"/>
<path d="M144.151 582.028H257.781V488.908H144.151V582.028ZM256.551 580.797H145.382V490.139H256.551V580.797Z" fill="black"/>
<path d="M257.167 489.522H293.266V581.411H257.167V489.522Z" fill="black"/>
<path d="M134.943 300.897C134.968 300.609 137.437 272.198 135.001 249.431L133.778 249.562C136.207 272.214 133.745 300.503 133.721 300.79L134.943 300.897Z" fill="black"/>
<path d="M57.841 177.545C58.0953 176.97 83.3155 120.147 86.5645 111.959L85.4241 111.508C82.1834 119.679 56.9713 176.478 56.717 177.044L57.841 177.545Z" fill="black"/>
<path d="M177.01 188.119C177.026 187.676 178.396 143.865 178.445 130.303L177.215 130.295C177.165 143.849 175.795 187.643 175.779 188.078L177.01 188.119Z" fill="black"/>
<path d="M146.013 34.6787C147.932 33.4567 151.31 31.2245 155.422 35.0218" stroke="black" stroke-linecap="round"/>
<path d="M122.003 33.9882C123.922 32.7663 127.301 30.5341 131.412 34.3314" stroke="black" stroke-linecap="round"/>
<path d="M139.337 36.912C138.643 43.0106 148.162 53.2502 136.401 52.8213" stroke="black" stroke-linecap="round"/>
<ellipse cx="127.351" cy="42.5989" rx="2.35378" ry="2.82454" transform="rotate(2.08867 127.351 42.5989)" fill="black"/>
<ellipse cx="149.933" cy="43.4221" rx="2.35378" ry="2.82454" transform="rotate(2.08867 149.933 43.4221)" fill="black"/>
<path d="M131.402 60.4473C133.674 61.7838 136.444 64.0598 142.176 61.6187" stroke="black" stroke-linecap="round"/>
</svg>
