<svg width="788" height="866" viewBox="0 0 788 866" fill="none" xmlns="http://www.w3.org/2000/svg">
<mask id="mask0_477_1014" style="mask-type:alpha" maskUnits="userSpaceOnUse" x="0" y="0" width="788" height="866">
<rect width="788" height="866" fill="#D9D9D9"/>
</mask>
<g mask="url(#mask0_477_1014)">
<path d="M656.413 264.305C694.157 290.643 696.647 345.614 661.44 375.257L537.815 479.345C515.803 497.879 484.69 501.053 459.388 487.346L183.572 337.932C147.218 318.238 135.763 271.492 158.894 237.221L265.992 78.5458C287.859 46.1491 332.019 37.935 364.072 60.3023L656.413 264.305Z" fill="white" fill-opacity="0.5"/>
<path d="M283.432 470.566C238.795 478.443 198.556 442.468 201.405 397.231L212.056 228.122C213.887 199.055 233.525 174.158 261.366 165.607L534.8 81.63C574.565 69.4171 616.144 94.3727 624.069 135.21L662.15 331.441C669.604 369.85 644.128 406.912 605.598 413.711L283.432 470.566Z" fill="#FFD857" fill-opacity="0.5"/>
</g>
<mask id="mask1_477_1014" style="mask-type:alpha" maskUnits="userSpaceOnUse" x="102" y="0" width="607" height="866">
<rect x="102" width="607" height="866" fill="#D9D9D9"/>
</mask>
<g mask="url(#mask1_477_1014)">
<path d="M258.197 510.791L193.735 799.906H209.202L273.664 510.791H258.197Z" fill="white"/>
<path d="M192.986 800.5H209.667L209.774 800.036L274.402 510.195H257.722L257.615 510.659L192.986 800.5ZM208.727 799.31H194.473L258.674 511.385H272.927L208.727 799.31Z" fill="#606060"/>
<path d="M194.731 759.524L194.612 785.414L160.097 809.566V821.642H256.73V800.94L247.986 759.524H194.731Z" fill="black"/>
<path d="M380.951 419.869C380.951 419.869 392.849 460.321 375.002 534.087C360.725 565.021 295.835 558.834 245.317 553.123C245.317 553.123 247.542 593.814 251.266 623.32C254.99 652.826 253.645 714.932 252.455 758.954H187.018C187.018 758.954 138.237 637.597 126.339 493.635C121.437 434.336 352.396 393.694 380.951 419.869Z" fill="#0E110F"/>
<path d="M176.279 730.006H230.795L230.711 729.03C223.989 652.849 215.042 534.026 214.126 521.843C219.563 522.045 247.237 522.331 319.659 512.004C336.827 509.553 349.272 502.045 356.649 489.684C374.163 460.32 356.947 412.788 356.768 412.312L355.09 412.931C355.269 413.395 372.188 460.141 355.102 488.767C348.023 500.641 336.007 507.863 319.397 510.231C238.112 521.819 213.46 520.023 213.222 519.999L212.187 519.916L212.27 520.951C212.365 522.224 221.788 648.161 228.844 728.198H176.279V730.006Z" fill="white"/>
<path d="M476.125 420.368C476.125 420.368 513.008 491.754 490.402 529.827C470.176 560.761 392.198 555.764 341.681 550.053C341.681 550.053 342.716 594.313 346.44 623.819C350.164 653.325 348.819 715.432 347.63 759.453H282.192C282.192 759.453 233.411 638.096 221.513 494.134C216.612 434.835 447.571 394.193 476.125 420.368Z" fill="#0E110F"/>
<path d="M516.289 516.692L577.384 790.709C578.431 795.421 574.849 799.894 570.019 799.894C566.485 799.894 563.416 797.443 562.654 793.993L501.559 519.976C500.512 515.265 504.093 510.791 508.924 510.791C512.458 510.791 515.527 513.242 516.289 516.692Z" fill="#FFFFFD"/>
<path d="M570.015 800.798C572.585 800.798 574.988 799.644 576.606 797.633C578.224 795.623 578.819 793.029 578.26 790.519L517.165 516.502C516.296 512.611 512.905 509.898 508.932 509.898C506.362 509.898 503.958 511.052 502.34 513.063C500.722 515.074 500.127 517.668 500.686 520.178L561.781 794.195C562.65 798.086 566.029 800.798 570.015 800.798ZM516.284 516.692L515.416 516.882L576.511 790.899C576.951 792.886 576.475 794.921 575.202 796.515C573.929 798.098 572.037 799.014 570.003 799.014C566.862 799.014 564.185 796.872 563.507 793.802L502.412 519.785C501.971 517.799 502.447 515.764 503.72 514.17C504.993 512.587 506.885 511.671 508.908 511.671C512.049 511.671 514.726 513.813 515.404 516.882L516.284 516.692Z" fill="black"/>
<path d="M359.724 555.99C359.724 555.99 504.484 570.279 530.659 525.068C556.834 479.857 574.68 364.448 550.885 300.201C550.885 300.201 530.076 413.503 526.804 417.536C523.52 421.558 512.812 470.338 452.134 477.477C391.455 484.616 360.116 496.502 359.724 555.99Z" fill="#FFFFFD"/>
<path d="M409.701 559.024C417.875 559.024 426.584 558.846 435.424 558.382C488.119 555.609 520.409 544.545 531.427 525.52C544.538 502.879 555.639 462.391 560.398 419.88C565.752 372.063 562.67 329.457 551.724 299.903L550.594 296.857L550.011 300.046C541.694 345.341 528.464 413.86 526.108 416.977C525.561 417.655 524.966 419.059 523.991 421.415C518.387 434.847 503.515 470.541 452.033 476.597C421.884 480.142 398.576 484.866 382.8 496.394C366.643 508.197 359.028 527.138 358.838 556.002V556.811L359.647 556.894C359.909 556.906 381.741 559.024 409.701 559.024ZM551.153 303.639C573.818 369.969 554.247 482.545 529.88 524.628C505.299 567.091 372.33 556.24 360.623 555.193C361.265 498.631 389.487 485.758 452.235 478.369C504.764 472.194 520.469 434.491 525.632 422.093C526.453 420.13 527.096 418.571 527.489 418.095C530.606 414.276 547.286 324.591 551.153 303.639Z" fill="black"/>
<path d="M360.625 218.13C360.625 218.13 314.854 241.081 307.954 263.508C301.053 285.935 299.328 308.374 287.252 317C275.175 325.626 271.725 327.351 280.351 334.252C288.977 341.153 326.835 372.265 326.835 372.265L360.625 218.13Z" fill="#B744B8"/>
<path d="M373.518 211.741C373.518 211.741 326.926 228.993 325.201 268.683C323.476 308.374 326.926 361.867 326.926 379.118C326.926 396.37 313.125 420.534 325.201 425.71C337.277 430.885 418.384 446.412 494.316 417.084C494.316 417.084 502.941 320.45 502.941 272.134C502.941 223.817 489.14 203.103 440.823 203.103L373.518 211.741Z" fill="#B744B8"/>
<path d="M326.188 397.167H342.845V380.046C342.845 379.059 343.642 378.262 344.629 378.262C345.617 378.262 346.414 379.059 346.414 380.046V397.167H363.071C364.058 397.167 364.855 397.964 364.855 398.952C364.855 399.939 364.058 400.737 363.071 400.737H346.414V416.929C346.414 417.917 345.617 418.714 344.629 418.714C343.642 418.714 342.845 417.917 342.845 416.929V400.737H326.188C325.2 400.737 324.403 399.939 324.403 398.952C324.403 397.964 325.2 397.167 326.188 397.167Z" fill="#FFFFFD"/>
<path d="M367.836 262.723H351.18V278.916C351.18 279.903 350.382 280.7 349.395 280.7C348.407 280.7 347.61 279.903 347.61 278.916V262.723H330.953C329.966 262.723 329.169 261.926 329.169 260.938C329.169 259.951 329.966 259.154 330.953 259.154H347.61V242.033C347.61 241.045 348.407 240.248 349.395 240.248C350.382 240.248 351.18 241.045 351.18 242.033V259.154H367.836C368.824 259.154 369.621 259.951 369.621 260.938C369.621 261.926 368.824 262.723 367.836 262.723Z" fill="#FFFFFD"/>
<path d="M401.149 409.065H417.806V391.944C417.806 390.956 418.603 390.159 419.59 390.159C420.578 390.159 421.375 390.956 421.375 391.944V409.065H438.032C439.019 409.065 439.816 409.862 439.816 410.849C439.816 411.837 439.019 412.634 438.032 412.634H421.375V428.827C421.375 429.814 420.578 430.612 419.59 430.612C418.603 430.612 417.806 429.814 417.806 428.827V412.634H401.149C400.161 412.634 399.364 411.837 399.364 410.849C399.364 409.862 400.161 409.065 401.149 409.065Z" fill="#FFFFFD"/>
<path d="M349.388 329.945C349.388 328.958 350.185 328.16 351.172 328.16H367.829V311.04C367.829 310.052 368.626 309.255 369.614 309.255C370.601 309.255 371.398 310.052 371.398 311.04V328.16H388.055C389.043 328.16 389.84 328.958 389.84 329.945C389.84 330.933 389.043 331.73 388.055 331.73H371.398V347.923C371.398 348.91 370.601 349.707 369.614 349.707C368.626 349.707 367.829 348.91 367.829 347.923V331.73H351.172C350.185 331.73 349.388 330.933 349.388 329.945Z" fill="#FFFFFD"/>
<path d="M392.817 230.599H409.474V213.478C409.474 212.491 410.271 211.693 411.258 211.693C412.246 211.693 413.043 212.491 413.043 213.478V230.599H429.7C430.687 230.599 431.484 231.396 431.484 232.384C431.484 233.371 430.687 234.168 429.7 234.168H413.043V250.361C413.043 251.349 412.246 252.146 411.258 252.146C410.271 252.146 409.474 251.349 409.474 250.361V234.168H392.817C391.829 234.168 391.032 233.371 391.032 232.384C391.032 231.396 391.829 230.599 392.817 230.599Z" fill="#FFFFFD"/>
<path d="M458.254 369.802H474.911V352.681C474.911 351.694 475.708 350.896 476.696 350.896C477.683 350.896 478.48 351.694 478.48 352.681V369.802H495.137C496.125 369.802 496.922 370.599 496.922 371.587C496.922 372.574 496.125 373.371 495.137 373.371H478.48V389.564C478.48 390.552 477.683 391.349 476.696 391.349C475.708 391.349 474.911 390.552 474.911 389.564V373.371H458.254C457.267 373.371 456.47 372.574 456.47 371.587C456.47 370.599 457.267 369.802 458.254 369.802Z" fill="#FFFFFD"/>
<path d="M438.036 328.886V312.693H421.379C420.392 312.693 419.595 311.896 419.595 310.908C419.595 309.921 420.392 309.124 421.379 309.124H438.036V292.003C438.036 291.015 438.833 290.218 439.821 290.218C440.808 290.218 441.605 291.015 441.605 292.003V309.124H458.262C459.25 309.124 460.047 309.921 460.047 310.908C460.047 311.896 459.25 312.693 458.262 312.693H441.605V328.886C441.605 329.873 440.808 330.671 439.821 330.671C438.833 330.671 438.036 329.873 438.036 328.886Z" fill="#FFFFFD"/>
<path d="M495.137 249.635H478.48V265.828C478.48 266.816 477.683 267.613 476.696 267.613C475.708 267.613 474.911 266.816 474.911 265.828V249.635H458.254C457.267 249.635 456.47 248.838 456.47 247.851C456.47 246.863 457.267 246.066 458.254 246.066H474.911V228.945C474.911 227.958 475.708 227.161 476.696 227.161C477.683 227.161 478.48 227.958 478.48 228.945V246.066H495.137C496.125 246.066 496.922 246.863 496.922 247.851C496.922 248.838 496.125 249.635 495.137 249.635Z" fill="#FFFFFD"/>
<path d="M279.888 334.668C279.888 334.668 226.348 373.931 237.056 401.296C247.764 428.661 296.223 419.916 324.944 404.056C353.654 388.208 374.344 356.465 374.344 356.465C374.344 356.465 313.201 331.099 279.888 334.668Z" fill="#FFFFFD"/>
<path d="M270.793 419.844C288.866 419.844 310.008 413.324 325.38 404.841C353.958 389.065 374.886 357.274 375.101 356.953L375.684 356.049L374.696 355.632C374.077 355.382 312.971 330.219 279.8 333.764L279.562 333.788L279.371 333.931C277.158 335.549 225.403 373.919 236.242 401.605C239.098 408.91 244.689 414.11 252.851 417.06C258.146 418.988 264.273 419.844 270.793 419.844ZM372.995 356.87C369.378 362.14 350.008 389.196 324.511 403.271C303.952 414.621 272.935 422.438 253.446 415.395C245.784 412.622 240.549 407.768 237.884 400.963C227.866 375.347 276.73 338.131 280.216 335.525C310.651 332.408 364.916 353.621 372.995 356.87Z" fill="black"/>
<path d="M237.045 262.092H366.743L415.523 376.311H270.74C264.779 376.311 259.413 372.67 257.212 367.114L223.518 281.985C219.746 272.431 226.778 262.092 237.045 262.092Z" fill="#FFFFFD"/>
<path d="M270.739 377.191H416.879L367.337 261.188H237.045C231.928 261.188 227.158 263.71 224.278 267.946C221.399 272.181 220.804 277.547 222.696 282.306L256.39 367.435C258.734 373.372 264.362 377.191 270.739 377.191ZM414.178 375.406H270.739C265.099 375.406 260.114 372.015 258.044 366.78L224.35 281.652C222.66 277.381 223.172 272.753 225.754 268.957C228.335 265.162 232.452 262.984 237.045 262.984H366.159L414.178 375.406Z" fill="black"/>
<path d="M471.441 370.957C471.441 367.994 469.05 365.603 466.087 365.603H421.471L380.067 270.813C377.747 265.519 372.524 262.092 366.741 262.092L415.522 376.311H466.087C469.05 376.311 471.441 373.907 471.441 370.957Z" fill="black"/>
<path d="M556.83 351.884C556.83 351.884 574.153 446.078 541.244 456.406C508.335 466.733 490.108 458.583 466.503 444.817C442.898 431.04 392.927 388.208 382.219 371.551C371.511 354.894 361.993 347.755 369.132 340.617C376.27 333.478 396.044 346.506 402.219 351.884C408.394 357.274 398.876 334.668 406.015 334.668C413.153 334.668 414.343 356.084 421.482 362.033C428.62 367.982 488.763 384.591 488.763 384.591L485.265 371.658C485.254 371.646 541.078 340.545 556.83 351.884Z" fill="#FFFFFD"/>
<path d="M514.075 461.914C522.201 461.914 531.149 460.51 541.511 457.262C574.801 446.828 558.418 355.608 557.704 351.729L557.645 351.372L557.347 351.158C541.321 339.617 487.127 369.588 484.819 370.861L484.212 371.206L487.484 383.294C478.132 380.676 428.34 366.578 422.046 361.331C418.965 358.761 417.002 352.955 415.098 347.339C412.742 340.355 410.505 333.764 406.008 333.764C404.973 333.764 404.14 334.132 403.521 334.846C401.642 337.024 402.367 342.033 403.022 346.447C403.295 348.326 403.664 350.825 403.498 351.717C403.355 351.634 403.129 351.479 402.808 351.206C396.311 345.542 376.121 332.36 368.506 339.974C362.665 345.816 366.829 351.503 373.73 360.926C376.073 364.127 378.727 367.755 381.475 372.027C392.457 389.112 443.379 432.348 466.068 445.579C481.987 454.883 495.943 461.914 514.075 461.914ZM556.015 352.407C557.133 358.773 571.756 445.9 540.976 455.549C508.126 465.852 490.339 457.679 466.948 444.032C444.402 430.873 393.849 387.982 382.962 371.051C380.19 366.732 377.513 363.092 375.157 359.867C367.935 349.992 365.175 345.804 369.756 341.235C376.395 334.608 395.717 347.398 401.63 352.55C402.094 352.955 403.307 354.014 404.378 353.431C405.675 352.717 405.425 350.587 404.783 346.197C404.247 342.556 403.521 337.583 404.866 336.012C405.14 335.691 405.508 335.548 406.008 335.548C409.232 335.548 411.362 341.83 413.408 347.91C415.383 353.764 417.43 359.808 420.904 362.699C428.102 368.707 486.056 384.745 488.519 385.424L490.03 385.84L486.306 372.074C492.362 368.802 541.392 342.711 556.015 352.407Z" fill="black"/>
<path d="M458.996 203.365C458.996 203.365 497.129 211.241 517.438 235.727C537.747 260.224 570.526 344.639 560.853 349.981C551.18 355.323 495.487 373.776 481.888 371.444C481.888 371.444 478.485 373.36 474.915 366.221C471.346 359.082 430.894 219.891 458.996 203.365Z" fill="#B744B8"/>
<path d="M473.735 325.781H490.392V308.66C490.392 307.672 491.189 306.875 492.176 306.875C493.164 306.875 493.961 307.672 493.961 308.66V325.781H510.618C511.605 325.781 512.402 326.578 512.402 327.565C512.402 328.553 511.605 329.35 510.618 329.35H493.961V345.543C493.961 346.53 493.164 347.327 492.176 347.327C491.189 347.327 490.392 346.53 490.392 345.543V329.35H473.735C472.747 329.35 471.95 328.553 471.95 327.565C471.95 326.578 472.747 325.781 473.735 325.781Z" fill="#FFFFFD"/>
<path d="M534.413 342.438H551.069V325.317C551.069 324.329 551.867 323.532 552.854 323.532C553.842 323.532 554.639 324.329 554.639 325.317V342.438H562.515C562.622 343.782 562.634 344.984 562.551 346.007H554.639V352.789C553.532 353.229 552.354 353.693 551.069 354.181V346.007H534.413C533.425 346.007 532.628 345.21 532.628 344.222C532.628 343.235 533.425 342.438 534.413 342.438Z" fill="#FFFFFD"/>
<path d="M508.834 270.456C508.834 269.469 509.631 268.672 510.619 268.672H527.275V251.551C527.275 251.253 527.347 250.992 527.478 250.742C528.596 252.681 529.714 254.704 530.845 256.798V268.672H536.865C537.436 269.849 537.995 271.039 538.566 272.241H530.845V288.434C530.845 289.421 530.048 290.218 529.06 290.218C528.073 290.218 527.275 289.421 527.275 288.434V272.241H510.619C509.631 272.241 508.834 271.444 508.834 270.456Z" fill="#FFFFFD"/>
<path d="M461.841 250.825V233.704C461.841 232.717 462.638 231.919 463.625 231.919C464.613 231.919 465.41 232.717 465.41 233.704V250.825H482.067C483.054 250.825 483.852 251.622 483.852 252.61C483.852 253.597 483.054 254.394 482.067 254.394H465.41V270.587C465.41 271.575 464.613 272.372 463.625 272.372C462.638 272.372 461.841 271.575 461.841 270.587V254.394H450.133C450.014 253.193 449.907 252.003 449.812 250.825H461.841Z" fill="#FFFFFD"/>
<path d="M476.71 212.157C476.71 211.17 477.507 210.373 478.495 210.373H480.624C483.147 211.42 485.776 212.609 488.453 213.942H478.495C477.507 213.942 476.71 213.145 476.71 212.157Z" fill="#FFFFFD"/>
<path d="M496.938 231.919C495.95 231.919 495.153 231.122 495.153 230.135V217.523C496.343 218.213 497.533 218.939 498.723 219.688V230.123C498.723 231.122 497.926 231.919 496.938 231.919Z" fill="#FFFFFD"/>
<path d="M310.226 327.101C304.312 327.101 299.518 322.307 299.518 316.394C299.518 310.48 304.312 305.686 310.226 305.686C316.139 305.686 320.934 310.48 320.934 316.394C320.934 322.307 316.139 327.101 310.226 327.101Z" fill="black"/>
<path d="M381.025 127.897L358.597 129.623C358.597 129.623 348.246 212.455 393.113 198.641V207.267C393.113 207.267 379.311 210.717 374.136 212.443C374.136 212.443 391.388 224.519 410.376 221.069C429.365 217.618 441.441 203.817 441.441 203.817H431.947L425.046 170.17C425.046 170.17 435.397 163.269 435.397 156.369C435.397 149.468 433.672 147.743 428.497 146.018C423.321 144.292 416.42 152.918 416.42 152.918C416.42 152.918 407.795 137.392 406.069 127.029L381.025 127.897Z" fill="#FFFFFD"/>
<path d="M403.271 222.603C405.627 222.603 408.054 222.413 410.517 221.961C429.589 218.487 441.594 204.983 442.094 204.412L443.391 202.936H432.659L426.02 170.574C428.162 169.052 436.276 162.841 436.276 156.369C436.276 148.885 434.063 146.934 428.768 145.173C424.164 143.638 418.679 149.028 416.573 151.36C414.586 147.612 408.34 135.381 406.936 126.898L406.805 126.125L380.963 127.017L357.798 128.802L357.703 129.527C357.441 131.609 351.552 180.652 370.267 196.369C375.954 201.14 383.331 202.306 392.207 199.855V206.601C389.339 207.327 378.393 210.111 373.836 211.622L372.159 212.181L373.61 213.192C374.229 213.621 387.269 222.603 403.271 222.603ZM439.298 204.721C435.586 208.338 424.961 217.523 410.184 220.212C395.062 222.96 380.856 215.524 376.204 212.74C382.141 210.944 393.182 208.183 393.301 208.159L393.979 207.993V197.463L392.825 197.82C384.045 200.521 376.847 199.581 371.409 195.012C354.622 180.926 358.714 136.69 359.381 130.479L381.058 128.813L405.294 127.981C407.293 138.332 415.264 152.752 415.609 153.382L416.252 154.548L417.085 153.513C418.893 151.253 424.426 145.649 428.185 146.898C433.063 148.528 434.479 149.968 434.479 156.404C434.479 162.746 424.628 169.397 424.521 169.468L424.021 169.801L431.195 204.757H439.298V204.721Z" fill="black"/>
<path d="M359.012 129.873C359.012 129.873 407.792 158.427 416.121 152.478C424.449 146.529 424.58 144.614 430.47 146.767C436.347 148.909 435.55 156.916 434.765 159.45C433.979 161.984 424.461 170.325 424.461 170.325L431.195 203.829C431.195 203.829 512.1 195.5 538.275 272.836C538.275 272.836 541.844 225.245 523.998 202.639C513.552 189.397 493.064 164.566 467.091 160.592C455.776 158.867 455.395 148.909 458.965 138.201C462.534 127.493 444.687 109.646 432.79 109.646C420.892 109.646 411.374 97.7486 401.856 95.369C392.337 92.9895 374.491 92.9895 359.024 101.318C343.557 109.646 337.31 152.335 359.476 169.659C359.452 169.659 356.632 140.58 359.012 129.873Z" fill="black"/>
<path d="M452.615 457.584L514.115 810.197C515.269 816.824 520.849 821.643 527.369 821.643C535.757 821.643 542.11 813.79 540.623 805.248L479.124 452.634C477.97 446.007 472.389 441.188 465.87 441.188C457.47 441.188 451.128 449.041 452.615 457.584Z" fill="#FFFFFD"/>
<path d="M527.362 822.548C531.526 822.548 535.476 820.691 538.2 817.443C541.068 814.041 542.257 809.543 541.484 805.105L479.985 452.492C478.747 445.425 472.81 440.297 465.85 440.297C461.686 440.297 457.736 442.153 455.011 445.401C452.144 448.804 450.954 453.301 451.728 457.739L452.608 457.584L451.728 457.739L513.227 810.352C514.464 817.42 520.401 822.548 527.362 822.548ZM465.862 442.082C471.954 442.082 477.153 446.591 478.236 452.79L539.735 805.403C540.413 809.317 539.366 813.279 536.844 816.277C534.453 819.121 531.002 820.751 527.362 820.751C521.27 820.751 516.071 816.242 514.988 810.043L453.488 457.43C452.81 453.515 453.857 449.553 456.38 446.555C458.771 443.712 462.221 442.082 465.862 442.082Z" fill="black"/>
<path d="M111.107 457.584L49.6077 810.197C48.4536 816.824 42.8736 821.643 36.3536 821.643C27.9657 821.643 21.6123 813.79 23.0995 805.248L84.5989 452.634C85.753 446.007 91.3331 441.188 97.853 441.188C106.253 441.188 112.594 449.041 111.107 457.584Z" fill="#FFFFFD"/>
<path d="M36.3513 822.548C43.3115 822.548 49.2485 817.42 50.4859 810.352L111.985 457.739C112.759 453.301 111.557 448.816 108.702 445.401C105.977 442.153 102.027 440.297 97.8627 440.297C90.9025 440.297 84.9655 445.425 83.7282 452.492L22.2287 805.105C21.4554 809.543 22.6571 814.041 25.5125 817.443C28.2371 820.68 32.1871 822.548 36.3513 822.548ZM97.8508 442.082C101.491 442.082 104.942 443.712 107.333 446.555C109.856 449.553 110.914 453.515 110.224 457.43L48.7249 810.043C47.6423 816.254 42.443 820.751 36.3513 820.751C32.7106 820.751 29.2602 819.121 26.8688 816.277C24.3465 813.279 23.2876 809.317 23.9777 805.403L85.4771 452.79C86.5598 446.591 91.771 442.082 97.8508 442.082Z" fill="black"/>
<path d="M63.4444 423.938H514.809C522.245 423.938 528.277 429.97 528.277 437.406V440.226C528.277 447.662 522.245 453.694 514.809 453.694H63.4444C56.0083 453.694 49.9762 447.662 49.9762 440.226V437.406C49.9881 429.97 56.0083 423.938 63.4444 423.938Z" fill="#FFFFFD"/>
<path d="M63.4507 454.574H514.803C522.715 454.574 529.164 448.137 529.164 440.214V437.394C529.164 429.482 522.727 423.033 514.803 423.033H63.4507C55.5387 423.033 49.0901 429.47 49.0901 437.394V440.214C49.0901 448.137 55.5268 454.574 63.4507 454.574ZM514.803 424.83C521.74 424.83 527.379 430.469 527.379 437.406V440.225C527.379 447.162 521.74 452.801 514.803 452.801H63.4507C56.5143 452.801 50.8748 447.162 50.8748 440.225V437.406C50.8748 430.469 56.5143 424.83 63.4507 424.83H514.803Z" fill="black"/>
<path d="M289.919 759.524L289.8 785.414L255.285 809.566V821.642H351.918V800.94L343.173 759.524H289.919Z" fill="black"/>
<path d="M275.033 728.817H329.549L329.465 727.841C322.743 651.66 313.796 532.837 312.88 520.654C318.317 520.856 345.991 521.142 418.413 510.814C435.581 508.363 448.026 500.856 455.403 488.494C472.916 459.13 455.7 411.599 455.522 411.123L453.844 411.742C454.023 412.206 470.941 458.952 453.856 487.578C446.777 499.452 434.76 506.674 418.151 509.042C336.866 520.63 312.214 518.833 311.976 518.81L310.941 518.726L311.024 519.761C311.119 521.034 320.542 646.972 327.597 727.008H275.033V728.817Z" fill="white"/>
<path d="M252.752 655.526L254.501 655.169C254.192 653.682 223.71 506.364 232.276 479.535C236.262 467.054 265.566 455.228 265.863 455.109L265.197 453.455C263.96 453.955 234.81 465.722 230.575 479C221.865 506.269 251.479 649.447 252.752 655.526Z" fill="black"/>
<path d="M483.768 372.634C484.744 372.634 485.375 372.539 485.398 372.539L485.113 370.778C484.72 370.849 475.571 372.218 473.406 362.485C471.05 351.884 453.346 285.781 453.167 285.114L451.442 285.578C451.621 286.245 469.313 352.313 471.657 362.878C473.608 371.587 480.568 372.634 483.768 372.634Z" fill="black"/>
<path d="M325.045 262.116L326.83 262.056C326.83 261.949 326.592 251.277 336.051 240.855L334.73 239.653C324.76 250.634 325.022 261.652 325.045 262.116Z" fill="black"/>
<path d="M368.252 147.129C365.456 145.503 360.526 142.527 354.903 148.159" stroke="black" stroke-linecap="round"/>
<path d="M402.322 144.762C399.526 143.137 394.596 140.16 388.974 145.793" stroke="black" stroke-linecap="round"/>
<path d="M377.866 149.917C379.203 158.542 366.269 173.64 382.955 172.352" stroke="black" stroke-linecap="round"/>
<ellipse cx="3.34715" cy="4.01658" rx="3.34715" ry="4.01658" transform="matrix(-0.997034 0.0769567 0.0769567 0.997034 398.246 153.043)" fill="black"/>
<ellipse cx="3.34715" cy="4.01658" rx="3.34715" ry="4.01658" transform="matrix(-0.997034 0.0769567 0.0769567 0.997034 366.211 155.516)" fill="black"/>
<path d="M390.492 182.899C387.342 184.929 383.537 188.323 375.251 185.185" stroke="black" stroke-linecap="round"/>
</g>
<path d="M189.828 276.79H97.5013C88.0153 276.79 80.3242 269.099 80.3242 259.613V202.499C80.3242 193.013 88.0153 185.322 97.5013 185.322H189.828C199.314 185.322 207.005 193.013 207.005 202.499V259.613C207.005 269.099 199.314 276.79 189.828 276.79Z" fill="#FFFFFD"/>
<path d="M189.826 277.112H97.4992C87.8499 277.112 80 269.262 80 259.613V202.499C80 192.85 87.8499 185 97.4992 185H189.826C199.475 185 207.325 192.85 207.325 202.499V259.613C207.325 269.262 199.475 277.112 189.826 277.112ZM97.4992 185.644C88.2064 185.644 80.6441 193.206 80.6441 202.499V259.613C80.6441 268.906 88.2064 276.468 97.4992 276.468H189.826C199.119 276.468 206.681 268.906 206.681 259.613V202.499C206.681 193.206 199.119 185.644 189.826 185.644H97.4992Z" fill="black"/>
<path d="M127.988 218.392V244.123C127.988 247.67 131.849 249.873 134.902 248.065L156.957 234.998C159.976 233.211 159.946 228.831 156.902 227.088L134.846 214.428C131.793 212.668 127.988 214.875 127.988 218.392Z" fill="#B744B8"/>
<path d="M697 332.193V359.182C697 361.495 695.46 363.375 693.564 363.375H658.35C657.687 363.375 657.04 363.613 656.479 364.047L651.299 368.147C649.011 369.958 646 367.951 646 364.625V363.375V332.193C646 329.88 647.54 328 649.436 328H693.572C695.46 328 697 329.88 697 332.193Z" fill="#B744B8"/>
<path d="M659.236 346.645H682.21C683.333 346.645 684.243 345.735 684.243 344.612C684.243 343.489 683.333 342.579 682.21 342.579H659.236C658.113 342.579 657.203 343.489 657.203 344.612C657.203 345.735 658.113 346.645 659.236 346.645Z" fill="#FFFFFD"/>
<path d="M659.357 337.909H681.787C682.909 337.909 683.819 336.999 683.819 335.877C683.819 334.754 682.909 333.844 681.787 333.844H659.357C658.234 333.844 657.324 334.754 657.324 335.877C657.333 336.999 658.234 337.909 659.357 337.909Z" fill="#FFFFFD"/>
<path d="M682.21 351.587H659.236C658.113 351.587 657.203 352.497 657.203 353.62C657.203 354.743 658.113 355.653 659.236 355.653H682.21C683.333 355.653 684.243 354.743 684.243 353.62C684.243 352.497 683.333 351.587 682.21 351.587Z" fill="#FFFFFD"/>
</svg>
