<svg width="729" height="766" viewBox="0 0 729 766" fill="none" xmlns="http://www.w3.org/2000/svg">
<path d="M697.434 502.297C716.952 543.978 691.623 592.83 646.311 600.898L414.744 642.131C386.414 647.175 357.882 634.368 342.823 609.847L122.462 251.018C100.825 215.786 114.278 169.575 151.445 151.461L398.318 31.1467C433.453 14.0234 475.804 28.9898 492.379 64.3869L697.434 502.297Z" fill="#29A37A" fill-opacity="0.3"/>
<path d="M136.973 464.826C94.3781 449.33 77.5173 398.054 102.603 360.303L237.969 156.59C254.088 132.332 283.544 120.59 311.931 127.106L689.138 213.686C729.682 222.992 753.213 265.394 739.657 304.722L646.672 574.502C633.923 611.492 593.329 630.85 556.561 617.474L136.973 464.826Z" fill="#B744B8" fill-opacity="0.3"/>
<path d="M0 745L729 745" stroke="black"/>
<path d="M425.496 333.912C425.496 333.912 389.001 466.058 385.94 517.508C382.888 568.958 385.636 695.409 385.636 695.409H437.864C437.864 695.409 459.035 604.497 464.949 553.738C470.853 502.98 494.223 371.033 494.223 333.921C494.223 333.912 437.864 320.17 425.496 333.912Z" fill="#B744B8"/>
<path d="M389.863 695.408L389.759 713.272L351.273 735.268V744.887H428.245V728.397L432.273 695.408H389.863Z" fill="black"/>
<path d="M421.745 671.973H384.188V670.551H420.55C422.143 661.472 441.428 551.578 444.101 529.203C446.906 505.738 459.33 453.075 466.912 429.383C483.79 381.553 503.71 339.684 503.909 339.267L505.189 339.883C504.99 340.3 485.107 382.102 468.257 429.847C460.704 453.463 448.308 505.984 445.513 529.383C442.736 552.649 422.057 670.21 421.849 671.395L421.745 671.973Z" fill="white"/>
<path d="M484.643 335.779C484.643 335.779 476.36 441.124 483.534 517.508C488.357 568.816 527.213 695.409 527.213 695.409H579.44C579.44 695.409 577.981 607.804 565.291 553.738C538.206 438.376 590.443 406.77 560.202 327.041C560.202 327.041 497.01 322.037 484.643 335.779Z" fill="#B744B8"/>
<path d="M534.179 695.408L534.084 716.02L506.592 735.268V744.887H583.563V728.397L576.598 695.408H534.179Z" fill="black"/>
<path d="M555.407 671.973H519.707V670.551H554.127C556.743 643.618 544.015 546.328 539.04 513.613C533.468 477.051 536.965 444.991 542.509 403.691C547.929 363.338 539.95 334.357 539.874 334.073L541.239 333.685C541.324 333.978 549.37 363.234 543.921 403.88C538.396 445.067 534.908 477.023 540.443 513.395C545.475 546.413 558.382 645.191 555.473 671.338L555.407 671.973Z" fill="white"/>
<path d="M481.091 453.302C481.081 452.676 480.181 390.47 483.953 372.587L485.346 372.881C481.612 390.603 482.512 452.648 482.522 453.273L481.091 453.302Z" fill="black"/>
<path d="M448.689 282.433C448.689 282.433 432.142 327.117 403.455 345.009C374.759 362.902 337.941 348.487 321.641 345.417C305.341 342.346 265.016 335.627 264.543 320.654C264.078 305.68 278.057 311.84 285.42 317.005C292.774 322.17 280.426 310.163 284.378 308.381C288.33 306.6 293.115 315.906 298.46 316.133C303.805 316.37 372.494 305.642 382.037 296.232C391.581 286.821 394.083 280.434 394.784 275.108C395.476 269.791 447.656 272.72 448.689 282.433Z" fill="#FFFFFD"/>
<path d="M369.866 354.571C355.688 354.571 342.023 351.122 331.361 348.43C327.542 347.464 324.244 346.63 321.505 346.118L318.889 345.635C301.168 342.337 264.284 335.485 263.829 320.682C263.677 315.934 264.937 312.807 267.581 311.385C273.533 308.172 283.825 315.024 285.825 316.427C285.976 316.531 286.118 316.626 286.242 316.721C286.118 316.531 285.995 316.341 285.881 316.171C283.986 313.261 282.451 310.722 282.953 309.016C283.124 308.447 283.512 308.002 284.081 307.746C286.554 306.628 289.018 308.864 291.634 311.233C293.861 313.252 296.164 315.337 298.486 315.441C298.543 315.441 298.618 315.441 298.694 315.441C305.518 315.441 372.415 304.732 381.532 295.739C391.53 285.873 393.482 279.486 394.07 275.032C394.44 272.198 402.997 271.715 410.133 271.8C422.595 271.952 448.581 274.738 449.396 282.376L449.415 282.537L449.358 282.698C449.197 283.144 432.404 327.818 403.831 345.635C393.065 352.325 381.304 354.571 369.866 354.571ZM271.277 311.954C270.15 311.954 269.117 312.162 268.245 312.627C266.122 313.773 265.108 316.465 265.241 320.635C265.667 334.291 301.784 341.01 319.145 344.232L321.761 344.715C324.538 345.237 327.864 346.08 331.702 347.047C350.732 351.851 379.485 359.111 403.064 344.403C430.348 327.392 446.799 285.342 447.946 282.348C447.017 277.211 427.391 273.411 410.105 273.203C399.254 273.079 395.567 274.491 395.472 275.202C394.856 279.884 392.828 286.565 382.518 296.734C372.652 306.467 303.575 317.081 298.41 316.844C295.576 316.721 293.084 314.456 290.667 312.266C288.412 310.219 286.279 308.296 284.649 309.025C284.412 309.13 284.337 309.272 284.308 309.395C283.948 310.617 285.9 313.593 287.057 315.375C288.374 317.393 288.867 318.152 288.241 318.758C287.673 319.308 286.895 318.919 284.991 317.583C280.915 314.721 275.409 311.954 271.277 311.954Z" fill="black"/>
<path d="M445.325 176.756C445.325 176.756 412.99 201.595 410.962 220.179C408.943 238.763 410.971 256.57 402.821 265.138C394.671 273.705 392.235 275.572 400.025 279.675C407.815 283.779 442.103 302.41 442.103 302.41L445.325 176.756Z" fill="#0E110F"/>
<path d="M424.917 195.757C423.95 196.837 422.993 197.946 422.064 199.074H444.752L444.838 195.757H424.917Z" fill="#FFFFFD"/>
<path d="M410.958 220.188C410.901 220.738 410.844 221.278 410.787 221.818H444.155L444.241 218.501H411.214C411.109 219.07 411.024 219.629 410.958 220.188Z" fill="#FFFFFD"/>
<path d="M409.355 244.563H443.586L443.671 241.246H409.592C409.517 242.374 409.441 243.473 409.355 244.563Z" fill="#FFFFFD"/>
<path d="M402.826 265.146C402.087 265.923 401.404 266.634 400.76 267.307H442.998L443.084 263.99H403.802C403.489 264.388 403.167 264.777 402.826 265.146Z" fill="#FFFFFD"/>
<path d="M419.305 290.052H442.42L442.505 286.735H413.174C415.155 287.806 417.221 288.925 419.305 290.052Z" fill="#FFFFFD"/>
<path d="M463.982 163.469C463.982 163.469 426.871 177.211 425.497 208.826C424.122 240.441 426.871 283.049 426.871 296.791C426.871 310.532 415.878 329.78 425.497 333.902C435.116 338.025 499.72 350.392 560.201 327.032C560.201 327.032 567.072 250.06 567.072 211.574C567.072 173.088 556.079 156.599 517.593 156.599L463.982 163.469Z" fill="#0E110F"/>
<path d="M553.51 166.379H457.651C455.926 167.27 453.955 168.379 451.842 169.696H556.789C555.785 168.502 554.695 167.402 553.51 166.379Z" fill="#FFFFFD"/>
<path d="M565.25 189.123H431.645C430.991 190.194 430.365 191.303 429.797 192.44H565.838C565.658 191.303 565.468 190.203 565.25 189.123Z" fill="#FFFFFD"/>
<path d="M425.38 211.868C425.342 212.958 425.313 214.067 425.275 215.185H567.05C567.059 214.048 567.069 212.949 567.069 211.868H425.38Z" fill="#FFFFFD"/>
<path d="M425.173 237.929H566.379C566.426 236.811 566.474 235.712 566.521 234.612H425.145C425.145 235.721 425.154 236.82 425.173 237.929Z" fill="#FFFFFD"/>
<path d="M425.704 260.674H565.166C565.232 259.566 565.299 258.466 565.365 257.357H425.6C425.638 258.476 425.666 259.575 425.704 260.674Z" fill="#FFFFFD"/>
<path d="M426.528 283.418H563.658C563.734 282.319 563.81 281.22 563.895 280.102H426.404C426.442 281.239 426.49 282.348 426.528 283.418Z" fill="#FFFFFD"/>
<path d="M425.674 306.164H561.942C562.028 305.093 562.113 303.984 562.208 302.847H426.309C426.119 303.946 425.911 305.045 425.674 306.164Z" fill="#FFFFFD"/>
<path d="M421.752 328.908H555.13C556.817 328.311 558.513 327.695 560.2 327.041C560.2 327.041 560.248 326.529 560.323 325.591H421.581C421.524 326.785 421.572 327.903 421.752 328.908Z" fill="#FFFFFD"/>
<path d="M368.98 245.785L664.82 436.324C674.67 442.653 677.595 455.728 671.393 465.654C665.137 475.662 651.958 478.712 641.94 472.475L342.096 285.173L368.98 245.785Z" fill="black"/>
<path d="M125.508 207.385C134.265 282.511 202.263 336.305 277.389 327.547C352.515 318.79 406.309 250.792 397.552 175.666C388.794 100.54 320.797 46.7457 245.67 55.5032C170.544 64.2608 116.75 132.258 125.508 207.385ZM165.358 202.734C159.164 149.627 197.205 101.546 250.312 95.3523C303.419 89.1589 351.5 127.199 357.693 180.306C363.887 233.413 325.846 281.495 272.739 287.688C219.623 293.881 171.55 255.85 165.358 202.734Z" fill="#FFFFFD"/>
<path d="M251.035 328.82C223.873 326.802 197.945 316.75 176.117 299.476C147.279 276.664 129.057 243.988 124.796 207.465C120.535 170.942 130.754 134.953 153.566 106.115C176.379 77.2767 209.055 59.0547 245.578 54.7935C282.092 50.5315 318.09 60.752 346.928 83.564C375.766 106.376 393.988 139.052 398.249 175.575C402.511 212.099 392.291 248.088 369.479 276.926C346.667 305.764 313.991 323.986 277.467 328.247C268.59 329.288 259.749 329.468 251.035 328.82ZM271.904 55.6474C263.276 55.0062 254.529 55.1831 245.748 56.2126C209.608 60.4263 177.269 78.4642 154.688 107.006C132.108 135.538 122.001 171.165 126.214 207.304C130.428 243.444 148.466 275.783 177.008 298.364C205.54 320.945 241.166 331.052 277.306 326.838C313.446 322.624 345.785 304.586 368.366 276.045C390.946 247.512 401.054 211.886 396.84 175.746C392.626 139.607 374.588 107.267 346.046 84.6864C324.443 67.5911 298.783 57.6447 271.904 55.6474ZM254.256 288.795C208.58 285.401 170.141 249.968 164.645 202.824C158.417 149.41 196.805 100.88 250.218 94.652C303.632 88.4338 352.163 126.812 358.39 180.225C364.618 233.639 326.23 282.17 272.817 288.397C266.547 289.129 260.333 289.247 254.256 288.795ZM166.064 202.654C172.197 255.291 220.01 293.111 272.655 286.988C325.293 280.846 363.123 233.034 356.99 180.397C350.847 127.759 303.036 89.929 250.399 96.0623C197.752 102.204 159.921 150.016 166.064 202.654Z" fill="black"/>
<path d="M470.758 96.6566L452.894 98.0308C452.894 98.0308 444.649 164.009 480.387 153.006V159.877C480.387 159.877 469.394 162.625 465.271 164C465.271 164 479.013 173.619 494.138 170.87C509.253 168.122 518.882 157.129 518.882 157.129H511.319L505.823 130.328C505.823 130.328 514.068 124.832 514.068 119.335C514.068 113.838 512.694 112.464 508.571 111.09C504.449 109.716 498.952 116.587 498.952 116.587C498.952 116.587 492.081 104.219 490.707 95.9648L470.758 96.6566Z" fill="white"/>
<path d="M488.481 172.093C475.734 172.093 465.348 164.938 464.855 164.587L463.699 163.782L465.035 163.336C468.665 162.123 477.383 159.906 479.667 159.337V153.964C472.598 155.916 466.722 154.987 462.192 151.187C447.275 138.668 451.976 99.6042 452.175 97.9458L452.251 97.3677L470.731 95.9461L491.286 95.2354L491.39 95.8513C492.518 102.608 497.484 112.351 499.067 115.336C500.744 113.478 505.113 109.195 508.78 110.408C512.998 111.82 514.76 113.365 514.76 119.326C514.76 124.481 508.297 129.428 506.591 130.641L511.879 156.418H520.428L519.395 157.593C518.997 158.048 509.434 168.805 494.243 171.572C492.291 171.942 490.357 172.093 488.481 172.093ZM466.93 164.227C470.636 166.445 481.942 172.377 493.996 170.179C505.776 168.037 514.239 160.721 517.186 157.84H510.723L505.009 129.997L505.407 129.731C505.482 129.674 513.339 124.377 513.339 119.326C513.339 114.199 512.211 113.052 508.326 111.754C505.34 110.749 500.934 115.222 499.484 117.023L498.82 117.847L498.308 116.919C498.034 116.426 491.684 104.93 490.092 96.6853L470.787 97.3487L453.521 98.6755C452.99 103.622 449.73 138.848 463.102 150.078C467.433 153.708 473.166 154.466 480.16 152.315L481.079 152.03V160.418L480.539 160.55C480.454 160.598 471.659 162.806 466.93 164.227Z" fill="black"/>
<path d="M453.217 98.2298C453.217 98.2298 492.072 120.974 498.706 116.236C505.34 111.497 505.444 109.972 510.135 111.687C514.826 113.402 514.182 119.771 513.556 121.789C512.931 123.817 505.349 130.451 505.349 130.451L511.036 156.039C511.036 156.039 567.897 152.248 596.423 199.036C596.423 199.036 597.645 164.265 588.462 154.466C579.269 144.667 547.683 126.319 539.315 122.699C530.947 119.079 529.999 113.393 532.842 104.864C535.685 96.3344 521.47 82.119 511.993 82.119C502.516 82.119 494.934 72.6421 487.353 70.7467C479.771 68.8513 465.556 68.8513 453.236 75.4852C440.916 82.119 435.941 116.122 453.596 129.921C453.577 129.921 451.322 106.759 453.217 98.2298Z" fill="black"/>
<path d="M574.665 274.794L588.663 293.862L544.017 377.742C544.017 377.742 531.204 376.349 528.768 378.747C526.333 381.144 541.24 382.177 537.942 385.684C534.644 389.19 526.541 397.966 531.185 401.671C531.185 401.671 538.586 409.67 548.101 403.974C557.626 398.279 641.117 340.706 639.885 304.268C638.663 267.829 620.827 240.384 620.827 240.384C620.827 240.384 572.125 265.109 574.665 274.794Z" fill="#FFFFFD"/>
<path d="M541.175 406.722C535.289 406.722 531.157 402.666 530.693 402.202C529.707 401.406 529.167 400.354 529.072 399.094C528.779 394.952 533.375 389.493 537.412 385.21C537.564 385.049 537.734 384.821 537.687 384.651C537.469 383.798 534.56 382.85 532.626 382.225C529.726 381.277 528.068 380.689 527.803 379.571C527.727 379.249 527.746 378.756 528.248 378.263C530.646 375.894 540.975 376.747 543.591 377.003L587.801 293.947L573.993 275.126L573.955 274.993C571.349 265.033 615.445 242.317 620.477 239.768L621.046 239.483L621.397 240.024C621.577 240.298 639.355 268.056 640.568 304.277C641.781 340.356 560.716 397.274 548.434 404.619C545.856 406.154 543.392 406.722 541.175 406.722ZM529.234 379.277C529.641 379.742 531.688 380.405 533.072 380.86C535.943 381.798 538.654 382.68 539.071 384.291C539.184 384.727 539.165 385.418 538.455 386.177C536.199 388.574 530.21 394.943 530.504 398.989C530.57 399.871 530.939 400.572 531.631 401.122L531.707 401.197C531.991 401.51 538.843 408.694 547.742 403.377C559.92 396.089 640.369 339.692 639.185 304.305C638.076 271.25 623.036 245.35 620.582 241.322C606.868 248.335 573.803 267.033 575.339 274.501L589.516 293.815L544.435 378.51L543.961 378.462C539.137 377.941 530.883 377.695 529.29 379.268C529.253 379.268 529.243 379.268 529.234 379.277Z" fill="black"/>
<path d="M519.232 157.139C519.232 157.139 538.613 154.599 560.931 166.616C585.571 179.884 601.568 203.823 607.178 211.139C612.788 218.455 630.633 230.727 624.928 237.428C619.223 244.128 582.889 273.516 572.085 275.601C572.085 275.601 568.986 277.97 564.248 271.336C559.509 264.702 524.445 202.155 519.706 188.887C514.968 175.619 514.02 165.195 519.232 157.139Z" fill="#0E110F"/>
<path d="M621.485 225.856L557.602 260.381C558.189 261.385 558.748 262.343 559.27 263.243L623.57 228.491C622.964 227.629 622.253 226.747 621.485 225.856Z" fill="#FFFFFD"/>
<path d="M607.179 211.139C606.715 210.532 606.174 209.812 605.577 208.997L546.564 240.887C547.105 241.863 547.645 242.83 548.185 243.787L607.615 211.67C607.454 211.49 607.312 211.319 607.179 211.139Z" fill="#FFFFFD"/>
<path d="M591.313 191.247L535.807 221.242C536.328 222.208 536.849 223.184 537.38 224.16L593.578 193.787C592.839 192.953 592.09 192.1 591.313 191.247Z" fill="#FFFFFD"/>
<path d="M574.009 175.136L525.439 201.387C525.913 202.344 526.416 203.33 526.937 204.353L576.842 177.382C575.913 176.624 574.975 175.875 574.009 175.136Z" fill="#FFFFFD"/>
<path d="M551.036 162.096L517.137 180.415C517.402 181.495 517.686 182.585 518.018 183.713L555.006 163.726C553.661 163.129 552.334 162.589 551.036 162.096Z" fill="#FFFFFD"/>
<path d="M563.64 271.705C563.355 271.231 534.906 224.614 529.371 212.152L530.669 211.574C536.166 223.942 564.559 270.492 564.853 270.957L563.64 271.705Z" fill="black"/>
<path d="M425.697 267.582C425.602 265.649 423.299 219.989 425.185 208.674L426.588 208.911C424.73 220.075 427.09 267.042 427.119 267.516L425.697 267.582Z" fill="black"/>
<path d="M461.207 108.453C458.896 107.109 454.822 104.649 450.176 109.304" stroke="black" stroke-linecap="round"/>
<path d="M489.367 106.498C487.057 105.154 482.983 102.694 478.336 107.349" stroke="black" stroke-linecap="round"/>
<path d="M469.154 110.757C470.259 117.885 459.57 130.362 473.36 129.297" stroke="black" stroke-linecap="round"/>
<ellipse cx="2.76606" cy="3.31927" rx="2.76606" ry="3.31927" transform="matrix(-0.997034 0.0769567 0.0769567 0.997034 485.998 113.341)" fill="black"/>
<ellipse cx="2.76606" cy="3.31927" rx="2.76606" ry="3.31927" transform="matrix(-0.997034 0.0769567 0.0769567 0.997034 459.521 115.384)" fill="black"/>
<path d="M479.592 138.014C476.988 139.691 473.844 142.496 466.997 139.903" stroke="black" stroke-linecap="round"/>
</svg>
