<svg width="356" height="147" viewBox="0 0 356 147" fill="none" xmlns="http://www.w3.org/2000/svg">
<g opacity="0.06">
<path d="M104.987 35.5942C94.2147 49.0605 87.2127 65.4166 85.1865 83.4296H106.046C107.83 71.1231 112.594 59.8704 119.732 50.3398L104.987 35.5942Z" fill="url(#paint0_linear_860:8006)"/>
<path d="M85.1865 104.289C87.2127 122.302 94.2147 138.658 104.987 152.124L119.732 137.379C112.594 127.848 107.83 116.596 106.046 104.289H85.1865Z" fill="url(#paint1_linear_860:8006)"/>
<path d="M230.148 93.8594C230.148 65.1071 206.752 41.7109 178 41.7109C149.248 41.7109 125.852 65.1071 125.852 93.8594C125.852 122.612 149.248 146.008 178 146.008C206.752 146.008 230.148 122.612 230.148 93.8594ZM146.711 104.289V83.4297H167.57V62.5703H188.43V83.4297H209.289V104.289H188.43V125.148H167.57V104.289H146.711Z" fill="url(#paint2_linear_860:8006)"/>
<path d="M167.57 21.9054V4.9137L165.729 1.23071C148.427 3.52579 132.745 10.4409 119.735 20.8461L134.48 35.5916C144.011 28.4538 155.264 23.6898 167.57 21.9054Z" fill="url(#paint3_linear_860:8006)"/>
<path d="M190.271 1.23071L188.43 4.9137V21.9054C200.736 23.6898 211.989 28.4538 221.52 35.5916L236.265 20.8461C223.255 10.4409 207.573 3.52579 190.271 1.23071Z" fill="white"/>
<path d="M251.013 152.124C261.785 138.658 268.787 122.302 270.813 104.289H249.954C248.169 116.596 243.405 127.848 236.268 137.379L251.013 152.124Z" fill="white"/>
<path d="M178 251C264.268 251 334.445 180.127 334.445 93.8593C334.445 22.9646 286.148 -38.5461 219.33 -56.8877L200.22 -18.6672C252.876 -8.28372 292.727 38.2017 292.727 93.8593C292.727 157.119 241.26 208.586 178 208.586C114.74 208.586 63.2734 157.119 63.2734 93.8593C63.2734 38.2017 103.124 -8.28372 155.78 -18.6672L136.67 -56.8877C69.8517 -38.5461 21.5547 22.9646 21.5547 93.8593C21.5547 180.127 91.7324 251 178 251Z" fill="white"/>
<path d="M270.813 83.4296C268.787 65.4166 261.785 49.0605 251.013 35.5942L236.268 50.3398C243.405 59.8704 248.169 71.1231 249.954 83.4296H270.813Z" fill="white"/>
</g>
<defs>
<linearGradient id="paint0_linear_860:8006" x1="102.459" y1="35.5942" x2="102.459" y2="83.4296" gradientUnits="userSpaceOnUse">
<stop stop-color="white"/>
<stop offset="1" stop-color="#BAFDDD"/>
</linearGradient>
<linearGradient id="paint1_linear_860:8006" x1="102.459" y1="104.289" x2="102.459" y2="152.124" gradientUnits="userSpaceOnUse">
<stop stop-color="white"/>
<stop offset="1" stop-color="#BAFDDD"/>
</linearGradient>
<linearGradient id="paint2_linear_860:8006" x1="178" y1="41.7109" x2="178" y2="146.008" gradientUnits="userSpaceOnUse">
<stop stop-color="white"/>
<stop offset="1" stop-color="#BAFDDD"/>
</linearGradient>
<linearGradient id="paint3_linear_860:8006" x1="143.653" y1="1.23071" x2="143.653" y2="35.5916" gradientUnits="userSpaceOnUse">
<stop stop-color="white"/>
<stop offset="1" stop-color="#BAFDDD"/>
</linearGradient>
</defs>
</svg>
