<svg width="16" height="11" viewBox="0 0 16 11" fill="none" xmlns="http://www.w3.org/2000/svg">
<path d="M14.0775 1.744L14.0776 1.74406L14.0836 1.7378C14.1605 1.65821 14.2524 1.59473 14.3541 1.55105C14.4558 1.50738 14.5651 1.48439 14.6758 1.48343C14.7864 1.48247 14.8962 1.50355 14.9986 1.54545L15.1858 1.08776L14.9986 1.54545C15.101 1.58735 15.194 1.64923 15.2723 1.72748C15.3505 1.80572 15.4124 1.89876 15.4543 2.00118C15.4962 2.10359 15.5173 2.21333 15.5163 2.32397C15.5154 2.43462 15.4924 2.54397 15.4487 2.64564C15.405 2.74731 15.3415 2.83926 15.262 2.91614L15.2619 2.91608L15.2558 2.92223L8.58914 9.58884C8.58912 9.58886 8.5891 9.58888 8.58909 9.5889C8.43282 9.74509 8.22092 9.83283 7.99997 9.83283C7.77903 9.83283 7.56713 9.74509 7.41086 9.5889C7.41084 9.58888 7.41082 9.58886 7.41081 9.58884L0.747624 2.92566C0.597505 2.76879 0.514501 2.55948 0.516389 2.34226C0.518288 2.12376 0.605928 1.91475 0.760435 1.76024C0.914942 1.60574 1.12395 1.5181 1.34245 1.5162C1.55967 1.51431 1.76898 1.59731 1.92585 1.74743L7.64642 7.468L7.99997 7.82156L8.35353 7.468L14.0775 1.744Z" fill="#151110" stroke="#151110"/>
</svg>
