<svg width="16" height="11" viewBox="0 0 16 11" fill="none" xmlns="http://www.w3.org/2000/svg">
<path d="M14.0775 9.5724L14.0776 9.57235L14.0836 9.5786C14.1605 9.65819 14.2524 9.72168 14.3541 9.76535C14.4558 9.80903 14.5651 9.83201 14.6758 9.83298C14.7864 9.83394 14.8962 9.81285 14.9986 9.77095L15.1858 10.2286L14.9986 9.77095C15.101 9.72905 15.194 9.66717 15.2723 9.58893C15.3505 9.51069 15.4124 9.41764 15.4543 9.31523C15.4962 9.21281 15.5173 9.10308 15.5163 8.99244C15.5154 8.88178 15.4924 8.77243 15.4487 8.67076C15.405 8.5691 15.3415 8.47714 15.262 8.40027L15.2619 8.40032L15.2558 8.39418L8.58914 1.72756C8.58912 1.72755 8.5891 1.72753 8.58909 1.72751C8.43282 1.57132 8.22092 1.48357 7.99997 1.48357C7.77903 1.48357 7.56713 1.57132 7.41086 1.72751C7.41084 1.72753 7.41082 1.72755 7.41081 1.72756L0.747624 8.39075C0.597505 8.54761 0.514501 8.75693 0.516389 8.97415C0.518288 9.19264 0.605928 9.40165 0.760435 9.55616C0.914942 9.71067 1.12395 9.79831 1.34245 9.80021C1.55967 9.8021 1.76898 9.71909 1.92585 9.56897L7.64642 3.8484L7.99997 3.49485L8.35353 3.8484L14.0775 9.5724Z" fill="black" stroke="black"/>
</svg>
