<svg width="16" height="16" viewBox="0 0 16 16" fill="none" xmlns="http://www.w3.org/2000/svg">
<path d="M15.9679 5.42208C15.9047 5.27319 15.7585 5.17648 15.5966 5.17648H10.6768L8.36535 0.2326C8.29897 0.0905979 8.15658 0 8 0C7.84343 0 7.70103 0.0905979 7.63466 0.2326L5.32323 5.17648H0.403376C0.24148 5.17648 0.0953441 5.27319 0.032122 5.42208C-0.0311002 5.57098 0.000611808 5.74331 0.113068 5.85991L3.75628 9.63823L2.29116 15.4987C2.25197 15.6555 2.31007 15.8205 2.43887 15.918C2.56768 16.0155 2.74237 16.0268 2.88261 15.9468L8 13.0224L13.1174 15.9468C13.1796 15.9824 13.2486 16 13.3175 16C13.4036 16 13.4894 15.9724 13.5611 15.918C13.6899 15.8205 13.748 15.6555 13.7088 15.4987L12.2437 9.63822L15.8869 5.8599C15.9994 5.74331 16.0311 5.57098 15.9679 5.42208Z" fill="#C4C1BE"/>
</svg>
