<svg width="12" height="10" viewBox="0 0 12 10" fill="none" xmlns="http://www.w3.org/2000/svg">
<path d="M10.2929 1.00483L3.99992 7.29783L1.70692 5.00483C1.51832 4.82268 1.26571 4.72188 1.00352 4.72416C0.741321 4.72644 0.490508 4.83161 0.3051 5.01701C0.119692 5.20242 0.0145233 5.45323 0.0122448 5.71543C0.00996641 5.97763 0.110761 6.23023 0.292919 6.41883L3.29292 9.41883C3.48045 9.6063 3.73475 9.71162 3.99992 9.71162C4.26508 9.71162 4.51939 9.6063 4.70692 9.41883L11.7069 2.41883C11.8891 2.23023 11.9899 1.97763 11.9876 1.71543C11.9853 1.45323 11.8801 1.20242 11.6947 1.01701C11.5093 0.831606 11.2585 0.726437 10.9963 0.724159C10.7341 0.72188 10.4815 0.822675 10.2929 1.00483Z" fill="#11663D"/>
</svg>
