<svg width="16" height="13" viewBox="0 0 16 13" fill="none" xmlns="http://www.w3.org/2000/svg">
<path d="M13.7242 0.724014L5.33355 9.11468L2.27622 6.05735C2.02475 5.81447 1.68794 5.68008 1.33835 5.68312C0.988753 5.68615 0.654337 5.82638 0.407126 6.07359C0.159915 6.3208 0.0196899 6.65522 0.016652 7.00481C0.0136141 7.35441 0.148007 7.69121 0.390884 7.94268L4.39088 11.9427C4.64092 12.1926 4.98 12.3331 5.33355 12.3331C5.6871 12.3331 6.02618 12.1926 6.27622 11.9427L15.6096 2.60935C15.8524 2.35788 15.9868 2.02107 15.9838 1.67148C15.9807 1.32188 15.8405 0.987467 15.5933 0.740256C15.3461 0.493045 15.0117 0.35282 14.6621 0.349782C14.3125 0.346744 13.9757 0.481136 13.7242 0.724014Z" fill="#11663D"/>
</svg>
