<svg width="10" height="13" viewBox="0 0 10 13" fill="none" xmlns="http://www.w3.org/2000/svg">
<path d="M4.77098 0.779752C4.7012 0.738787 4.62253 0.715369 4.54171 0.711507C4.46088 0.707646 4.38033 0.723457 4.30697 0.757582C4.2336 0.791708 4.16961 0.843129 4.1205 0.907431C4.07138 0.971732 4.03861 1.04699 4.02498 1.12675C3.85837 2.09317 3.46076 3.00503 2.86598 3.78475C2.6595 4.03397 2.43524 4.26791 2.19498 4.48475C1.58534 4.95174 1.08649 5.54776 0.734157 6.23012C0.381826 6.91248 0.184731 7.6643 0.156982 8.43175C0.158441 9.28956 0.387242 10.1316 0.820076 10.8722C1.25291 11.6128 1.87431 12.2255 2.62098 12.6478C2.69902 12.6918 2.78745 12.714 2.87703 12.7122C2.96661 12.7103 3.05405 12.6844 3.1302 12.6372C3.20635 12.59 3.2684 12.5232 3.30988 12.4438C3.35136 12.3643 3.37074 12.2752 3.36598 12.1858C3.32951 11.8977 3.38575 11.6056 3.52654 11.3517C3.66734 11.0978 3.88536 10.8954 4.14898 10.7738C4.47857 10.5982 4.76022 10.3446 4.96938 10.0352C5.17853 9.72587 5.30885 9.37004 5.34898 8.99875C5.79434 9.40438 6.14136 9.9062 6.36368 10.4661C6.58599 11.0259 6.67775 11.6291 6.63198 12.2298C6.63491 12.3156 6.65991 12.3993 6.70457 12.4727C6.74924 12.5461 6.81206 12.6067 6.88698 12.6488C6.96194 12.6903 7.04626 12.7122 7.13198 12.7122C7.21771 12.7122 7.30202 12.6903 7.37698 12.6488C8.12417 12.2267 8.74607 11.614 9.17928 10.8732C9.61248 10.1324 9.8415 9.28992 9.84298 8.43175C9.84298 5.36875 8.08898 2.72375 4.77098 0.779752Z" fill="#943838"/>
</svg>
