<svg width="17" height="17" viewBox="0 0 17 17" fill="none" xmlns="http://www.w3.org/2000/svg">
<path d="M16.4679 5.63387C16.4047 5.48498 16.2585 5.38827 16.0966 5.38827H11.1768L8.86535 0.444392C8.79897 0.30239 8.65658 0.211792 8.5 0.211792C8.34343 0.211792 8.20103 0.30239 8.13466 0.444392L5.82323 5.38827H0.903376C0.74148 5.38827 0.595344 5.48498 0.532122 5.63387C0.4689 5.78277 0.500612 5.9551 0.613068 6.0717L4.25628 9.85002L2.79116 15.7105C2.75197 15.8673 2.81007 16.0323 2.93887 16.1298C3.06768 16.2273 3.24237 16.2385 3.38261 16.1586L8.5 13.2342L13.6174 16.1586C13.6796 16.1942 13.7486 16.2118 13.8175 16.2118C13.9036 16.2118 13.9894 16.1842 14.0611 16.1298C14.1899 16.0323 14.248 15.8673 14.2088 15.7105L12.7437 9.85002L16.3869 6.07169C16.4994 5.9551 16.5311 5.78277 16.4679 5.63387Z" fill="#FFC83C"/>
</svg>
