<svg width="10" height="10" viewBox="0 0 10 10" fill="none" xmlns="http://www.w3.org/2000/svg">
<path d="M9.97993 3.3888C9.94041 3.29574 9.84907 3.2353 9.74789 3.2353H6.67298L5.22834 0.145375C5.18686 0.0566237 5.09786 0 5 0C4.90214 0 4.81314 0.0566237 4.77166 0.145375L3.32702 3.2353H0.25211C0.150925 3.2353 0.0595901 3.29574 0.0200762 3.3888C-0.0194376 3.48186 0.00038238 3.58957 0.0706674 3.66244L2.34768 6.02389L1.43197 9.6867C1.40748 9.78469 1.44379 9.88784 1.5243 9.94877C1.6048 10.0097 1.71398 10.0167 1.80163 9.96674L5 8.13903L8.19837 9.96674C8.23727 9.98902 8.28036 9.99998 8.32344 9.99998C8.37723 9.99998 8.4309 9.98274 8.4757 9.94877C8.55621 9.88784 8.59252 9.78469 8.56802 9.6867L7.65233 6.02389L9.92933 3.66244C9.99962 3.58957 10.0194 3.48186 9.97993 3.3888Z" fill="#80641E"/>
</svg>
