<svg xmlns="http://www.w3.org/2000/svg" width="994.523" height="1067.456" viewBox="0 0 994.523 1067.456"><defs><style>.a,.i{fill:none;}.a{stroke:#c7c7c7;stroke-miterlimit:10;}.b{fill:#ebebeb;}.c{fill:#dbdbdb;}.d{fill:#a6a6a6;}.e{fill:#0eaa63;}.f{fill:#e56c5c;}.g{fill:#fff;}.h{fill:#f8f8f8;}.i{stroke:#263238;stroke-linecap:round;stroke-linejoin:round;}.j{fill:#263238;}.k{fill:#c7c7c7;}.l,.m{opacity:0.1;}.n{fill:#455a64;}.o{fill:#f7a9a0;}.p{fill:#37474f;}</style></defs><g transform="translate(-358.248 -531)"><g transform="translate(397.584 531)"><line class="a" y1="207.39" transform="translate(72.02)"/><g transform="translate(0 200.167)"><path class="b" d="M519.663,675.112l-5.792,12.733H381.409l-5.775-12.733,56.394-39.034h31.241Z" transform="translate(-375.628 -598.471)"/><path class="c" d="M437.9,619.459l-3.914,37.608H402.74l-3.914-37.608Z" transform="translate(-346.341 -619.459)"/><path class="c" d="M519.66,653.331l-5.792,12.733H381.407l-5.775-12.733Z" transform="translate(-375.632 -576.684)"/></g></g><g transform="translate(552.211 531)"><line class="a" y1="166.312" transform="translate(72.02)"/><g transform="translate(0 159.089)"><path class="b" d="M588,656.959,582.2,669.692H449.743l-5.775-12.733,56.394-39.034H531.6Z" transform="translate(-443.962 -580.317)"/><path class="c" d="M506.229,601.305l-3.914,37.607H471.074l-3.914-37.607Z" transform="translate(-414.674 -601.305)"/><path class="c" d="M587.994,635.178,582.2,647.91H449.74l-5.775-12.733Z" transform="translate(-443.965 -558.53)"/></g></g><g transform="translate(546.305 882.542)"><path class="c" d="M755.382,702.849l.455,175.6a17.773,17.773,0,0,1-17.713,17.827l-278.507.722a17.77,17.77,0,0,1-17.8-17.734l-.457-175.6a16.537,16.537,0,0,1,16.494-16.58l280.953-.729A16.537,16.537,0,0,1,755.382,702.849Z" transform="translate(-441.355 -686.355)"/><g transform="translate(21.156 30.202)"><path class="d" d="M578.546,769.458a16.347,16.347,0,1,1-16.387-16.3A16.345,16.345,0,0,1,578.546,769.458Z" transform="translate(-330.548 -632.201)"/><path class="e" d="M587.441,769.437a16.347,16.347,0,1,1-16.39-16.306A16.344,16.344,0,0,1,587.441,769.437Z" transform="translate(-319.315 -632.23)"/><rect class="f" width="58.946" height="40.737" rx="4.202" transform="matrix(1, -0.003, 0.003, 1, 5.27, 0.653)"/><path class="g" d="M585.262,722.045l-26.67.07a11.175,11.175,0,0,1-11.2-11.142h0a11.173,11.173,0,0,1,11.144-11.2l26.67-.07a11.174,11.174,0,0,1,11.2,11.144h0A11.172,11.172,0,0,1,585.262,722.045Z" transform="translate(-328.605 -699.702)"/><g transform="translate(0 76.145)"><path class="h" d="M454.01,735.335l-2.412,1.423a.622.622,0,0,1-.294.1.588.588,0,0,1-.514-.292.563.563,0,0,1,.217-.805l3.292-2.012a.621.621,0,0,1,.808.217.727.727,0,0,1,.075.441l.038,15.706a.576.576,0,0,1-.582.588.6.6,0,0,1-.591-.586Z" transform="translate(-450.704 -732.941)"/><path class="h" d="M454.658,749.695l7.97-7.227a4.442,4.442,0,0,0,1.457-3.276,4.409,4.409,0,0,0-4.408-4.361,4.448,4.448,0,0,0-2.978,1.129l-.83.76a.587.587,0,1,1-.808-.853l.828-.783a5.732,5.732,0,0,1,3.783-1.453,5.62,5.62,0,0,1,5.585,5.558,5.633,5.633,0,0,1-1.822,4.157l-6.822,6.2,8.085-.02a.6.6,0,0,1,0,1.2l-9.527.025h-.1a.556.556,0,0,1-.441-.172A.641.641,0,0,1,454.658,749.695Z" transform="translate(-445.945 -733)"/><path class="h" d="M470.974,734.684l-4.41,4.555a5.8,5.8,0,0,1-1.168,11.484,5.691,5.691,0,0,1-4.082-1.7.6.6,0,1,1,.851-.855,4.584,4.584,0,0,0,7.811-3.272,4.586,4.586,0,0,0-4.582-4.553.638.638,0,0,1-.489-.244h-.023a.616.616,0,0,1,0-.88l4.238-4.383-6.546.016a.611.611,0,0,1,0-1.222l7.988-.02a.608.608,0,0,1,.613.611.49.49,0,0,1-.072.269A.536.536,0,0,1,470.974,734.684Z" transform="translate(-437.54 -733.028)"/><path class="h" d="M477.376,747.136l-9.26.025h-.075a.514.514,0,0,1-.364-.122.562.562,0,0,1-.077-.831l9.861-12.337.025-.025a.564.564,0,0,1,.83-.074.712.712,0,0,1,.195.292c0,.048.025.072.027.1v.072l.029,11.726,1.149,0a.587.587,0,1,1,0,1.172l-1.15,0,.009,2.933a.6.6,0,0,1-1.2,0Zm0-1.172-.025-10.015-8.06,10.036Z" transform="translate(-429.554 -733.01)"/><path class="h" d="M481.415,749a.59.59,0,0,1,0-.855.617.617,0,0,1,.878,0,4.584,4.584,0,0,0,3.229,1.31,4.59,4.59,0,0,0,4.557-4.58,4.56,4.56,0,0,0-7.8-3.2.588.588,0,0,1-.853,0,.377.377,0,0,1-.149-.195v-.025a.087.087,0,0,1-.025-.072.52.52,0,0,1-.023-.2c0-.025.023-.072.023-.12l.812-6.893a.521.521,0,0,1,.242-.441.563.563,0,0,1,.392-.145l7.965-.023a.6.6,0,0,1,.611.609.592.592,0,0,1-.609.613l-7.452.018-.6,5.085a5.758,5.758,0,0,1,2.905-.79,5.752,5.752,0,0,1,5.779,5.775,5.718,5.718,0,0,1-1.672,4.107,5.937,5.937,0,0,1-4.1,1.7A5.787,5.787,0,0,1,481.415,749Z" transform="translate(-412.162 -733.094)"/><path class="h" d="M489.409,737.282a6.932,6.932,0,0,1,5.974-3.727.59.59,0,0,1,.613.559.643.643,0,0,1-.584.638,5.784,5.784,0,0,0-4.976,3.114,11.174,11.174,0,0,0-1.213,3.424,5.62,5.62,0,1,1-1.407,3.91,8.665,8.665,0,0,1-.05-1.122A14.094,14.094,0,0,1,489.409,737.282Zm-.4,7.818a1.312,1.312,0,0,0,.05.317.4.4,0,0,1-.023.172,4.542,4.542,0,1,0-.027-.588Z" transform="translate(-403.902 -733.099)"/><path class="h" d="M496.968,749.766l6.286-15.016-8.257.02a.586.586,0,0,1,0-1.172l9.038-.023a.638.638,0,0,1,.367.023.668.668,0,0,1,.319.364.589.589,0,0,1,.05.2.49.49,0,0,1-.1.319l-6.578,15.749a.609.609,0,0,1-.536.367.448.448,0,0,1-.245-.048A.648.648,0,0,1,496.968,749.766Z" transform="translate(-395.51 -733.091)"/><path class="h" d="M506.066,733.512a3.549,3.549,0,0,1,2.118,6.417,5.534,5.534,0,1,1-4.225.011,3.6,3.6,0,0,1-1.426-2.878A3.528,3.528,0,0,1,506.066,733.512Zm.041,15.926a4.373,4.373,0,1,0-4.383-4.361A4.352,4.352,0,0,0,506.106,749.438Zm-.025-9.968a2.432,2.432,0,0,0,2.387-2.424,2.382,2.382,0,0,0-4.763.014A2.412,2.412,0,0,0,506.082,739.47Z" transform="translate(-387.757 -733.15)"/><path class="h" d="M519.56,733.477a5.62,5.62,0,0,1,5.632,4.969c.025.047.025.072.05.122.025.464.052.95.052,1.464a14.168,14.168,0,0,1-1.618,6.82,7.075,7.075,0,0,1-5.976,3.729h-.025a.579.579,0,0,1-.611-.561.619.619,0,0,1,.584-.636,5.8,5.8,0,0,0,4.976-3.116,10.8,10.8,0,0,0,1.213-3.422,5.651,5.651,0,1,1-4.277-9.37Zm4.487,5.605a4.459,4.459,0,1,0-4.46,4.458A4.432,4.432,0,0,0,524.047,739.082Z" transform="translate(-370.859 -733.195)"/><path class="h" d="M520.851,742.025a10.9,10.9,0,0,1,1.62-5.99,4.845,4.845,0,0,1,8.551-.023,11.129,11.129,0,0,1,1.677,5.981,10.963,10.963,0,0,1-1.647,5.965,4.823,4.823,0,0,1-8.549.022A10.736,10.736,0,0,1,520.851,742.025Zm1.2,0a9.684,9.684,0,0,0,1.455,5.3,3.637,3.637,0,0,0,6.546-.016,10.314,10.314,0,0,0-.027-10.6,3.635,3.635,0,0,0-6.546.016A9.688,9.688,0,0,0,522.048,742.021Z" transform="translate(-362.121 -733.219)"/><path class="h" d="M531.416,735.134,529,736.557a.6.6,0,0,1-.294.1.591.591,0,0,1-.514-.29.565.565,0,0,1,.217-.808l3.292-2.012a.622.622,0,0,1,.808.217.712.712,0,0,1,.072.441l.041,15.706a.575.575,0,0,1-.584.588.6.6,0,0,1-.589-.584Z" transform="translate(-352.954 -733.195)"/><path class="h" d="M532.065,749.495l7.97-7.23a4.435,4.435,0,0,0,1.455-3.274,4.409,4.409,0,0,0-4.408-4.363,4.443,4.443,0,0,0-2.978,1.131l-.828.76a.588.588,0,0,1-.808-.855l.828-.783a5.718,5.718,0,0,1,3.783-1.45,5.616,5.616,0,0,1,5.585,5.555,5.632,5.632,0,0,1-1.822,4.157l-6.825,6.2,8.087-.02a.6.6,0,0,1,0,1.2l-9.526.025h-.1a.555.555,0,0,1-.441-.17A.639.639,0,0,1,532.065,749.495Z" transform="translate(-348.195 -733.253)"/><path class="h" d="M554.854,734.467l-4.41,4.553a5.733,5.733,0,0,1,4.632,5.657,5.709,5.709,0,0,1-1.7,4.107,5.8,5.8,0,0,1-4.1,1.72,5.682,5.682,0,0,1-4.084-1.7.6.6,0,1,1,.851-.855,4.583,4.583,0,0,0,7.811-3.27,4.585,4.585,0,0,0-4.582-4.555.638.638,0,0,1-.489-.244h-.025a.617.617,0,0,1,0-.878L553,734.616l-6.548.018a.611.611,0,0,1,0-1.222l7.988-.02a.6.6,0,0,1,.613.609.511.511,0,0,1-.072.269A.55.55,0,0,1,554.854,734.467Z" transform="translate(-331.615 -733.302)"/><path class="h" d="M561.253,746.918l-9.257.025h-.075a.521.521,0,0,1-.366-.122.564.564,0,0,1-.075-.83l9.861-12.337.025-.025a.565.565,0,0,1,.83-.075.784.784,0,0,1,.2.292c0,.05.023.073.025.1v.075l.029,11.726,1.147,0a.587.587,0,1,1,0,1.172l-1.15,0,.007,2.933a.6.6,0,0,1-1.2,0Zm0-1.172-.027-10.015-8.06,10.036Z" transform="translate(-323.629 -733.284)"/><path class="h" d="M558.822,748.794a.589.589,0,0,1,0-.855.62.62,0,0,1,.878,0,4.583,4.583,0,0,0,3.229,1.31,4.585,4.585,0,0,0,4.555-4.58,4.56,4.56,0,0,0-7.8-3.2.586.586,0,0,1-.853,0,.381.381,0,0,1-.15-.192v-.025a.092.092,0,0,1-.025-.075.462.462,0,0,1-.025-.195,1.127,1.127,0,0,0,.025-.122l.813-6.89a.515.515,0,0,1,.242-.441.561.561,0,0,1,.392-.147l7.963-.02a.6.6,0,0,1,.613.609.59.59,0,0,1-.609.611l-7.452.02-.6,5.082a5.772,5.772,0,0,1,2.906-.79,5.752,5.752,0,0,1,5.779,5.775,5.716,5.716,0,0,1-1.674,4.107,5.923,5.923,0,0,1-4.1,1.7A5.786,5.786,0,0,1,558.822,748.794Z" transform="translate(-314.413 -733.346)"/><path class="h" d="M566.815,737.081a6.937,6.937,0,0,1,5.974-3.727.592.592,0,0,1,.613.559.639.639,0,0,1-.586.636,5.79,5.79,0,0,0-4.974,3.116,11.171,11.171,0,0,0-1.213,3.424,5.621,5.621,0,1,1-1.407,3.91,8.274,8.274,0,0,1-.05-1.122A14.1,14.1,0,0,1,566.815,737.081Zm-.4,7.818a1.178,1.178,0,0,0,.05.317.365.365,0,0,1-.025.172,4.559,4.559,0,1,0-.025-.586Z" transform="translate(-306.151 -733.352)"/></g><rect class="d" width="149.125" height="7.329" transform="matrix(1, -0.003, 0.003, 1, 5.588, 123.229)"/><rect class="d" width="105.575" height="7.329" transform="matrix(1, -0.003, 0.003, 1, 5.63, 139.505)"/><rect class="d" width="74.375" height="7.329" transform="translate(134.126 0.318) rotate(-0.149)"/></g></g><g transform="translate(1224.06 668.717)"><rect class="b" width="128.237" height="128.237"/><g transform="translate(38.265 20.59)"><path class="g" d="M776.925,574.886a4.326,4.326,0,0,1,4.358,4.358v2.231A36.869,36.869,0,0,1,797,587.051a5.427,5.427,0,0,1,3.039,4.865,5.58,5.58,0,0,1-5.675,5.576,5.864,5.864,0,0,1-3.041-.912,36.78,36.78,0,0,0-10.441-4.46v19.463c15.408,3.854,22,10.036,22,20.884,0,11.151-8.716,18.551-21.592,19.768v6.083a4.326,4.326,0,0,1-4.358,4.358,4.413,4.413,0,0,1-4.462-4.358v-6.284a43.874,43.874,0,0,1-20.782-7.909,5.577,5.577,0,0,1-2.738-4.865,5.578,5.578,0,0,1,8.922-4.462,35.9,35.9,0,0,0,15.005,6.793V621.618c-14.8-3.852-21.694-9.427-21.694-20.882,0-10.848,8.615-18.349,21.286-19.363v-2.129A4.413,4.413,0,0,1,776.925,574.886Zm-4.055,34.567V591.511c-6.49.609-9.732,4.055-9.732,8.515C763.138,604.283,765.064,606.919,772.87,609.453Zm8.008,14.093v18.449c6.487-.708,10.036-3.953,10.036-8.818C790.914,628.714,788.683,625.979,780.878,623.546Z" transform="translate(-748.943 -574.886)"/></g></g><line class="i" x2="943.82" transform="translate(383.6 1485.448)"/><g transform="translate(358.248 1473.934)"><ellipse class="b" cx="497.261" cy="62.261" rx="497.261" ry="62.261"/></g><g transform="translate(818.956 693.523)"><path class="j" d="M1015.085,641.671v728.673c0,21.429-17.1,38.848-38.167,38.848H599.991c-21.042,0-38.145-17.419-38.145-38.848V641.671c0-21.474,17.1-38.848,38.145-38.848H976.917C997.982,602.823,1015.085,620.2,1015.085,641.671Z" transform="translate(-561.846 -602.823)"/><path class="g" d="M977.943,664.51v668.1c0,20.42-15.292,36.954-34.151,36.954H606.567c-18.9,0-34.189-16.534-34.189-36.954V664.51c0-41.62,15.292-50.807,34.189-50.807h67.541c3.924,0,7.128,4.444,7.128,9.97v2.38c0,12.973,7.085,13.013,15.813,13.013H853.27c8.768,0,15.815-.041,15.815-13.013v-2.38c0-5.526,3.163-9.97,7.126-9.97h67.582C962.651,613.7,977.943,626.4,977.943,664.51Z" transform="translate(-548.546 -589.083)"/><path class="g" d="M696.657,620.7H654.046a2.633,2.633,0,0,1-2.632-2.632h0a2.631,2.631,0,0,1,2.632-2.632h42.611a2.631,2.631,0,0,1,2.632,2.632h0A2.632,2.632,0,0,1,696.657,620.7Z" transform="translate(-448.737 -586.894)"/><g transform="translate(45.551 73.541)"><path class="f" d="M741.632,827.523c-3.652,6.7-12.412,12.6-12.412,12.6s-8.759-5.9-12.389-12.6c-4.123-7.565-1.851-15.317,4.075-15.317,6.6,0,8.314,8.244,8.314,8.244s1.733-8.244,8.314-8.244C743.46,812.206,745.755,819.959,741.632,827.523Z" transform="translate(-414.324 -411.948)"/><g transform="translate(32.73)"><g transform="translate(0 8.119)"><rect class="c" width="33.926" height="5.582"/><rect class="c" width="33.926" height="5.582" transform="translate(0 11.163)"/><rect class="c" width="33.926" height="5.582" transform="translate(0 22.326)"/></g><g transform="translate(183.805 7.772)"><rect class="c" width="4.673" height="18.903" transform="translate(10.43 13.187) rotate(-37.147)"/><path class="c" d="M695.9,642.737a10.166,10.166,0,1,1-14.254-1.88A10.166,10.166,0,0,1,695.9,642.737Z" transform="translate(-677.668 -638.757)"/><path class="g" d="M690.378,642.944a6.08,6.08,0,1,1-8.524-1.125A6.081,6.081,0,0,1,690.378,642.944Z" transform="translate(-675.387 -636.477)"/></g><path class="c" d="M723.449,654.223c-3.652,6.7-12.412,12.6-12.412,12.6s-8.76-5.9-12.389-12.6c-4.123-7.562-1.851-15.315,4.075-15.315,6.6,0,8.314,8.244,8.314,8.244s1.733-8.244,8.314-8.244C725.277,638.908,727.572,646.661,723.449,654.223Z" transform="translate(-470.017 -630.794)"/><g transform="translate(265.063 7.915)"><path class="c" d="M741.264,661.333H720.776l-5.152-20.757h-2.046V638.82H717l1.021,4.1,28.319.025Zm-19.114-1.758h17.777l4.107-14.871-25.581-.023Z" transform="translate(-713.578 -638.82)"/><path class="c" d="M733.185,653.1l-1.416-3.364H720.148l-1.139,3.309-1.66-.572,1.546-4.494h14.041l1.869,4.439Z" transform="translate(-708.816 -627.25)"/><rect class="c" width="25.579" height="1.756" transform="translate(4.761 8.173)"/><rect class="c" width="1.757" height="23.139" transform="translate(6.132 14.237) rotate(-89.745)"/><rect class="c" width="20.964" height="1.757" transform="translate(7.092 16.995)"/><rect class="c" width="1.756" height="16.551" transform="translate(16.421 5.083)"/><rect class="c" width="16.604" height="1.757" transform="translate(19.616 21.564) rotate(-85.451)"/><rect class="c" width="16.828" height="1.758" transform="translate(22.905 21.475) rotate(-79.581)"/><rect class="c" width="1.757" height="16.604" transform="translate(11.982 5.153) rotate(-4.582)"/><rect class="c" width="1.758" height="16.828" transform="translate(6.993 5.242) rotate(-10.421)"/><path class="c" d="M726.269,654.459a2.8,2.8,0,1,1,2.8-2.8A2.8,2.8,0,0,1,726.269,654.459Zm0-3.844a1.044,1.044,0,1,0,1.045,1.043A1.046,1.046,0,0,0,726.269,650.614Z" transform="translate(-701.09 -626.146)"/><path class="c" d="M719.3,654.459a2.8,2.8,0,1,1,2.8-2.8A2.8,2.8,0,0,1,719.3,654.459Zm0-3.844a1.044,1.044,0,1,0,1.043,1.043A1.045,1.045,0,0,0,719.3,650.614Z" transform="translate(-709.884 -626.146)"/></g><g transform="translate(289.175)"><circle class="f" cx="7.496" cy="7.496" r="7.496"/><g transform="translate(5.245 2.434)"><path class="g" d="M729.847,637.172v8.287a.781.781,0,0,1-.785.772.76.76,0,0,1-.772-.772v-6.911l-.564.324a.705.705,0,0,1-.394.111.787.787,0,0,1-.407-1.446l1.727-1.025c.016-.013.043-.013.059-.027s.041-.029.07-.043.054-.014.084-.014a.076.076,0,0,1,.057-.016.24.24,0,0,1,.1-.014h.156a.081.081,0,0,0,.054.014.147.147,0,0,1,.084.029.1.1,0,0,1,.059.013c.041.029.054.043.082.043a.246.246,0,0,0,.057.041c.013.014.043.029.059.043s.041.043.054.057a.209.209,0,0,1,.043.056l.054.054.014.029c0,.014.014.027.014.043.018.027.032.041.032.068s.013.057.027.07a.7.7,0,0,0,.014.072.12.12,0,0,0,.027.1Z" transform="translate(-726.552 -636.398)"/></g></g></g><rect class="c" width="186.491" height="5.278" transform="translate(32.73 405.78)"/><rect class="c" width="160.388" height="5.278" transform="translate(32.73 415.639)"/><g transform="translate(0 226.73)"><path class="k" d="M592.351,751.98l-7.489-7.017,7.489-7.016,1.162,1.238-6.167,5.779,6.167,5.78Z" transform="translate(-578.331 -732.455)"/><path class="k" d="M594.481,760.533a12.507,12.507,0,1,1,12.507-12.507A12.519,12.519,0,0,1,594.481,760.533Zm0-22.75a10.244,10.244,0,1,0,10.244,10.244A10.254,10.254,0,0,0,594.481,737.783Z" transform="translate(-581.976 -735.52)"/><g transform="translate(337.126)"><path class="k" d="M736.466,751.98l-1.162-1.237,6.165-5.78-6.165-5.779,1.162-1.238,7.487,7.016Z" transform="translate(-725.475 -732.455)"/><path class="k" d="M743.464,760.533a12.507,12.507,0,1,1,12.509-12.507A12.519,12.519,0,0,1,743.464,760.533Zm0-22.75a10.244,10.244,0,1,0,10.246,10.244A10.254,10.254,0,0,0,743.464,737.783Z" transform="translate(-730.96 -735.52)"/></g></g><g transform="translate(37.192 540.882)"><path d="M605.721,874.351a.681.681,0,0,1,.672.674v1.125a9.169,9.169,0,0,1,5,1.969.779.779,0,0,1,.394.645.719.719,0,0,1-.731.7.686.686,0,0,1-.507-.2,8.015,8.015,0,0,0-4.213-1.826v7.87c4.272.9,6.071,2.5,6.071,5.257,0,2.978-2.5,5.087-6.017,5.2v2.193a.674.674,0,0,1-1.349,0v-2.22a10.576,10.576,0,0,1-6.322-2.724.743.743,0,0,1-.31-.593.732.732,0,0,1,.7-.7.7.7,0,0,1,.5.2,9.076,9.076,0,0,0,5.481,2.557v-8.01c-4.216-.928-5.958-2.473-5.958-5.284,0-2.84,2.473-5,5.9-5.087v-1.068A.682.682,0,0,1,605.721,874.351Zm-.62,10.678v-7.671c-2.727.057-4.526,1.686-4.526,3.709C600.575,882.979,601.476,884.158,605.1,885.029Zm1.238,1.715V894.5c2.808-.059,4.637-1.686,4.637-3.824C610.975,888.74,609.991,887.561,606.339,886.745Z" transform="translate(-598.412 -874.351)"/><path d="M606.295,893.586l9.189-8.291a5.1,5.1,0,0,0,1.686-3.765,5.078,5.078,0,0,0-5.058-5.032,5.123,5.123,0,0,0-3.43,1.294l-.955.869a.676.676,0,1,1-.928-.982l.955-.9a6.6,6.6,0,0,1,4.358-1.657,6.463,6.463,0,0,1,6.406,6.408,6.464,6.464,0,0,1-2.107,4.779l-7.87,7.11h9.3a.69.69,0,0,1,.674.7.682.682,0,0,1-.674.672H606.772a.634.634,0,0,1-.507-.2A.741.741,0,0,1,606.295,893.586Z" transform="translate(-588.728 -873.379)"/><path d="M613.639,884.958a12.516,12.516,0,0,1,1.883-6.886,5.572,5.572,0,0,1,9.834,0,12.759,12.759,0,0,1,1.912,6.886,12.589,12.589,0,0,1-1.912,6.859,5.549,5.549,0,0,1-9.834,0A12.352,12.352,0,0,1,613.639,884.958Zm1.376,0a11.154,11.154,0,0,0,1.656,6.1,4.186,4.186,0,0,0,7.535,0,11.878,11.878,0,0,0,0-12.2,4.187,4.187,0,0,0-7.535,0A11.167,11.167,0,0,0,615.015,884.958Z" transform="translate(-579.183 -873.379)"/><path d="M623.824,882.573a1.405,1.405,0,1,1-1.405,1.405A1.392,1.392,0,0,1,623.824,882.573Z" transform="translate(-568.095 -863.968)"/><path d="M624.816,884.958a12.535,12.535,0,0,1,1.883-6.886,5.574,5.574,0,0,1,9.836,0,12.759,12.759,0,0,1,1.912,6.886,12.59,12.59,0,0,1-1.912,6.859,5.55,5.55,0,0,1-9.836,0A12.371,12.371,0,0,1,624.816,884.958Zm1.378,0a11.155,11.155,0,0,0,1.656,6.1,4.184,4.184,0,0,0,7.533,0,11.878,11.878,0,0,0,0-12.2,4.186,4.186,0,0,0-7.533,0A11.168,11.168,0,0,0,626.194,884.958Z" transform="translate(-565.068 -873.379)"/><path d="M633.635,884.958a12.537,12.537,0,0,1,1.883-6.886,5.572,5.572,0,0,1,9.834,0,12.76,12.76,0,0,1,1.912,6.886,12.591,12.591,0,0,1-1.912,6.859,5.549,5.549,0,0,1-9.834,0A12.372,12.372,0,0,1,633.635,884.958Zm1.376,0a11.136,11.136,0,0,0,1.659,6.1,4.184,4.184,0,0,0,7.533,0,11.877,11.877,0,0,0,0-12.2,4.186,4.186,0,0,0-7.533,0A11.149,11.149,0,0,0,635.011,884.958Z" transform="translate(-553.931 -873.379)"/></g><g transform="translate(34.68 67.348)"><path d="M607.426,666.93l-4.2,5.829a.432.432,0,0,1-.373.208h-.039a.421.421,0,0,1-.394-.208l-4.2-5.811v10.78a.457.457,0,0,1-.45.45.463.463,0,0,1-.468-.45V665.579a.421.421,0,0,1,.188-.355c0-.02.02-.02.036-.038a.478.478,0,0,1,.64.111l4.666,6.469,4.65-6.469a.472.472,0,0,1,.638-.111,1.272,1.272,0,0,1,.131.149.635.635,0,0,1,.075.245v12.149a.457.457,0,0,1-.448.45.446.446,0,0,1-.453-.45Z" transform="translate(-597.302 -665.055)"/><path d="M608.358,666.825a4.6,4.6,0,1,1-4.349,4.593A4.493,4.493,0,0,1,608.358,666.825Zm0,8.286a3.712,3.712,0,1,0-3.451-3.693A3.594,3.594,0,0,0,608.358,675.112Z" transform="translate(-588.832 -662.888)"/><path d="M617.068,676.429a4.371,4.371,0,0,1-3.525,1.781,4.6,4.6,0,0,1,0-9.187,4.387,4.387,0,0,1,3.525,1.8v-5.286a.46.46,0,0,1,.919,0v12.224a.459.459,0,0,1-.919,0Zm0-2.645v-.3a3.659,3.659,0,1,0,0,.3Z" transform="translate(-582.402 -665.085)"/><path d="M614.425,671.437a4.446,4.446,0,0,1,8.886-.337v.075a.424.424,0,0,1-.45.412h-7.537a3.615,3.615,0,0,0,3.562,3.525,3.45,3.45,0,0,0,2.964-1.67.437.437,0,0,1,.6-.147.474.474,0,0,1,.149.636,4.377,4.377,0,0,1-3.713,2.082A4.522,4.522,0,0,1,614.425,671.437Zm.957-.731h6.956a3.548,3.548,0,0,0-3.453-2.98A3.586,3.586,0,0,0,615.382,670.706Z" transform="translate(-575.679 -662.888)"/><path d="M619.583,667.283a.449.449,0,0,1,.468-.45.439.439,0,0,1,.43.45v2.025a1.358,1.358,0,0,1,.134-.224,4.431,4.431,0,0,1,3.675-2.252.444.444,0,0,1,.448.45.455.455,0,0,1-.448.45,3.315,3.315,0,0,0-2.663,1.5,8.342,8.342,0,0,0-1.107,2.136.281.281,0,0,0-.039.149v4.032a.439.439,0,0,1-.43.45.449.449,0,0,1-.468-.45Z" transform="translate(-569.165 -662.878)"/><path d="M629.78,670.564a2.829,2.829,0,0,0-2.833-2.831,2.882,2.882,0,0,0-2.849,2.831v5.062a.46.46,0,0,1-.43.376h-.113a.5.5,0,0,1-.3-.244.078.078,0,0,1-.016-.056.062.062,0,0,0-.02-.036v-8.382a.44.44,0,1,1,.88,0v.88a3.728,3.728,0,0,1,6.583,2.4v4.987a.45.45,0,1,1-.9,0Z" transform="translate(-564.574 -662.878)"/><path d="M638.537,672.1h-6.75v5.661a.459.459,0,0,1-.919,0V665.535a.459.459,0,0,1,.919,0V671.2h6.75v-5.662a.459.459,0,0,1,.919,0v12.224a.459.459,0,0,1-.919,0Z" transform="translate(-554.914 -665.085)"/><path d="M644.909,667.275v8.286a.45.45,0,1,1-.9,0v-1.369a4.289,4.289,0,0,1-3.449,1.819,4.6,4.6,0,0,1,0-9.187,4.27,4.27,0,0,1,3.449,1.8v-1.349a.45.45,0,1,1,.9,0Zm-.9,4.143a3.458,3.458,0,1,0-3.449,3.693A3.587,3.587,0,0,0,644.008,671.419Z" transform="translate(-548.17 -662.888)"/><path d="M648.255,670.564a2.83,2.83,0,0,0-2.833-2.831,2.88,2.88,0,0,0-2.849,2.831v5.062a.433.433,0,0,1-.1.206.4.4,0,0,1-.335.17h-.113a.485.485,0,0,1-.3-.244.071.071,0,0,1-.018-.056.062.062,0,0,0-.02-.036v-8.382a.445.445,0,0,1,.453-.45.44.44,0,0,1,.43.45v.88a3.726,3.726,0,0,1,6.58,2.4v4.987a.449.449,0,1,1-.9,0Z" transform="translate(-541.247 -662.878)"/><path d="M654.3,676.429a4.375,4.375,0,0,1-3.525,1.781,4.6,4.6,0,0,1,0-9.187,4.391,4.391,0,0,1,3.525,1.8v-5.286a.459.459,0,0,1,.919,0v12.224a.459.459,0,0,1-.919,0Zm0-2.645v-.3a3.659,3.659,0,1,0,0,.3Z" transform="translate(-535.392 -665.085)"/><path d="M652.064,673.822v-8.287a.456.456,0,0,1,.453-.45.461.461,0,0,1,.468.45v5.286a4.387,4.387,0,0,1,3.523-1.8,4.6,4.6,0,0,1,0,9.187,4.37,4.37,0,0,1-3.523-1.781v1.33a.463.463,0,0,1-.468.451.458.458,0,0,1-.453-.451Zm.921-.188a3.619,3.619,0,1,0,0-.149Z" transform="translate(-528.147 -665.085)"/><path d="M665.791,667.275v8.286a.45.45,0,1,1-.9,0v-1.369a4.292,4.292,0,0,1-3.448,1.819,4.6,4.6,0,0,1,0-9.187,4.272,4.272,0,0,1,3.448,1.8v-1.349a.45.45,0,0,1,.9,0Zm-.9,4.143a3.458,3.458,0,1,0-3.448,3.693A3.587,3.587,0,0,0,664.89,671.419Z" transform="translate(-521.8 -662.888)"/><path d="M671.313,675.279a4.316,4.316,0,0,1-4.331,4.313,4.756,4.756,0,0,1-1.912-.43.485.485,0,0,1-.188-.6.418.418,0,0,1,.6-.208,3.3,3.3,0,0,0,1.5.339,3.407,3.407,0,0,0,3.433-3.415v-1.122a4.168,4.168,0,0,1-3.433,1.8,4.573,4.573,0,0,1,0-9.13,4.215,4.215,0,0,1,3.433,1.8v-1.349a.46.46,0,0,1,.468-.45.452.452,0,0,1,.43.45Zm-.9-3.9a3.433,3.433,0,1,0-3.433,3.7A3.534,3.534,0,0,0,670.415,671.38Z" transform="translate(-514.752 -662.888)"/></g><g transform="translate(34.099 436.427)"><path d="M603.87,828.19a6.982,6.982,0,0,1,4.238,1.441.463.463,0,0,1,.074.656.437.437,0,0,1-.638.095,5.962,5.962,0,0,0-3.675-1.274,5.739,5.739,0,1,0,0,11.473,5.58,5.58,0,0,0,3.639-1.274.455.455,0,0,1,.656.111.444.444,0,0,1-.056.656,6.942,6.942,0,0,1-4.238,1.426,6.657,6.657,0,1,1,0-13.31Z" transform="translate(-597.045 -828.19)"/><path d="M607.67,830.013a4.6,4.6,0,1,1-4.349,4.591A4.493,4.493,0,0,1,607.67,830.013Zm0,8.286a3.714,3.714,0,1,0-3.448-3.7A3.6,3.6,0,0,0,607.67,838.3Z" transform="translate(-589.12 -825.888)"/><path d="M608.744,828.725a.459.459,0,0,1,.919,0v12.222a.459.459,0,0,1-.919,0Z" transform="translate(-582.271 -828.086)"/><path d="M614.906,830.013a4.6,4.6,0,1,1-4.347,4.591A4.491,4.491,0,0,1,614.906,830.013Zm0,8.286a3.714,3.714,0,1,0-3.448-3.7A3.6,3.6,0,0,0,614.906,838.3Z" transform="translate(-579.979 -825.888)"/><path d="M615.758,830.471a.447.447,0,0,1,.468-.45.439.439,0,0,1,.43.45v2.023a1.272,1.272,0,0,1,.133-.224,4.427,4.427,0,0,1,3.675-2.249.442.442,0,0,1,.448.45.455.455,0,0,1-.448.448,3.318,3.318,0,0,0-2.663,1.5,8.3,8.3,0,0,0-1.107,2.136.284.284,0,0,0-.038.152v4.03a.44.44,0,0,1-.43.45.449.449,0,0,1-.468-.45Z" transform="translate(-573.414 -825.878)"/></g><g transform="translate(56.579 591.772)"><rect class="e" width="248.979" height="52.44"/><g transform="translate(31.351 16.827)"><path class="g" d="M632.053,919.546h-6.829l-1.378,3.655a1.571,1.571,0,0,1-1.462.984,1.706,1.706,0,0,1-.534-.084,1.6,1.6,0,0,1-.925-2.025l6.211-16.553a1.566,1.566,0,0,1,1.489-.984,1.543,1.543,0,0,1,1.489.984l6.214,16.553a1.6,1.6,0,0,1-.93,2.025,1.57,1.57,0,0,1-.534.084,1.509,1.509,0,0,1-1.432-.984Zm-1.152-3.091-2.276-6.042-2.279,6.042Z" transform="translate(-620.834 -903.948)"/><path class="g" d="M629.382,922.653V906.071a1.523,1.523,0,0,1,1.543-1.546h3.317a9.838,9.838,0,0,1,0,19.675h-3.317A1.542,1.542,0,0,1,629.382,922.653Zm3.12-1.573h1.74a6.717,6.717,0,0,0,0-13.434H632.5Z" transform="translate(-610.04 -903.964)"/><path class="g" d="M637.938,922.653V906.071a1.524,1.524,0,0,1,1.546-1.546H642.8a9.838,9.838,0,0,1,0,19.675h-3.317A1.542,1.542,0,0,1,637.938,922.653Zm3.121-1.573H642.8a6.717,6.717,0,0,0,0-13.434h-1.742Z" transform="translate(-599.235 -903.964)"/><path class="g" d="M663.469,907.645H659v15.007a1.522,1.522,0,0,1-1.543,1.548,1.543,1.543,0,0,1-1.548-1.548V907.645h-4.442a1.565,1.565,0,0,1-1.543-1.575,1.523,1.523,0,0,1,1.543-1.546h12a1.542,1.542,0,0,1,1.548,1.546A1.586,1.586,0,0,1,663.469,907.645Z" transform="translate(-584.099 -903.964)"/><path class="g" d="M673.958,907.282a10.326,10.326,0,0,1,0,14.224,9.2,9.2,0,0,1-6.714,3.007,9.48,9.48,0,0,1-6.886-3.007,10.472,10.472,0,0,1,0-14.224,9.375,9.375,0,0,1,6.886-3.005A9.1,9.1,0,0,1,673.958,907.282Zm-.364,7.112a7.286,7.286,0,0,0-1.91-4.919,6.068,6.068,0,0,0-4.44-2,6.129,6.129,0,0,0-4.555,2,7.15,7.15,0,0,0-1.912,4.919,7.022,7.022,0,0,0,1.912,4.89,6.005,6.005,0,0,0,8.995,0A7.155,7.155,0,0,0,673.594,914.394Z" transform="translate(-574.439 -904.277)"/><path class="g" d="M671.856,914.394a10.321,10.321,0,0,1,10.316-10.117,10.507,10.507,0,0,1,6.492,2.193,1.613,1.613,0,0,1-1.966,2.557,7.013,7.013,0,0,0-4.526-1.548,7.447,7.447,0,0,0-5.057,2.025,6.931,6.931,0,0,0-2.055,4.89,6.831,6.831,0,0,0,2.055,4.89,7.436,7.436,0,0,0,5.057,2.025,7.075,7.075,0,0,0,4.526-1.546,1.7,1.7,0,0,1,2.247.308,1.657,1.657,0,0,1-.281,2.249,10.521,10.521,0,0,1-6.492,2.193A10.286,10.286,0,0,1,671.856,914.394Z" transform="translate(-556.402 -904.277)"/><path class="g" d="M692.325,919.546H685.5l-1.38,3.655a1.571,1.571,0,0,1-1.46.984,1.7,1.7,0,0,1-.534-.084,1.6,1.6,0,0,1-.928-2.025l6.214-16.553a1.564,1.564,0,0,1,1.489-.984,1.543,1.543,0,0,1,1.489.984l6.211,16.553a1.6,1.6,0,0,1-.928,2.025,1.579,1.579,0,0,1-.534.084,1.5,1.5,0,0,1-1.432-.984Zm-1.15-3.091-2.276-6.042-2.279,6.042Z" transform="translate(-544.721 -903.948)"/><path class="g" d="M702.888,921.867a1.555,1.555,0,0,1-.984,1.969,2.643,2.643,0,0,1-.618.084h-.027a2.062,2.062,0,0,1-1.1-.31,2.755,2.755,0,0,1-.9-.984,7.55,7.55,0,0,1-.591-3.374,2.406,2.406,0,0,0-.337-1.206,2.582,2.582,0,0,0-.844-.815,5.294,5.294,0,0,0-1.575-.674H692.6v6.1a1.564,1.564,0,0,1-1.573,1.548,1.542,1.542,0,0,1-1.546-1.548V906.071a1.524,1.524,0,0,1,1.546-1.546h5.033a6.012,6.012,0,0,1,6.015,6.042,5.949,5.949,0,0,1-2.193,4.609,4.377,4.377,0,0,1,.984,1.041,5.334,5.334,0,0,1,.925,3.034,7.145,7.145,0,0,0,.113,1.661A1.51,1.51,0,0,1,702.888,921.867Zm-3.935-11.3a2.9,2.9,0,0,0-2.894-2.921H692.6v5.791h3.46A2.884,2.884,0,0,0,698.952,910.567Z" transform="translate(-534.146 -903.964)"/><path class="g" d="M710.044,907.645h-4.467v15.007a1.524,1.524,0,0,1-1.546,1.548,1.541,1.541,0,0,1-1.546-1.548V907.645h-4.442a1.566,1.566,0,0,1-1.546-1.575,1.524,1.524,0,0,1,1.546-1.546h12a1.542,1.542,0,0,1,1.548,1.546A1.586,1.586,0,0,1,710.044,907.645Z" transform="translate(-525.284 -903.964)"/></g></g><g transform="translate(32.734 90.905)"><rect class="b" width="296.667" height="296.667"/><ellipse class="c" cx="122.015" cy="16.941" rx="122.015" ry="16.941" transform="translate(26.319 246.481)"/><g transform="translate(43.035 35.037)"><g transform="translate(0 77.176)"><path class="f" d="M794.821,875.262H646.7c-40.036,0-33.612-32.021-24.009-65.631s23.828-84.546,59.6-84.546h76.932c35.778,0,50,50.936,59.6,84.546S834.857,875.262,794.821,875.262Z" transform="translate(-615.46 -725.085)"/><g class="l" transform="translate(9.089 0.088)"><path d="M644.851,726.654a1.53,1.53,0,1,1-1.53-1.53A1.528,1.528,0,0,1,644.851,726.654Z" transform="translate(-591.297 -725.124)"/><path d="M656.009,726.654a1.53,1.53,0,1,1-1.53-1.53A1.529,1.529,0,0,1,656.009,726.654Z" transform="translate(-577.206 -725.124)"/><path d="M667.169,726.654a1.531,1.531,0,1,1-1.53-1.53A1.529,1.529,0,0,1,667.169,726.654Z" transform="translate(-563.117 -725.124)"/><path d="M678.327,726.654a1.531,1.531,0,1,1-1.532-1.53A1.53,1.53,0,0,1,678.327,726.654Z" transform="translate(-549.026 -725.124)"/><path d="M633.7,741a1.531,1.531,0,1,1-1.53-1.53A1.531,1.531,0,0,1,633.7,741Z" transform="translate(-605.388 -707.013)"/><circle cx="1.53" cy="1.53" r="1.53" transform="translate(50.495 32.453)"/><path d="M656.009,741a1.53,1.53,0,1,1-1.53-1.53A1.531,1.531,0,0,1,656.009,741Z" transform="translate(-577.206 -707.013)"/><path d="M667.169,741a1.531,1.531,0,1,1-1.53-1.53A1.531,1.531,0,0,1,667.169,741Z" transform="translate(-563.117 -707.013)"/><path d="M678.327,741a1.531,1.531,0,1,1-1.532-1.53A1.531,1.531,0,0,1,678.327,741Z" transform="translate(-549.026 -707.013)"/><path d="M689.483,741a1.53,1.53,0,1,1-1.53-1.53A1.529,1.529,0,0,1,689.483,741Z" transform="translate(-534.936 -707.013)"/><path d="M639.275,733.642a1.531,1.531,0,1,1-1.532-1.53A1.531,1.531,0,0,1,639.275,733.642Z" transform="translate(-598.342 -716.299)"/><path d="M650.431,733.642a1.53,1.53,0,1,1-1.53-1.53A1.529,1.529,0,0,1,650.431,733.642Z" transform="translate(-584.252 -716.299)"/><path d="M661.588,733.642a1.53,1.53,0,1,1-1.53-1.53A1.531,1.531,0,0,1,661.588,733.642Z" transform="translate(-570.161 -716.299)"/><path d="M672.748,733.642a1.531,1.531,0,1,1-1.53-1.53A1.531,1.531,0,0,1,672.748,733.642Z" transform="translate(-556.071 -716.299)"/><path d="M683.9,733.642a1.53,1.53,0,1,1-1.529-1.53A1.529,1.529,0,0,1,683.9,733.642Z" transform="translate(-541.981 -716.299)"/><path d="M694.839,734.365a1.463,1.463,0,0,1-1.312.774A1.52,1.52,0,0,1,692,733.617a1.55,1.55,0,0,1,1.054-1.475C693.667,732.867,694.253,733.594,694.839,734.365Z" transform="translate(-527.888 -716.263)"/><path d="M633.7,755.337a1.531,1.531,0,1,1-1.53-1.53A1.531,1.531,0,0,1,633.7,755.337Z" transform="translate(-605.388 -688.902)"/><circle cx="1.53" cy="1.53" r="1.53" transform="translate(50.495 64.905)"/><path d="M656.009,755.337a1.53,1.53,0,1,1-1.53-1.53A1.531,1.531,0,0,1,656.009,755.337Z" transform="translate(-577.206 -688.902)"/><path d="M667.169,755.337a1.531,1.531,0,1,1-1.53-1.53A1.531,1.531,0,0,1,667.169,755.337Z" transform="translate(-563.117 -688.902)"/><path d="M678.327,755.337a1.531,1.531,0,1,1-1.532-1.53A1.531,1.531,0,0,1,678.327,755.337Z" transform="translate(-549.026 -688.902)"/><path d="M689.483,755.337a1.53,1.53,0,1,1-1.53-1.53A1.53,1.53,0,0,1,689.483,755.337Z" transform="translate(-534.936 -688.902)"/><circle cx="1.53" cy="1.53" r="1.53" transform="translate(176.736 64.905)"/><path d="M628.117,747.983a1.531,1.531,0,1,1-1.53-1.53A1.531,1.531,0,0,1,628.117,747.983Z" transform="translate(-612.433 -698.189)"/><path d="M639.275,747.983a1.531,1.531,0,1,1-1.532-1.53A1.532,1.532,0,0,1,639.275,747.983Z" transform="translate(-598.342 -698.189)"/><path d="M650.431,747.983a1.53,1.53,0,1,1-1.53-1.53A1.53,1.53,0,0,1,650.431,747.983Z" transform="translate(-584.252 -698.189)"/><path d="M661.588,747.983a1.53,1.53,0,1,1-1.53-1.53A1.531,1.531,0,0,1,661.588,747.983Z" transform="translate(-570.161 -698.189)"/><path d="M672.748,747.983a1.531,1.531,0,1,1-1.53-1.53A1.531,1.531,0,0,1,672.748,747.983Z" transform="translate(-556.071 -698.189)"/><path d="M683.9,747.983a1.53,1.53,0,1,1-1.529-1.53A1.53,1.53,0,0,1,683.9,747.983Z" transform="translate(-541.981 -698.189)"/><path d="M695.061,747.983a1.53,1.53,0,1,1-1.53-1.53A1.531,1.531,0,0,1,695.061,747.983Z" transform="translate(-527.89 -698.189)"/><path d="M622.536,769.679a1.53,1.53,0,1,1-1.53-1.53A1.529,1.529,0,0,1,622.536,769.679Z" transform="translate(-619.477 -670.791)"/><path d="M633.7,769.679a1.531,1.531,0,1,1-1.53-1.53A1.529,1.529,0,0,1,633.7,769.679Z" transform="translate(-605.388 -670.791)"/><circle cx="1.53" cy="1.53" r="1.53" transform="translate(50.495 97.358)"/><path d="M656.009,769.679a1.53,1.53,0,1,1-1.53-1.53A1.529,1.529,0,0,1,656.009,769.679Z" transform="translate(-577.206 -670.791)"/><path d="M667.169,769.679a1.531,1.531,0,1,1-1.53-1.53A1.529,1.529,0,0,1,667.169,769.679Z" transform="translate(-563.117 -670.791)"/><path d="M678.327,769.679a1.531,1.531,0,1,1-1.532-1.53A1.53,1.53,0,0,1,678.327,769.679Z" transform="translate(-549.026 -670.791)"/><path d="M689.483,769.679a1.53,1.53,0,1,1-1.53-1.53A1.528,1.528,0,0,1,689.483,769.679Z" transform="translate(-534.936 -670.791)"/><circle cx="1.53" cy="1.53" r="1.53" transform="translate(176.736 97.358)"/><path d="M628.117,762.325a1.531,1.531,0,1,1-1.53-1.53A1.531,1.531,0,0,1,628.117,762.325Z" transform="translate(-612.433 -680.078)"/><path d="M639.275,762.325a1.531,1.531,0,1,1-1.532-1.53A1.531,1.531,0,0,1,639.275,762.325Z" transform="translate(-598.342 -680.078)"/><path d="M650.431,762.325a1.53,1.53,0,1,1-1.53-1.53A1.529,1.529,0,0,1,650.431,762.325Z" transform="translate(-584.252 -680.078)"/><path d="M661.588,762.325a1.53,1.53,0,1,1-1.53-1.53A1.531,1.531,0,0,1,661.588,762.325Z" transform="translate(-570.161 -680.078)"/><path d="M672.748,762.325a1.531,1.531,0,1,1-1.53-1.53A1.531,1.531,0,0,1,672.748,762.325Z" transform="translate(-556.071 -680.078)"/><path d="M683.9,762.325a1.53,1.53,0,1,1-1.529-1.53A1.529,1.529,0,0,1,683.9,762.325Z" transform="translate(-541.981 -680.078)"/><path d="M695.061,762.325a1.53,1.53,0,1,1-1.53-1.53A1.531,1.531,0,0,1,695.061,762.325Z" transform="translate(-527.89 -680.078)"/><path d="M706.221,762.325a1.531,1.531,0,1,1-1.53-1.53A1.531,1.531,0,0,1,706.221,762.325Z" transform="translate(-513.801 -680.078)"/><path d="M622.536,784.022a1.53,1.53,0,1,1-1.53-1.532A1.531,1.531,0,0,1,622.536,784.022Z" transform="translate(-619.477 -652.68)"/><path d="M633.7,784.022a1.531,1.531,0,1,1-1.53-1.532A1.531,1.531,0,0,1,633.7,784.022Z" transform="translate(-605.388 -652.68)"/><circle cx="1.53" cy="1.53" r="1.53" transform="translate(50.495 129.811)"/><path d="M656.009,784.022a1.53,1.53,0,1,1-1.53-1.532A1.531,1.531,0,0,1,656.009,784.022Z" transform="translate(-577.206 -652.68)"/><path d="M667.169,784.022a1.531,1.531,0,1,1-1.53-1.532A1.531,1.531,0,0,1,667.169,784.022Z" transform="translate(-563.117 -652.68)"/><path d="M678.327,784.022a1.531,1.531,0,1,1-1.532-1.532A1.531,1.531,0,0,1,678.327,784.022Z" transform="translate(-549.026 -652.68)"/><path d="M689.483,784.022a1.53,1.53,0,1,1-1.53-1.532A1.529,1.529,0,0,1,689.483,784.022Z" transform="translate(-534.936 -652.68)"/><circle cx="1.53" cy="1.53" r="1.53" transform="translate(176.736 129.811)"/><path d="M628.117,776.668a1.531,1.531,0,1,1-1.53-1.532A1.531,1.531,0,0,1,628.117,776.668Z" transform="translate(-612.433 -661.967)"/><path d="M639.275,776.668a1.531,1.531,0,1,1-1.532-1.532A1.531,1.531,0,0,1,639.275,776.668Z" transform="translate(-598.342 -661.967)"/><path d="M650.431,776.668a1.53,1.53,0,1,1-1.53-1.532A1.529,1.529,0,0,1,650.431,776.668Z" transform="translate(-584.252 -661.967)"/><path d="M661.588,776.668a1.53,1.53,0,1,1-1.53-1.532A1.531,1.531,0,0,1,661.588,776.668Z" transform="translate(-570.161 -661.967)"/><path d="M672.748,776.668a1.531,1.531,0,1,1-1.53-1.532A1.531,1.531,0,0,1,672.748,776.668Z" transform="translate(-556.071 -661.967)"/><path d="M683.9,776.668a1.53,1.53,0,1,1-1.529-1.532A1.529,1.529,0,0,1,683.9,776.668Z" transform="translate(-541.981 -661.967)"/><path d="M695.061,776.668a1.53,1.53,0,1,1-1.53-1.532A1.531,1.531,0,0,1,695.061,776.668Z" transform="translate(-527.89 -661.967)"/><path d="M706.221,776.668a1.531,1.531,0,1,1-1.53-1.532A1.531,1.531,0,0,1,706.221,776.668Z" transform="translate(-513.801 -661.967)"/><circle cx="1.53" cy="1.53" r="1.53" transform="translate(12.623 145.622)"/><path d="M639.275,791.008a1.531,1.531,0,1,1-1.532-1.53A1.532,1.532,0,0,1,639.275,791.008Z" transform="translate(-598.342 -643.856)"/><path d="M650.431,791.008a1.53,1.53,0,1,1-1.53-1.53A1.53,1.53,0,0,1,650.431,791.008Z" transform="translate(-584.252 -643.856)"/><path d="M661.588,791.008a1.53,1.53,0,1,1-1.53-1.53A1.531,1.531,0,0,1,661.588,791.008Z" transform="translate(-570.161 -643.856)"/><circle cx="1.53" cy="1.53" r="1.53" transform="translate(113.615 145.622)"/><circle cx="1.53" cy="1.53" r="1.53" transform="translate(138.864 145.622)"/><path d="M695.061,791.008a1.53,1.53,0,1,1-1.53-1.53A1.531,1.531,0,0,1,695.061,791.008Z" transform="translate(-527.89 -643.856)"/><path d="M704.157,789.49a4.232,4.232,0,0,1-.819.468A1.507,1.507,0,0,1,704.157,789.49Z" transform="translate(-513.575 -643.841)"/></g></g><g transform="translate(52.085)"><circle class="m" cx="12.275" cy="12.275" r="12.275" transform="translate(0 82.58)"/><circle class="m" cx="12.275" cy="12.275" r="12.275" transform="translate(81.868 82.58)"/><circle class="j" cx="8.317" cy="8.317" r="8.317" transform="translate(3.958 86.539)"/><circle class="j" cx="8.317" cy="8.317" r="8.317" transform="translate(85.826 86.539)"/><path class="f" d="M728.385,787.636a4.685,4.685,0,0,1-4.684-4.684,233.287,233.287,0,0,0-7-44.128c-4.711-17.553-13.416-38.477-28.138-38.477-27.188,0-37.364,68.591-37.364,82.6a4.684,4.684,0,0,1-9.368,0c0-.919,5.693-91.973,46.732-91.973,39.785,0,44.505,91.054,44.505,91.973A4.685,4.685,0,0,1,728.385,787.636Z" transform="translate(-634.242 -690.979)"/></g></g></g><g transform="translate(32.73 462.658)"><rect class="b" width="52.871" height="52.871"/><g transform="translate(7.67 6.245)"><g transform="translate(0 13.754)"><path class="n" d="M631.795,875.385H605.4c-7.135,0-5.99-5.707-4.279-11.7s4.245-15.068,10.622-15.068H625.45c6.377,0,8.911,9.076,10.622,15.068S638.93,875.385,631.795,875.385Z" transform="translate(-599.83 -848.62)"/><g class="l" transform="translate(1.618 0.016)"><path d="M605.067,848.9a.273.273,0,1,1-.272-.272A.273.273,0,0,1,605.067,848.9Z" transform="translate(-595.523 -848.627)"/><path d="M607.057,848.9a.273.273,0,1,1-.274-.272A.273.273,0,0,1,607.057,848.9Z" transform="translate(-593.011 -848.627)"/><path d="M609.044,848.9a.273.273,0,1,1-.271-.272A.273.273,0,0,1,609.044,848.9Z" transform="translate(-590.501 -848.627)"/><path d="M611.033,848.9a.273.273,0,1,1-.274-.272A.273.273,0,0,1,611.033,848.9Z" transform="translate(-587.989 -848.627)"/><path d="M603.08,851.455a.273.273,0,1,1-.274-.272A.273.273,0,0,1,603.08,851.455Z" transform="translate(-598.033 -845.399)"/><path d="M605.067,851.455a.273.273,0,1,1-.272-.272A.273.273,0,0,1,605.067,851.455Z" transform="translate(-595.523 -845.399)"/><path d="M607.057,851.455a.273.273,0,1,1-.274-.272A.273.273,0,0,1,607.057,851.455Z" transform="translate(-593.011 -845.399)"/><path d="M609.044,851.455a.273.273,0,1,1-.271-.272A.273.273,0,0,1,609.044,851.455Z" transform="translate(-590.501 -845.399)"/><path d="M611.033,851.455a.273.273,0,1,1-.274-.272A.273.273,0,0,1,611.033,851.455Z" transform="translate(-587.989 -845.399)"/><path d="M613.021,851.455a.273.273,0,1,1-.272-.272A.273.273,0,0,1,613.021,851.455Z" transform="translate(-585.478 -845.399)"/><circle cx="0.273" cy="0.273" r="0.273" transform="translate(6.75 2.818)"/><circle cx="0.273" cy="0.273" r="0.273" transform="translate(11.25 2.818)"/><circle cx="0.273" cy="0.273" r="0.273" transform="translate(15.75 2.818)"/><path d="M610.041,850.146a.274.274,0,1,1-.274-.274A.273.273,0,0,1,610.041,850.146Z" transform="translate(-589.245 -847.055)"/><path d="M612.027,850.146a.273.273,0,1,1-.274-.274A.273.273,0,0,1,612.027,850.146Z" transform="translate(-586.734 -847.055)"/><path d="M613.976,850.275a.256.256,0,0,1-.233.136.269.269,0,0,1-.272-.269.278.278,0,0,1,.188-.265C613.767,850.008,613.872,850.137,613.976,850.275Z" transform="translate(-584.222 -847.049)"/><path d="M603.08,854.011a.273.273,0,1,1-.274-.272A.273.273,0,0,1,603.08,854.011Z" transform="translate(-598.033 -842.171)"/><path d="M605.067,854.011a.273.273,0,1,1-.272-.272A.273.273,0,0,1,605.067,854.011Z" transform="translate(-595.523 -842.171)"/><path d="M607.057,854.011a.273.273,0,1,1-.274-.272A.273.273,0,0,1,607.057,854.011Z" transform="translate(-593.011 -842.171)"/><path d="M609.044,854.011a.273.273,0,1,1-.271-.272A.273.273,0,0,1,609.044,854.011Z" transform="translate(-590.501 -842.171)"/><path d="M611.033,854.011a.273.273,0,1,1-.274-.272A.273.273,0,0,1,611.033,854.011Z" transform="translate(-587.989 -842.171)"/><path d="M613.021,854.011a.273.273,0,1,1-.272-.272A.273.273,0,0,1,613.021,854.011Z" transform="translate(-585.478 -842.171)"/><path d="M615.01,854.011a.273.273,0,1,1-.274-.272A.273.273,0,0,1,615.01,854.011Z" transform="translate(-582.966 -842.171)"/><circle cx="0.273" cy="0.273" r="0.273" transform="translate(2.251 8.601)"/><circle cx="0.273" cy="0.273" r="0.273" transform="translate(6.75 8.601)"/><circle cx="0.273" cy="0.273" r="0.273" transform="translate(11.25 8.601)"/><circle cx="0.273" cy="0.273" r="0.273" transform="translate(15.75 8.601)"/><path d="M610.041,852.7a.274.274,0,1,1-.274-.274A.273.273,0,0,1,610.041,852.7Z" transform="translate(-589.245 -843.827)"/><path d="M612.027,852.7a.273.273,0,1,1-.274-.274A.273.273,0,0,1,612.027,852.7Z" transform="translate(-586.734 -843.827)"/><path d="M614.016,852.7a.273.273,0,1,1-.272-.274A.271.271,0,0,1,614.016,852.7Z" transform="translate(-584.223 -843.827)"/><path d="M601.091,856.567a.273.273,0,1,1-.272-.272A.273.273,0,0,1,601.091,856.567Z" transform="translate(-600.545 -838.944)"/><path d="M603.08,856.567a.273.273,0,1,1-.274-.272A.273.273,0,0,1,603.08,856.567Z" transform="translate(-598.033 -838.944)"/><path d="M605.067,856.567a.273.273,0,1,1-.272-.272A.273.273,0,0,1,605.067,856.567Z" transform="translate(-595.523 -838.944)"/><path d="M607.057,856.567a.273.273,0,1,1-.274-.272A.273.273,0,0,1,607.057,856.567Z" transform="translate(-593.011 -838.944)"/><path d="M609.044,856.567a.273.273,0,1,1-.271-.272A.273.273,0,0,1,609.044,856.567Z" transform="translate(-590.501 -838.944)"/><path d="M611.033,856.567a.273.273,0,1,1-.274-.272A.273.273,0,0,1,611.033,856.567Z" transform="translate(-587.989 -838.944)"/><path d="M613.021,856.567a.273.273,0,1,1-.272-.272A.273.273,0,0,1,613.021,856.567Z" transform="translate(-585.478 -838.944)"/><path d="M615.01,856.567a.273.273,0,1,1-.274-.272A.273.273,0,0,1,615.01,856.567Z" transform="translate(-582.966 -838.944)"/><circle cx="0.273" cy="0.273" r="0.273" transform="translate(2.251 14.385)"/><circle cx="0.273" cy="0.273" r="0.273" transform="translate(6.75 14.385)"/><circle cx="0.273" cy="0.273" r="0.273" transform="translate(11.25 14.385)"/><circle cx="0.273" cy="0.273" r="0.273" transform="translate(15.75 14.385)"/><path d="M610.041,855.256a.274.274,0,1,1-.274-.272A.273.273,0,0,1,610.041,855.256Z" transform="translate(-589.245 -840.599)"/><path d="M612.027,855.256a.273.273,0,1,1-.274-.272A.273.273,0,0,1,612.027,855.256Z" transform="translate(-586.734 -840.599)"/><path d="M614.016,855.256a.273.273,0,1,1-.272-.272A.271.271,0,0,1,614.016,855.256Z" transform="translate(-584.223 -840.599)"/><path d="M616,855.256a.273.273,0,1,1-.274-.272A.273.273,0,0,1,616,855.256Z" transform="translate(-581.711 -840.599)"/><circle cx="0.273" cy="0.273" r="0.273" transform="translate(0.001 23.134)"/><circle cx="0.273" cy="0.273" r="0.273" transform="translate(4.501 23.134)"/><path d="M605.067,859.123a.273.273,0,1,1-.272-.272A.273.273,0,0,1,605.067,859.123Z" transform="translate(-595.523 -835.716)"/><path d="M607.057,859.123a.273.273,0,1,1-.274-.272A.273.273,0,0,1,607.057,859.123Z" transform="translate(-593.011 -835.716)"/><circle cx="0.273" cy="0.273" r="0.273" transform="translate(17.999 23.134)"/><circle cx="0.273" cy="0.273" r="0.273" transform="translate(22.499 23.134)"/><circle cx="0.273" cy="0.273" r="0.273" transform="translate(26.999 23.134)"/><circle cx="0.273" cy="0.273" r="0.273" transform="translate(31.498 23.134)"/><circle cx="0.273" cy="0.273" r="0.273" transform="translate(2.251 20.168)"/><circle cx="0.273" cy="0.273" r="0.273" transform="translate(6.75 20.168)"/><circle cx="0.273" cy="0.273" r="0.273" transform="translate(11.25 20.168)"/><circle cx="0.273" cy="0.273" r="0.273" transform="translate(15.75 20.168)"/><path d="M610.041,857.812a.274.274,0,1,1-.274-.272A.273.273,0,0,1,610.041,857.812Z" transform="translate(-589.245 -837.372)"/><path d="M612.027,857.812a.273.273,0,1,1-.274-.272A.273.273,0,0,1,612.027,857.812Z" transform="translate(-586.734 -837.372)"/><path d="M614.016,857.812a.273.273,0,1,1-.272-.272A.271.271,0,0,1,614.016,857.812Z" transform="translate(-584.223 -837.372)"/><path d="M616,857.812a.273.273,0,1,1-.274-.272A.273.273,0,0,1,616,857.812Z" transform="translate(-581.711 -837.372)"/><circle cx="0.273" cy="0.273" r="0.273" transform="translate(2.251 25.952)"/><circle cx="0.273" cy="0.273" r="0.273" transform="translate(6.75 25.952)"/><circle cx="0.273" cy="0.273" r="0.273" transform="translate(11.25 25.952)"/><circle cx="0.273" cy="0.273" r="0.273" transform="translate(15.75 25.952)"/><path d="M610.041,860.368a.274.274,0,1,1-.274-.272A.273.273,0,0,1,610.041,860.368Z" transform="translate(-589.245 -834.144)"/><path d="M612.027,860.368a.273.273,0,1,1-.274-.272A.273.273,0,0,1,612.027,860.368Z" transform="translate(-586.734 -834.144)"/><path d="M614.016,860.368a.273.273,0,1,1-.272-.272A.271.271,0,0,1,614.016,860.368Z" transform="translate(-584.223 -834.144)"/><path d="M615.636,860.1a.674.674,0,0,1-.145.084A.25.25,0,0,1,615.636,860.1Z" transform="translate(-581.671 -834.141)"/></g></g><g transform="translate(9.282)"><path class="m" d="M608.306,851.232a2.187,2.187,0,1,1-2.188-2.186A2.188,2.188,0,0,1,608.306,851.232Z" transform="translate(-603.932 -834.328)"/><path class="m" d="M614.755,851.232a2.188,2.188,0,1,1-2.188-2.186A2.188,2.188,0,0,1,614.755,851.232Z" transform="translate(-595.791 -834.328)"/><path class="j" d="M607.207,850.839a1.482,1.482,0,1,1-1.482-1.482A1.481,1.481,0,0,1,607.207,850.839Z" transform="translate(-603.539 -833.936)"/><circle class="j" cx="1.482" cy="1.482" r="1.482" transform="translate(15.295 15.422)"/><path class="n" d="M619.955,859.767a.834.834,0,0,1-.835-.835,41.506,41.506,0,0,0-1.247-7.863c-.84-3.129-2.392-6.856-5.014-6.856-4.845,0-6.659,12.224-6.659,14.72a.835.835,0,0,1-1.67,0c0-.163,1.016-16.39,8.33-16.39,7.089,0,7.931,16.227,7.931,16.39A.834.834,0,0,1,619.955,859.767Z" transform="translate(-603.178 -842.542)"/></g></g></g><g transform="translate(96.922 461.526)"><rect class="b" width="52.871" height="52.871" transform="translate(1.13 1.132)"/><path class="j" d="M679.94,894.416H624.808V839.282H679.94Zm-52.869-2.263h50.606V841.545H627.071Z" transform="translate(-624.808 -839.282)"/><g transform="translate(8.8 7.377)"><g transform="translate(0 13.754)"><path class="f" d="M660.662,875.385h-26.4c-7.135,0-5.99-5.707-4.279-11.7s4.247-15.068,10.622-15.068h13.71c6.377,0,8.911,9.076,10.624,15.068S667.8,875.385,660.662,875.385Z" transform="translate(-628.697 -848.62)"/><g class="l" transform="translate(1.619 0.016)"><path d="M633.935,848.9a.273.273,0,1,1-.274-.272A.273.273,0,0,1,633.935,848.9Z" transform="translate(-624.39 -848.627)"/><path d="M635.924,848.9a.273.273,0,1,1-.272-.272A.273.273,0,0,1,635.924,848.9Z" transform="translate(-621.879 -848.627)"/><path d="M637.914,848.9a.274.274,0,1,1-.274-.272A.273.273,0,0,1,637.914,848.9Z" transform="translate(-619.369 -848.627)"/><path d="M639.9,848.9a.273.273,0,1,1-.274-.272A.273.273,0,0,1,639.9,848.9Z" transform="translate(-616.857 -848.627)"/><path d="M631.946,851.455a.273.273,0,1,1-.272-.272A.273.273,0,0,1,631.946,851.455Z" transform="translate(-626.902 -845.399)"/><path d="M633.935,851.455a.273.273,0,1,1-.274-.272A.273.273,0,0,1,633.935,851.455Z" transform="translate(-624.39 -845.399)"/><path d="M635.924,851.455a.273.273,0,1,1-.272-.272A.273.273,0,0,1,635.924,851.455Z" transform="translate(-621.879 -845.399)"/><path d="M637.914,851.455a.274.274,0,1,1-.274-.272A.273.273,0,0,1,637.914,851.455Z" transform="translate(-619.369 -845.399)"/><path d="M639.9,851.455a.273.273,0,1,1-.274-.272A.273.273,0,0,1,639.9,851.455Z" transform="translate(-616.857 -845.399)"/><path d="M641.888,851.455a.273.273,0,1,1-.272-.272A.271.271,0,0,1,641.888,851.455Z" transform="translate(-614.347 -845.399)"/><path d="M632.94,850.146a.273.273,0,1,1-.271-.274A.272.272,0,0,1,632.94,850.146Z" transform="translate(-625.646 -847.055)"/><circle cx="0.273" cy="0.273" r="0.273" transform="translate(11.249 2.818)"/><circle cx="0.273" cy="0.273" r="0.273" transform="translate(15.749 2.818)"/><circle cx="0.273" cy="0.273" r="0.273" transform="translate(20.248 2.818)"/><circle cx="0.273" cy="0.273" r="0.273" transform="translate(24.748 2.818)"/><path d="M642.843,850.275a.256.256,0,0,1-.233.136.27.27,0,0,1-.272-.269.278.278,0,0,1,.188-.265C642.634,850.008,642.739,850.137,642.843,850.275Z" transform="translate(-613.09 -847.049)"/><path d="M631.946,854.011a.273.273,0,1,1-.272-.272A.273.273,0,0,1,631.946,854.011Z" transform="translate(-626.902 -842.171)"/><path d="M633.935,854.011a.273.273,0,1,1-.274-.272A.273.273,0,0,1,633.935,854.011Z" transform="translate(-624.39 -842.171)"/><path d="M635.924,854.011a.273.273,0,1,1-.272-.272A.273.273,0,0,1,635.924,854.011Z" transform="translate(-621.879 -842.171)"/><path d="M637.914,854.011a.274.274,0,1,1-.274-.272A.273.273,0,0,1,637.914,854.011Z" transform="translate(-619.369 -842.171)"/><path d="M639.9,854.011a.273.273,0,1,1-.274-.272A.273.273,0,0,1,639.9,854.011Z" transform="translate(-616.857 -842.171)"/><path d="M641.888,854.011a.273.273,0,1,1-.272-.272A.271.271,0,0,1,641.888,854.011Z" transform="translate(-614.347 -842.171)"/><path d="M643.878,854.011a.273.273,0,1,1-.274-.272A.273.273,0,0,1,643.878,854.011Z" transform="translate(-611.835 -842.171)"/><path d="M630.952,852.7a.273.273,0,1,1-.274-.274A.273.273,0,0,1,630.952,852.7Z" transform="translate(-628.157 -843.827)"/><path d="M632.94,852.7a.273.273,0,1,1-.271-.274A.272.272,0,0,1,632.94,852.7Z" transform="translate(-625.646 -843.827)"/><circle cx="0.273" cy="0.273" r="0.273" transform="translate(11.249 8.601)"/><circle cx="0.273" cy="0.273" r="0.273" transform="translate(15.749 8.601)"/><circle cx="0.273" cy="0.273" r="0.273" transform="translate(20.248 8.601)"/><circle cx="0.273" cy="0.273" r="0.273" transform="translate(24.748 8.601)"/><path d="M642.883,852.7a.273.273,0,1,1-.274-.274A.273.273,0,0,1,642.883,852.7Z" transform="translate(-613.09 -843.827)"/><path d="M629.958,856.567a.273.273,0,1,1-.274-.272A.273.273,0,0,1,629.958,856.567Z" transform="translate(-629.412 -838.944)"/><path d="M631.946,856.567a.273.273,0,1,1-.272-.272A.273.273,0,0,1,631.946,856.567Z" transform="translate(-626.902 -838.944)"/><path d="M633.935,856.567a.273.273,0,1,1-.274-.272A.273.273,0,0,1,633.935,856.567Z" transform="translate(-624.39 -838.944)"/><path d="M635.924,856.567a.273.273,0,1,1-.272-.272A.273.273,0,0,1,635.924,856.567Z" transform="translate(-621.879 -838.944)"/><path d="M637.914,856.567a.274.274,0,1,1-.274-.272A.273.273,0,0,1,637.914,856.567Z" transform="translate(-619.369 -838.944)"/><path d="M639.9,856.567a.273.273,0,1,1-.274-.272A.273.273,0,0,1,639.9,856.567Z" transform="translate(-616.857 -838.944)"/><path d="M641.888,856.567a.273.273,0,1,1-.272-.272A.271.271,0,0,1,641.888,856.567Z" transform="translate(-614.347 -838.944)"/><path d="M643.878,856.567a.273.273,0,1,1-.274-.272A.273.273,0,0,1,643.878,856.567Z" transform="translate(-611.835 -838.944)"/><path d="M630.952,855.256a.273.273,0,1,1-.274-.272A.273.273,0,0,1,630.952,855.256Z" transform="translate(-628.157 -840.599)"/><path d="M632.94,855.256a.273.273,0,1,1-.271-.272A.273.273,0,0,1,632.94,855.256Z" transform="translate(-625.646 -840.599)"/><circle cx="0.273" cy="0.273" r="0.273" transform="translate(11.249 14.385)"/><circle cx="0.273" cy="0.273" r="0.273" transform="translate(15.749 14.385)"/><circle cx="0.273" cy="0.273" r="0.273" transform="translate(20.248 14.385)"/><circle cx="0.273" cy="0.273" r="0.273" transform="translate(24.748 14.385)"/><path d="M642.883,855.256a.273.273,0,1,1-.274-.272A.273.273,0,0,1,642.883,855.256Z" transform="translate(-613.09 -840.599)"/><circle cx="0.273" cy="0.273" r="0.273" transform="translate(33.747 14.385)"/><circle cx="0.273" cy="0.273" r="0.273" transform="translate(0 23.134)"/><circle cx="0.273" cy="0.273" r="0.273" transform="translate(4.5 23.134)"/><circle cx="0.273" cy="0.273" r="0.273" transform="translate(8.999 23.134)"/><path d="M635.924,859.123a.273.273,0,1,1-.272-.272A.273.273,0,0,1,635.924,859.123Z" transform="translate(-621.879 -835.716)"/><path d="M637.914,859.123a.274.274,0,1,1-.274-.272A.273.273,0,0,1,637.914,859.123Z" transform="translate(-619.369 -835.716)"/><path d="M639.9,859.123a.273.273,0,1,1-.274-.272A.273.273,0,0,1,639.9,859.123Z" transform="translate(-616.857 -835.716)"/><path d="M641.888,859.123a.273.273,0,1,1-.272-.272A.271.271,0,0,1,641.888,859.123Z" transform="translate(-614.347 -835.716)"/><path d="M643.878,859.123a.273.273,0,1,1-.274-.272A.273.273,0,0,1,643.878,859.123Z" transform="translate(-611.835 -835.716)"/><path d="M630.952,857.812a.273.273,0,1,1-.274-.272A.273.273,0,0,1,630.952,857.812Z" transform="translate(-628.157 -837.372)"/><path d="M632.94,857.812a.273.273,0,1,1-.271-.272A.273.273,0,0,1,632.94,857.812Z" transform="translate(-625.646 -837.372)"/><circle cx="0.273" cy="0.273" r="0.273" transform="translate(11.249 20.168)"/><circle cx="0.273" cy="0.273" r="0.273" transform="translate(15.749 20.168)"/><circle cx="0.273" cy="0.273" r="0.273" transform="translate(20.248 20.168)"/><circle cx="0.273" cy="0.273" r="0.273" transform="translate(24.748 20.168)"/><path d="M642.883,857.812a.273.273,0,1,1-.274-.272A.273.273,0,0,1,642.883,857.812Z" transform="translate(-613.09 -837.372)"/><circle cx="0.273" cy="0.273" r="0.273" transform="translate(33.747 20.168)"/><path d="M630.952,860.368a.273.273,0,1,1-.274-.272A.273.273,0,0,1,630.952,860.368Z" transform="translate(-628.157 -834.144)"/><path d="M632.94,860.368a.273.273,0,1,1-.271-.272A.273.273,0,0,1,632.94,860.368Z" transform="translate(-625.646 -834.144)"/><circle cx="0.273" cy="0.273" r="0.273" transform="translate(11.249 25.952)"/><circle cx="0.273" cy="0.273" r="0.273" transform="translate(15.749 25.952)"/><circle cx="0.273" cy="0.273" r="0.273" transform="translate(20.248 25.952)"/><circle cx="0.273" cy="0.273" r="0.273" transform="translate(24.748 25.952)"/><path d="M642.883,860.368a.273.273,0,1,1-.274-.272A.273.273,0,0,1,642.883,860.368Z" transform="translate(-613.09 -834.144)"/><path d="M644.5,860.1a.672.672,0,0,1-.145.084A.264.264,0,0,1,644.5,860.1Z" transform="translate(-610.539 -834.141)"/></g></g><g transform="translate(9.282)"><path class="m" d="M637.173,851.232a2.187,2.187,0,1,1-2.186-2.186A2.186,2.186,0,0,1,637.173,851.232Z" transform="translate(-632.799 -834.328)"/><path class="m" d="M643.621,851.232a2.187,2.187,0,1,1-2.188-2.186A2.188,2.188,0,0,1,643.621,851.232Z" transform="translate(-624.656 -834.328)"/><circle class="j" cx="1.482" cy="1.482" r="1.482" transform="translate(0.705 15.422)"/><circle class="j" cx="1.482" cy="1.482" r="1.482" transform="translate(15.295 15.422)"/><path class="f" d="M648.821,859.767a.834.834,0,0,1-.833-.835,41.59,41.59,0,0,0-1.249-7.863c-.84-3.129-2.39-6.856-5.014-6.856-4.845,0-6.66,12.224-6.66,14.72a.834.834,0,1,1-1.668,0c0-.163,1.014-16.39,8.327-16.39,7.092,0,7.931,16.227,7.931,16.39A.834.834,0,0,1,648.821,859.767Z" transform="translate(-632.044 -842.542)"/></g></g></g><g transform="translate(163.373 462.658)"><rect class="b" width="52.871" height="52.871"/><g transform="translate(7.669 6.245)"><g transform="translate(0 13.754)"><path class="d" d="M689.529,875.385h-26.4c-7.135,0-5.99-5.707-4.279-11.7s4.247-15.068,10.624-15.068h13.711c6.374,0,8.911,9.076,10.622,15.068S696.664,875.385,689.529,875.385Z" transform="translate(-657.564 -848.62)"/><g class="l" transform="translate(1.62 0.016)"><path d="M662.8,848.9a.273.273,0,1,1-.274-.272A.273.273,0,0,1,662.8,848.9Z" transform="translate(-653.258 -848.627)"/><path d="M664.79,848.9a.273.273,0,1,1-.272-.272A.273.273,0,0,1,664.79,848.9Z" transform="translate(-650.747 -848.627)"/><path d="M666.779,848.9a.273.273,0,1,1-.274-.272A.273.273,0,0,1,666.779,848.9Z" transform="translate(-648.236 -848.627)"/><path d="M668.767,848.9a.273.273,0,1,1-.271-.272A.273.273,0,0,1,668.767,848.9Z" transform="translate(-645.725 -848.627)"/><path d="M660.813,851.455a.273.273,0,1,1-.272-.272A.273.273,0,0,1,660.813,851.455Z" transform="translate(-655.77 -845.399)"/><path d="M662.8,851.455a.273.273,0,1,1-.274-.272A.273.273,0,0,1,662.8,851.455Z" transform="translate(-653.258 -845.399)"/><path d="M664.79,851.455a.273.273,0,1,1-.272-.272A.273.273,0,0,1,664.79,851.455Z" transform="translate(-650.747 -845.399)"/><path d="M666.779,851.455a.273.273,0,1,1-.274-.272A.273.273,0,0,1,666.779,851.455Z" transform="translate(-648.236 -845.399)"/><path d="M668.767,851.455a.273.273,0,1,1-.271-.272A.273.273,0,0,1,668.767,851.455Z" transform="translate(-645.725 -845.399)"/><path d="M670.756,851.455a.273.273,0,1,1-.274-.272A.273.273,0,0,1,670.756,851.455Z" transform="translate(-643.213 -845.399)"/><path d="M661.81,850.146a.274.274,0,1,1-.274-.274A.273.273,0,0,1,661.81,850.146Z" transform="translate(-654.514 -847.055)"/><path d="M663.8,850.146a.273.273,0,1,1-.274-.274A.273.273,0,0,1,663.8,850.146Z" transform="translate(-652.003 -847.055)"/><path d="M665.784,850.146a.273.273,0,1,1-.271-.274A.271.271,0,0,1,665.784,850.146Z" transform="translate(-649.492 -847.055)"/><path d="M667.773,850.146a.273.273,0,1,1-.274-.274A.273.273,0,0,1,667.773,850.146Z" transform="translate(-646.98 -847.055)"/><path d="M669.761,850.146a.273.273,0,1,1-.272-.274A.271.271,0,0,1,669.761,850.146Z" transform="translate(-644.47 -847.055)"/><path d="M671.712,850.275a.26.26,0,0,1-.235.136.27.27,0,0,1-.272-.269.278.278,0,0,1,.188-.265C671.5,850.008,671.606,850.137,671.712,850.275Z" transform="translate(-641.958 -847.049)"/><path d="M660.813,854.011a.273.273,0,1,1-.272-.272A.273.273,0,0,1,660.813,854.011Z" transform="translate(-655.77 -842.171)"/><path d="M662.8,854.011a.273.273,0,1,1-.274-.272A.273.273,0,0,1,662.8,854.011Z" transform="translate(-653.258 -842.171)"/><path d="M664.79,854.011a.273.273,0,1,1-.272-.272A.273.273,0,0,1,664.79,854.011Z" transform="translate(-650.747 -842.171)"/><path d="M666.779,854.011a.273.273,0,1,1-.274-.272A.273.273,0,0,1,666.779,854.011Z" transform="translate(-648.236 -842.171)"/><path d="M668.767,854.011a.273.273,0,1,1-.271-.272A.273.273,0,0,1,668.767,854.011Z" transform="translate(-645.725 -842.171)"/><path d="M670.756,854.011a.273.273,0,1,1-.274-.272A.273.273,0,0,1,670.756,854.011Z" transform="translate(-643.213 -842.171)"/><path d="M672.745,854.011a.273.273,0,1,1-.272-.272A.273.273,0,0,1,672.745,854.011Z" transform="translate(-640.703 -842.171)"/><circle cx="0.273" cy="0.273" r="0.273" transform="translate(2.249 8.601)"/><path d="M661.81,852.7a.274.274,0,1,1-.274-.274A.273.273,0,0,1,661.81,852.7Z" transform="translate(-654.514 -843.827)"/><path d="M663.8,852.7a.273.273,0,1,1-.274-.274A.273.273,0,0,1,663.8,852.7Z" transform="translate(-652.003 -843.827)"/><path d="M665.784,852.7a.273.273,0,1,1-.271-.274A.271.271,0,0,1,665.784,852.7Z" transform="translate(-649.492 -843.827)"/><path d="M667.773,852.7a.273.273,0,1,1-.274-.274A.273.273,0,0,1,667.773,852.7Z" transform="translate(-646.98 -843.827)"/><path d="M669.761,852.7a.273.273,0,1,1-.272-.274A.271.271,0,0,1,669.761,852.7Z" transform="translate(-644.47 -843.827)"/><path d="M671.75,852.7a.273.273,0,1,1-.274-.274A.273.273,0,0,1,671.75,852.7Z" transform="translate(-641.958 -843.827)"/><path d="M658.825,856.567a.273.273,0,1,1-.274-.272A.273.273,0,0,1,658.825,856.567Z" transform="translate(-658.28 -838.944)"/><path d="M660.813,856.567a.273.273,0,1,1-.272-.272A.273.273,0,0,1,660.813,856.567Z" transform="translate(-655.77 -838.944)"/><path d="M662.8,856.567a.273.273,0,1,1-.274-.272A.273.273,0,0,1,662.8,856.567Z" transform="translate(-653.258 -838.944)"/><path d="M664.79,856.567a.273.273,0,1,1-.272-.272A.273.273,0,0,1,664.79,856.567Z" transform="translate(-650.747 -838.944)"/><path d="M666.779,856.567a.273.273,0,1,1-.274-.272A.273.273,0,0,1,666.779,856.567Z" transform="translate(-648.236 -838.944)"/><path d="M668.767,856.567a.273.273,0,1,1-.271-.272A.273.273,0,0,1,668.767,856.567Z" transform="translate(-645.725 -838.944)"/><path d="M670.756,856.567a.273.273,0,1,1-.274-.272A.273.273,0,0,1,670.756,856.567Z" transform="translate(-643.213 -838.944)"/><path d="M672.745,856.567a.273.273,0,1,1-.272-.272A.273.273,0,0,1,672.745,856.567Z" transform="translate(-640.703 -838.944)"/><circle cx="0.273" cy="0.273" r="0.273" transform="translate(2.249 14.385)"/><path d="M661.81,855.256a.274.274,0,1,1-.274-.272A.273.273,0,0,1,661.81,855.256Z" transform="translate(-654.514 -840.599)"/><path d="M663.8,855.256a.273.273,0,1,1-.274-.272A.273.273,0,0,1,663.8,855.256Z" transform="translate(-652.003 -840.599)"/><path d="M665.784,855.256a.273.273,0,1,1-.271-.272A.271.271,0,0,1,665.784,855.256Z" transform="translate(-649.492 -840.599)"/><path d="M667.773,855.256a.273.273,0,1,1-.274-.272A.273.273,0,0,1,667.773,855.256Z" transform="translate(-646.98 -840.599)"/><path d="M669.761,855.256a.273.273,0,1,1-.272-.272A.271.271,0,0,1,669.761,855.256Z" transform="translate(-644.47 -840.599)"/><path d="M671.75,855.256a.273.273,0,1,1-.274-.272A.273.273,0,0,1,671.75,855.256Z" transform="translate(-641.958 -840.599)"/><path d="M673.738,855.256a.273.273,0,1,1-.272-.272A.273.273,0,0,1,673.738,855.256Z" transform="translate(-639.447 -840.599)"/><path d="M658.825,859.123a.273.273,0,1,1-.274-.272A.273.273,0,0,1,658.825,859.123Z" transform="translate(-658.28 -835.716)"/><circle cx="0.273" cy="0.273" r="0.273" transform="translate(4.499 23.134)"/><circle cx="0.273" cy="0.273" r="0.273" transform="translate(8.999 23.134)"/><circle cx="0.273" cy="0.273" r="0.273" transform="translate(13.498 23.134)"/><circle cx="0.273" cy="0.273" r="0.273" transform="translate(17.998 23.134)"/><path d="M668.767,859.123a.273.273,0,1,1-.271-.272A.273.273,0,0,1,668.767,859.123Z" transform="translate(-645.725 -835.716)"/><circle cx="0.273" cy="0.273" r="0.273" transform="translate(26.997 23.134)"/><circle cx="0.273" cy="0.273" r="0.273" transform="translate(31.497 23.134)"/><circle cx="0.273" cy="0.273" r="0.273" transform="translate(2.249 20.168)"/><path d="M661.81,857.812a.274.274,0,1,1-.274-.272A.273.273,0,0,1,661.81,857.812Z" transform="translate(-654.514 -837.372)"/><path d="M663.8,857.812a.273.273,0,1,1-.274-.272A.273.273,0,0,1,663.8,857.812Z" transform="translate(-652.003 -837.372)"/><path d="M665.784,857.812a.273.273,0,1,1-.271-.272A.271.271,0,0,1,665.784,857.812Z" transform="translate(-649.492 -837.372)"/><path d="M667.773,857.812a.273.273,0,1,1-.274-.272A.273.273,0,0,1,667.773,857.812Z" transform="translate(-646.98 -837.372)"/><path d="M669.761,857.812a.273.273,0,1,1-.272-.272A.272.272,0,0,1,669.761,857.812Z" transform="translate(-644.47 -837.372)"/><path d="M671.75,857.812a.273.273,0,1,1-.274-.272A.273.273,0,0,1,671.75,857.812Z" transform="translate(-641.958 -837.372)"/><path d="M673.738,857.812a.273.273,0,1,1-.272-.272A.273.273,0,0,1,673.738,857.812Z" transform="translate(-639.447 -837.372)"/><circle cx="0.273" cy="0.273" r="0.273" transform="translate(2.249 25.952)"/><path d="M661.81,860.368a.274.274,0,1,1-.274-.272A.273.273,0,0,1,661.81,860.368Z" transform="translate(-654.514 -834.144)"/><path d="M663.8,860.368a.273.273,0,1,1-.274-.272A.273.273,0,0,1,663.8,860.368Z" transform="translate(-652.003 -834.144)"/><path d="M665.784,860.368a.273.273,0,1,1-.271-.272A.271.271,0,0,1,665.784,860.368Z" transform="translate(-649.492 -834.144)"/><path d="M667.773,860.368a.273.273,0,1,1-.274-.272A.273.273,0,0,1,667.773,860.368Z" transform="translate(-646.98 -834.144)"/><path d="M669.761,860.368a.273.273,0,1,1-.272-.272A.271.271,0,0,1,669.761,860.368Z" transform="translate(-644.47 -834.144)"/><path d="M671.75,860.368a.273.273,0,1,1-.274-.272A.273.273,0,0,1,671.75,860.368Z" transform="translate(-641.958 -834.144)"/><path d="M673.372,860.1a.747.747,0,0,1-.147.084A.263.263,0,0,1,673.372,860.1Z" transform="translate(-639.407 -834.141)"/></g></g><g transform="translate(9.282)"><path class="m" d="M666.042,851.232a2.188,2.188,0,1,1-2.188-2.186A2.188,2.188,0,0,1,666.042,851.232Z" transform="translate(-661.666 -834.328)"/><path class="m" d="M672.488,851.232a2.187,2.187,0,1,1-2.186-2.186A2.186,2.186,0,0,1,672.488,851.232Z" transform="translate(-653.523 -834.328)"/><circle class="j" cx="1.482" cy="1.482" r="1.482" transform="translate(0.706 15.422)"/><circle class="j" cx="1.482" cy="1.482" r="1.482" transform="translate(15.296 15.422)"/><path class="d" d="M677.69,859.767a.834.834,0,0,1-.835-.835,41.731,41.731,0,0,0-1.247-7.863c-.842-3.129-2.392-6.856-5.017-6.856-4.845,0-6.657,12.224-6.657,14.72a.835.835,0,0,1-1.67,0c0-.163,1.014-16.39,8.327-16.39,7.092,0,7.934,16.227,7.934,16.39A.836.836,0,0,1,677.69,859.767Z" transform="translate(-660.911 -842.542)"/></g></g></g></g></g><g transform="translate(364.464 1130.131)"><path class="k" d="M445.387,1216.075l332.12,1.43c80.727-63.389,89.063-157.3,31.474-214.227-34.857-34.434-79.115-27.487-121.258-32.963-.041,0-.081-.021-.122-.021-14.679-1.912-29.075-5.336-42.747-12.545C601.459,934.857,577,880.852,540.49,835.426q-6.826-8.55-14.3-16.573c-30.023-32.055-89.776-33.1-121.03,11.968C325.749,945.332,362.126,1115.771,445.387,1216.075Z" transform="translate(-360.995 -795.77)"/><path class="c" d="M395.318,936.455c8.7,136.259,166.06,187.123,264.344,146.308,85.456-35.5,57.487-116.507-14.638-130.059-.041,0-.081-.02-.122-.02-14.679-1.912-29.075-5.336-42.747-12.545-43.394-22.893-67.858-76.9-104.364-122.324C443.4,789.563,388.935,836.682,395.318,936.455Z" transform="translate(-318.296 -778.159)"/></g><g transform="translate(480.76 1064.056)"><g transform="translate(48.164 160.712)"><g transform="translate(101 127.948)"><path class="o" d="M601.754,1112.486c-5.139-1.883-121.213-94.65-123.406-100.986-.842-2.4,11.681-20.089,27.423-41.039,3.4-4.526,6.936-9.176,10.554-13.88,23.459-30.562,49.06-62.445,49.06-62.445l77.828,61.83-51.206,60.743-11.228,13.344s28.555,55.394,30.211,62.6C612.625,1099.841,606.893,1114.371,601.754,1112.486Z" transform="translate(-478.308 -894.136)"/><path class="g" d="M601.754,1077.637c-5.139-1.883-121.213-94.65-123.406-100.986-1.014-2.924,17.684-28.437,37.977-54.919l75.683,60.128L580.78,995.2s28.555,55.394,30.211,62.6C612.625,1064.992,606.893,1079.522,601.754,1077.637Z" transform="translate(-478.308 -859.287)"/><g transform="translate(0 76.325)"><path class="e" d="M601.754,1069.891c-5.139-1.883-121.213-94.65-123.406-100.986-.842-2.4,11.681-20.089,27.423-41.039l75.008,59.591s28.555,55.394,30.211,62.6C612.625,1057.246,606.893,1071.776,601.754,1069.891Z" transform="translate(-478.308 -927.866)"/><g transform="translate(7.714 26.336)"><path class="j" d="M599.495,1040.069c-19.076-16.028-97.528-78.873-117.6-93.267-.163-.118-.249-.011-.1.122,18.56,16.3,97.519,78.507,117.446,93.464C599.66,1040.7,599.9,1040.408,599.495,1040.069Z" transform="translate(-481.717 -930.354)"/><path class="j" d="M550.807,980.028a20.015,20.015,0,0,0-15.437-4.55c-4.528.708-9.565,2.77-12.651,6.913-.088.12.122.294.235.188,7.2-6.725,19.467-7.879,27.659-2.306A.156.156,0,0,0,550.807,980.028Z" transform="translate(-429.966 -894.315)"/><path class="j" d="M542.479,962.747c-7.7-6.334-18.929-10.8-28.858-8.3-.385.1-.242.641.086.706a137.846,137.846,0,0,1,28.138,8.658A.627.627,0,0,0,542.479,962.747Z" transform="translate(-441.72 -921.524)"/><path class="j" d="M544.308,965.906c-7.7-6.334-18.929-10.8-28.858-8.3-.385.1-.242.643.086.708a137.758,137.758,0,0,1,28.141,8.655A.627.627,0,0,0,544.308,965.906Z" transform="translate(-439.41 -917.535)"/><path class="j" d="M546.137,969.065c-7.7-6.332-18.929-10.8-28.858-8.3-.385.1-.24.643.086.708a137.732,137.732,0,0,1,28.141,8.655A.627.627,0,0,0,546.137,969.065Z" transform="translate(-437.1 -913.546)"/><path class="j" d="M547.965,972.224c-7.7-6.331-18.926-10.8-28.858-8.3-.385.1-.24.643.086.708a137.852,137.852,0,0,1,28.141,8.655A.627.627,0,0,0,547.965,972.224Z" transform="translate(-434.79 -909.556)"/><path class="g" d="M498.361,941.432c-8.759-6.958-19.587,6.642-10.814,13.611C496.3,962,507.134,948.4,498.361,941.432Z" transform="translate(-478.458 -939.505)"/><path class="j" d="M557.989,955.061c-1.331-6.417-8.85-7.194-13.993-5.741A52.311,52.311,0,0,0,521,963.578a.263.263,0,0,0,.066.419,1.215,1.215,0,0,0,.9,1.747c8.61.6,17.74,2.3,26.278.235C553.227,964.775,559.244,961.132,557.989,955.061ZM535.2,963.979c-4.24-.192-8.447-.588-12.694-.622a156.242,156.242,0,0,1,13.611-8.033,56.381,56.381,0,0,1,7.042-2.978c3.749-1.222,16.6-1.62,10.6,7.472C550.453,964.83,540.261,964.2,535.2,963.979Z" transform="translate(-432.205 -927.894)"/><path class="j" d="M513.761,959.014c5.949,6.46,14.487,10.122,21.974,14.412a1.216,1.216,0,0,0,1.718-.953.262.262,0,0,0,.285-.31,52.264,52.264,0,0,0-11.185-24.635c-3.469-4.066-10.149-7.6-14.821-3.007C507.31,948.87,510.288,955.242,513.761,959.014Zm-1.161-8.189c.07-10.893,10.527-3.419,12.964-.319a56.113,56.113,0,0,1,4.2,6.39,156.776,156.776,0,0,1,6.85,14.245c-3.55-2.333-7.266-4.342-10.9-6.542C521.385,961.976,512.562,956.83,512.6,950.825Z" transform="translate(-446.619 -935.907)"/></g></g></g><path class="p" d="M778.186,908.477c-5.333,40.437-104.98,157.158-116.5,170.545l-2.623,3.048-82.424-63.343.948-1.222,72.585-95.039-216.5-1.274,82.2-63.918s6.669,3.847,20.531,1.824c47.782-6.994,155.509-22.479,180.911-21.456C750.086,838.99,783.078,871.38,778.186,908.477Z" transform="translate(-433.674 -837.593)"/><path class="j" d="M557.419,859.509c-2.813,2.851-5.062,6.415-7.485,9.6-2.566,3.363-5.173,6.7-7.734,10.063l-.077.1c.455-.986.9-1.978,1.371-2.953,1.618-3.351,2.912-6.811,4.824-10.013a.176.176,0,0,0-.3-.183c-1.964,3.179-4.245,6.2-5.929,9.547-.792,1.577-1.541,3.168-2.24,4.788-.382.887-.774,1.774-1.118,2.677a12.878,12.878,0,0,0-.471,1.294c-1.147,1.561-2.283,3.132-3.385,4.727-2.444,3.541-4.6,7.282-7.074,10.8-.133.188.165.362.3.183,2.5-3.3,5.313-6.381,7.859-9.658,2.589-3.335,5.048-6.766,7.474-10.221,2.367-3.372,4.686-6.777,7.051-10.151,2.381-3.4,5.207-6.752,7.139-10.427C557.691,859.546,557.53,859.4,557.419,859.509Z" transform="translate(-314.85 -809.966)"/></g><g transform="translate(8.885)"><path class="j" d="M467.553,773.72c-17.175,13.521-34.162,101.877-40.812,111.642-4.7,6.9-10.572,13.821-10.307,17.7s16.754,23.029,47.9,29.059,61.877-8.848,65-12.767-5.1-17.349-4.784-29.471,11.092-78.265,4.48-97.992C521.547,769.548,487.224,758.236,467.553,773.72Z" transform="translate(-416.177 -766.57)"/><path class="j" d="M472.569,907.579a57.711,57.711,0,0,1-4.686-25c.177-9.66,1.412-19.327,2.48-28.923q1.69-15.179,3.363-30.363c.978-8.941,2.19-17.965.6-26.885A50.091,50.091,0,0,0,463.3,772.959c-.081-.095-.244.011-.165.113a53.24,53.24,0,0,1,10.242,23.416c1.618,9.56.061,19.318-1.016,28.878q-1.68,14.891-3.308,29.786c-1,9.133-2.127,18.324-2.229,27.516-.1,8.465.749,17.883,5.248,25.172C472.234,908.109,472.7,907.883,472.569,907.579Z" transform="translate(-357.223 -758.55)"/><path class="j" d="M470.375,769.477c-7.954,4.322-11.859,12.873-15.032,21.09-4.313,11.165-8.257,22.479-11.979,33.859-3.842,11.742-7.019,23.685-10.782,35.445s-9.364,21.943-16.222,32.094c-.154.231.134.511.321.292,14.824-17.34,19.395-40.806,26.186-62.049q5.638-17.636,11.875-35.076c3.376-9.4,6.852-20.06,15.758-25.464C470.627,769.591,470.5,769.41,470.375,769.477Z" transform="translate(-416.316 -762.918)"/><path class="j" d="M475.952,768.052c-16.659,6.526-23.248,25.156-28.62,41.071-6.381,18.908-10.972,38.35-16.587,57.489-3.161,10.778-6.015,22.5-13.018,31.46-.215.274.17.625.4.357,5.4-6.4,8.146-14.4,10.7-22.3,3.066-9.47,5.723-19.071,8.366-28.668,5.238-19.01,10.036-38.629,18.238-56.6,4.317-9.461,10.76-18.7,20.583-22.619C476.126,768.188,476.065,768.007,475.952,768.052Z" transform="translate(-414.613 -764.708)"/></g><g transform="translate(69.288 99.209)"><path class="o" d="M448.466,834.15c14.672,21.069,64.982,75.739,99.768,83.666,19.168,4.369,111.793,17.324,124.487,5.777,14.869-13.527,7.972-64.525-3.847-64.991-36.076-1.417-102.841,5.643-119.518,1.96-7.544-1.665-47.531-27.455-90.23-48.085C442.979,804.674,439,820.555,448.466,834.15Z" transform="translate(-442.504 -810.413)"/><path class="e" d="M649.739,855.734,643.55,932.08s-84.042-1.326-109.413-15.593-66.667-50.649-82.469-75.932-10.518-39.079,20.325-23.529,72.481,40.509,77.937,41.826S649.739,855.734,649.739,855.734Z" transform="translate(-443.009 -810.347)"/><path class="j" d="M532.042,832.923c0-.2-.3-.276-.344-.061-1.041,5.238-1.471,10.631-2.066,15.939-.618,5.49-1.145,10.993-1.638,16.494-.984,10.968-2.141,22.006-2.482,33.015-.016.48.62.471.69.023,1.652-10.81,2.53-21.8,3.553-32.684.509-5.4.993-10.8,1.38-16.209C531.528,843.957,532.114,838.419,532.042,832.923Z" transform="translate(-338.823 -782.227)"/></g><g transform="translate(0 94.545)"><path class="e" d="M412.389,976.245C417,977.73,548.03,939.816,548.03,939.816l-15.473-45.494s7.639-14.629,4.091-28.7c-4.738-18.8-39.538-49.71-42.272-51.527-10.979-7.277-21.271-7.153-30.365-2.322C426.122,831.9,412.389,976.245,412.389,976.245Z" transform="translate(-412.389 -808.352)"/><path class="j" d="M456.746,818.161c3.374,3.928,7,7.662,10.481,11.509-1.627-2.867-3.238-5.743-4.971-8.549-.034-.057.041-.122.084-.066a64.081,64.081,0,0,1,6.646,10.581,88.114,88.114,0,0,1,7.223,9.221,41.16,41.16,0,0,1,5.951,12.686,34.772,34.772,0,0,1,.4,14.032,89.752,89.752,0,0,1-4.424,15.677c-.242.679-1.2.253-1.016-.412,2.462-8.884,5.252-18.266,3.277-27.527-1.951-9.151-7.691-16.928-13.265-24.212a129.247,129.247,0,0,0-10.66-12.717C456.312,818.222,456.6,817.987,456.746,818.161Z" transform="translate(-356.781 -796.042)"/></g><g transform="translate(49.396 3.197)"><g transform="translate(10.404 56.759)"><path class="o" d="M438.823,833.632c.52,2.378,11.6,17.917,22.438,17.564,3.53-.12,3.729-19.408,3.729-19.408l.342-1.421,4.747-19.886L443.5,793.066S438.617,832.623,438.823,833.632Z" transform="translate(-438.816 -793.066)"/><path class="j" d="M468.378,810.469l-4.75,19.89a41.089,41.089,0,0,1-23.466-23.782c.812-6.857,1.514-12.559,1.6-13.4a.4.4,0,0,0,.023-.113l3.372,2.037Z" transform="translate(-437.115 -793.064)"/></g><path class="o" d="M502.095,816c-2.249,35.812-23.952,38.511-31.675,38.016-7.01-.446-30.822-2.862-32.286-38.717s15.9-46.13,31.985-45.953S504.342,780.189,502.095,816Z" transform="translate(-429.384 -766.263)"/><g transform="translate(40.129 39.103)"><path class="j" d="M466.62,790.816a23.487,23.487,0,0,1-2.337-.826,4,4,0,0,1-2.22-1.3,1.279,1.279,0,0,1,.206-1.546,3.17,3.17,0,0,1,3.193-.319,4.647,4.647,0,0,1,2.675,2.016A1.36,1.36,0,0,1,466.62,790.816Z" transform="translate(-439.406 -783.637)"/><path class="j" d="M454.385,789.078a23.715,23.715,0,0,0,2.471-.188,4.011,4.011,0,0,0,2.485-.67,1.273,1.273,0,0,0,.2-1.545,3.169,3.169,0,0,0-2.994-1.147,4.656,4.656,0,0,0-3.111,1.245A1.363,1.363,0,0,0,454.385,789.078Z" transform="translate(-450.583 -784.938)"/><g transform="translate(0 6.627)"><g transform="translate(2.632 0.688)"><path class="j" d="M457.424,789.758c-.007-.1-.2.095-.211.195-.188,2.437-.815,5.2-3.1,5.761-.072.018-.079.14,0,.138C456.84,795.768,457.637,792.1,457.424,789.758Z" transform="translate(-451.926 -786.936)"/><path class="j" d="M456.724,788.544c-3.874-.724-5.039,7.076-1.45,7.748C458.806,796.952,459.971,789.152,456.724,788.544Z" transform="translate(-453.115 -788.496)"/></g><path class="j" d="M456.6,789.111c-.747.339-1.532,1.021-2.365.978-.964-.047-1.561-.971-2.064-1.851-.052-.09-.131-.032-.147.07-.247,1.494.1,3.111,1.67,3.573,1.43.423,2.677-.745,3.274-2.19C457.082,789.421,456.9,788.975,456.6,789.111Z" transform="translate(-451.952 -788.192)"/></g><g transform="translate(20.943 9.347)"><path class="j" d="M461.75,790.372c.034-.088.17.143.152.242-.455,2.4-.575,5.229,1.484,6.374.063.034.036.156-.043.131C460.738,796.326,460.933,792.574,461.75,790.372Z" transform="translate(-461.207 -788.184)"/><path class="j" d="M464.209,789.4c3.928.317,3.007,8.149-.634,7.857C460,796.97,460.914,789.136,464.209,789.4Z" transform="translate(-461.113 -789.394)"/><path class="j" d="M463.527,789.738c.57.489,1.093,1.315,1.826,1.45.851.158,1.584-.615,2.227-1.364.068-.077.122,0,.113.1-.136,1.5-.815,3.005-2.285,3.123-1.344.109-2.156-1.29-2.338-2.824C463.036,789.939,463.3,789.543,463.527,789.738Z" transform="translate(-458.859 -789.025)"/></g><path class="j" d="M454.2,799.033c.464.675.885,1.559,1.74,1.8a6.493,6.493,0,0,0,2.7-.1.085.085,0,0,1,.079.143,3.291,3.291,0,0,1-3.3.7,2.6,2.6,0,0,1-1.471-2.489C453.935,798.95,454.13,798.934,454.2,799.033Z" transform="translate(-449.437 -767.954)"/><g transform="translate(7.276)"><path class="j" d="M463.973,808.984s0,3.684-.231,5.388c-.023.161-.446.179-1.03.133-.029,0-.045.014-.068-.007a8.18,8.18,0,0,1-7.456-4.109.177.177,0,0,1,.285-.2,12.343,12.343,0,0,0,7.112,3.138c.186-.457-.215-6.309.059-6.293a14.986,14.986,0,0,1,3.752,1.41c.215-7.675-.8-15.319-.468-22.959a.234.234,0,0,1,.459-.047c1.632,7.938,1.575,16.774,1.557,24.7C467.952,811.129,464.616,809.366,463.973,808.984Z" transform="translate(-455.167 -785.264)"/></g></g><g transform="translate(7.257)"><path class="j" d="M438.638,818.958a14.829,14.829,0,0,0,10.647-10.074,38.689,38.689,0,0,0,18.082-9.112c-.391.674-3.216,5.548-4.732,7.986,23.219.609,33.784-15,33.784-15,5.693,8.775,6.15,13.706,6.7,16.238,0,0,3.1-13.663-1.982-24.341-6.214-13.075-18.431-13.462-18.431-13.462a32.266,32.266,0,0,0-32.845,2.883C431.98,786.774,438.638,818.958,438.638,818.958Z" transform="translate(-437.425 -767.983)"/><path class="j" d="M463.322,795.8a42.143,42.143,0,0,1-12.353,1.754c-.034,0-.032-.052,0-.052a35.811,35.811,0,0,0,18.51-6.4,33.954,33.954,0,0,0,6.259-5.7,23.487,23.487,0,0,0,4.79-7.877.177.177,0,0,1,.337.1,27.475,27.475,0,0,1-3.654,8.418,25.047,25.047,0,0,1-6.544,6.329,28.805,28.805,0,0,1-7.347,3.426" transform="translate(-420.352 -756.088)"/></g><g transform="translate(0 41.69)"><path class="o" d="M448.487,796.864s-6.08-12.242-11.52-10.235-2.032,18.938,3.537,22.02a6.068,6.068,0,0,0,8.526-2.016Z" transform="translate(-434.218 -786.407)"/><path class="j" d="M435.972,788.64c-.1-.022-.131.106-.054.154,3.883,2.3,5.485,6.46,6.413,10.667-1-1.715-2.55-2.806-4.82-1.649-.12.061-.043.244.077.237a3.731,3.731,0,0,1,3.87,1.9,18.121,18.121,0,0,1,1.45,3.58c.138.4.837.3.76-.147l-.02-.1C444.546,798.02,441.554,790.023,435.972,788.64Z" transform="translate(-432.126 -783.589)"/></g></g><g transform="translate(26.374 103.666)"><g transform="translate(1.024 0.5)"><path class="o" d="M428.944,838.455c-10.534,59.764-.351,104.532,9.8,110.076,27.333,14.923,92.955-15.349,111.469-21.361,7.486-2.432-26.625-59.664-34.262-56.134-18,8.313-43.211,22.434-44.227,22.327-2.027-.211-4.4-15.462-14.842-59.922C448.436,797.473,433.252,814.017,428.944,838.455Z" transform="translate(-424.497 -812.604)"/><g transform="translate(88.608 22.562)"><path class="o" d="M560.434,830.127c1.874,7.508-17.028,10.556-17.028,10.556s5.087,1.643,7.488,6.182c2.752,5.2-4.193,11.792-4.193,11.792a17.6,17.6,0,0,1,6.861,7.777c2.132,5.241-3.926,12.894-3.926,12.894a15.435,15.435,0,0,1,1.724,10.638c-2.315,9.642-17.091,13.437-25.774,17.593-9.3,4.451-24.692,6.087-31.675,9.23l-30.256-55.417s29.231-30.947,45.913-35.748C518.825,822.961,557.572,818.653,560.434,830.127Z" transform="translate(-463.655 -822.574)"/><g transform="translate(48.06 17.871)"><path class="j" d="M516.377,830.536c-10.52-.459-21.13,1.6-31.347,3.7a.181.181,0,0,0,.077.353c10.135-2.206,21.106-1.756,31.309-3.555A.254.254,0,0,0,516.377,830.536Z" transform="translate(-484.894 -830.471)"/><path class="j" d="M516.388,838.214a27.321,27.321,0,0,0-7.058,1.313q-3.693.954-7.354,2.032-7.332,2.152-14.548,4.671c-.213.075-.152.419.077.353,4.872-1.423,9.766-2.772,14.695-3.987q3.7-.913,7.413-1.765a32.749,32.749,0,0,0,6.92-1.935A.363.363,0,0,0,516.388,838.214Z" transform="translate(-481.859 -820.696)"/><path class="j" d="M516.317,847.684c-2.07-.111-4.34.9-6.291,1.521q-3.319,1.049-6.65,2.064c-4.44,1.351-8.882,2.7-13.367,3.894-.224.061-.149.412.077.353,4.564-1.19,9.142-2.319,13.695-3.553q3.353-.906,6.7-1.851c1.894-.534,4.324-.989,5.917-2.208A.126.126,0,0,0,516.317,847.684Z" transform="translate(-478.605 -808.746)"/></g></g></g><path class="e" d="M514.184,870.83l31.417,67.2s-97.51,28.451-110.741,11.332-12.305-70.96-6.1-108.209,22.966-37.961,30.3-4.288,11.656,54.932,12.977,54.745S514.184,870.83,514.184,870.83Z" transform="translate(-423.608 -812.383)"/><g transform="translate(0 39.894)"><path class="j" d="M458.637,842.254c-.1-.167-.4-.084-.328.124,1.749,5.046,4.1,9.916,6.268,14.8,2.243,5.048,4.566,10.065,6.92,15.064,4.691,9.961,9.271,20.071,14.536,29.745.229.421.774.09.606-.328-4.032-10.165-8.827-20.092-13.444-30.005-2.29-4.913-4.6-9.823-7-14.684C463.767,852.038,461.477,846.963,458.637,842.254Z" transform="translate(-380.787 -814.667)"/><path class="j" d="M494.511,926.85c-2.677-.077-5.537.9-8.164,1.365-2.815.5-5.639.946-8.474,1.317a160.354,160.354,0,0,1-16.555,1.419c-5.447.142-18.924-.67-23.067-4.428a26.072,26.072,0,0,1-7.049-12.138,177.585,177.585,0,0,1-3.344-19.155,249.02,249.02,0,0,1-1.279-41.032c.154-3.811.389-7.617.668-11.421.281-3.867.738-7.759.869-11.633a.134.134,0,0,0-.263-.03A138.567,138.567,0,0,0,425.27,849.9c-.233-3.928-.7-7.85-.769-11.785a.177.177,0,0,0-.353.009c.068,4.146-.21,8.282-.057,12.43.088,2.335.321,4.646.582,6.954q-.492,7.892-.421,15.808c.134,13.742,1.17,27.957,4.831,41.258,1.609,5.852,4.087,11.45,9.443,14.582,3.109,1.817,8.685,3.043,12.83,3.365a108.106,108.106,0,0,0,28.089-1.781c2.593-.484,5.175-1.027,7.746-1.613,2.408-.548,5.2-.874,7.393-2.032C494.708,927.031,494.633,926.855,494.511,926.85Z" transform="translate(-424.044 -828.745)"/><g transform="translate(38.456)"><path class="j" d="M464.621,838.442l.007.016v0Z" transform="translate(-411.26 -819.368)"/><path class="j" d="M493.021,847.295c-7.173,3.587-14.378,7.2-21.517,10.853-3.528,1.808-7.06,3.607-10.583,5.426-3.385,1.747-9.855,5.238-9.857,5.234-.077-1.616-1.315-6.311-2-9.336-.747-3.3-1.507-6.6-2.351-9.873-.219-.849-.464-1.7-.688-2.543-.154-1.575-.3-3.152-.441-4.729-.233-2.537-.455-5.13-.842-7.646a.07.07,0,0,0-.14,0,35.92,35.92,0,0,0,.043,7.264q-1.646-5.947-3.4-11.86c-.038-.131-.229-.07-.2.064,1.283,6.653,2.643,13.3,4.168,19.9.74,3.2,1.561,6.388,2.394,9.565.808,3.075,2.561,10.282,2.842,10.185a105.6,105.6,0,0,0,10.748-4.741q5.505-2.614,10.95-5.352c7.051-3.532,14.158-7.126,20.97-11.106a11.126,11.126,0,0,0,.527,1.016c.181.285.414-.21.33-.516C493.824,848.564,493.175,847.218,493.021,847.295Z" transform="translate(-441.039 -830.013)"/><path class="j" d="M464.624,838.449h0Z" transform="translate(-411.256 -819.359)"/></g></g></g><g transform="translate(178.676 97.09)"><path class="j" d="M491.35,939.524h91.886L623.53,809.477H531.644Z" transform="translate(-491.35 -809.477)"/><path class="n" d="M493.345,939.524h91.886l40.293-130.047H533.638Z" transform="translate(-488.831 -809.477)"/><path class="g" d="M536.966,841.4c-1.3,4.935-6.359,8.938-11.294,8.938s-7.882-4-6.58-8.938,6.359-8.938,11.3-8.938S538.269,836.462,536.966,841.4Z" transform="translate(-456.706 -780.454)"/><g transform="translate(81.625 45.608)"><path class="o" d="M568.349,829.632c4.5,8.246,16.374,18.39,17.591,25.264a8.008,8.008,0,0,1-3.967,8.694s7.1,3.055,7.175,9.477c.039,3.3-5.2,6.268-5.2,6.268s5.58,2.7,5.3,8.413c-.226,4.55-5.444,6.841-5.444,6.841s4.146,5.085,2.428,9.649c-3.482,9.253-42.546,11.441-49.384-2.611-3.188-6.549,6.381-6.565,6.381-6.565s-13.767-3.3-14.423-11.344,11.778-7.311,11.778-7.311-13.315-3.315-13.154-11.721c.168-8.753,12.482-5.89,12.482-5.89s-9.018-5.4-7.42-11.812c2.636-10.579,22.2,1.994,30.666-.525Z" transform="translate(-527.422 -829.632)"/><g transform="translate(11.303 28.332)"><path class="j" d="M574.653,858.973a.1.1,0,0,1,.05.2c-12.674,3.851-27.776,4.2-40.373-.145-.414-.143-.362-.876.125-.806C548.293,860.213,560.735,860.878,574.653,858.973Z" transform="translate(-530.355 -821.866)"/><path class="j" d="M577.3,853.5c.152-.023.188.228.032.276-13.081,3.894-30.1,3.817-44.035-2.9-.478-.228-.674-.914-.1-.692C542.791,853.952,564.774,855.282,577.3,853.5Z" transform="translate(-531.883 -832.059)"/><path class="j" d="M532.735,842.174c13.606,5.924,27.74,6.888,42.4,5.791.19-.014.19.258.034.312-7.026,2.491-16.444,2.215-23.753,1.383a39.124,39.124,0,0,1-18.892-7.008C532.305,842.493,532.444,842.05,532.735,842.174Z" transform="translate(-532.418 -842.152)"/></g></g></g><g transform="translate(2.447 188.557)"><g transform="translate(352.607 171.353)"><path class="o" d="M787.763,967.585c-1.9,5.134-95.041,120.907-101.384,123.08-2.4.835-20.053-11.746-40.951-27.554-4.514-3.412-9.153-6.965-13.844-10.6C601.1,1028.955,569.3,1003.25,569.3,1003.25l62.081-77.626,60.578,51.4,13.308,11.271s55.485-28.376,62.7-30.01C775.15,956.673,789.662,962.453,787.763,967.585Z" transform="translate(-569.296 -925.623)"/><path class="g" d="M753,949.511c-1.9,5.134-95.041,120.908-101.384,123.08-2.928,1-28.378-17.775-54.794-38.154l60.37-75.488L670.5,970.22s55.485-28.376,62.7-30.01C740.388,938.6,754.9,944.378,753,949.511Z" transform="translate(-534.534 -907.549)"/><g transform="translate(76.133 31.464)"><path class="e" d="M745.276,949.511c-1.9,5.134-95.041,120.908-101.384,123.08-2.4.835-20.053-11.746-40.951-27.554l59.834-74.816s55.485-28.376,62.7-30.01C732.662,938.6,747.174,944.378,745.276,949.511Z" transform="translate(-602.941 -939.013)"/><g transform="translate(26.32)"><g transform="translate(0 5.236)"><path class="j" d="M715.5,943.371c-16.091,19.024-79.19,97.273-93.647,117.3-.118.163-.011.247.122.1,16.358-18.508,78.821-97.266,93.842-117.143C716.129,943.206,715.835,942.968,715.5,943.371Z" transform="translate(-605.448 -940.172)"/><path class="j" d="M655.27,941.9a20.011,20.011,0,0,0-4.6,15.423c.695,4.528,2.738,9.572,6.872,12.672.118.088.294-.122.188-.235-6.7-7.219-7.816-19.492-2.215-27.666A.156.156,0,0,0,655.27,941.9Z" transform="translate(-569.215 -941.841)"/><path class="j" d="M637.979,950.808c-6.359,7.68-10.862,18.893-8.391,28.828.095.387.64.244.708-.081a137.9,137.9,0,0,1,8.746-28.114A.626.626,0,0,0,637.979,950.808Z" transform="translate(-596.479 -930.81)"/><path class="j" d="M641.144,948.988c-6.356,7.68-10.862,18.892-8.391,28.831.095.385.64.242.708-.084a137.788,137.788,0,0,1,8.746-28.114A.626.626,0,0,0,641.144,948.988Z" transform="translate(-592.482 -933.107)"/><path class="j" d="M644.308,947.169c-6.356,7.68-10.859,18.892-8.391,28.831.095.385.64.242.708-.084a137.926,137.926,0,0,1,8.746-28.114A.626.626,0,0,0,644.308,947.169Z" transform="translate(-588.485 -935.404)"/><path class="j" d="M647.473,945.35c-6.356,7.68-10.859,18.893-8.391,28.831.1.385.64.242.708-.084a137.844,137.844,0,0,1,8.746-28.111A.627.627,0,0,0,647.473,945.35Z" transform="translate(-584.488 -937.701)"/><path class="g" d="M616.516,988.157c-6.986,8.734,6.578,19.6,13.577,10.857S623.515,979.407,616.516,988.157Z" transform="translate(-614.572 -887.43)"/></g><path class="j" d="M630.3,939.691c-6.422,1.308-7.221,8.825-5.786,13.973A52.322,52.322,0,0,0,638.7,976.7a.264.264,0,0,0,.419-.063,1.217,1.217,0,0,0,1.751-.894c.622-8.608,2.356-17.732.319-26.276C640,944.482,636.38,938.454,630.3,939.691Zm8.843,22.812c-.2,4.24-.616,8.445-.663,12.692A156.569,156.569,0,0,1,630.5,961.56a56.117,56.117,0,0,1-2.957-7.053c-1.208-3.752-1.566-16.6,7.508-10.572C640.048,947.256,639.389,957.448,639.147,962.5Z" transform="translate(-602.779 -939.528)"/><path class="j" d="M634.151,978.87c6.478-5.929,10.167-14.455,14.482-21.929a1.216,1.216,0,0,0-.948-1.72.262.262,0,0,0-.31-.287A52.323,52.323,0,0,0,622.7,966.039c-4.075,3.455-7.633,10.124-3.053,14.813C623.984,985.287,630.368,982.329,634.151,978.87ZM625.957,980c-10.893-.1-3.385-10.536-.278-12.963a56.4,56.4,0,0,1,6.406-4.177,156.081,156.081,0,0,1,14.265-6.8c-2.344,3.541-4.365,7.253-6.578,10.878C637.136,971.255,631.961,980.06,625.957,980Z" transform="translate(-610.874 -920.078)"/></g></g></g><path class="p" d="M885.494,1060.937l-64.6,87.164-218-151.27-21.022-14.6s-5.951,4.005-14.912,8.961c-12.445,6.879-30.684,15.591-46.818,17.967-27.064,4.005-72.252,3.575-95.062-26.928-19.211-25.683-8.775-59.191-8.775-59.191l29.715-12.76s70.32-58.591,115.871-60.356c19.347-.769,47.519,13.894,73.61,29.213C661.564,894.437,885.494,1060.937,885.494,1060.937Z" transform="translate(-413.471 -849.898)"/><path class="j" d="M524.334,933.865s-5.951,4.005-14.912,8.961c-15.84-18.963-49.375-53.4-50.393-54.625Z" transform="translate(-355.938 -801.528)"/><path class="j" d="M465.125,867.924c-4.2,2.919-8.271,6.021-12.416,9.017-4.08,2.946-8.291,5.716-12.169,8.934-3.942,3.272-7.68,6.766-11.4,10.294-1.792,1.7-3.571,3.415-5.3,5.177a48.614,48.614,0,0,0-5.062,5.494c-.131.185.136.407.31.3a57.789,57.789,0,0,0,5.634-4.587c1.969-1.654,3.912-3.336,5.872-5,3.779-3.213,7.632-6.336,11.4-9.558,3.745-3.2,7.218-6.7,10.927-9.945,3.971-3.471,8.158-6.7,12.283-9.986C465.286,868,465.211,867.865,465.125,867.924Z" transform="translate(-406.813 -827.153)"/><path class="j" d="M648.35,941.818c-4.2,4.528-8.076,9.4-11.984,14.172q-5.889,7.192-11.7,14.448c-7.748,9.678-15.562,19.313-23.178,29.1-4.182,5.374-8.312,10.789-12.2,16.383-.172.249.224.532.425.312,8.334-9.167,15.953-18.944,23.685-28.614,7.746-9.689,15.464-19.4,23.063-29.206,4.159-5.365,8.445-10.7,12.269-16.312C648.886,941.872,648.531,941.623,648.35,941.818Z" transform="translate(-191.494 -733.907)"/><path class="j" d="M584.885,976.447c-10.846-8.547-22.094-16.616-33.338-24.633-11.19-7.979-22.37-15.976-33.727-23.715-3.261-2.222-6.551-4.4-9.836-6.58s-6.691-4.193-9.9-6.456c-.186-.131-.353.179-.17.31,2.951,2.114,5.736,4.487,8.635,6.682,2.767,2.1,5.514,4.216,8.3,6.282,5.446,4.032,10.948,7.988,16.439,11.959q16.707,12.077,33.694,23.776c6.436,4.415,12.839,8.846,19.417,13.041C584.79,977.363,585.258,976.741,584.885,976.447Z" transform="translate(-306.94 -767.647)"/><path class="j" d="M658.383,963.2c-10.022-8.307-20.766-15.776-31.27-23.457-10.626-7.768-21.2-15.609-31.868-23.321L563.5,893.467c-10.26-7.415-20.47-14.953-31.306-21.52-5.929-3.593-12.011-6.924-18.263-9.925-6.071-2.912-12.382-5.879-18.877-7.709a.177.177,0,0,0-.127.326c5.34,2.982,10.95,5.494,16.356,8.372q8.014,4.266,15.781,8.977c10.757,6.524,20.915,13.928,31.121,21.268,21.191,15.24,42.34,30.544,63.683,45.573,11.941,8.409,23.64,17.288,36.045,25.016C658.294,964.087,658.74,963.492,658.383,963.2Z" transform="translate(-310.722 -844.332)"/></g></g><g transform="translate(1182.259 1264.628)"><g transform="translate(76.897 71.355)"><path class="e" d="M819.9,887.22c-27.654,37.454-56.492,80.921-63.513,127.891-.084.711,1.055.944,1.22.237a279.342,279.342,0,0,1,12.231-37.606c18.182-5.005,36.026-9.114,45.573-27.161,9.739-18.551,8.5-42.738,6.65-62.945C821.931,886.555,820.462,886.5,819.9,887.22Z" transform="translate(-756.381 -886.741)"/><g transform="translate(13.677 11.799)"><path class="j" d="M762.477,970.805c12.423-27.878,28.372-55.872,48.644-78.8.136-.152.351.07.224.224-13.274,16.326-23.357,34.11-33.207,52.2,9.155-9.3,19.191-17.623,27.864-27.48.17-.192.439.086.279.278-8.613,10.334-18.021,21.567-29.238,29.215q-4.521,8.323-9.124,16.686c.753-.421,1.532-.8,2.306-1.179.136-.068.256.136.12.2-.855.434-1.7.889-2.587,1.265-1.455,2.634-2.9,5.27-4.4,7.9C763.027,971.907,762.214,971.393,762.477,970.805Z" transform="translate(-762.425 -891.956)"/><path class="j" d="M766.615,930.437a163.845,163.845,0,0,0,21.23-14.172c.181-.147.441.1.258.26a112.207,112.207,0,0,1-21.182,14.432C766.577,931.134,766.276,930.63,766.615,930.437Z" transform="translate(-757.322 -861.314)"/></g></g><g transform="translate(71.711)"><path class="e" d="M756.08,1047.952c.057.568,1.023.557,1.011-.048.145-15.466.014-31.005.247-46.544,3.962-8,12.468-12.423,18.381-18.831a82.226,82.226,0,0,0,11.031-15.36c7.316-13.086,11.276-27.8,12.8-42.668,1.634-16.546-4.646-71.141-11.62-69.245-3.616.982-15.322,28.025-18.424,36.963A257.535,257.535,0,0,0,758.5,937.544C752.844,973.946,753.315,1011.321,756.08,1047.952Z" transform="translate(-754.089 -855.208)"/><g transform="translate(1.742 9.548)"><path class="j" d="M755,975.9l.07-.061c.849-19.571,5.259-39.335,9.384-58.315,4.446-20.451,9.644-39.706,20.168-57.944.195-.339.7-.041.521.306a215.04,215.04,0,0,0-16.2,44.476c.7-1.1,1.561-2.15,2.295-3.191.287-.41.964-.027.681.4a28.768,28.768,0,0,1-3.29,4.643.3.3,0,0,1-.136.063c-3.623,14.613-6.223,29.566-8.449,44.481.167-.19.328-.394.5-.577.115-.122.305.034.229.176-.276.493-.584.984-.887,1.478-1.12,7.569-2.161,15.125-3.207,22.612,13.48-11.52,24.991-25.1,31.483-41.828.029-.077.156-.045.127.034-6.361,17.356-16.387,32.782-31.822,43.311q-.424,3.028-.851,6.044c-.059.416-.724.308-.722-.1,0-1.783.091-3.571.161-5.358A.413.413,0,0,1,755,975.9Z" transform="translate(-754.859 -859.427)"/><path class="j" d="M757.755,924.81c10.3-15.372,19.922-30.3,27.46-47.293.084-.188.409-.054.335.143-6.352,16.883-15.247,33.988-27.278,47.549C758.026,925.484,757.546,925.122,757.755,924.81Z" transform="translate(-751.267 -836.697)"/><path class="j" d="M763.807,888.45c4.268-7.549,8.768-14.9,12.783-22.594.113-.215.41-.025.319.186a117.646,117.646,0,0,1-12.443,22.794C764.182,889.224,763.56,888.887,763.807,888.45Z" transform="translate(-743.631 -851.428)"/><path class="j" d="M763.074,877.239a.067.067,0,0,1,0,.133A.067.067,0,0,1,763.074,877.239Z" transform="translate(-744.564 -836.934)"/></g></g><g transform="translate(20.039 23.385)"><path class="e" d="M774.449,990.17a157.454,157.454,0,0,1-3.614,30.474c.159,1.1.317,2.2.48,3.335a145.359,145.359,0,0,0,5.449-33.967,1.042,1.042,0,0,0,.048-1.052l0-.032a224.969,224.969,0,0,0-3.415-46.026c-4.788-28.426-15.254-55.706-35.078-77.011a1.416,1.416,0,0,0-2.191.45c-8,20.343-5.209,44.614,1.607,64.907a118.711,118.711,0,0,0,15.72,30.827C760.255,971.635,768.926,979.725,774.449,990.17Z" transform="translate(-731.254 -865.542)"/><g transform="translate(8.621 9.667)"><path class="j" d="M735.85,870.015c18.788,30.492,31.863,66.645,33.461,102.665.027.638-1.045.808-1.136.154-.443-3.236-.939-6.442-1.457-9.637-.011-.009-.023,0-.032-.011-7.775-7.445-15.754-15.3-21.32-24.6-.1-.163.138-.355.269-.206,6.761,7.728,13.072,15.645,20.707,22.538-1.346-7.965-2.939-15.8-4.827-23.525-.5-.577-.993-1.168-1.487-1.747-.326-.382.217-.939.557-.557.15.167.3.333.453.5a272.222,272.222,0,0,0-9.823-31.186c-4.784-5.707-10.131-10.638-13.615-17.51a.144.144,0,0,1,.249-.145c2.8,3.93,5.512,7.884,8.689,11.531,1.267,1.453,2.657,2.81,3.969,4.229a240.319,240.319,0,0,0-15.383-32.064A.421.421,0,0,1,735.85,870.015Z" transform="translate(-735.064 -869.814)"/><path class="j" d="M737.341,886.584c6.073,8.171,12.993,15.971,18.639,24.418.161.242-.192.491-.394.3-7.255-6.807-13.392-16.1-18.655-24.484C736.766,886.559,737.164,886.344,737.341,886.584Z" transform="translate(-732.755 -848.768)"/><path class="j" d="M745.892,898.185l.258.258a.2.2,0,0,1-.278.281l-.26-.26C745.432,898.285,745.711,898.006,745.892,898.185Z" transform="translate(-721.817 -834.059)"/></g></g><g transform="translate(0 90.032)"><path class="e" d="M722.407,896.835c1.509,15.688,9.764,34.427,19.827,46.515A49.367,49.367,0,0,0,758.311,955.9c6.963,3.444,14.256,7.413,21.458,10.239a140.908,140.908,0,0,1,7.6,26.986c.233-.785.464-1.6.7-2.389-4.625-39.72-30.326-73.669-63.2-95.462A1.6,1.6,0,0,0,722.407,896.835Z" transform="translate(-722.398 -894.995)"/><g transform="translate(11.287 13.093)"><path class="j" d="M727.467,901.263c-.231-.2.081-.622.335-.435,17.422,12.907,33.121,31.727,41.892,51.629.238.543-.507,1.018-.817.477q-2.291-4.015-4.67-7.841c-.009,0-.014,0-.023,0-7.5-1.412-14.611-6.693-20.182-11.705-.149-.136.072-.358.224-.224a45.948,45.948,0,0,0,9.495,6.668c3.057,1.555,6.352,2.534,9.536,3.779-2.781-4.415-5.68-8.648-8.705-12.753-8.076-2.752-15.765-7.712-22.554-12.679-.213-.156-.025-.507.213-.364a224.455,224.455,0,0,0,20.961,11.205,188.219,188.219,0,0,0-14.8-17.254c-2.55-1.346-5.137-2.7-7.608-4.139-.2-.118-.07-.462.161-.385a27.255,27.255,0,0,1,5.838,2.867C733.8,907.112,730.739,904.153,727.467,901.263Z" transform="translate(-727.386 -900.781)"/><path class="j" d="M727.9,907.074a9.613,9.613,0,0,1,1.265.9c.122.109-.034.262-.158.208a9.334,9.334,0,0,1-1.319-.747C727.465,907.292,727.675,906.927,727.9,907.074Z" transform="translate(-727.124 -892.878)"/></g></g><g transform="translate(26.883 161.393)"><g transform="translate(0 12.649)"><path class="n" d="M824.367,1032.254H734.279l7.273-82.04,1.6-18.093H815.5l1.6,18.093Z" transform="translate(-734.279 -932.121)"/><path class="j" d="M813.036,950.214H737.493l1.6-18.093h72.35Z" transform="translate(-730.22 -932.121)"/></g><rect class="n" width="80.969" height="17.906" transform="translate(4.56)"/></g></g></g></svg>