<?xml version="1.0" encoding="utf-8"?>
<!-- Generator: Adobe Illustrator 24.1.1, SVG Export Plug-In . SVG Version: 6.00 Build 0)  -->
<svg version="1.1" id="Layer_1" xmlns="http://www.w3.org/2000/svg" xmlns:xlink="http://www.w3.org/1999/xlink" x="0px" y="0px"
	 viewBox="0 0 512 512" style="enable-background:new 0 0 512 512;" xml:space="preserve">
<g>
	<path d="M432.3,233.3c55.1,12.6,89.7,67.5,77.1,122.6c-10.6,46.5-51.9,79.5-99.6,79.7H128.1C57.4,435.7,0.1,378.4,0,307.7
		c-0.1-60.9,42.8-113.5,102.5-125.6v-2.6c-0.1-42.4,34.3-76.8,76.7-76.9c13.7,0,27.2,3.6,39,10.6c50.1-49.5,130.8-49,180.3,1.1
		c23.9,24.2,37.1,56.9,36.8,90.8C435.4,214.9,434.4,224.1,432.3,233.3z M281.8,282h76.8L256.2,179.5L153.7,282h76.8v76.8h51.2V282z"
		/>
</g>
</svg>
