<svg width="427" height="149" viewBox="0 0 427 149" fill="none" xmlns="http://www.w3.org/2000/svg">
<path fill-rule="evenodd" clip-rule="evenodd" d="M258.178 95.3436C257.954 94.9372 256.448 95.3357 254.829 96.2279C253.21 97.1201 252.065 98.1828 252.289 98.5892C252.511 98.9933 254.022 98.5923 255.641 97.7002C257.259 96.808 258.4 95.7477 258.178 95.3436" fill="#00A3FF"/>
<path fill-rule="evenodd" clip-rule="evenodd" d="M180.091 127.209C180.399 126.145 178.988 125.55 177.76 126.227C177.174 126.55 176.973 127.309 177.308 127.918C177.92 129.028 179.694 128.574 180.091 127.209" fill="#00A3FF"/>
<path fill-rule="evenodd" clip-rule="evenodd" d="M185.975 123.623C185.502 123.357 184.656 123.389 184.097 123.697C183.539 124.004 183.059 124.703 183.031 125.246C183.004 125.807 183.812 125.776 184.909 125.172C186.008 124.566 186.464 123.901 185.975 123.623" fill="#00A3FF"/>
<path fill-rule="evenodd" clip-rule="evenodd" d="M241.176 106.761C241.645 106.01 243.084 105.196 244.529 104.866C246.523 104.413 247.34 103.705 248.373 101.555C250.391 97.3683 248.433 97.7032 241.118 102.794C237.522 105.306 233.768 107.807 232.781 108.365C231.496 109.085 231.334 109.469 232.216 109.724C234.134 110.283 240.245 108.261 241.176 106.761" fill="#00A3FF"/>
<path fill-rule="evenodd" clip-rule="evenodd" d="M115.969 165.754C112.94 167.119 109.012 168.607 107.235 169.059C100.506 170.765 91.5399 173.67 88.0309 175.283C86.0215 176.196 83.7954 176.859 83.0793 176.747C82.3657 176.639 81.0865 176.661 80.2374 176.796C79.392 176.938 78.3975 176.504 78.034 175.845C77.5457 174.959 77.1109 174.984 76.4046 175.935C74.5715 178.419 70.8562 179.725 64.6815 180.062C61.2707 180.246 58.301 180.079 58.0844 179.686C57.8678 179.293 57.1951 179.244 56.5867 179.579C55.9804 179.913 55.7571 180.685 56.0925 181.293C56.8598 182.685 56.0653 183.135 53.4866 182.758C52.3452 182.594 51.8576 182.234 52.3698 181.935C52.87 181.645 52.982 180.871 52.6234 180.22C52.0972 179.265 52.5175 178.851 54.7463 178.115C58.8614 176.762 58.2256 175.309 53.2507 174.692C48.5383 174.11 45.4812 175.445 47.0396 177.406C48.4109 179.143 45.7521 180.223 42.0316 179.445C38.223 178.649 36.7574 179.289 37.8503 181.272C38.297 182.082 38.9914 182.559 39.3955 182.337C39.8019 182.113 40.3163 182.263 40.5427 182.674C40.9478 183.409 40.6839 183.451 35.1297 183.611C33.9962 183.645 31.9477 183.925 30.5793 184.242C28.5078 184.712 28.1546 185.075 28.4893 186.402C28.838 187.77 28.5722 188.018 26.6207 188.17C24.8059 188.307 24.3231 188.634 24.2567 189.78C24.1325 191.834 25.4067 193.868 26.7081 193.692C27.3245 193.613 28.55 194.712 29.4415 196.146C31.6166 199.646 33.9696 200.338 35.3413 197.868C36.16 196.407 36.6347 196.133 37.8014 196.475C38.9701 196.809 39.1198 197.118 38.5836 198.067C37.8175 199.425 39.3532 200.593 40.8322 199.778C41.3807 199.476 41.7507 198.797 41.6559 198.273C41.4503 197.165 49.9356 195.242 52.6065 195.796C53.5193 195.976 54.8985 195.532 55.6715 194.802C56.7419 193.786 57.1174 193.785 57.2593 194.804C57.4802 196.408 62.2245 195.209 66.3854 192.505C67.8549 191.541 69.6339 190.85 70.3305 190.959C71.0293 191.066 73.4944 190.674 75.8074 190.085C78.1226 189.496 80.4886 189.124 81.0625 189.256C81.6376 189.391 83.0743 188.967 84.2579 188.315C86.0855 187.307 86.1814 187.04 84.8843 186.53C84.0461 186.202 82.7461 186.27 81.9955 186.684C81.2427 187.099 79.6362 186.91 78.4176 186.264C75.869 184.913 72.5318 185.629 64.3697 189.273C61.2112 190.681 58.3135 191.69 57.9263 191.512C56.5314 190.857 52.0575 191.669 49.6126 193.017C48.2381 193.774 46.7184 194.169 46.232 193.896C45.7478 193.621 44.8434 193.792 44.2273 194.277C43.4892 194.86 42.6975 194.616 41.9027 193.557C39.9762 190.991 40.9294 189.942 45.4091 189.702C47.862 189.572 51.538 188.531 54.4926 187.131C61.4618 183.823 68.0859 181.901 70.636 182.441C72.0163 182.734 74.545 182.09 77.5807 180.675C80.7624 179.193 82.8844 178.678 83.9261 179.129C84.8475 179.524 87.0905 179.113 89.365 178.129C91.4964 177.2 97.1867 174.997 102.022 173.232C106.85 171.46 111.702 169.495 112.806 168.867C114.159 168.092 115.017 168.094 115.447 168.873C115.95 169.786 116.545 169.652 118.229 168.258C120.87 166.064 122.805 164.485 123.688 163.802C125.534 162.365 120.824 163.553 115.969 165.754" fill="#00A3FF"/>
<path fill-rule="evenodd" clip-rule="evenodd" d="M171.859 152.997C167.503 156.246 168.193 158.358 172.791 155.847C175.136 154.566 175.751 154.474 175.231 155.484C174.73 156.452 175.761 156.11 178.883 154.279C181.575 152.697 183.491 151.03 183.905 149.902C184.279 148.899 184.448 147.839 184.285 147.544C183.797 146.658 175.453 150.324 171.859 152.997" fill="#00A3FF"/>
<path fill-rule="evenodd" clip-rule="evenodd" d="M188.592 146.647C188.857 146.171 188.992 145.639 188.894 145.462C188.795 145.282 188.387 145.319 187.983 145.541C187.576 145.765 187.439 146.298 187.675 146.727C187.91 147.153 188.324 147.122 188.592 146.647" fill="#00A3FF"/>
<path fill-rule="evenodd" clip-rule="evenodd" d="M133.683 104.468C133.461 104.066 132.615 104.095 131.804 104.542C130.996 104.987 130.517 105.689 130.738 106.091C130.961 106.495 131.809 106.462 132.617 106.016C133.428 105.57 133.906 104.872 133.683 104.468" fill="#00A3FF"/>
<path fill-rule="evenodd" clip-rule="evenodd" d="M158.392 96.2781C158.884 95.6943 159.097 94.8732 158.869 94.458C158.351 93.5187 157.582 93.9251 156.655 95.6112C155.779 97.1942 157.166 97.7299 158.392 96.2781" fill="#00A3FF"/>
<mask id="mask0_2641_11406" style="mask-type:alpha" maskUnits="userSpaceOnUse" x="3" y="-81" width="481" height="333">
<path fill-rule="evenodd" clip-rule="evenodd" d="M483.17 16.4937L57.2336 251.237L3.83847 154.352L429.775 -80.3908L483.17 16.4937Z" fill="white"/>
</mask>
<g mask="url(#mask0_2641_11406)">
<path fill-rule="evenodd" clip-rule="evenodd" d="M233.668 55.1213C235.229 54.2609 235.939 53.4789 235.427 53.1908C234.953 52.9249 233.591 53.2417 232.401 53.8976C231.21 54.5536 230.419 55.424 230.642 55.8281C230.864 56.2323 232.227 55.9155 233.668 55.1213" fill="#00A3FF"/>
<path fill-rule="evenodd" clip-rule="evenodd" d="M69.3935 143.083C69.8089 142.576 70.4587 142.253 70.8364 142.36C71.2177 142.474 70.8767 142.885 70.0858 143.283C69.2044 143.717 68.9357 143.639 69.3935 143.083ZM77.0807 139.498C77.4848 139.275 78.2036 139.313 78.675 139.58C79.1487 139.846 79.2079 140.248 78.8038 140.471C78.3974 140.695 77.6764 140.658 77.2028 140.392C76.7313 140.125 76.6743 139.722 77.0807 139.498ZM109.572 127.352C111.409 126.34 113.011 126.936 112.222 128.336C111.921 128.861 110.849 129.054 109.837 128.761C108.13 128.266 108.111 128.158 109.572 127.352ZM127.739 138.514C129.709 137.362 130.453 137.404 129.716 138.618C129.51 138.96 128.532 139.339 127.542 139.46C125.972 139.653 125.998 139.532 127.739 138.514ZM133.875 134.85C136.795 132.884 141.817 131.147 140.12 132.691C138.652 134.026 131.061 138.001 130.821 137.566C130.672 137.301 132.048 136.079 133.875 134.85ZM168.576 89.1074C170.87 87.8227 173.135 86.9943 173.609 87.2602C174.082 87.526 174.211 87.9124 173.898 88.1167C173.587 88.3233 172.19 89.278 170.807 90.2459C169.32 91.2826 167.486 91.8883 166.342 91.7197C164.597 91.4685 164.823 91.2018 168.576 89.1074ZM201.392 83.3814C201.715 82.2654 207.231 79.1039 224.223 70.2918C226.072 69.3337 228.449 68.5621 229.511 68.5706C230.574 68.587 234.29 67.1035 237.773 65.2821C246.139 60.9034 247.718 60.2069 249.094 60.3026C249.727 60.3442 250.662 59.8868 251.173 59.2899C251.778 58.5654 252.316 58.5961 252.747 59.3777C253.106 60.0284 253.896 60.285 254.502 59.9509C255.108 59.6167 255.813 59.7144 256.064 60.1697C256.382 60.747 255.354 61.4351 252.737 62.4059C249.091 63.7549 242.225 67.5072 234.231 72.5122C231.817 74.0218 229.343 74.9483 227.498 75.0245C225.892 75.09 221.832 76.4647 218.481 78.08C215.125 79.692 211.827 80.9137 211.145 80.8003C209.895 80.586 207.309 81.4726 203.25 83.5066C201.655 84.3105 201.134 84.2735 201.392 83.3814ZM285.258 82.7152C286.193 80.7032 289.729 78.4507 290.907 79.1184C291.328 79.3557 294.068 78.2767 296.996 76.7182C299.926 75.164 302.554 73.9591 302.838 74.043C303.416 74.2105 300.183 77.4575 298.957 77.939C298.525 78.1106 295.077 79.6605 291.293 81.3839C285.165 84.1704 284.513 84.3157 285.258 82.7152ZM338.336 53.2133C341.283 51.6154 343.856 50.6055 344.06 50.9764C344.262 51.3428 343.667 52.0646 342.736 52.5773C341.806 53.0901 340.9 54.015 340.721 54.6259C340.247 56.2655 328.215 64.0027 327.671 63.0167C326.911 61.6377 332.805 56.221 338.336 53.2133ZM347.857 52.6443C348.451 51.5674 348.272 51.1649 346.845 50.3619C344.704 49.1597 345.392 48.45 353.89 43.1355C357.132 41.1115 359.852 39.5862 359.942 39.7483C360.222 40.2568 356.592 44.6863 353.472 47.645C351.819 49.2161 350.448 50.8836 350.423 51.3487C350.4 51.8218 349.653 52.5984 348.761 53.0813C347.453 53.7908 347.28 53.7035 347.857 52.6443ZM297.877 99.3403C296.91 99.85 296.862 99.6828 297.614 98.4373C298.116 97.5989 298.744 96.978 299.012 97.0557C299.82 97.2912 299.129 98.6761 297.877 99.3403ZM294.969 101.931C294.278 102.312 294.332 103.165 295.125 104.39C296.115 105.917 295.992 106.604 294.474 108.104C292.031 110.501 290.293 110.715 289.776 108.667C289.48 107.495 288.907 107.212 287.724 107.655C286.818 107.992 285.752 107.963 285.353 107.592C284.396 106.701 286.602 104.652 291.357 102.017C293.479 100.836 295.395 100.205 295.619 100.611C295.842 101.016 295.553 101.609 294.969 101.931ZM270.714 110.258C269.094 111.143 268.432 111.308 269.25 110.628C270.068 109.948 271.398 109.224 272.203 109.021C273.009 108.817 272.336 109.373 270.714 110.258ZM261.223 114.36L255.836 116.336L259.318 113.545C261.89 111.488 263.228 110.843 264.428 111.071C267.385 111.635 266.677 112.367 261.223 114.36ZM251.783 118.937C249.787 120.081 247.58 122.139 246.535 123.83C244.522 127.064 242.399 128.57 240.974 127.766C240.406 127.445 239.147 127.971 237.803 129.077C235.543 130.939 234.586 130.699 235.24 128.43C235.499 127.538 235.281 127.175 234.462 127.134C233.775 127.096 233.501 127.78 233.771 128.847C234.128 130.262 233.646 130.933 231.361 132.192C228.168 133.952 227.12 133.259 228.893 130.556C229.541 129.577 230.099 128.363 230.141 127.865C230.177 127.359 231.511 126.25 233.1 125.398C234.689 124.545 239.063 122.175 242.817 120.135C246.574 118.096 249.807 116.714 250.003 117.069C250.199 117.425 251.455 117.549 252.789 117.343C255.034 116.995 254.958 117.118 251.783 118.937ZM226.46 134.245C224.979 136.002 220.469 138.34 220.044 137.569C219.846 137.21 220.747 136.16 222.044 135.231L222.04 135.233C223.334 134.309 225.089 133.434 225.936 133.294C227.405 133.044 227.43 133.09 226.46 134.245ZM214.414 133.895C212.212 136.139 211.279 136.59 207.821 137.071C201.955 137.895 201.59 137.086 206.582 134.335C208.989 133.008 212.312 131.782 213.967 131.602L216.981 131.282L214.414 133.895ZM5.07298 154.991C5.76515 154.876 7.48341 155.162 8.89469 155.632C10.3023 156.096 11.9255 156.246 12.4998 155.964C13.0738 155.677 15.4727 155.417 17.8284 155.384C20.1876 155.352 23.2421 155.2 24.6171 155.048C25.9965 154.892 27.2509 155.214 27.4101 155.761C27.5681 156.305 29.5659 157.167 31.8501 157.671C36.6749 158.735 37.0221 160.657 32.3754 160.583C30.1314 160.546 29.1303 160.91 28.5431 161.972C27.3448 164.126 28.6684 164.531 32.0429 163.048C33.7055 162.314 35.7615 161.853 36.6101 162.016C38.8426 162.447 40.1796 161.942 47.1201 158.088C50.5436 156.184 53.8273 154.699 54.4166 154.791C55.0081 154.882 57.6661 153.81 60.3244 152.409C63.0886 150.958 66.6701 149.74 68.6822 149.572C71.8956 149.303 72.1411 149.429 71.4304 150.949C70.1483 153.703 71.969 153.261 75.6289 149.921C80.6971 145.307 87.0151 143.759 88.8116 146.703C88.9879 146.997 85.7253 149.009 81.5589 151.178C76.3829 153.868 74.04 155.437 74.1627 156.123C74.2609 156.674 74.7464 156.84 75.2448 156.505C78.187 154.484 87.251 151.541 88.5948 152.167C89.9026 152.775 90.208 152.636 90.7816 151.176C91.5713 149.163 102.899 142.248 105.823 141.991C107.404 141.85 107.296 142.011 105.206 142.888C103.814 143.472 102.828 144.23 103.01 144.561C103.193 144.894 102.25 146.671 100.918 148.508C97.9775 152.56 97.3138 154.944 99.1984 154.681C99.906 154.584 101.204 153.66 102.076 152.626C104.251 150.07 109.161 147.465 110.128 148.357C110.646 148.835 112.74 148.095 116.21 146.203C119.123 144.618 121.625 143.531 121.767 143.789C122.145 144.458 126.497 142.916 135.432 138.956C139.707 137.063 143.875 135.643 144.691 135.799C145.508 135.959 148.12 135.261 150.491 134.258C152.862 133.253 154.784 132.781 154.762 133.213C154.691 134.697 157.046 134.105 163.033 131.148C166.333 129.514 169.391 128.196 169.828 128.222C170.266 128.241 175.315 125.939 181.054 123.098C194.062 116.658 197.716 115.33 198.497 116.747C198.937 117.547 198.183 118.342 195.625 119.769C191.122 122.288 189.973 125.177 194.333 123.029C204.977 117.779 206.014 117.129 205.07 116.335C204.365 115.739 204.839 115.174 206.91 114.116C209.683 112.701 215.393 110.918 214 111.903C213.597 112.186 212.897 113.264 212.44 114.294C211.689 115.99 212.277 115.797 218.579 112.28C222.412 110.136 226.122 108.248 226.821 108.082C232.397 106.749 234.333 105.775 234.556 104.184C234.76 102.752 235.744 102.12 241.788 99.5557C245.635 97.916 250.958 95.8222 253.614 94.8942C256.27 93.9718 261.955 91.3597 266.248 89.095C273.902 85.0535 277.429 84.1257 281.083 85.1833C283.259 85.811 282.329 86.7868 276.945 89.5253C271.941 92.0659 268.427 95.5919 268.73 97.77C268.97 99.5137 272.284 97.6038 272.938 95.3408C273.337 93.9516 274.512 93.1419 278.716 91.3404C281.615 90.0985 285.625 88.1288 287.616 86.9618C290.787 85.1132 291.155 85.0611 290.501 86.533C290.092 87.4675 289.852 88.402 289.969 88.6152C290.086 88.8261 292.893 87.2792 296.209 85.1762C301.913 81.5579 302.362 81.4003 304.688 82.2899C306.896 83.1285 307.172 83.0516 307.42 81.5426C307.632 80.2245 308.907 79.2349 313.299 76.9821C321.456 72.8081 325.079 71.7754 325.52 73.51C325.807 74.6458 326.387 74.6214 328.495 73.3873C329.934 72.5477 331.336 71.4827 331.606 71.0213C331.878 70.5588 333.019 69.3771 334.145 68.4002C336.41 66.437 338.601 66.7986 336.503 68.7915C334.734 70.4727 336.204 71.1424 339.427 70.1246C341.023 69.618 341.92 69.7058 341.723 70.3469C341.546 70.9396 339.918 71.8889 338.001 72.5229C335.849 73.2367 334.47 74.0954 334.25 74.8567C334.003 75.7018 333.048 76.2019 331.039 76.5276C327.773 77.0625 315.042 83.8359 307.856 88.8641C303.13 92.1698 299.671 93.349 297.554 92.3705C296.936 92.0832 296.556 92.4457 296.489 93.3744C296.404 94.6488 295.042 95.3707 285.66 99.1603C274.771 103.552 273.034 103.976 274.168 101.964C274.627 101.147 274.26 100.976 272.834 101.333C271.754 101.607 270.936 102.214 271.018 102.687C271.102 103.162 270.773 103.526 270.284 103.5C268.342 103.406 253.376 111.336 252.815 112.766C252.373 113.892 252.118 113.943 251.597 113C251.235 112.342 250.653 111.963 250.299 112.157C249.949 112.351 246.464 113.608 242.558 114.947C238.653 116.292 232.935 118.855 229.849 120.643C226.762 122.426 223.856 123.873 223.394 123.859C222.928 123.843 216.359 126.265 208.791 129.243C198.389 133.34 194.641 135.128 193.403 136.575C192.198 137.992 191.644 138.268 191.297 137.64C190.171 135.612 172.571 142.509 171.765 145.295C171.426 146.466 173.599 146.754 175.385 145.77C176.444 145.186 178.499 144.456 179.947 144.147C188.516 142.328 190.703 141.609 195.396 139.04C200.073 136.48 200.687 136.339 201.641 137.602C203.298 139.801 200.609 142.89 196.903 143.042C194.304 143.148 193.913 143.369 192.87 145.337C192.149 146.698 190.849 147.791 189.395 148.251C188.12 148.652 187.055 149.39 187.029 149.888C186.962 151.19 189.752 150.932 194.321 149.215C196.508 148.392 198.666 147.738 199.116 147.757C200.808 147.837 206.983 144.432 208.264 142.707C209.363 141.229 209.851 141.068 210.997 141.782C211.982 142.392 212.853 142.224 213.946 141.208C214.892 140.324 215.672 140.08 215.948 140.579C216.194 141.026 217.49 140.792 218.826 140.056C220.161 139.32 221.753 138.862 222.361 139.037C222.971 139.213 227.533 137.347 232.503 134.892C237.468 132.434 243.702 129.655 246.35 128.72C253.137 126.32 257.012 124.037 257.982 121.863C259.242 119.044 262.718 117.377 264.169 118.905C265.357 120.152 267.279 119.8 267.353 118.317C267.374 117.892 268.352 117.072 269.524 116.492C270.695 115.913 272.923 114.807 274.475 114.036C276.363 113.091 277.489 112.974 277.876 113.676C278.336 114.511 279.298 114.166 282.484 112.025L286.508 109.32L285.533 111.717C284.525 114.206 285.793 115.954 287.301 114.162C287.773 113.6 288.891 113.282 289.782 113.454C290.67 113.619 291.488 113.475 291.587 113.125C291.689 112.774 293.033 112.355 294.571 112.187C296.454 111.986 297.981 111.284 299.245 110.025C300.51 108.76 301.44 108.335 302.099 108.707C302.767 109.083 303.856 108.57 305.56 107.066C306.926 105.861 311.925 102.707 316.666 100.062C325.16 95.3143 325.3 95.269 326.211 96.9211C327.288 98.8753 329.26 98.1789 329.277 95.8393C329.289 93.812 331.559 93.8606 332.075 95.9008C332.524 97.6713 333.672 97.4585 341.037 94.2331C347.207 91.5335 363.972 82.398 368.71 79.1588C370.623 77.844 375.044 74.8978 378.529 72.6065C382.32 70.118 385.121 67.7576 385.492 66.7452C385.906 65.6199 388.601 63.5293 393.532 60.5139C397.61 58.0229 401.094 55.4774 401.277 54.8471C401.455 54.2249 402.863 53.0234 404.399 52.1765C406.396 51.0763 407.021 50.3147 406.587 49.5264C405.975 48.4161 406.575 47.7293 409.084 46.6618C409.833 46.3447 410.217 45.67 409.937 45.1615C409.645 44.633 410.168 44.5825 411.157 45.0445C412.808 45.8113 413.131 45.6417 418.417 41.2435C421.462 38.711 424.481 36.4304 425.128 36.1696C426.785 35.5051 430.905 31.9174 435.119 27.4611C437.094 25.3801 439.579 23.1878 440.645 22.6004C441.711 22.0129 442.764 20.9176 442.98 20.1645C443.2 19.409 443.528 19.069 443.712 19.4021C443.894 19.733 444.352 19.2402 444.734 18.3091C445.201 17.1567 445.406 17.0032 445.377 17.8385C445.342 18.6887 445.902 18.748 447.214 18.0247C448.34 17.4043 448.868 16.5717 448.529 15.9566C447.618 14.3022 450.914 11.1594 453.244 11.4564C456.254 11.8442 457.234 10.8641 456.025 8.67014L454.934 6.69156L457.323 7.4742C460.445 8.49526 461.786 7.67208 462.019 4.57598C462.127 3.19057 462.893 1.42812 463.721 0.656155C465.443 -0.947154 464.939 -2.46123 462.445 -3.18291C461.502 -3.45947 460.459 -4.18139 460.124 -4.78762C459.789 -5.39607 458.705 -5.73394 457.721 -5.53903C456.732 -5.3439 455.993 -5.40846 456.071 -5.69191C456.263 -6.34758 460.98 -6.71255 461.319 -6.09744C461.575 -5.63333 466.103 -8.47031 467.559 -10.0142C468.431 -10.932 467.544 -12.9619 466.245 -13.0244C465.761 -13.0504 464.636 -13.8576 463.737 -14.8214C462.845 -15.7831 460.785 -17.1634 459.162 -17.8813C457.538 -18.5993 455.667 -19.8986 455.005 -20.7697C453.833 -22.3126 452.504 -22.6021 449.455 -21.967C448.299 -21.7322 447.505 -22.4642 446.036 -25.1289C443.613 -29.5257 436.989 -36.7433 434.576 -37.6135C433.563 -37.9792 431.77 -37.7461 430.593 -37.0975C428.07 -35.7072 424.958 -35.5235 424.298 -36.7204C424.042 -37.1845 424.115 -38.6809 424.466 -40.0408L425.098 -42.5231L421.726 -44.5816C419.865 -45.7156 417.844 -46.3825 417.226 -46.0649C415.291 -45.0625 412.214 -45.9344 411.988 -47.547C411.712 -49.5457 409.391 -50.3572 407.284 -49.1958C406.345 -48.6781 405.212 -48.4647 404.76 -48.7167C403.873 -49.2179 399.944 -46.6126 397.013 -43.5786C396.002 -42.5349 393.371 -40.4628 391.166 -38.9639C387.103 -36.2034 385.177 -33.5841 383.682 -28.7943C383.226 -27.3325 382.487 -25.9297 382.039 -25.6825C381.587 -25.4306 380.518 -24.1497 379.66 -22.8341C378.704 -21.3636 375.742 -19.0013 371.995 -16.7222C368.635 -14.6765 363.592 -11.298 360.782 -9.21638C357.971 -7.13481 350.366 -1.83446 343.883 2.56071C332.861 10.0305 331.96 10.5182 330.022 10.0637C328.134 9.61619 327.038 10.1708 317.658 16.3219C312.001 20.036 307.152 23.5769 306.888 24.1912C306.041 26.1635 303.339 28.1885 301.915 27.9165C301.117 27.7658 299.474 28.4943 298.021 29.6454C296.639 30.7403 293.401 33.2022 290.827 35.1075C288.257 37.016 286.075 38.8409 285.981 39.1646C285.887 39.4884 284.719 39.2901 283.384 38.7229C280.673 37.5764 277.309 38.9266 275.575 41.8571C274.738 43.2797 274.358 43.4889 273.683 42.8998C273.223 42.496 272.375 42.4222 271.802 42.738C271.229 43.0537 271.071 43.6819 271.451 44.1297C271.968 44.7479 270.457 45.8355 265.451 48.476C258.936 51.9101 256.786 52.8315 246.836 56.4828C233.484 61.3745 230.464 62.7552 229.099 64.5905C228.009 66.0652 227.475 66.3044 226.522 65.7673C225.517 65.1982 225.112 65.4096 224.052 67.0477C223.331 68.1512 221.961 69.1639 220.887 69.3738C219.149 69.7238 219.058 69.623 219.745 68.1474C220.392 66.7574 219.828 66.7437 215.683 68.0583C213.04 68.8928 205.717 71.5705 199.406 74.0035C193.094 76.4399 185.602 79.2867 182.745 80.3284C179.892 81.3767 172.471 84.358 166.252 86.9632C160.036 89.5693 154.37 91.8006 153.665 91.9196C152.959 92.0455 149.706 93.1927 146.44 94.48C143.171 95.7606 137.831 97.8493 134.572 99.1159C131.313 100.379 125.823 102.568 122.382 103.978C116.506 106.386 111.205 108.323 101.612 111.557C99.3861 112.303 94.9911 114.121 91.8478 115.598C83.9187 119.308 87.9144 118.542 100.955 113.847C106.68 111.79 116.609 108.263 123.022 106.011C133.176 102.45 157.736 93.133 159.421 92.2041C159.75 92.023 160.844 92.4909 161.855 93.2425C163.425 94.4098 163.544 94.8419 162.663 96.1902C162.1 97.065 160.68 98.3918 159.516 99.1466C158.125 100.043 157.696 100.772 158.271 101.26C159.401 102.212 151.29 106.106 148.086 106.149C146.625 106.167 141.966 108.335 134.019 112.695C127.487 116.283 121.369 119.232 120.424 119.258C119.48 119.283 117.082 120.023 115.098 120.908C110.399 122.988 102.645 125.64 94.3578 127.995C90.7043 129.03 86.0912 130.588 84.1026 131.456C82.1162 132.322 80.0671 133.011 79.5426 132.979C79.0208 132.957 75.0524 134.235 70.7257 135.829C61.6199 139.174 56.8474 140.689 52.0618 141.766C48.2602 142.617 42.7655 144.293 38.4446 145.919C36.8839 146.507 34.5835 146.729 33.3386 146.419C31.9065 146.054 30.0129 146.431 28.2124 147.435C23.8784 149.841 20.1049 151.11 16.1322 151.513C10.3947 152.087 4.2193 153.568 4.00808 154.414C3.90171 154.846 4.37835 155.102 5.07298 154.991V154.991Z" fill="#00A3FF"/>
</g>
<path fill-rule="evenodd" clip-rule="evenodd" d="M77.4803 120.87C78.2945 120.914 80.4065 120.433 82.1685 119.801C84.2799 119.051 84.8657 118.633 83.8958 118.585C83.0815 118.542 80.9706 119.019 79.2063 119.653C77.0962 120.405 76.5081 120.824 77.4803 120.87" fill="#00A3FF"/>
<path fill-rule="evenodd" clip-rule="evenodd" d="M49.463 128.179C51.1336 127.475 51.757 127.114 50.8436 127.375C49.9325 127.634 48.7023 127.718 48.115 127.561C47.5255 127.405 46.2033 127.743 45.1805 128.33C42.3876 129.913 45.623 129.8 49.463 128.179" fill="#00A3FF"/>
<path fill-rule="evenodd" clip-rule="evenodd" d="M33.27 133.221C36.2857 132.016 36.459 131.837 34.766 131.586C33.7228 131.437 31.7145 131.927 30.3116 132.686C26.8547 134.55 28.9728 134.932 33.27 133.221" fill="#00A3FF"/>
<path fill-rule="evenodd" clip-rule="evenodd" d="M26.9729 142.17C27.3282 141.974 27.2557 141.154 26.809 140.344C26.0294 138.929 24.271 139.142 23.8172 140.704C23.5658 141.566 26.0092 142.701 26.9729 142.17" fill="#00A3FF"/>
<path fill-rule="evenodd" clip-rule="evenodd" d="M43.3031 137.963C44.2913 137.418 44.9209 136.649 44.7031 136.253C44.2539 135.438 40.1357 136.318 39.8534 137.288C39.4938 138.537 41.5399 138.935 43.3031 137.963" fill="#00A3FF"/>
<path fill-rule="evenodd" clip-rule="evenodd" d="M62.9752 125.105C65.008 124.433 66.5317 123.631 66.3604 123.32C65.9247 122.53 64.1917 122.868 59.7586 124.611C54.8739 126.527 57.4601 126.923 62.9752 125.105" fill="#00A3FF"/>
<path fill-rule="evenodd" clip-rule="evenodd" d="M68.2064 123.194C69.0033 123.2 70.5298 123.034 71.5907 122.805C72.6566 122.585 73.3526 122.083 73.1421 121.701C72.7456 120.982 69.8015 121.455 67.8576 122.561C66.8832 123.11 66.9236 123.183 68.2064 123.194" fill="#00A3FF"/>
</svg>
