<svg width="32" height="32" viewBox="0 0 32 32" fill="none" xmlns="http://www.w3.org/2000/svg">
<rect x="7" y="9" width="19" height="14" fill="white"/>
<g clip-path="url(#clip0_2474_8843)">
<path fill-rule="evenodd" clip-rule="evenodd" d="M15.9987 1.33301C7.8987 1.33301 1.33203 7.89967 1.33203 15.9997C1.33203 24.0997 7.8987 30.6663 15.9987 30.6663C24.0987 30.6663 30.6654 24.0997 30.6654 15.9997C30.6654 7.89967 24.0987 1.33301 15.9987 1.33301ZM10.6654 14.6663C10.3117 14.6663 9.9726 14.8068 9.72256 15.0569C9.47251 15.3069 9.33203 15.6461 9.33203 15.9997C9.33203 16.3533 9.47251 16.6924 9.72256 16.9425C9.9726 17.1925 10.3117 17.333 10.6654 17.333H21.332C21.6857 17.333 22.0248 17.1925 22.2748 16.9425C22.5249 16.6924 22.6654 16.3533 22.6654 15.9997C22.6654 15.6461 22.5249 15.3069 22.2748 15.0569C22.0248 14.8068 21.6857 14.6663 21.332 14.6663H10.6654Z" fill="#00A3FF"/>
</g>
<defs>
<clipPath id="clip0_2474_8843">
<rect width="32" height="32" fill="white"/>
</clipPath>
</defs>
</svg>
