<svg width="1152" height="1445" viewBox="0 0 1152 1445" fill="none" xmlns="http://www.w3.org/2000/svg">
<g opacity="0.1">
<path d="M577.287 9.03418C357.744 9.03418 179.113 297.177 179.113 651.276C179.113 1005.37 357.693 1293.47 577.287 1293.47C796.881 1293.47 975.461 1005.43 975.461 651.276C975.461 297.127 796.831 9.03418 577.287 9.03418ZM577.287 1250.21C381.367 1250.21 221.936 981.511 221.936 651.276C221.936 321.041 381.367 52.2937 577.287 52.2937C773.208 52.2937 932.638 321.041 932.638 651.276C932.638 981.511 773.208 1250.21 577.287 1250.21V1250.21Z" fill="#505050"/>
<path d="M577.293 1302.46C352.824 1302.46 170.223 1010.3 170.223 651.229C170.223 292.154 352.824 0 577.293 0C801.762 0 984.363 292.154 984.363 651.28C984.363 1010.4 801.762 1302.51 577.293 1302.51V1302.46ZM577.293 18.0248C362.675 18.0248 188.066 302.055 188.066 651.28C188.066 1000.5 362.675 1284.43 577.293 1284.43C791.911 1284.43 966.52 1000.4 966.52 651.28C966.52 302.157 791.911 18.0248 577.293 18.0248V18.0248ZM577.293 1259.2C376.447 1259.2 213.046 986.49 213.046 651.229C213.046 315.967 376.447 43.2595 577.293 43.2595C778.139 43.2595 941.54 316.018 941.54 651.28C941.54 986.541 778.139 1259.25 577.293 1259.25V1259.2ZM577.293 61.2844C386.298 61.2844 230.889 325.97 230.889 651.28C230.889 976.589 386.298 1241.17 577.293 1241.17C768.288 1241.17 923.697 976.488 923.697 651.28C923.697 326.071 768.288 61.2844 577.293 61.2844V61.2844Z" fill="#161616"/>
<path d="M745.67 580.699C723.555 253.917 632.43 162.472 582.772 159.985C580.56 159.629 560.053 154.907 532.409 174.912C490.139 205.834 433.896 297.481 406.453 558.917C401.477 763.587 419.823 919.159 460.937 1021.47C493.507 1102.56 531.253 1125.71 546.482 1132.05C554.524 1138.25 564.175 1141.55 574.529 1141.55C582.872 1141.55 591.467 1139.42 600.212 1135.3C673.796 1100.17 767.634 904.79 745.67 580.699V580.699ZM581.867 1096.21C574.629 1099.71 572.82 1098.04 571.463 1096.82L564.024 1092.45C563.722 1092.3 532.158 1079.35 502.353 1007.66C474.809 941.347 443.195 810.198 449.226 561.659C485.465 217.765 569.754 203.244 575.785 202.686C576.79 202.838 678.721 225.229 702.998 583.542C724.057 894.889 634.541 1071.08 581.917 1096.26L581.867 1096.21Z" fill="#505050"/>
<path d="M574.526 1150.59C562.664 1150.59 551.455 1146.93 542.006 1139.93C525.42 1132.67 485.814 1107.43 452.641 1024.82C411.024 921.496 392.477 764.604 397.504 558.664C425.349 293.318 483.401 199.589 527.179 167.551C552.963 148.968 573.772 149.323 583.925 150.998C597.797 151.608 726.769 169.937 754.513 580.04C776.779 908.447 679.874 1107.18 603.979 1143.48C594.077 1148.2 584.126 1150.59 574.526 1150.59V1150.59ZM574.978 168.363C566.283 168.363 553.365 170.851 537.583 182.225C496.771 212.08 442.387 301.848 415.296 559.882C410.421 762.573 428.515 916.977 469.177 1018.07C500.54 1096.21 536.075 1117.94 549.847 1123.73L551.908 1124.85C563.719 1133.99 579.853 1134.9 596.339 1127.08C667.661 1093.06 758.383 901.135 736.72 581.258C715.007 260.112 626.195 171.105 582.266 168.922C580.406 168.566 577.893 168.312 574.928 168.312L574.978 168.363ZM574.928 1107.33C571.46 1107.33 568.494 1106.11 565.73 1103.72L559.548 1100.27C556.884 1099.21 524.163 1083.41 494.107 1011.16C466.211 944.039 434.245 811.519 440.276 561.456C476.264 220.051 558.743 195.223 574.877 193.75C577.994 193.903 686.76 212.791 711.841 582.883C732.448 887.579 648.812 1074.17 585.784 1104.33C581.713 1106.36 578.144 1107.38 574.978 1107.38L574.928 1107.33ZM575.229 211.978C564.473 215.025 491.292 247.469 458.069 562.675C452.138 808.828 483.351 938.708 510.542 1004.16C538.337 1071.03 567.187 1084.02 567.489 1084.18L575.883 1089.05C576.385 1088.85 577.089 1088.54 577.994 1088.14H578.044C627.15 1064.63 714.505 887.426 693.998 584.152C672.084 261.28 586.84 216.548 575.179 211.978H575.229Z" fill="#161616"/>
<path d="M577.328 1289.86C359.745 1289.86 182.723 1003.35 182.723 651.278C182.723 299.211 359.745 12.5908 577.328 12.5908C794.911 12.5908 971.933 299.109 971.933 651.278C971.933 1003.45 794.911 1289.86 577.328 1289.86V1289.86ZM577.328 48.6912C379.397 48.6912 218.459 319.013 218.459 651.278C218.459 983.544 379.447 1253.82 577.328 1253.82C775.209 1253.82 936.197 983.494 936.197 651.278C936.197 319.063 775.259 48.6912 577.328 48.6912V48.6912ZM574.564 1138C564.913 1138 555.967 1134.95 548.327 1128.91C520.18 1117.59 398.346 1040.16 410.006 559.022C437.399 298.957 492.838 208.325 534.505 177.861C559.234 159.887 578.333 162.628 581.902 163.542C593.211 164.101 715.246 184.106 742.136 580.956C763.95 903.372 671.368 1097.38 598.689 1132.11C590.446 1136.07 582.254 1138.05 574.564 1138.05V1138ZM576.071 199.033C570.543 199.033 482.886 207.817 445.642 561.357C433.981 1044.98 561.495 1095.4 562.752 1095.91L569.638 1099.97C570.744 1101.04 573.81 1104.13 583.41 1099.46C636.788 1073.97 727.711 896.365 706.501 583.292C681.822 218.531 577.328 199.236 576.323 199.084C576.323 199.033 576.172 199.033 576.071 199.033V199.033Z" fill="white"/>
<path d="M577.287 1293.47C357.744 1293.47 179.113 1005.43 179.113 651.276C179.113 297.127 357.693 9.03418 577.287 9.03418C796.881 9.03418 975.461 297.177 975.461 651.276C975.461 1005.37 796.881 1293.47 577.287 1293.47ZM577.287 16.1933C361.664 16.1933 186.25 301.087 186.25 651.276C186.25 1001.47 361.664 1286.26 577.287 1286.26C792.91 1286.26 968.324 1001.36 968.324 651.276C968.324 301.188 792.91 16.1933 577.287 16.1933V16.1933ZM577.287 1257.37C377.446 1257.37 214.849 985.42 214.849 651.225C214.849 317.03 377.396 45.0838 577.287 45.0838C777.178 45.0838 939.725 317.03 939.725 651.276C939.725 985.522 777.128 1257.42 577.287 1257.42V1257.37ZM577.287 52.243C381.367 52.243 221.936 320.99 221.936 651.225C221.936 981.46 381.367 1250.16 577.287 1250.16C773.208 1250.16 932.638 981.46 932.638 651.225C932.638 320.99 773.208 52.243 577.287 52.243V52.243ZM574.523 1141.55C564.219 1141.55 554.519 1138.25 546.477 1132.06C531.298 1125.71 493.501 1102.56 460.931 1021.47C419.767 919.16 401.471 763.588 406.447 558.918C433.941 297.482 490.133 205.835 532.403 174.913C559.947 154.908 580.554 159.579 582.766 159.986C632.424 162.474 723.549 253.867 745.664 580.7C767.629 904.842 673.79 1100.17 600.206 1135.31C591.511 1139.47 582.866 1141.55 574.523 1141.55ZM574.724 166.383C566.933 166.383 553.262 168.566 536.575 180.752C495.461 210.76 440.726 300.935 413.534 559.324C401.873 1041.32 524.864 1115.55 549.643 1125.51L550.498 1126.06C563.063 1136.02 579.75 1136.98 597.141 1128.81C668.914 1094.48 760.29 901.897 738.577 581.106C711.335 178.163 586.988 167.399 581.76 167.094C581.258 167.043 578.795 166.383 574.774 166.383H574.724ZM574.724 1105.5C571.758 1105.5 569.296 1104.59 567.235 1102.61L560.902 1098.95C556.077 1097.17 430.372 1043.51 442.033 561.253C472.491 272.4 540.546 195.426 576.031 195.426H578.242L578.594 195.984C592.868 200.148 686.908 240.869 710.028 583.086C731.39 897.835 639.059 1076.86 584.927 1102.71C581.007 1104.59 577.639 1105.5 574.724 1105.5V1105.5ZM575.679 202.687C569.698 203.245 485.409 217.767 449.12 561.66C443.138 810.199 474.703 941.349 502.246 1007.66C532.051 1079.35 563.616 1092.35 563.917 1092.45L571.356 1096.82C572.663 1098.04 574.523 1099.71 581.76 1096.21C634.385 1071.08 723.901 894.89 702.841 583.493C678.565 225.18 576.634 202.788 575.628 202.636L575.679 202.687Z" fill="#505050"/>
<path d="M577.29 30.6689C369.206 30.6689 200.527 308.505 200.527 651.23C200.527 993.955 369.206 1271.79 577.29 1271.79C785.373 1271.79 954.052 993.955 954.052 651.23C954.052 308.505 785.373 30.6689 577.29 30.6689ZM557.386 1113.02C557.386 1113.02 415.396 1072.76 427.861 559.431C470.232 157.655 578.144 181.113 578.144 181.113C578.144 181.113 697.717 189.49 724.305 582.076C750.894 974.611 605.788 1159.02 557.386 1113.02Z" fill="#00A3FF"/>
<path d="M0 1430.55C0 1430.55 471.456 1134.85 1152 1430.55Z" fill="#FCFCFC"/>
<path d="M0 1444.16C99.1665 1371.04 228.339 1327.02 348.364 1304.17C572.08 1262.64 806.903 1291.28 1017.05 1378.05C1027.6 1382.06 1041.32 1388.36 1051.58 1393.03C1074.19 1403.23 1097.32 1414.15 1119.08 1426.13C1130.09 1432.07 1141.14 1438.01 1152 1444.21C1128.28 1437.91 1103.85 1429.94 1080.28 1423.24C1063.14 1418.62 1043.74 1413.23 1026.6 1408.31C996.691 1400.85 966.836 1392.77 936.779 1386.38C908.632 1379.62 874.806 1373.43 846.71 1367.84C825.801 1364.59 795.292 1359.01 774.283 1356.52C763.929 1355.2 748.549 1353.07 737.994 1351.7C719.849 1349.67 701.604 1348.14 683.46 1346.11C670.743 1345.35 641.139 1343.12 628.825 1342.4C615.707 1341.9 596.306 1341.14 583.238 1340.68C576.754 1340.68 544.687 1340.32 537.65 1340.22C507.443 1340.63 476.733 1341.59 446.526 1343.42C293.78 1354.08 141.99 1384.34 0 1444.16Z" fill="#161616"/>
<path d="M929.11 935.641C928.404 931.767 927.546 927.842 926.74 924.07C925.227 917.291 923.714 910.308 923.159 903.324C923.109 902.611 923.058 901.948 923.008 901.235C922.655 896.239 922.302 891.04 919.578 886.962C916.855 882.935 916.351 878.653 915.846 874.117C915.746 873.301 915.645 872.486 915.544 871.67C915.746 871.211 915.645 870.6 915.292 870.243L913.678 863.565V863.464C913.678 863.464 913.628 863.362 913.628 863.311L913.073 861.221C913.224 858.468 912.619 855.97 911.257 854.033C905.004 844.807 901.524 834.154 898.196 823.807C897.792 822.532 897.389 821.258 896.985 819.984C896.834 819.474 896.683 818.964 896.582 818.403C896.178 816.67 895.674 814.529 893.758 813.102L893.455 812.236L893.052 811.114C893.152 810.808 893.203 810.503 893.152 810.146C893.052 809.534 892.699 809.075 892.346 808.77L891.69 803.672C891.993 803.162 891.993 802.704 891.942 802.347C891.892 801.99 891.69 801.531 891.236 801.175V801.073C891.085 800.614 890.984 800.155 890.883 799.696C891.337 796.893 890.48 794.293 888.311 791.643C888.109 791.235 887.857 790.827 887.655 790.419L887.252 789.706C887.05 789.145 886.798 788.584 886.596 788.023C885.336 784.71 883.974 781.346 882.965 777.88C882.31 775.637 881.2 771.916 877.771 769.979L877.418 769.163C876.813 766.666 875.401 764.474 873.081 762.486C873.03 762.435 872.98 762.333 872.879 762.282C871.568 758.867 869.349 756.216 867.13 753.617C866.121 752.393 865.062 751.17 864.154 749.845L863.751 749.284C861.885 746.633 859.969 743.932 856.993 741.944C852.303 738.835 850.286 735.011 850.639 730.016C850.639 729.659 850.689 729.303 850.74 728.895C850.992 725.531 851.244 722.115 850.236 718.649L850.084 713.45C850.639 710.952 850.589 708.557 850.034 706.263L850.135 702.746C850.891 701.165 850.286 699.687 849.731 698.668L849.277 697.393C849.076 696.782 848.823 696.17 848.622 695.507C848.672 694.284 848.218 693.163 847.21 692.398C847.058 692.245 846.907 692.143 846.705 692.092C846.655 691.939 846.604 691.837 846.504 691.786C846.403 691.684 846.302 691.532 846.151 691.43L845.848 689.9L845.747 689.391C845.949 688.677 845.999 687.709 844.789 686.791C844.385 685.874 843.982 684.905 843.579 683.988C843.579 682.713 842.973 681.643 841.814 680.98C841.36 680.419 840.906 679.859 840.452 679.298C840.2 678.177 839.544 677.412 838.485 677.055V676.953C838.283 676.546 838.082 676.138 837.88 675.73C833.845 668.543 827.844 663.191 822.045 657.991C819.22 655.494 816.295 652.843 813.673 650.091C800.107 635.818 782.002 633.575 764.503 631.383H764.099C754.114 630.109 743.574 628.07 734.143 621.597C733.639 621.291 733.185 620.934 732.681 620.577C729.554 618.385 726.074 615.888 721.485 616.091C720.728 615.378 719.77 615.225 719.064 615.072C718.812 615.072 718.61 614.97 718.409 614.919L716.694 614.409C691.731 607.324 665.91 599.933 642.258 587.801C638.828 586.017 637.517 583.979 637.618 580.512C637.668 578.219 637.769 575.925 637.87 573.682C638.072 567.667 638.324 561.448 638.122 555.281C638.021 551.611 639.131 549.521 642.056 547.992C651.234 543.149 656.076 535.605 656.832 524.952C657.135 521.027 657.891 517.102 658.648 513.279C659.707 507.825 660.816 502.116 660.614 496.305C660.514 494.113 659.354 491.921 657.589 490.647C656.328 489.729 654.916 489.424 653.655 489.831C652.747 490.137 649.923 491.004 649.015 490.341C648.108 489.678 648.158 486.62 648.158 485.652C648.208 480.809 647.603 475.967 646.998 471.277C646.494 467.352 645.989 463.325 645.889 459.349V459.248C644.678 447.524 638.122 438.603 631.869 431.467L631.768 431.365C631.465 431.008 631.213 430.652 630.911 430.244C630.154 429.224 629.347 428.154 628.238 427.44C613.865 417.603 600.601 409.294 584.464 406.796C584.363 406.796 584.262 406.694 584.161 406.643C583.757 406.389 583.203 406.134 582.547 406.032C577.706 405.42 572.965 405.624 567.973 406.796H567.922C566.056 407.255 564.089 407.816 562.173 408.529C526.165 419.743 514.062 435.494 513.053 436.921C510.078 440.082 507.707 444.771 505.993 450.837C505.841 451.041 505.791 451.296 505.791 451.602C504.429 456.648 503.925 461.185 503.824 462.102C503.572 464.09 503.421 466.129 503.269 468.117C503.118 470.207 503.017 472.348 502.715 474.387C502.362 476.884 502.261 479.382 502.16 481.829C502.059 484.071 502.009 486.212 501.706 488.353C501.706 488.608 501.706 488.914 501.656 489.22C501.656 489.678 501.605 490.647 501.403 491.004C501.252 491.004 500.899 490.851 500.344 490.443C496.461 487.792 493.334 487.639 491.065 489.933C488.291 492.788 490.208 496.152 491.569 498.65C491.67 498.854 491.771 499.006 491.872 499.21C492.225 499.822 492.578 500.485 492.931 501.096C494.646 504.053 496.259 506.856 496.259 510.119C496.159 518.019 496.259 525.767 498.63 533.872C500.143 539.02 501.908 543.812 507.455 546.055C511.338 547.635 513.204 550.744 513.557 556.198C514.112 564.66 515.675 573.274 518.449 582.551C519.962 587.547 519.004 590.146 514.717 593.001C507.405 597.792 499.739 602.074 491.872 605.591C488.997 606.916 486.072 608.242 483.299 609.567C472.204 614.766 460.706 620.169 448.653 623.432C434.431 627.306 423.79 632.454 415.166 639.692C413.3 641.221 411.132 641.68 407.551 641.221C395.7 639.641 383.596 640.966 371.594 645.095C361.659 648.51 353.489 654.984 345.571 661.203C344.563 662.018 343.504 662.834 342.495 663.649C331.955 671.856 323.987 681.184 318.792 691.277C313.295 701.981 310.723 714.011 311.127 727.06C311.48 738.07 309.11 745.002 302.957 751.068C285.76 767.991 276.481 790.419 269.672 810.095C267.252 817.078 263.923 823.756 260.696 830.229C258.527 834.562 256.308 838.996 254.341 843.584C252.022 848.987 248.844 854.288 245.718 859.437C244.205 861.934 242.641 864.534 241.179 867.134C233.967 880.03 229.882 892.212 228.773 904.395C227.915 913.417 226.705 922.49 225.495 931.309C224.284 940.331 223.024 949.659 222.166 958.936C221.965 961.179 221.662 963.473 221.41 965.664C220.351 974.432 219.292 983.454 222.015 992.629C223.881 998.95 224.184 1005.68 224.537 1012.2C224.738 1016.99 224.99 1021.89 225.848 1026.68C228.672 1042.84 228.975 1058.84 229.025 1076.53C229.025 1077.04 229.025 1077.55 229.025 1078.06C228.975 1080.76 228.924 1083.77 230.79 1086.47C231.194 1089.53 232.404 1092.28 233.665 1094.88C233.866 1095.34 234.068 1095.75 234.27 1096.21C234.27 1096.51 234.371 1096.77 234.522 1097.02C234.623 1097.48 234.825 1097.94 235.178 1098.3C235.228 1098.65 235.48 1098.96 235.783 1099.16C237.649 1103.14 237.548 1107.27 236.791 1112.26C236.791 1112.42 236.69 1112.72 236.59 1113.03C236.287 1114 235.984 1115.07 236.59 1115.98C236.892 1116.44 237.397 1116.75 237.951 1116.8C240.624 1117.05 240.826 1118.12 240.977 1120.78C240.977 1121.69 241.078 1122.61 241.33 1123.48C241.078 1127.91 241.431 1132.35 241.734 1136.63C242.036 1140.6 242.288 1144.73 242.137 1148.76C241.683 1160.59 245.012 1165.02 256.913 1168.54C261.351 1171.34 265.184 1175.06 268.966 1178.63C271.438 1181.03 274.01 1183.47 276.733 1185.66C276.834 1185.77 276.985 1185.82 277.136 1185.87C279.809 1187.14 282.179 1188.88 284.701 1190.66C286.365 1191.88 288.13 1193.16 289.946 1194.28C292.215 1195.65 294.636 1196.52 297.006 1197.34L297.662 1197.59C299.629 1198.25 301.494 1198.51 303.31 1198.51C305.832 1198.51 308.252 1198.05 310.572 1197.54C311.177 1197.44 311.833 1197.29 312.438 1197.18H314.455C314.455 1197.18 314.607 1197.18 314.657 1197.18C316.725 1196.98 319.297 1196.42 320.759 1193.82L324.289 1190.76C326.66 1190.4 328.979 1190.76 331.551 1191.32C331.804 1191.32 332.056 1191.42 332.308 1191.53C333.619 1191.88 335.737 1192.49 337.351 1190.4C340.074 1188.01 341.385 1184.85 342.646 1181.84C342.898 1181.28 343.1 1180.67 343.352 1180.11H343.403L343.806 1179.6C343.806 1179.6 343.958 1179.34 344.058 1179.24C345.269 1176.34 346.328 1173.07 344.916 1170.78C343.554 1168.59 340.326 1168.13 337.351 1168.03C336.847 1168.03 336.393 1168.03 335.939 1168.08H335.788C330.745 1165.38 325.802 1166.4 321.516 1167.98C321.112 1167.42 320.658 1166.8 320.255 1166.24L319.549 1165.27L319.65 1164.87C319.801 1164.15 319.902 1163.49 320.104 1162.88C321.364 1158.5 321.163 1154.98 319.398 1152.48C317.683 1150.03 314.506 1148.61 310.017 1148.35C309.765 1148.05 309.412 1147.69 308.908 1147.49C308.504 1145.96 308.857 1144.63 310.017 1143.31C312.892 1139.99 315.817 1136.37 317.632 1131.89C317.935 1131.17 318.439 1130.92 319.549 1130.51C319.851 1130.41 320.154 1130.31 320.457 1130.15C321.869 1129.54 322.171 1129.9 323.129 1131.48C323.684 1132.4 324.34 1133.52 325.55 1134.03C325.651 1134.18 325.701 1134.39 325.802 1134.54C326.559 1136.12 327.467 1138.11 329.887 1138.82L330.845 1139.48C331.652 1140.35 332.409 1141.16 333.216 1141.98C335.031 1143.92 336.897 1145.9 338.914 1147.74C341.789 1150.39 345.269 1153.19 350.11 1153.19H350.161C352.228 1153.86 357.725 1155.44 361.003 1149.98C361.558 1149.07 361.608 1147.79 361.205 1146.16C360.499 1143.46 358.431 1139.74 356.111 1138.11C355.859 1137.39 355.607 1136.68 355.355 1135.97C354.245 1132.7 353.136 1129.39 350.614 1126.59C349.555 1122.87 347.236 1119.7 343.504 1116.95C342.949 1116.19 342.445 1115.42 341.89 1114.66L341.385 1113.94C341.234 1113.69 341.133 1113.44 340.982 1113.13C340.276 1111.6 339.368 1109.51 336.847 1109.05C336.695 1108.75 336.595 1108.44 336.443 1108.13C335.838 1106.76 335.233 1105.28 333.922 1104.06C333.821 1103.55 333.518 1103.24 333.266 1103.04C333.014 1102.83 332.56 1102.63 332.005 1102.68H331.904C330.039 1099.62 327.769 1096.67 324.088 1094.88C320.709 1093.25 317.179 1091.82 313.749 1090.45C308.151 1088.2 302.402 1085.91 297.309 1082.55C296.401 1081.98 295.392 1081.98 294.485 1081.98H294.132C293.627 1081.37 293.123 1080.76 292.619 1080.1C293.879 1076.84 291.61 1074.7 289.946 1073.17C289.088 1071.43 288.836 1069.45 288.584 1067.41V1067.15C287.676 1059.91 288.937 1053.03 290.349 1045.74C290.5 1044.93 290.652 1044.11 290.803 1043.3C291.408 1039.93 292.266 1036.57 293.123 1033.31C295.14 1025.46 297.208 1017.3 296.149 1008.69C295.291 1001.7 295.291 994.566 295.392 987.328C297.309 985.748 297.914 983.505 298.469 981.517C298.822 980.192 299.175 978.917 299.881 977.949C304.419 971.985 306.033 964.951 307.597 958.222C308.404 954.705 309.261 951.035 310.471 947.62C313.144 940.331 312.892 932.685 312.64 925.243C312.539 921.777 312.388 918.158 312.589 914.691V914.589C312.791 914.284 312.993 913.876 313.094 913.468C315.313 904.701 319.65 897.106 325.449 888.338L325.55 888.185C325.55 888.185 325.954 887.574 326.155 887.37C331.602 887.268 335.132 884.057 338.561 880.896C339.52 879.979 340.478 879.163 341.436 878.399C342.747 877.379 344.058 876.309 345.37 875.34C350.564 871.313 355.96 867.185 359.894 861.934C362.718 858.162 365.895 854.543 368.921 851.026C374.115 845.062 379.511 838.895 383.496 831.707C383.899 830.994 384.252 830.739 384.403 830.739C384.605 830.739 385.059 830.994 385.563 831.605C391.464 839.098 397.868 846.948 405.836 853.269C408.358 855.308 410.728 857.653 413.048 859.895C415.721 862.546 418.495 865.248 421.571 867.541C421.974 868.459 422.63 869.173 423.235 869.835C424.042 870.753 424.546 871.313 424.496 872.027C424.244 875.799 424.899 879.418 425.505 882.986C426.009 885.943 426.513 888.695 426.513 891.55C426.564 905.873 427.824 920.349 429.035 934.367C430.043 945.785 431.052 957.611 431.405 969.283C431.809 981.568 434.027 992.578 438.062 1002.06C439.878 1006.29 440.584 1010.88 440.281 1016.48C440.029 1020.87 440.18 1025.35 440.281 1029.69C440.281 1031.57 440.382 1033.46 440.382 1035.4V1035.8C439.827 1043.19 439.222 1050.79 437.558 1058.18C437.003 1060.58 436.398 1063.02 435.793 1065.37C434.027 1072.45 432.162 1079.79 431.808 1087.54C431.455 1094.58 430.144 1101.71 428.934 1108.59C427.623 1115.98 426.211 1123.63 425.908 1131.38C425.656 1137.6 425.051 1143.97 424.446 1150.08C423.487 1159.97 422.529 1170.22 423.033 1180.31C423.487 1189.79 422.075 1199.07 420.714 1208.09C420.008 1212.53 419.352 1217.11 418.848 1221.7C418.142 1228.53 417.335 1235.46 416.578 1242.19C414.561 1259.93 412.443 1278.33 411.787 1296.53C411.434 1306.42 411.535 1316.51 411.636 1326.25C411.636 1330.63 411.737 1335.12 411.737 1339.55C411.737 1340.32 412.342 1340.93 413.099 1340.93H797.686C798.09 1340.93 798.443 1340.77 798.695 1340.47C798.947 1340.16 799.098 1339.81 799.048 1339.4C798.645 1335.27 798.241 1331.04 797.888 1326.96C797.081 1317.79 796.173 1308.36 794.761 1299.13C791.635 1278.89 786.39 1258.71 781.195 1239.9C780.439 1237.15 779.884 1234.24 779.43 1231.44C778.825 1228.18 778.22 1224.76 777.211 1221.45C775.345 1215.28 773.782 1208.81 772.319 1202.59C770.907 1196.62 769.445 1190.46 767.68 1184.44C765.461 1176.95 763.544 1169.2 761.729 1161.66C760.872 1158.09 759.964 1154.42 759.056 1150.85C756.988 1142.8 754.517 1134.69 752.097 1126.89C748.163 1114.2 744.128 1101.05 741.859 1087.74C741.103 1083.31 739.842 1079.03 738.631 1074.9C737.623 1071.48 736.614 1067.97 735.908 1064.45C734.547 1057.87 732.025 1052.68 728.091 1048.6C726.326 1046.71 726.024 1045.13 727.184 1043.09C728.797 1040.19 728.697 1037.23 726.931 1034.22V1034.12C726.679 1033.82 726.276 1033.1 726.175 1032.74C729.655 1023.82 722.897 1019.85 717.955 1016.89C715.131 1015.21 715.383 1014.5 716.896 1011.79C717.652 1010.37 718.711 1009.14 719.77 1007.82C721.233 1006.03 722.746 1004.15 723.704 1001.8C728.596 989.52 732.075 976.267 733.992 962.402C734.9 955.776 735.353 948.945 735.757 942.37C736.11 936.457 736.513 930.289 737.219 924.325C739.287 907.81 737.472 891.142 735.757 875.034C735.606 873.403 735.404 871.772 735.253 870.09C734.446 862.597 736.665 857.907 742.767 853.983C755.627 845.674 765.965 837.365 774.337 828.598C775.547 827.324 776.606 826.814 778.119 826.763C778.976 827.477 779.531 828.445 780.136 829.617C780.489 830.28 780.893 830.994 781.347 831.656C782.658 833.491 783.717 835.479 784.826 837.569C786.692 841.086 788.659 844.756 791.887 847.662C793.702 850.516 796.022 853.014 798.241 855.359L798.695 855.869C800.863 858.162 803.335 860.048 805.755 861.883C808.025 863.616 810.143 865.197 812.009 867.134L812.715 867.847C815.488 870.702 818.111 873.454 821.944 875.085C825.07 876.462 826.382 877.991 826.482 880.387C825.423 884.413 826.18 888.644 828.651 892.824C834.501 902.662 836.77 913.621 835.56 926.364C834.602 936.865 835.157 944.765 837.376 951.851C840.704 962.504 844.537 973.208 848.218 983.607C848.975 985.646 849.681 987.736 850.437 989.775C851.244 991.966 851.9 994.311 852.555 996.554C853.867 1001.04 855.178 1005.63 857.548 1009.91L857.649 1010.47C857.397 1011.59 857.649 1012.71 858.355 1013.63C858.355 1015.26 859.364 1016.23 860.07 1016.94C860.473 1017.35 860.826 1017.71 860.927 1018.01C861.33 1023.37 862.137 1028.77 863.398 1034.58C865.113 1042.68 866.525 1049.41 867.634 1056.45C868.189 1060.07 867.382 1063.53 866.474 1067.25C865.667 1070.72 864.81 1074.29 865.163 1078.06C865.163 1078.37 864.659 1078.77 863.902 1079.18C858.91 1082.29 855.43 1085.4 852.606 1089.22C850.639 1091.92 848.42 1094.52 846.251 1097.07C838.838 1105.84 831.223 1114.96 831.173 1128.37C831.173 1128.42 831.072 1128.57 831.021 1128.68C827.642 1135.46 825.776 1142.8 823.961 1149.88C822.347 1156.2 820.683 1162.73 817.96 1168.69C816.8 1171.29 817.052 1173.89 818.716 1175.88C820.431 1177.97 822.952 1178.53 826.129 1177.51L826.432 1177.41C827.945 1176.9 829.71 1176.39 831.173 1175.06C839.948 1167.21 846.453 1157.12 850.387 1145.14C852.001 1140.25 853.766 1139.69 857.245 1140.35L857.598 1140.6C858.809 1143.41 861.229 1144.32 863.398 1145.09C864.104 1145.34 864.76 1145.6 865.415 1145.9C865.819 1146.11 866.222 1146.21 866.525 1146.36C867.281 1146.62 867.584 1146.77 867.786 1147.08C868.139 1148.91 866.323 1159.67 865.365 1161.15C862.238 1163.85 859.817 1167.31 857.901 1171.75C856.741 1174.5 854.573 1175.78 851.042 1175.93C850.437 1175.93 849.782 1175.93 849.076 1175.93C848.017 1175.93 846.907 1175.83 845.798 1175.93C843.074 1176.28 840.149 1178.58 838.989 1181.23C838.283 1182.86 838.334 1184.34 839.141 1185.51C839.645 1186.22 840.048 1186.99 840.502 1187.8C841.864 1190.25 843.427 1193 846.756 1194.13C848.975 1195.65 851.446 1196.52 854.018 1196.78C858.859 1197.18 863.701 1197.59 868.542 1198C872.829 1198.36 877.115 1198.71 881.402 1199.07C885.235 1199.38 888.412 1198.61 891.337 1196.57C891.639 1196.37 891.942 1196.11 892.295 1195.91C893.556 1194.94 894.817 1194.07 896.279 1194.13C900.415 1194.38 903.793 1192.29 906.113 1188.16C907.525 1185.61 909.442 1184.19 912.316 1183.52C913.022 1183.78 913.577 1183.68 913.93 1183.52C914.485 1183.32 914.888 1182.86 915.191 1182.2C916.351 1181.23 916.906 1180.01 917.46 1178.83V1178.68C919.629 1177.3 920.234 1175.11 920.789 1173.23C920.94 1172.77 921.041 1172.31 921.192 1171.9C921.696 1170.37 922.049 1168.79 922.402 1167.26C923.058 1164.46 923.663 1161.76 925.126 1159.36C928.858 1153.14 930.371 1147.59 929.665 1142.39C929.463 1140.91 929.312 1139.48 929.11 1138C927.95 1128.42 926.74 1118.58 924.268 1109.26C922.302 1101.76 921.495 1095.59 923.562 1087.95C926.185 1078.31 925.781 1068.32 925.378 1058.64C925.176 1054.05 924.975 1049.31 925.126 1044.72C925.328 1037.23 926.79 1029.79 928.202 1022.6C929.009 1018.52 929.816 1014.34 930.421 1010.16C930.724 1008.18 931.077 1006.19 931.43 1004.25C932.287 999.561 933.245 994.668 932.892 989.673C933.144 989.316 933.447 988.806 933.447 988.143C933.598 971.118 932.085 953.584 929.009 936.049L929.11 935.641Z" fill="#161616"/>
</g>
</svg>
