<svg width="30" height="30" viewBox="0 0 30 30" fill="none" xmlns="http://www.w3.org/2000/svg">
<rect x="7" y="8" width="14" height="14" fill="white"/>
<path fill-rule="evenodd" clip-rule="evenodd" d="M14.6667 0C6.56667 0 0 6.56667 0 14.6667C0 22.7667 6.56667 29.3333 14.6667 29.3333C22.7667 29.3333 29.3333 22.7667 29.3333 14.6667C29.3333 6.56667 22.7667 0 14.6667 0ZM16 20C16 20.3536 15.8595 20.6928 15.6095 20.9428C15.3594 21.1929 15.0203 21.3333 14.6667 21.3333C14.313 21.3333 13.9739 21.1929 13.7239 20.9428C13.4738 20.6928 13.3333 20.3536 13.3333 20V16H9.33333C8.97971 16 8.64057 15.8595 8.39052 15.6095C8.14048 15.3594 8 15.0203 8 14.6667C8 14.313 8.14048 13.9739 8.39052 13.7239C8.64057 13.4738 8.97971 13.3333 9.33333 13.3333H13.3333V9.33333C13.3333 8.97971 13.4738 8.64057 13.7239 8.39052C13.9739 8.14048 14.313 8 14.6667 8C15.0203 8 15.3594 8.14048 15.6095 8.39052C15.8595 8.64057 16 8.97971 16 9.33333V13.3333H20C20.3536 13.3333 20.6928 13.4738 20.9428 13.7239C21.1929 13.9739 21.3333 14.313 21.3333 14.6667C21.3333 15.0203 21.1929 15.3594 20.9428 15.6095C20.6928 15.8595 20.3536 16 20 16H16V20Z" fill="#00A3FF"/>
</svg>
