<svg width="24" height="25" viewBox="0 0 24 25" fill="none" xmlns="http://www.w3.org/2000/svg">
<path d="M6.54632 12.5654H11.1417V17.1609C11.1417 17.6279 11.5259 18.0197 12.0006 18.0197C12.4752 18.0197 12.8594 17.6279 12.8594 17.1609V12.5654H17.4548C17.9219 12.5654 18.3136 12.1812 18.3136 11.7066C18.3136 11.232 17.9219 10.8478 17.4548 10.8478H12.8594V6.25237C12.8594 5.7853 12.4752 5.39355 12.0006 5.39355C11.5259 5.39355 11.1417 5.7853 11.1417 6.25237V10.8478H6.54632C6.07924 10.8478 5.6875 11.232 5.6875 11.7066C5.6875 12.1812 6.07924 12.5654 6.54632 12.5654Z" fill="#00A3FF"/>
</svg>
