<svg width="65" height="65" viewBox="0 0 65 65" fill="none" xmlns="http://www.w3.org/2000/svg">
<circle cx="32.2574" cy="32.2574" r="32.2574" fill="#FEFEFE"/>
<path d="M60.0735 32.2562L53.9654 25.3574L54.8165 16.2332L45.7794 14.2056L41.0481 6.29297L32.5368 9.9031L24.0254 6.29297L19.2941 14.1808L10.257 16.1837L11.1082 25.3327L5 32.2562L11.1082 39.155L10.257 48.304L19.2941 50.3316L24.0254 58.2194L32.5368 54.5846L41.0481 58.1947L45.7794 50.3068L54.8165 48.2792L53.9654 39.155L60.0735 32.2562ZM27.7554 43.9273L18.2427 34.5064L21.9476 30.8468L27.7554 36.6081L42.3999 22.0935L46.1049 25.753L27.7554 43.9273V43.9273Z" fill="#00A3FF"/>
</svg>
