<svg width="210" height="173" viewBox="0 0 210 173" fill="none" xmlns="http://www.w3.org/2000/svg">
<g opacity="0.2">
<path fill-rule="evenodd" clip-rule="evenodd" d="M44.0312 167.661C44.0312 164.855 46.5153 162.581 49.5795 162.581H160.419C163.483 162.581 165.967 164.855 165.967 167.661C165.967 170.467 163.483 172.742 160.419 172.742H49.5795C46.5153 172.742 44.0312 170.467 44.0312 167.661Z" fill="#00A3FF"/>
<path fill-rule="evenodd" clip-rule="evenodd" d="M31.7959 1.97977C32.8586 0.724667 34.4259 0 36.0777 0H173.923C175.575 0 177.142 0.724666 178.205 1.97976C179.268 3.23486 179.717 4.89203 179.433 6.50709L171.308 52.6779C171.308 52.6793 171.308 52.6808 171.307 52.6822C167.321 75.5339 158.855 95.1706 147.419 109.225C136.026 123.227 121.34 132.04 105.108 132.096C105.089 132.097 105.07 132.097 105.051 132.097H104.95C104.931 132.097 104.912 132.097 104.893 132.096C88.6579 132.04 73.9975 123.224 62.6177 109.222C51.1961 95.169 42.732 75.535 38.695 52.69L30.5678 6.5071C30.2836 4.89204 30.7331 3.23486 31.7959 1.97977ZM105 120.993C93.0765 120.975 81.3018 114.527 71.3245 102.251C61.3385 89.9638 53.4992 72.1922 49.7141 50.7756C49.7141 50.7752 49.714 50.7748 49.7139 50.7744C49.7138 50.7735 49.7136 50.7726 49.7134 50.7717L42.7327 11.1036H167.268L160.286 50.7838C156.551 72.1936 148.714 89.9623 138.717 102.248C128.728 114.524 116.927 120.975 105 120.993Z" fill="#00A3FF"/>
<path fill-rule="evenodd" clip-rule="evenodd" d="M62.2125 30.5601C65.2414 30.0675 68.1147 32.0145 68.6303 34.9089L71.053 48.5109C71.0533 48.5127 71.0537 48.5145 71.054 48.5163C72.507 56.5677 74.7276 64.0211 77.5003 70.5995C78.6482 73.3229 77.2684 76.4199 74.4185 77.5169C71.5685 78.6138 68.3277 77.2953 67.1798 74.5718C64.0932 67.2488 61.6665 59.0632 60.0886 50.3174L60.0866 50.3062L57.6618 36.6929C57.1463 33.7985 59.1837 31.0528 62.2125 30.5601Z" fill="#00A3FF"/>
<path fill-rule="evenodd" clip-rule="evenodd" d="M95.9401 121.936C99.0741 121.936 101.615 124.391 101.615 127.42H95.9401C101.615 127.42 101.615 127.422 101.615 127.425L101.615 127.431L101.615 127.446L101.614 127.487C101.614 127.519 101.614 127.56 101.613 127.611C101.612 127.713 101.609 127.853 101.603 128.027C101.593 128.375 101.573 128.864 101.533 129.473C101.454 130.69 101.299 132.398 100.992 134.436C100.381 138.482 99.1493 143.972 96.6301 149.537C94.1097 155.104 90.2102 160.942 84.162 165.395C78.0392 169.904 70.0496 172.742 59.8699 172.742C56.7359 172.742 54.1953 170.287 54.1953 167.258C54.1953 164.229 56.7359 161.774 59.8699 161.774C67.7253 161.774 73.262 159.632 77.2839 156.671C81.3805 153.655 84.2441 149.533 86.2325 145.141C88.2221 140.746 89.2447 136.276 89.7613 132.853C90.0174 131.155 90.1439 129.751 90.2061 128.789C90.2371 128.309 90.252 127.942 90.2591 127.707C90.2626 127.59 90.2642 127.505 90.2649 127.456C90.2653 127.432 90.2654 127.417 90.2655 127.41C90.2655 127.41 90.2655 127.409 90.2655 127.409M95.9401 121.936C92.8097 121.936 90.2714 124.385 90.2655 127.409Z" fill="#00A3FF"/>
<path fill-rule="evenodd" clip-rule="evenodd" d="M119.736 128.717C119.736 128.717 119.736 128.717 119.736 128.717ZM114.061 128.721C108.387 128.721 108.387 128.724 108.387 128.726L108.387 128.732L108.387 128.747L108.387 128.787C108.387 128.818 108.388 128.858 108.388 128.908C108.39 129.007 108.393 129.142 108.398 129.311C108.408 129.65 108.429 130.125 108.468 130.716C108.547 131.898 108.702 133.557 109.01 135.536C109.62 139.466 110.852 144.799 113.371 150.203C115.892 155.611 119.791 161.281 125.839 165.606C131.962 169.985 139.952 172.742 150.131 172.742C153.265 172.742 155.806 170.357 155.806 167.415C155.806 164.474 153.265 162.089 150.131 162.089C142.276 162.089 136.739 160.009 132.717 157.133C128.621 154.203 125.757 150.199 123.769 145.933C121.779 141.665 120.757 137.323 120.24 133.999C119.984 132.35 119.858 130.986 119.795 130.052C119.764 129.586 119.749 129.229 119.742 129.001C119.739 128.887 119.737 128.805 119.736 128.757C119.736 128.734 119.736 128.719 119.736 128.713C119.736 128.712 119.736 128.711 119.736 128.711C119.736 128.71 119.736 128.709 119.736 128.709L119.736 128.71L119.736 128.714L119.736 128.717" fill="#00A3FF"/>
<path fill-rule="evenodd" clip-rule="evenodd" d="M165.471 25.9591C165.471 22.8462 167.926 20.3228 170.953 20.3228H203.711C206.345 20.3228 208.606 22.2477 209.098 24.9076L203.711 25.9591C209.098 24.9076 209.098 24.9103 209.099 24.9133L209.1 24.9202L209.103 24.9375L209.112 24.9861C209.119 25.0247 209.127 25.0755 209.138 25.1383C209.159 25.2639 209.188 25.4373 209.221 25.6562C209.288 26.0937 209.376 26.7135 209.468 27.495C209.652 29.0568 209.856 31.2727 209.95 33.9788C210.136 39.3736 209.886 46.813 208.115 54.9438C204.543 71.3453 194.712 90.6301 170.181 101.175C167.387 102.376 164.176 101.022 163.008 98.1496C161.84 95.2777 163.157 91.9761 165.951 90.7752C186.425 81.9739 194.416 66.2506 197.415 52.4806C198.93 45.5257 199.154 39.0886 198.991 34.3782C198.956 33.3614 198.904 32.4295 198.843 31.5954H170.953C167.926 31.5954 165.471 29.072 165.471 25.9591Z" fill="#00A3FF"/>
<path fill-rule="evenodd" clip-rule="evenodd" d="M0.903875 24.9076C1.39518 22.2477 3.65662 20.3228 6.29008 20.3228H39.048C42.0759 20.3228 44.5304 22.8462 44.5304 25.9591C44.5304 29.072 42.0759 31.5954 39.048 31.5954H11.1589C11.0979 32.4295 11.045 33.3614 11.0099 34.3782C10.8474 39.0886 11.0711 45.5257 12.586 52.4806C15.5851 66.2506 23.5764 81.9739 44.0505 90.7752C46.844 91.9761 48.1616 95.2777 46.9935 98.1496C45.8255 101.022 42.614 102.376 39.8205 101.175C15.2898 90.6301 5.45834 71.3453 1.88601 54.9438C0.115084 46.813 -0.134187 39.3736 0.0518562 33.9788C0.145178 31.2727 0.348924 29.0568 0.533293 27.495C0.625555 26.7135 0.713203 26.0937 0.780219 25.6562C0.813736 25.4373 0.842123 25.2639 0.863387 25.1383C0.87402 25.0755 0.882876 25.0247 0.889706 24.9861L0.898401 24.9375L0.901552 24.9202L0.902818 24.9133C0.903363 24.9103 0.903875 24.9076 6.29008 25.9591L0.903875 24.9076Z" fill="#00A3FF"/>
<path fill-rule="evenodd" clip-rule="evenodd" d="M82.9874 98.205C83.1255 98.2179 83.2653 98.2245 83.4065 98.2245C85.9786 98.2245 88.0636 96.0488 88.0636 93.3651C88.0636 92.1287 87.6485 90.7206 86.5835 89.6093C85.5186 88.4979 84.1689 88.0645 82.9836 88.0645C81.5746 88.0645 80.5419 88.6829 79.9711 89.1411C79.4092 89.592 79.0513 90.0753 78.8619 90.3576C78.6557 90.6649 78.5129 90.9409 78.4257 91.1228C78.3792 91.2198 78.3408 91.3064 78.3103 91.3782C78.2949 91.4145 78.2811 91.448 78.269 91.4782C78.2629 91.4933 78.2571 91.5078 78.2518 91.5214L78.244 91.5413L78.2403 91.5509L78.2376 91.5578C78.2372 91.559 78.2368 91.5601 82.5607 93.3651L78.2368 91.5601C77.2814 94.0519 78.4428 96.88 80.8309 97.8768C81.5394 98.1726 82.2764 98.2739 82.9874 98.205Z" fill="#00A3FF"/>
<path fill-rule="evenodd" clip-rule="evenodd" d="M85.1345 88.5294C87.5227 89.8581 88.6845 93.6286 87.7294 96.9511L83.4053 94.5453C87.7294 96.9512 87.729 96.9527 87.7286 96.9542L87.7259 96.9635L87.7222 96.9762L87.7144 97.0028C87.7091 97.021 87.7033 97.0402 87.6972 97.0604C87.6851 97.1007 87.6713 97.1454 87.6559 97.1937C87.6254 97.2896 87.587 97.405 87.5405 97.5344C87.4534 97.7768 87.3106 98.1449 87.1044 98.5547C86.915 98.9313 86.5571 99.5757 85.9952 100.177C85.4243 100.788 84.3915 101.613 82.9824 101.613C81.7972 101.613 80.4477 101.035 79.3828 99.5535C78.3179 98.072 77.9023 96.1945 77.9023 94.5453C77.9023 90.967 79.9874 88.0662 82.5595 88.0662C82.7007 88.0662 82.8405 88.0749 82.9785 88.0921C83.6894 88.0003 84.4261 88.1353 85.1345 88.5294Z" fill="#00A3FF"/>
</g>
</svg>
