<svg width="219" height="103" viewBox="0 0 219 103" fill="none" xmlns="http://www.w3.org/2000/svg">
<g clip-path="url(#clip0_2433_6319)">
<path d="M57.5599 18.9473H79.7154V23.0488H70.9919V46.1697H66.2104V23.0488H57.5234L57.5599 18.9473V18.9473ZM78.7664 26.4606H82.8544V30.2718H82.9274C83.0734 29.7273 83.3289 29.2192 83.6939 28.711C84.0589 28.2029 84.4969 27.731 85.0444 27.3318C85.5554 26.8962 86.1394 26.5695 86.7964 26.3155C87.4169 26.0614 88.0739 25.9162 88.7309 25.9162C89.2419 25.9162 89.6069 25.9525 89.7894 25.9525C89.9719 25.9888 90.1909 26.0251 90.3734 26.0251V30.1992C90.0814 30.1266 89.7529 30.0903 89.4244 30.054C89.0959 30.0177 88.8039 29.9814 88.4754 29.9814C87.7454 29.9814 87.0519 30.1266 86.3949 30.417C85.7379 30.7073 85.1904 31.1429 84.6794 31.6874C84.2049 32.2681 83.8034 32.9577 83.5114 33.7925C83.2194 34.6274 83.0734 35.6074 83.0734 36.6963V46.0608H78.6934L78.7664 26.4606V26.4606ZM110.448 46.1697H106.141V43.4111H106.068C105.521 44.4274 104.718 45.1897 103.659 45.8067C102.601 46.4237 101.506 46.7141 100.411 46.7141C97.8194 46.7141 95.9214 46.0971 94.7534 44.7904C93.5854 43.52 93.0014 41.56 93.0014 38.983V26.4606H97.3814V38.5474C97.3814 40.2896 97.7099 41.5237 98.4034 42.2133C99.0604 42.9393 100.009 43.3022 101.214 43.3022C102.126 43.3022 102.893 43.1571 103.513 42.8667C104.134 42.5763 104.645 42.2133 105.01 41.7415C105.411 41.2696 105.667 40.6889 105.849 40.0356C106.032 39.3822 106.105 38.6563 106.105 37.8941V26.4606H110.485V46.1697H110.448V46.1697ZM117.894 39.8541C118.04 41.1244 118.515 41.9956 119.354 42.54C120.194 43.0482 121.216 43.3022 122.384 43.3022C122.785 43.3022 123.26 43.2659 123.771 43.1934C124.282 43.1208 124.793 43.0119 125.231 42.8304C125.705 42.6489 126.07 42.3948 126.362 42.0319C126.654 41.6689 126.8 41.2333 126.764 40.6889C126.727 40.1444 126.545 39.6726 126.143 39.3096C125.742 38.9467 125.267 38.6926 124.683 38.4385C124.099 38.2207 123.406 38.0392 122.639 37.8941C121.873 37.7489 121.106 37.5674 120.303 37.3859C119.5 37.2044 118.697 36.9866 117.931 36.7326C117.164 36.4785 116.507 36.1518 115.887 35.68C115.303 35.2444 114.792 34.7 114.463 34.0103C114.098 33.3207 113.916 32.5222 113.916 31.5059C113.916 30.417 114.171 29.5459 114.719 28.8199C115.23 28.094 115.923 27.5132 116.726 27.0777C117.529 26.6421 118.442 26.3155 119.427 26.134C120.413 25.9525 121.362 25.8799 122.238 25.8799C123.26 25.8799 124.245 25.9888 125.158 26.2066C126.07 26.4244 126.946 26.751 127.676 27.2592C128.443 27.731 129.063 28.3844 129.538 29.1466C130.049 29.9088 130.341 30.8525 130.487 31.9414H125.924C125.705 30.8888 125.231 30.1992 124.501 29.8362C123.734 29.4733 122.895 29.2918 121.909 29.2918C121.617 29.2918 121.216 29.3281 120.814 29.3644C120.376 29.437 120.011 29.5096 119.61 29.6547C119.245 29.7999 118.916 30.0177 118.661 30.2718C118.405 30.5259 118.259 30.8888 118.259 31.3244C118.259 31.8688 118.442 32.2681 118.807 32.5948C119.172 32.9214 119.646 33.1755 120.267 33.4296C120.851 33.6474 121.544 33.8288 122.311 33.974C123.077 34.1192 123.88 34.3007 124.683 34.4822C125.486 34.6637 126.253 34.8814 127.019 35.1355C127.786 35.3896 128.479 35.7163 129.063 36.1881C129.647 36.6237 130.158 37.1681 130.523 37.8215C130.888 38.4748 131.071 39.3096 131.071 40.2533C131.071 41.4148 130.815 42.3948 130.268 43.2296C129.72 44.0282 129.027 44.7178 128.187 45.226C127.348 45.7341 126.362 46.0971 125.34 46.3511C124.282 46.5689 123.26 46.7141 122.238 46.7141C120.997 46.7141 119.829 46.5689 118.77 46.2786C117.712 45.9882 116.763 45.5526 115.996 45.0082C115.23 44.4274 114.609 43.7378 114.171 42.8667C113.733 42.0319 113.478 41.0156 113.441 39.8178H117.858V39.8541H117.894V39.8541ZM132.312 26.4606H135.633V20.508H140.013V26.4244H143.955V29.6547H140.013V40.1807C140.013 40.6526 140.05 41.0156 140.086 41.3785C140.123 41.7052 140.232 41.9956 140.342 42.2133C140.488 42.4311 140.707 42.6126 140.962 42.7215C141.254 42.8304 141.619 42.903 142.13 42.903C142.422 42.903 142.751 42.903 143.043 42.8667C143.335 42.8304 143.663 42.7941 143.955 42.7215V46.0971C143.481 46.1697 143.006 46.206 142.532 46.2423C142.057 46.3149 141.619 46.3149 141.108 46.3149C139.94 46.3149 139.028 46.206 138.334 45.9882C137.641 45.7704 137.093 45.4437 136.692 45.0445C136.29 44.6089 136.035 44.1008 135.889 43.4837C135.743 42.8667 135.67 42.1045 135.633 41.3059V29.691H132.312V26.4606V26.4606ZM147.021 26.4606H151.146V29.1466H151.219C151.839 27.9851 152.679 27.1866 153.774 26.6784C154.869 26.1703 156.037 25.9162 157.351 25.9162C158.92 25.9162 160.271 26.1703 161.439 26.751C162.607 27.2955 163.556 28.0214 164.322 29.0014C165.089 29.9451 165.673 31.0703 166.038 32.3407C166.403 33.6111 166.622 34.9903 166.622 36.4059C166.622 37.8215 166.439 39.0192 166.111 40.2533C165.746 41.4874 165.235 42.6126 164.541 43.5563C163.848 44.5 162.972 45.2623 161.877 45.843C160.782 46.4237 159.541 46.7141 158.081 46.7141C157.46 46.7141 156.803 46.6415 156.183 46.5326C155.562 46.4237 154.942 46.2423 154.358 45.9882C153.774 45.7341 153.226 45.4074 152.752 45.0082C152.241 44.6089 151.839 44.1371 151.511 43.6289H151.438V53.4653H147.058V26.4606H147.021V26.4606ZM162.315 36.3333C162.315 35.4622 162.205 34.5911 161.95 33.7563C161.731 32.9214 161.366 32.1955 160.891 31.5422C160.417 30.8888 159.833 30.3807 159.176 29.9814C158.482 29.5821 157.679 29.4007 156.803 29.4007C154.978 29.4007 153.591 30.0177 152.642 31.2881C151.73 32.5585 151.255 34.2644 151.255 36.3696C151.255 37.3859 151.365 38.2933 151.62 39.1281C151.876 39.963 152.204 40.6889 152.715 41.3059C153.19 41.923 153.774 42.3948 154.467 42.7578C155.161 43.1208 155.927 43.3022 156.84 43.3022C157.862 43.3022 158.665 43.0845 159.358 42.6852C160.052 42.2859 160.599 41.7415 161.074 41.1244C161.512 40.4711 161.84 39.7452 162.023 38.9104C162.205 38.0392 162.315 37.2044 162.315 36.3333V36.3333ZM170.016 18.9473H174.396V23.0488H170.016V18.9473V18.9473ZM170.016 26.4606H174.396V46.1697H170.016V26.4606ZM178.302 18.9473H182.682V46.1697H178.302V18.9473ZM196.041 46.7141C194.471 46.7141 193.048 46.46 191.807 45.9156C190.566 45.3711 189.544 44.6815 188.668 43.7741C187.828 42.8667 187.171 41.7415 186.733 40.4711C186.295 39.2007 186.04 37.7852 186.04 36.297C186.04 34.8089 186.259 33.4296 186.733 32.1592C187.171 30.8888 187.828 29.7999 188.668 28.8562C189.507 27.9488 190.566 27.2229 191.807 26.7147C193.048 26.2066 194.471 25.9162 196.041 25.9162C197.61 25.9162 199.034 26.1703 200.275 26.7147C201.516 27.2229 202.538 27.9488 203.414 28.8562C204.253 29.7636 204.91 30.8888 205.348 32.1592C205.786 33.4296 206.042 34.8089 206.042 36.297C206.042 37.7852 205.823 39.2007 205.348 40.4711C204.874 41.7415 204.253 42.8304 203.414 43.7741C202.574 44.6815 201.516 45.4074 200.275 45.9156C199.034 46.4237 197.647 46.7141 196.041 46.7141ZM196.041 43.2659C196.99 43.2659 197.866 43.0482 198.559 42.6489C199.289 42.2496 199.837 41.7052 200.311 41.0519C200.786 40.3985 201.114 39.6363 201.333 38.8378C201.552 38.0029 201.662 37.1681 201.662 36.297C201.662 35.4259 201.552 34.6274 201.333 33.7925C201.114 32.9577 200.786 32.2318 200.311 31.5785C199.837 30.9251 199.253 30.417 198.559 30.0177C197.829 29.6184 196.99 29.4007 196.041 29.4007C195.092 29.4007 194.216 29.6184 193.522 30.0177C192.792 30.417 192.245 30.9614 191.77 31.5785C191.296 32.2318 190.967 32.9577 190.748 33.7925C190.529 34.6274 190.42 35.4622 190.42 36.297C190.42 37.1318 190.529 38.0029 190.748 38.8378C190.967 39.6726 191.296 40.3985 191.77 41.0519C192.245 41.7052 192.829 42.2496 193.522 42.6489C194.252 43.0845 195.092 43.2659 196.041 43.2659ZM207.356 26.4606H210.677V20.508H215.057V26.4244H218.999V29.6547H215.057V40.1807C215.057 40.6526 215.094 41.0156 215.13 41.3785C215.167 41.7052 215.276 41.9956 215.386 42.2133C215.532 42.4311 215.751 42.6126 216.006 42.7215C216.298 42.8304 216.663 42.903 217.174 42.903C217.466 42.903 217.795 42.903 218.087 42.8667C218.379 42.8304 218.707 42.7941 218.999 42.7215V46.0971C218.525 46.1697 218.05 46.206 217.576 46.2423C217.101 46.3149 216.663 46.3149 216.152 46.3149C214.984 46.3149 214.072 46.206 213.378 45.9882C212.685 45.7704 212.137 45.4437 211.736 45.0445C211.334 44.6089 211.079 44.1008 210.933 43.4837C210.787 42.8667 210.714 42.1045 210.677 41.3059V29.691H207.356V26.4606V26.4606Z" fill="black"/>
<path d="M52.4505 18.9468H32.412L26.2435 0L20.0385 18.9468L0 18.9105L16.206 30.6343L10.001 49.5811L26.207 37.8573L42.413 49.5811L36.2445 30.6343L52.4505 18.9468V18.9468Z" fill="#00B67A"/>
<path d="M37.6302 34.9168L36.2432 30.6338L26.2422 37.8568L37.6302 34.9168V34.9168Z" fill="#005128"/>
</g>
<g clip-path="url(#clip1_2433_6319)">
<path d="M3.08594 74.0283H31.6176V102.817H3.08594V74.0283ZM33.9951 74.0283H62.5268V102.817H33.9951V74.0283ZM64.9043 74.0283H93.436V102.817H64.9043V74.0283V74.0283ZM95.8135 74.0283H124.345V102.817H95.8135V74.0283ZM126.723 74.0283H155.254V102.817H126.723V74.0283V74.0283Z" fill="#00B67A"/>
<path d="M17.3537 93.4306L21.693 92.3208L23.5062 97.9588L17.3543 93.4306H17.3537ZM27.3397 86.1436H19.7014L17.3537 78.8867L15.0061 86.1436H7.36719L13.5489 90.6417L11.2012 97.8986L17.383 93.4005L21.1872 90.6417L27.3391 86.1436H27.3397ZM48.2629 93.4306L52.6022 92.3208L54.4154 97.9588L48.2635 93.4306H48.2629ZM58.2489 86.1436H50.6106L48.2629 78.8867L45.9153 86.1436H38.277L44.4587 90.6417L42.111 97.8986L48.2927 93.4005L52.097 90.6417L58.2489 86.1436V86.1436ZM79.1721 93.4306L83.5114 92.3208L85.3246 97.9588L79.1727 93.4306H79.1721ZM89.1581 86.1436H81.5198L79.1721 78.8867L76.8245 86.1436H69.1862L75.3679 90.6417L73.0202 97.8986L79.2019 93.4005L83.0062 90.6417L89.1581 86.1436V86.1436ZM110.081 93.4306L114.421 92.3208L116.234 97.9588L110.082 93.4306H110.081ZM120.067 86.1436H112.429L110.081 78.8867L107.734 86.1436H100.095L106.277 90.6417L103.929 97.8986L110.111 93.4005L113.915 90.6417L120.067 86.1436V86.1436ZM140.99 93.4306L145.33 92.3208L147.143 97.9588L140.991 93.4306H140.99ZM150.976 86.1436H143.338L140.99 78.8867L138.643 86.1436H131.005L137.186 90.6417L134.839 97.8986L141.02 93.4005L144.825 90.6417L150.976 86.1436V86.1436Z" fill="white"/>
</g>
<defs>
<clipPath id="clip0_2433_6319">
<rect width="219" height="53.4648" fill="white"/>
</clipPath>
<clipPath id="clip1_2433_6319">
<rect width="152.169" height="28.7887" fill="white" transform="translate(3.08594 74.0283)"/>
</clipPath>
</defs>
</svg>
