<svg width="15" height="15" fill="none" xmlns="http://www.w3.org/2000/svg"><g clip-path="url(#clip0)" fill="#FC165C"><path d="M11.855 9.292c-.307-.32-.677-.49-1.07-.49-.39 0-.763.167-1.083.487l-1 .997c-.082-.044-.165-.085-.244-.127-.114-.057-.222-.11-.313-.167-.937-.596-1.789-1.371-2.606-2.375-.396-.5-.661-.921-.855-1.348.26-.238.5-.485.735-.722l.266-.27c.665-.664.665-1.525 0-2.19l-.864-.864c-.099-.099-.2-.2-.295-.301-.19-.196-.39-.4-.595-.59-.307-.303-.674-.464-1.06-.464-.387 0-.76.161-1.077.465l-.006.006L.71 2.425a2.32 2.32 0 00-.687 1.472c-.076.925.197 1.786.405 2.35.513 1.383 1.28 2.665 2.422 4.039a14.9 14.9 0 004.961 3.885c.728.345 1.7.753 2.786.823.067.003.136.006.2.006.731 0 1.345-.263 1.826-.785.003-.006.01-.01.013-.016.165-.2.355-.38.554-.573.136-.13.275-.266.412-.409.313-.325.478-.705.478-1.095 0-.392-.168-.77-.488-1.086l-1.738-1.744zm1.133 3.334c-.003 0-.003.003 0 0-.123.133-.25.253-.386.386a8.309 8.309 0 00-.61.633c-.32.342-.697.503-1.191.503-.048 0-.098 0-.146-.003-.94-.06-1.814-.427-2.47-.74a14.062 14.062 0 01-4.672-3.66c-1.08-1.302-1.801-2.505-2.28-3.796C.94 5.16.833 4.546.88 3.967c.032-.37.174-.678.437-.94l1.08-1.08c.155-.146.32-.225.48-.225.2 0 .362.12.463.222l.01.01c.193.18.376.367.57.566.097.101.199.203.3.307l.864.864c.336.336.336.646 0 .982-.092.092-.18.184-.272.272-.266.272-.52.526-.795.773-.006.006-.012.01-.015.015-.273.273-.222.539-.165.72l.01.028c.224.544.54 1.057 1.022 1.668l.003.003c.874 1.077 1.795 1.916 2.811 2.558.13.082.263.149.39.212.114.057.221.111.313.168.013.006.026.016.038.022a.69.69 0 00.314.08.672.672 0 00.48-.219l1.084-1.083c.107-.107.278-.237.478-.237.196 0 .357.123.456.23l.006.007 1.744 1.745c.326.322.326.655.003.99zM8.106 3.568c.83.14 1.583.532 2.185 1.134a4.04 4.04 0 011.133 2.184.425.425 0 00.421.355c.025 0 .047-.004.073-.007a.428.428 0 00.351-.494 4.884 4.884 0 00-1.37-2.643 4.883 4.883 0 00-2.644-1.37.43.43 0 00-.494.347.423.423 0 00.345.494zm6.877 3.049a8.033 8.033 0 00-2.258-4.353A8.033 8.033 0 008.372.007a.426.426 0 10-.139.842c1.475.25 2.82.95 3.89 2.016a7.172 7.172 0 012.018 3.891.425.425 0 00.42.355.42.42 0 00.421-.494z"/></g><defs><clipPath id="clip0"><path fill="#fff" d="M0 0h15v15H0z"/></clipPath></defs></svg>