<svg width="15" height="24" fill="none" xmlns="http://www.w3.org/2000/svg"><path d="M12.365.55c.473 0 .932.132 1.297.375.205.136.374.304.499.493a1.33 1.33 0 01.142 1.24 1.553 1.553 0 01-.378.558l-9.077 8.71 8.753 8.726c.168.166.294.358.37.563.075.205.1.42.072.633-.028.213-.109.42-.237.608a1.775 1.775 0 01-.51.487c-.209.148-.454.26-.72.328a2.5 2.5 0 01-.825.069 2.393 2.393 0 01-.79-.202 1.959 1.959 0 01-.622-.438L.553 12.95c-.298-.291-.46-.656-.46-1.032 0-.377.162-.741.46-1.032l10.13-9.75a2.06 2.06 0 01.754-.454c.292-.102.61-.146.928-.131z" fill="#A57582" fill-opacity=".3"/></svg>