<svg xmlns="http://www.w3.org/2000/svg" xmlns:xlink="http://www.w3.org/1999/xlink"><defs>
<clipPath id="clip0">
<rect width="24.6094" height="24.6094" transform="translate(0.546875 0.84375)"/>
</clipPath>

<clipPath id="clip0">
<rect width="24.6094" height="24.6094" transform="translate(0.84375 0.84375)"/>
</clipPath>

<clipPath id="clip0">
<rect width="15" height="15"/>
</clipPath>

<clipPath id="clip0">
<rect width="25.0568" height="25.0568" transform="translate(0.32959 0.680176)"/>
</clipPath>

<clipPath id="clip0">
<rect width="24.6094" height="24.6094" transform="translate(0.84375 0.84375)"/>
</clipPath>
</defs><symbol id="arrow-bold" viewBox="0 0 39 22">
<path d="M5.70762 0.200012L19.2076 13.7L32.7076 0.200012L38.1076 2.90001L19.2076 21.8L0.307617 2.90001L3 1.5L5.70762 0.200012Z"/>
</symbol><symbol id="arrow-down" viewBox="0 0 19 14">
<line y1="-0.5" x2="15.6672" y2="-0.5" transform="matrix(0.606364 0.795187 -0.606364 0.795187 0 1)"/>
<path d="M9.5 12.9999L18.6968 1.14408"/>
</symbol><symbol id="arrow" viewBox="0 0 19 14">
<line y1="-0.5" x2="15.6672" y2="-0.5" transform="matrix(0.606364 0.795187 -0.606364 0.795187 0 1.40137)"/>
<path d="M9.5 13.4014L18.6968 1.54557"/>
</symbol><symbol id="clock" viewBox="0 0 15 15">
<path d="M7.49998 0C3.36457 0 0 3.36457 0 7.49998C0 11.6354 3.36457 15 7.49998 15C11.6354 15 15 11.6354 15 7.49998C15 3.36457 11.6354 0 7.49998 0ZM7.49998 14.3478C3.7239 14.3478 0.652163 11.2761 0.652163 7.49998C0.652163 3.7239 3.7239 0.652163 7.49998 0.652163C11.2761 0.652163 14.3478 3.7239 14.3478 7.49998C14.3478 11.2761 11.2761 14.3478 7.49998 14.3478Z"/>
<path d="M10.6656 10.2046L7.82602 7.36501V2.28264C7.82602 2.10264 7.67992 1.95654 7.49992 1.95654C7.31992 1.95654 7.17383 2.10264 7.17383 2.28264V7.50004C7.17383 7.58676 7.2084 7.66961 7.26906 7.73091L10.2038 10.6657C10.2678 10.7289 10.3512 10.7609 10.4347 10.7609C10.5182 10.7609 10.6016 10.729 10.6656 10.6657C10.7927 10.5385 10.7927 10.3318 10.6656 10.2046Z"/>
</symbol><symbol id="close" viewBox="0 0 25 24">
<line x1="2" y1="21.8034" x2="21.8035" y2="1.99997" stroke-width="2" stroke-linecap="round" stroke-linejoin="bevel"/>
<line x1="3.41421" y1="2.21765" x2="23.2177" y2="22.0211" stroke-width="2" stroke-linecap="round" stroke-linejoin="bevel"/>
</symbol><symbol id="facebook" viewBox="0 0 26 26">
<g clip-path="url(#clip0)">
<path d="M7.53174 15.1346H10.1137V24.6831C10.1137 25.1076 10.4572 25.4521 10.8827 25.4521L14.9915 25.4531C15.417 25.4531 15.7605 25.1076 15.7605 24.6841V15.1356H18.2081C18.5957 15.1356 18.9228 14.8465 18.971 14.462L19.4816 10.3604C19.5391 9.90308 19.1812 9.496 18.7187 9.496H15.7605C15.8764 6.96226 15.3145 6.2127 16.9623 6.2127C18.0779 6.07939 19.8374 6.64438 19.8374 5.44365V1.77583C19.8374 1.39131 19.5534 1.06626 19.173 1.01396C18.851 0.969873 17.5785 0.84375 16.0004 0.84375C8.81245 0.84375 10.2921 8.81309 10.1147 9.49497H7.53174C7.10723 9.49497 6.7627 9.8395 6.7627 10.264V14.3656C6.7627 14.7901 7.10723 15.1346 7.53174 15.1346ZM8.30078 11.0341H10.8827C11.3072 11.0341 11.6518 10.6896 11.6518 10.265V7.03403C11.6518 4.07783 13.236 2.38286 15.9994 2.38286C16.8997 2.38286 17.7282 2.42695 18.2983 2.47207V4.67563C17.8861 4.88584 14.2214 3.76919 14.2214 7.44111V10.2661C14.2214 10.6906 14.5659 11.0351 14.9904 11.0351H17.8472L17.5272 13.5986H14.9904C14.5659 13.5986 14.2214 13.9431 14.2214 14.3676V23.915H11.6528V14.3666C11.6528 13.9421 11.3083 13.5976 10.8837 13.5976H8.30078V11.0341Z"/>
</g>

</symbol><symbol id="instagram" viewBox="0 0 26 26">
<g clip-path="url(#clip0)">
<path d="M5.71436 25.4531H20.5825C23.268 25.4531 25.4531 23.268 25.4531 20.5825V5.71436C25.4531 3.02886 23.268 0.84375 20.5825 0.84375H5.71436C3.02886 0.84375 0.84375 3.02886 0.84375 5.71436V20.5825C0.84375 23.268 3.02886 25.4531 5.71436 25.4531ZM2.38184 5.71436C2.38184 3.87686 3.87686 2.38184 5.71436 2.38184H20.5825C22.42 2.38184 23.915 3.87686 23.915 5.71436V20.5825C23.915 22.42 22.42 23.915 20.5825 23.915H5.71436C3.87686 23.915 2.38184 22.42 2.38184 20.5825V5.71436Z"/>
<path d="M13.1484 19.4341C16.6143 19.4341 19.4341 16.6143 19.4341 13.1484C19.4341 9.68262 16.6143 6.86279 13.1484 6.86279C9.68262 6.86279 6.86279 9.68262 6.86279 13.1484C6.86279 16.6143 9.68262 19.4341 13.1484 19.4341ZM13.1484 8.40088C15.7663 8.40088 17.896 10.5306 17.896 13.1484C17.896 15.7663 15.7663 17.896 13.1484 17.896C10.5306 17.896 8.40088 15.7663 8.40088 13.1484C8.40088 10.5306 10.5306 8.40088 13.1484 8.40088Z"/>
<path d="M19.6679 8.39243C20.6789 8.39243 21.4408 7.63364 21.4408 6.62773C21.4408 5.57876 20.6389 4.86304 19.6689 4.86304C18.6579 4.86304 17.896 5.62183 17.896 6.62773C17.896 7.67466 18.6938 8.39243 19.6679 8.39243ZM19.8494 6.45854C20.1734 6.74463 19.4341 7.09224 19.4341 6.62876C19.4341 6.3519 19.8104 6.42368 19.8494 6.45854Z"/>
</g>

</symbol><symbol id="not" viewBox="0 0 18 18">
<path d="M17 16.8509L1 1.57812M17 1.57812L1 16.8509" stroke-width="2" stroke-linecap="round" stroke-linejoin="bevel"/>
</symbol><symbol id="phone" viewBox="0 0 15 15">
<g clip-path="url(#clip0)">
<path d="M11.8551 9.29189C11.548 8.97214 11.1776 8.80118 10.785 8.80118C10.3956 8.80118 10.022 8.96897 9.70227 9.28872L8.70186 10.286C8.61955 10.2416 8.53724 10.2005 8.45809 10.1593C8.34412 10.1023 8.23648 10.0485 8.14467 9.99154C7.20758 9.39636 6.35596 8.62073 5.53917 7.61715C5.14344 7.11695 4.87751 6.69589 4.68439 6.2685C4.94399 6.03106 5.1846 5.78412 5.41887 5.54668C5.50751 5.45804 5.59616 5.36623 5.6848 5.27759C6.34963 4.61276 6.34963 3.75165 5.6848 3.08682L4.82052 2.22254C4.72238 2.1244 4.62108 2.02309 4.5261 1.92178C4.33615 1.7255 4.1367 1.52289 3.93092 1.33293C3.62383 1.02901 3.25659 0.867554 2.87036 0.867554C2.48413 0.867554 2.11055 1.02901 1.79397 1.33293C1.7908 1.3361 1.7908 1.3361 1.78764 1.33927L0.711248 2.42515C0.306018 2.83038 0.0749111 3.32426 0.0242575 3.89727C-0.051723 4.8217 0.22054 5.68282 0.429487 6.24634C0.942355 7.62981 1.70849 8.91199 2.85136 10.286C4.23801 11.9417 5.90641 13.2492 7.81226 14.1705C8.5404 14.5155 9.51232 14.9239 10.5982 14.9936C10.6647 14.9968 10.7343 14.9999 10.7977 14.9999C11.529 14.9999 12.1431 14.7372 12.6244 14.2148C12.6275 14.2085 12.6339 14.2053 12.637 14.199C12.8016 13.9995 12.9916 13.8191 13.191 13.6259C13.3272 13.4961 13.4665 13.36 13.6026 13.2175C13.916 12.8915 14.0806 12.5116 14.0806 12.1222C14.0806 11.7296 13.9129 11.3529 13.5931 11.0363L11.8551 9.29189ZM12.9884 12.6255C12.9853 12.6255 12.9853 12.6287 12.9884 12.6255C12.865 12.7585 12.7383 12.8788 12.6022 13.0118C12.3964 13.208 12.1875 13.4138 11.9912 13.6449C11.6714 13.9868 11.2947 14.1483 10.8008 14.1483C10.7533 14.1483 10.7027 14.1483 10.6552 14.1451C9.71493 14.085 8.84116 13.7177 8.18583 13.4043C6.39395 12.5369 4.82052 11.3054 3.51303 9.7446C2.43347 8.44344 1.71166 7.24042 1.23361 5.94875C0.939189 5.16045 0.83155 4.54627 0.879038 3.96692C0.910696 3.59652 1.05316 3.28943 1.31593 3.02667L2.39548 1.94711C2.55061 1.80148 2.71523 1.72233 2.87669 1.72233C3.07614 1.72233 3.2376 1.84264 3.33891 1.94394C3.34207 1.94711 3.34524 1.95028 3.3484 1.95344C3.54152 2.13389 3.72514 2.32068 3.91826 2.52013C4.0164 2.62144 4.11771 2.72274 4.21901 2.82722L5.08329 3.69149C5.41887 4.02707 5.41887 4.33733 5.08329 4.67291C4.99148 4.76472 4.90284 4.85653 4.81103 4.94517C4.5451 5.21743 4.29183 5.4707 4.0164 5.71764C4.01007 5.72397 4.00373 5.72714 4.00057 5.73347C3.72831 6.00573 3.77896 6.27166 3.83594 6.45212C3.83911 6.46162 3.84228 6.47111 3.84544 6.48061C4.07022 7.02514 4.3868 7.53801 4.86801 8.14901L4.87118 8.15218C5.74495 9.22857 6.66622 10.0675 7.68246 10.7102C7.81226 10.7925 7.94522 10.859 8.07186 10.9223C8.18583 10.9793 8.29347 11.0331 8.38527 11.0901C8.39794 11.0964 8.4106 11.1059 8.42327 11.1123C8.5309 11.1661 8.63221 11.1914 8.73668 11.1914C8.99945 11.1914 9.16408 11.0268 9.21789 10.973L10.3006 9.89023C10.4083 9.78259 10.5792 9.65279 10.7787 9.65279C10.9749 9.65279 11.1364 9.77626 11.2345 9.8839C11.2377 9.88707 11.2377 9.88707 11.2409 9.89023L12.9853 11.6346C13.3113 11.9575 13.3113 12.2899 12.9884 12.6255Z"/>
<path d="M8.10619 3.56818C8.93564 3.70747 9.68911 4.10004 10.2906 4.70155C10.8921 5.30306 11.2815 6.05654 11.424 6.88599C11.4588 7.09494 11.6393 7.24057 11.8451 7.24057C11.8704 7.24057 11.8925 7.2374 11.9179 7.23423C12.1521 7.19624 12.3073 6.97463 12.2693 6.74036C12.0983 5.73679 11.6234 4.82185 10.8985 4.09687C10.1735 3.37189 9.25856 2.89701 8.25499 2.72606C8.02071 2.68807 7.80227 2.8432 7.76111 3.0743C7.71996 3.30541 7.87192 3.53019 8.10619 3.56818Z"/>
<path d="M14.9827 6.61682C14.7009 4.96424 13.9221 3.46046 12.7254 2.26377C11.5288 1.06708 10.025 0.288277 8.3724 0.00651579C8.1413 -0.0346403 7.92285 0.123652 7.8817 0.35476C7.8437 0.589033 7.99883 0.807477 8.2331 0.848633C9.70839 1.09873 11.0539 1.79839 12.1239 2.86528C13.194 3.93534 13.8905 5.28083 14.1406 6.75611C14.1754 6.96506 14.3559 7.11069 14.5616 7.11069C14.587 7.11069 14.6091 7.10752 14.6345 7.10436C14.8656 7.06953 15.0239 6.84792 14.9827 6.61682Z"/>
</g>

</symbol><symbol id="play" viewBox="0 0 50 54">
<path d="M8.77986 4.356C8.31852 4.08679 7.79431 3.94407 7.26016 3.94226C6.72602 3.94044 6.20086 4.0796 5.7377 4.34567C5.27454 4.61174 4.88978 4.99531 4.62227 5.45764C4.35477 5.91997 4.21399 6.44471 4.21415 6.97885V47.0211C4.21399 47.5553 4.35477 48.08 4.62227 48.5423C4.88978 49.0047 5.27454 49.3882 5.7377 49.6543C6.20086 49.9204 6.72602 50.0595 7.26016 50.0577C7.79431 50.0559 8.31852 49.9132 8.77986 49.644L44.475 28.7826C44.7864 28.6007 45.0447 28.3404 45.2243 28.0277C45.4038 27.7149 45.4983 27.3606 45.4983 27C45.4983 26.6394 45.4038 26.285 45.2243 25.9723C45.0447 25.6595 44.7864 25.3993 44.475 25.2174L8.78229 4.356H8.77986ZM0.571289 6.97885C0.571289 1.82057 6.16672 -1.39 10.6207 1.20857L46.3134 22.07C50.0826 24.2727 50.0826 29.72 46.3134 31.9251L10.6207 52.7866C6.16672 55.39 0.571289 52.177 0.571289 47.0211V6.97885Z"/>
</symbol><symbol id="prev" viewBox="0 0 15 24">
<path d="M12.3649 0.550879C12.8383 0.550137 13.2971 0.682371 13.6616 0.924627C13.8667 1.06104 14.0363 1.22859 14.1606 1.41765C14.2849 1.60671 14.3615 1.81359 14.386 2.02642C14.4104 2.23926 14.3823 2.45388 14.3032 2.65798C14.2241 2.86209 14.0956 3.05167 13.925 3.21588L4.84822 11.9259L13.6008 20.6521C13.7691 20.8183 13.8948 21.0096 13.9706 21.2149C14.0465 21.4202 14.071 21.6355 14.0427 21.8484C14.0145 22.0613 13.934 22.2677 13.8061 22.4556C13.6781 22.6435 13.505 22.8093 13.2969 22.9434C13.0873 23.0913 12.8418 23.2029 12.5758 23.2711C12.3099 23.3394 12.0292 23.3628 11.7515 23.3399C11.4737 23.317 11.2048 23.2483 10.9618 23.1381C10.7187 23.0279 10.5066 22.8787 10.3388 22.6996L0.552979 12.9496C0.254982 12.6589 0.0920753 12.2941 0.0920753 11.9178C0.0920753 11.5414 0.254982 11.1766 0.552979 10.8859L10.6833 1.13588C10.8865 0.939226 11.1447 0.783773 11.4369 0.682131C11.7291 0.58049 12.047 0.535522 12.3649 0.550879Z" fill-opacity="0.3"/>
</symbol><symbol id="telegram" viewBox="0 0 26 26">
<g clip-path="url(#clip0)">
<path d="M0.762009 13.4759L6.88944 16.5297C7.12644 16.6467 7.40624 16.6383 7.6328 16.5057L15.3626 12.0456L9.7856 16.2604C9.61751 16.4097 9.52146 16.6227 9.52146 16.8471V23.9727C9.52146 24.7244 10.4809 25.0407 10.9309 24.4435L13.5796 20.922L20.1299 24.6523C20.5893 24.9165 21.1781 24.6513 21.2846 24.1261L25.3699 3.76747C25.492 3.15567 24.8834 2.65662 24.3175 2.88422L0.82674 12.0456C0.196143 12.292 0.155426 13.1742 0.762009 13.4759ZM24.3175 3.76747L20.1299 23.5787L13.8661 19.6412C13.5279 19.448 13.0971 19.7258 12.8569 20.0432L10.3513 22.7553V17.1795L19.3001 9.66247C20.0069 9.03709 20.1072 8.11461 19.3001 8.58861L13.5796 12.0456L7.48763 15.3897L1.76036 12.8841L24.3175 3.76747Z"/>
</g>

</symbol><symbol id="tiktok" viewBox="0 0 26 26">
<g clip-path="url(#clip0)">
<path d="M10.2257 25.4531C8.43435 25.4531 6.74485 24.8816 5.33991 23.8002C5.07747 23.5983 4.82513 23.3777 4.58961 23.145C2.94963 21.5243 2.12435 19.3657 2.26614 17.0667C2.37333 15.3292 3.07316 13.6541 4.23777 12.3501C5.78019 10.6231 7.90659 9.67188 10.2262 9.67188C10.6247 9.67188 11.027 9.70168 11.423 9.76032L12.0383 9.85165V15.3114L11.0909 14.9985C10.815 14.9071 10.5281 14.861 10.2378 14.861C9.50428 14.861 8.81743 15.1484 8.30361 15.6699C7.79219 16.189 7.51678 16.8754 7.52736 17.6036C7.5413 18.5423 8.03589 19.3931 8.85011 19.8804C9.22502 20.1044 9.65184 20.2356 10.0854 20.2597C10.4276 20.2784 10.7655 20.2337 11.0904 20.1265C12.2012 19.7598 12.9477 18.7293 12.9477 17.5627L12.9525 11.9007V0.84375H18.1704L18.1767 1.558C18.1796 1.88148 18.2127 2.20496 18.2752 2.51834C18.5203 3.75073 19.2115 4.84902 20.2214 5.61037C21.1178 6.28665 22.1877 6.64378 23.3144 6.64378C23.3408 6.64378 23.3408 6.64378 23.5816 6.6606L24.2521 6.7077V11.1297V11.8507L24.0118 11.8502H23.5326C23.5287 11.8502 23.5249 11.8502 23.5206 11.8502H23.2903C23.2894 11.8502 23.2879 11.8502 23.2865 11.8502C21.8969 11.8502 20.5948 11.5854 19.3043 11.0408C18.9198 10.8783 18.5453 10.6928 18.1839 10.4856L18.2002 17.5901C18.1916 19.6916 17.361 21.6627 15.8619 23.1446C14.6453 24.3467 13.1101 25.1147 11.4221 25.3647C11.0284 25.4233 10.6261 25.4531 10.2257 25.4531ZM10.2257 11.1138C8.32283 11.1138 6.57807 11.8939 5.31299 13.3104C4.36322 14.3741 3.79221 15.7396 3.70473 17.1552C3.58938 19.0321 4.26325 20.7951 5.60283 22.1188C5.79653 22.3101 6.00369 22.4913 6.21902 22.6572C7.3697 23.543 8.75542 24.0112 10.2257 24.0112C10.5555 24.0112 10.8866 23.9867 11.2111 23.9386C12.5939 23.7338 13.8518 23.1047 14.8486 22.1193C16.0733 20.909 16.7515 19.3003 16.7588 17.5892L16.7362 7.66901L17.9008 8.56734C18.5021 9.03117 19.1635 9.41666 19.8657 9.71322C20.8256 10.1184 21.7931 10.3434 22.8097 10.3967V8.06795C21.5533 7.97374 20.3665 7.52721 19.3528 6.7625C18.0599 5.78773 17.175 4.38039 16.8607 2.80048C16.827 2.63081 16.7996 2.45922 16.7794 2.28619H14.3939V11.9011L14.3891 17.5632C14.3891 19.3527 13.2452 20.9331 11.5422 21.4954C11.0457 21.6593 10.529 21.7276 10.0061 21.6992C9.33989 21.6627 8.68429 21.4613 8.10943 21.1176C6.8631 20.3722 6.10607 19.0662 6.08492 17.6247C6.06858 16.5077 6.49107 15.4541 7.27549 14.6577C8.06232 13.8588 9.11399 13.419 10.2368 13.419C10.357 13.419 10.4762 13.4243 10.5954 13.4344V11.1239C10.4723 11.1172 10.3488 11.1138 10.2257 11.1138Z"/>
</g>

</symbol><symbol id="viber" viewBox="0 0 24 26">
<path d="M14.2936 0.680176H9.52088C4.52202 0.680176 0.455078 4.74616 0.455078 9.74407V14.0434C0.455078 17.7653 2.74217 21.1103 6.18115 22.4727V25.2598C6.18115 25.4488 6.29233 25.6196 6.46507 25.696C6.5271 25.7236 6.59295 25.737 6.65832 25.737C6.77428 25.737 6.88928 25.6945 6.97851 25.6134L9.74563 23.1073H14.2936C19.2924 23.1073 23.3594 19.0413 23.3594 14.0434V9.74407C23.3594 4.74616 19.2924 0.680176 14.2936 0.680176ZM22.405 14.0434C22.405 18.515 18.7666 22.1529 14.2936 22.1529H9.56144C9.4431 22.1529 9.32906 22.1968 9.24126 22.2765L7.1355 24.1838V22.142C7.1355 21.9396 7.00809 21.7593 6.81722 21.6925C3.58295 20.5487 1.40942 17.4747 1.40942 14.0434V9.74407C1.40942 5.27249 5.04834 1.63452 9.52088 1.63452H14.2936C18.7666 1.63452 22.405 5.27249 22.405 9.74407V14.0434Z"/>
<path d="M18.2138 15.2307L15.2811 13.3258C14.9604 13.1173 14.5787 13.0467 14.205 13.124C13.8309 13.2027 13.5093 13.4236 13.3008 13.7457L13.1629 13.9576C11.8936 13.5382 10.4941 13.0023 9.65615 10.5768L10.0031 10.2753C10.5986 9.75752 10.6611 8.85185 10.1433 8.25538L7.8491 5.61614C7.67636 5.41716 7.37479 5.39664 7.17581 5.5689L5.73522 6.821C4.47167 7.91945 5.06193 9.54423 5.25614 10.0782C5.26473 10.102 5.27523 10.1249 5.28764 10.1474C5.33774 10.2371 6.53401 12.372 8.46608 14.3398C10.4058 16.3158 13.9078 18.1405 14.0151 18.1935C14.415 18.453 14.865 18.5776 15.3102 18.5776C16.0918 18.5776 16.8581 18.1944 17.3153 17.492L18.3545 15.8916C18.4977 15.6697 18.4347 15.3743 18.2138 15.2307ZM16.5146 16.9719C16.0846 17.6342 15.1961 17.8222 14.4947 17.3699C14.4599 17.3517 10.9808 15.5399 9.14701 13.6718C7.433 11.9258 6.29495 9.98609 6.13987 9.71553C5.76195 8.65573 5.82875 8.00439 6.36127 7.54153L7.44207 6.60246L9.42329 8.88143C9.59937 9.08376 9.57885 9.3796 9.37748 9.55473L8.79199 10.0634C8.64932 10.1875 8.59301 10.3836 8.64884 10.5639C9.64709 13.8078 11.5882 14.4448 13.0054 14.91L13.212 14.9783C13.4187 15.0479 13.6448 14.9683 13.7632 14.786L14.1015 14.2649C14.1712 14.1571 14.278 14.084 14.4021 14.0578C14.5267 14.0311 14.6536 14.0559 14.7614 14.126L17.2943 15.7709L16.5146 16.9719Z"/>
<path d="M12.9963 8.43275C12.7424 8.35974 12.4786 8.50719 12.4065 8.76105C12.3344 9.01442 12.4814 9.2783 12.7348 9.35035C13.4458 9.55268 14.0122 10.12 14.2126 10.8315C14.2718 11.0415 14.4631 11.1794 14.6716 11.1794C14.7146 11.1794 14.758 11.1736 14.8014 11.1617C15.0548 11.0901 15.2027 10.8267 15.1312 10.5729C14.8415 9.54504 14.0232 8.72478 12.9963 8.43275Z"/>
<path d="M16.6282 11.2823C16.6712 11.2823 16.7146 11.2765 16.758 11.2646C17.0119 11.193 17.1593 10.9292 17.0878 10.6758C16.5247 8.67976 14.9362 7.08791 12.9416 6.52008C12.6882 6.44707 12.4244 6.59547 12.3523 6.84885C12.2802 7.10223 12.4272 7.36611 12.6806 7.43816C14.3588 7.91533 15.6954 9.25571 16.1692 10.9349C16.2288 11.1448 16.4197 11.2823 16.6282 11.2823Z"/>
<path d="M12.7355 4.29798C12.4817 4.22497 12.2178 4.37242 12.1458 4.62675C12.0737 4.88013 12.2207 5.14401 12.4741 5.21606C15.3175 6.02487 17.5827 8.29526 18.3853 11.1406C18.4444 11.3506 18.6358 11.4885 18.8443 11.4885C18.8873 11.4885 18.9307 11.4828 18.9741 11.4708C19.2275 11.3993 19.3754 11.1354 19.3038 10.882C18.412 7.71979 15.8954 5.19745 12.7355 4.29798Z"/>
</symbol><symbol id="yes" viewBox="0 0 27 24">
<path d="M1 11.7143L11.7143 22.4286L26 1" stroke-width="2" stroke-linecap="round"/>
</symbol><symbol id="zoom" viewBox="0 0 65 65">
<path d="M28.1875 54.0039C42.4779 54.0039 54.0625 42.4193 54.0625 28.1289C54.0625 13.8385 42.4779 2.25391 28.1875 2.25391C13.8971 2.25391 2.3125 13.8385 2.3125 28.1289C2.3125 42.4193 13.8971 54.0039 28.1875 54.0039Z" stroke-width="4" stroke-linecap="round" stroke-linejoin="round"/>
<path d="M47.5938 47.5352L62.6875 62.6289" stroke-width="4" stroke-linecap="round" stroke-linejoin="round"/>
<path d="M19.5625 28.1289H36.8125M28.1875 19.5039V36.7539V19.5039Z" stroke-width="4" stroke-linecap="round" stroke-linejoin="round"/>
</symbol></svg>