<svg width="26" height="26" fill="none" xmlns="http://www.w3.org/2000/svg"><g clip-path="url(#clip0)"><path d="M.762 13.476l6.127 3.054a.785.785 0 00.744-.024l7.73-4.46-5.577 4.214a.784.784 0 00-.265.587v7.126c0 .751.96 1.068 1.41.47l2.649-3.521 6.55 3.73a.783.783 0 001.155-.526L25.37 3.767a.783.783 0 00-1.053-.883L.828 12.046c-.63.246-.672 1.128-.065 1.43zm23.555-9.709L20.13 23.58l-6.264-3.938c-.338-.193-.769.085-1.01.402l-2.505 2.712V17.18l8.95-7.518c.706-.625.806-1.547 0-1.073l-5.721 3.457-6.092 3.344-5.728-2.506 22.558-9.117z" fill="#FC165C"/></g><defs><clipPath id="clip0"><path fill="#fff" transform="translate(.33 .68)" d="M0 0h25.057v25.057H0z"/></clipPath></defs></svg>