<svg width="26" height="26" fill="none" xmlns="http://www.w3.org/2000/svg"><g clip-path="url(#clip0)"><path d="M10.226 25.453a7.938 7.938 0 01-5.636-2.308 7.76 7.76 0 01-2.324-6.078 7.837 7.837 0 011.972-4.717 7.93 7.93 0 015.988-2.678c.399 0 .801.03 1.197.088l.615.092v5.46l-.947-.313a2.707 2.707 0 00-.853-.138c-.734 0-1.42.287-1.934.809a2.68 2.68 0 00-.777 1.934c.014.938.509 1.79 1.323 2.276a2.711 2.711 0 002.24.247 2.697 2.697 0 001.858-2.564l.005-5.662V.844h5.217l.007.714a5.122 5.122 0 002.045 4.052 5.096 5.096 0 003.092 1.034c.027 0 .027 0 .268.017l.67.047v5.142h-.966a10.05 10.05 0 01-3.982-.81 10.37 10.37 0 01-1.12-.554l.016 7.104a7.803 7.803 0 01-2.338 5.555 7.93 7.93 0 01-4.44 2.22 8.151 8.151 0 01-1.196.088zm0-14.34c-1.903 0-3.648.78-4.913 2.197a6.391 6.391 0 00-1.608 3.845 6.34 6.34 0 001.898 4.964 6.51 6.51 0 004.623 1.892c.33 0 .66-.024.985-.072a6.495 6.495 0 003.638-1.82 6.368 6.368 0 001.91-4.53l-.023-9.92 1.165.898c.601.464 1.262.85 1.965 1.146.96.405 1.927.63 2.944.684v-2.33a6.517 6.517 0 01-3.457-1.304 6.563 6.563 0 01-2.574-4.477h-2.385v9.615l-.005 5.662c0 1.79-1.144 3.37-2.847 3.932a4.154 4.154 0 01-3.433-.378 4.12 4.12 0 01-2.024-3.492 4.111 4.111 0 011.19-2.967 4.125 4.125 0 013.32-1.224v-2.31a6.809 6.809 0 00-.37-.01z" fill="#FC165C"/></g><defs><clipPath id="clip0"><path fill="#fff" transform="translate(.844 .844)" d="M0 0h24.609v24.609H0z"/></clipPath></defs></svg>