<svg width="26" height="26" fill="none" xmlns="http://www.w3.org/2000/svg"><g clip-path="url(#clip0)" fill="#FC165C"><path d="M5.714 25.453h14.869a4.876 4.876 0 004.87-4.87V5.713a4.876 4.876 0 00-4.87-4.87H5.713a4.876 4.876 0 00-4.87 4.87v14.869a4.876 4.876 0 004.87 4.87zM2.382 5.714a3.336 3.336 0 013.332-3.332h14.869a3.336 3.336 0 013.332 3.332v14.869a3.336 3.336 0 01-3.332 3.332H5.713a3.336 3.336 0 01-3.332-3.332V5.713z"/><path d="M13.148 19.434a6.293 6.293 0 006.286-6.286 6.293 6.293 0 00-6.286-6.285 6.293 6.293 0 00-6.285 6.285 6.293 6.293 0 006.285 6.286zm0-11.033a4.753 4.753 0 014.748 4.747 4.753 4.753 0 01-4.748 4.748 4.753 4.753 0 01-4.747-4.748 4.753 4.753 0 014.747-4.747zm6.52-.009c1.01 0 1.773-.758 1.773-1.764 0-1.05-.802-1.765-1.772-1.765-1.011 0-1.773.759-1.773 1.765 0 1.047.798 1.764 1.772 1.764zm.181-1.933c.324.286-.415.633-.415.17 0-.277.376-.205.415-.17z"/></g><defs><clipPath id="clip0"><path fill="#fff" transform="translate(.844 .844)" d="M0 0h24.609v24.609H0z"/></clipPath></defs></svg>