<svg width="24" height="26" fill="none" xmlns="http://www.w3.org/2000/svg"><path d="M14.294.68H9.52C4.522.68.455 4.746.455 9.744v4.3a9.082 9.082 0 005.726 8.429v2.787a.477.477 0 00.798.353l2.767-2.506h4.548c4.998 0 9.065-4.066 9.065-9.064V9.744c0-4.998-4.067-9.064-9.065-9.064zm8.111 13.363c0 4.472-3.638 8.11-8.111 8.11H9.56a.476.476 0 00-.32.123l-2.105 1.908v-2.042a.476.476 0 00-.319-.45 8.127 8.127 0 01-5.408-7.649V9.744c0-4.472 3.64-8.11 8.112-8.11h4.773c4.473 0 8.111 3.638 8.111 8.11v4.3z" fill="#FC165C"/><path d="M18.214 15.23l-2.933-1.904a1.43 1.43 0 00-1.98.42l-.138.212c-1.27-.42-2.669-.956-3.507-3.381l.347-.302a1.434 1.434 0 00.14-2.02L7.85 5.616a.478.478 0 00-.673-.047L5.736 6.82c-1.264 1.098-.674 2.723-.48 3.257a.48.48 0 00.032.07c.05.09 1.246 2.224 3.178 4.192 1.94 1.976 5.442 3.8 5.55 3.854a2.389 2.389 0 003.3-.701l1.039-1.601a.478.478 0 00-.141-.661zm-1.7 1.742c-.43.662-1.318.85-2.02.398-.034-.018-3.513-1.83-5.347-3.698-1.714-1.746-2.852-3.686-3.007-3.956-.378-1.06-.311-1.712.221-2.174l1.081-.94 1.981 2.28a.472.472 0 01-.046.673l-.585.508a.477.477 0 00-.143.5c.998 3.245 2.94 3.882 4.356 4.347l.207.068c.207.07.433-.01.551-.192l.338-.521a.471.471 0 01.66-.139l2.533 1.645-.78 1.2zm-3.518-8.539a.476.476 0 10-.261.917c.71.203 1.277.77 1.478 1.482a.478.478 0 00.918-.26 3.12 3.12 0 00-2.135-2.14z" fill="#FC165C"/><path d="M16.628 11.282a.477.477 0 00.46-.606 6.06 6.06 0 00-4.146-4.156.477.477 0 10-.261.918 5.098 5.098 0 013.488 3.497c.06.21.25.347.46.347z" fill="#FC165C"/><path d="M12.736 4.298a.477.477 0 10-.261.918 8.639 8.639 0 015.91 5.925.477.477 0 00.919-.259 9.6 9.6 0 00-6.568-6.584z" fill="#FC165C"/></svg>