<svg width="7" height="11" viewBox="0 0 7 11" fill="none" xmlns="http://www.w3.org/2000/svg">
<path d="M1.49986 10.9506C1.32462 10.951 1.15479 10.89 1.01986 10.7781C0.943911 10.7152 0.881135 10.6379 0.835121 10.5506C0.789107 10.4633 0.76076 10.3679 0.751703 10.2696C0.742646 10.1714 0.753057 10.0723 0.782341 9.97813C0.811624 9.88393 0.859203 9.79643 0.922355 9.72064L4.28236 5.70064L1.04236 1.67314C0.980056 1.59642 0.933532 1.50815 0.905458 1.4134C0.877385 1.31864 0.868314 1.21927 0.878769 1.121C0.889223 1.02273 0.918996 0.927495 0.966376 0.840767C1.01376 0.75404 1.07781 0.677531 1.15486 0.615639C1.23245 0.547362 1.32333 0.495861 1.42178 0.464369C1.52022 0.432877 1.62412 0.422075 1.72694 0.432638C1.82976 0.443202 1.92928 0.474904 2.01927 0.525756C2.10926 0.576607 2.18776 0.645509 2.24986 0.728139L5.87236 5.22814C5.98267 5.36234 6.04297 5.53067 6.04297 5.70439C6.04297 5.87811 5.98267 6.04644 5.87236 6.18064L2.12236 10.6806C2.04712 10.7714 1.95154 10.8432 1.84339 10.8901C1.73523 10.937 1.61753 10.9577 1.49986 10.9506Z" fill="white"/>
</svg>
