<svg width="20" height="21" viewBox="0 0 20 21" fill="none" xmlns="http://www.w3.org/2000/svg">
<path d="M9.8 0.912354C4.44844 0.912354 0.1125 5.24829 0.1125 10.5999C0.1125 15.9514 4.44844 20.2874 9.8 20.2874C15.1516 20.2874 19.4875 15.9514 19.4875 10.5999C19.4875 5.24829 15.1516 0.912354 9.8 0.912354ZM14.5266 7.55298L12.9641 15.053C12.8469 15.5999 12.5344 15.717 12.0656 15.4827L9.64375 13.6858L8.47188 14.8186C8.35469 14.9358 8.2375 15.053 8.00313 15.053L8.15938 12.592L12.6516 8.52954C12.8469 8.37329 12.6125 8.2561 12.3391 8.41235L6.79219 11.928L4.40938 11.1858C3.90156 11.0295 3.90156 10.6389 4.52656 10.4045L13.8625 6.81079C14.2922 6.65454 14.6828 6.92798 14.5266 7.55298Z" fill="white"/>
</svg>
