<svg width="23" height="16" viewBox="0 0 23 16" fill="none" xmlns="http://www.w3.org/2000/svg">
<path d="M21.8953 3.16821C21.661 2.23071 20.9188 1.48853 20.0203 1.25415C18.3406 0.7854 11.7 0.7854 11.7 0.7854C11.7 0.7854 5.02034 0.7854 3.34065 1.25415C2.44221 1.48853 1.70002 2.23071 1.46565 3.16821C0.996899 4.80884 0.996899 8.32446 0.996899 8.32446C0.996899 8.32446 0.996899 11.801 1.46565 13.4807C1.70002 14.4182 2.44221 15.1213 3.34065 15.3557C5.02034 15.7854 11.7 15.7854 11.7 15.7854C11.7 15.7854 18.3406 15.7854 20.0203 15.3557C20.9188 15.1213 21.661 14.4182 21.8953 13.4807C22.3641 11.801 22.3641 8.32446 22.3641 8.32446C22.3641 8.32446 22.3641 4.80884 21.8953 3.16821ZM9.51252 11.4885V5.1604L15.0594 8.32446L9.51252 11.4885Z" fill="white"/>
</svg>
