<svg width="19" height="18" viewBox="0 0 19 18" fill="none" xmlns="http://www.w3.org/2000/svg">
<path d="M9.70002 4.59326C7.20002 4.59326 5.20784 6.62451 5.20784 9.08545C5.20784 11.5854 7.20002 13.5776 9.70002 13.5776C12.161 13.5776 14.1922 11.5854 14.1922 9.08545C14.1922 6.62451 12.161 4.59326 9.70002 4.59326ZM9.70002 12.0151C8.09846 12.0151 6.77034 10.7261 6.77034 9.08545C6.77034 7.48389 8.0594 6.19482 9.70002 6.19482C11.3016 6.19482 12.5906 7.48389 12.5906 9.08545C12.5906 10.7261 11.3016 12.0151 9.70002 12.0151ZM15.4031 4.43701C15.4031 3.85107 14.9344 3.38232 14.3485 3.38232C13.7625 3.38232 13.2938 3.85107 13.2938 4.43701C13.2938 5.02295 13.7625 5.4917 14.3485 5.4917C14.9344 5.4917 15.4031 5.02295 15.4031 4.43701ZM18.3719 5.4917C18.2938 4.08545 17.9813 2.83545 16.9656 1.81982C15.95 0.804199 14.7 0.491699 13.2938 0.413574C11.8485 0.335449 7.51252 0.335449 6.06721 0.413574C4.66096 0.491699 3.45002 0.804199 2.39534 1.81982C1.37971 2.83545 1.06721 4.08545 0.989086 5.4917C0.910961 6.93701 0.910961 11.2729 0.989086 12.7183C1.06721 14.1245 1.37971 15.3354 2.39534 16.3901C3.45002 17.4058 4.66096 17.7183 6.06721 17.7964C7.51252 17.8745 11.8485 17.8745 13.2938 17.7964C14.7 17.7183 15.95 17.4058 16.9656 16.3901C17.9813 15.3354 18.2938 14.1245 18.3719 12.7183C18.45 11.2729 18.45 6.93701 18.3719 5.4917ZM16.4969 14.2417C16.2235 15.0229 15.5985 15.6089 14.8563 15.9214C13.6844 16.3901 10.95 16.2729 9.70002 16.2729C8.41096 16.2729 5.67659 16.3901 4.54377 15.9214C3.76252 15.6089 3.17659 15.0229 2.86409 14.2417C2.39534 13.1089 2.51252 10.3745 2.51252 9.08545C2.51252 7.83545 2.39534 5.10107 2.86409 3.9292C3.17659 3.18701 3.76252 2.60107 4.54377 2.28857C5.67659 1.81982 8.41096 1.93701 9.70002 1.93701C10.95 1.93701 13.6844 1.81982 14.8563 2.28857C15.5985 2.56201 16.1844 3.18701 16.4969 3.9292C16.9656 5.10107 16.8485 7.83545 16.8485 9.08545C16.8485 10.3745 16.9656 13.1089 16.4969 14.2417Z" fill="white"/>
</svg>
