<svg width="25" height="25" viewBox="0 0 25 25" fill="none" xmlns="http://www.w3.org/2000/svg">
<path fill-rule="evenodd" clip-rule="evenodd" d="M13.7177 0.96979C13.8778 1.12945 14.0048 1.31911 14.0914 1.52792C14.1781 1.73674 14.2227 1.96059 14.2227 2.18667C14.2227 2.41274 14.1781 2.6366 14.0914 2.84541C14.0048 3.05422 13.8778 3.24388 13.7177 3.40354L4.61865 12.4992L13.7177 21.5948C14.0404 21.9175 14.2218 22.3553 14.2218 22.8117C14.2218 23.2681 14.0404 23.7058 13.7177 24.0285C13.395 24.3513 12.9573 24.5326 12.5008 24.5326C12.0444 24.5326 11.6067 24.3513 11.284 24.0285L0.971459 13.716C0.811399 13.5564 0.684408 13.3667 0.597761 13.1579C0.511114 12.9491 0.466513 12.7252 0.466513 12.4992C0.466513 12.2731 0.511114 12.0492 0.597761 11.8404C0.684408 11.6316 0.811399 11.4419 0.971459 11.2823L11.284 0.96979C11.4436 0.809729 11.6333 0.682738 11.8421 0.59609C12.0509 0.509443 12.2748 0.464844 12.5008 0.464844C12.7269 0.464844 12.9508 0.509443 13.1596 0.59609C13.3684 0.682738 13.5581 0.809729 13.7177 0.96979Z" fill="#6F6F6F"/>
<path fill-rule="evenodd" clip-rule="evenodd" d="M24.5312 12.5C24.5312 12.9558 24.3502 13.393 24.0278 13.7153C23.7055 14.0377 23.2683 14.2188 22.8125 14.2188L5.625 14.2187C5.16916 14.2187 4.73199 14.0377 4.40966 13.7153C4.08733 13.393 3.90625 12.9558 3.90625 12.5C3.90625 12.0442 4.08733 11.607 4.40966 11.2847C4.73199 10.9623 5.16916 10.7812 5.625 10.7812L22.8125 10.7812C23.2683 10.7812 23.7055 10.9623 24.0278 11.2847C24.3502 11.607 24.5312 12.0442 24.5312 12.5Z" fill="#6F6F6F"/>
</svg>
