<svg width="100" height="100" viewBox="0 0 100 100" fill="none" xmlns="http://www.w3.org/2000/svg">
<path d="M99.5686 59.3358C99.5686 53.5905 96.4963 48.3734 91.3924 45.1931C93.7093 42.5459 94.9996 39.2452 94.9996 35.8205C94.9996 30.5358 91.9079 25.6389 86.9891 22.9272C87.1565 22.1594 87.241 21.3767 87.241 20.5859C87.241 13.952 81.2857 8.55469 73.9651 8.55469C73.0527 8.55469 72.1553 8.63691 71.2782 8.80058C70.285 3.80312 65.451 0 59.6548 0C55.6696 0 52.1395 1.79766 49.9996 4.54531C47.8598 1.79766 44.3296 0 40.3445 0C34.5481 0 29.7136 3.80409 28.7208 8.80175C28.3451 8.73183 27.9655 8.67617 27.5827 8.63594C26.3998 8.51112 25.3305 9.27852 25.1927 10.35C25.055 11.4213 25.902 12.391 27.0841 12.5158C28.0119 12.6139 28.9122 12.8422 29.7601 13.1941C29.7693 13.198 29.7774 13.2027 29.7865 13.2066C31.4791 13.9137 32.8667 15.0604 33.7984 16.523C34.1977 17.1495 34.922 17.5 35.6669 17.5C36.0324 17.5 36.4031 17.4155 36.7426 17.238C37.7734 16.6986 38.1265 15.5041 37.5315 14.5699C36.3927 12.7826 34.7939 11.3148 32.8615 10.2678C33.11 6.72245 36.3703 3.90625 40.3445 3.90625C44.48 3.90625 47.8445 6.95528 47.8445 10.7031V50.5733C44.2189 50.1506 40.8667 48.6684 38.2395 46.2875C37.3979 45.5252 36.0332 45.525 35.1917 46.2875C34.3498 47.0502 34.3498 48.2869 35.1917 49.0498C38.6346 52.1698 43.0651 54.0691 47.8445 54.5089V86.6016C47.8445 91.8355 43.1457 96.0938 37.3703 96.0938C33.3876 96.0938 29.8288 94.0414 28.0655 90.9597C29.2707 90.9111 30.4677 90.7459 31.6334 90.4627C32.7831 90.1834 33.4653 89.1123 33.1572 88.0705C32.8488 87.0284 31.667 86.4097 30.5174 86.6897C28.8343 87.0984 27.0505 87.1786 25.3343 86.9234C25.3288 86.9227 25.3232 86.9225 25.3177 86.9217C19.3951 86.043 15.085 81.4883 15.0033 76.0552C16.4369 76.3648 17.9058 76.5234 19.396 76.5234C21.052 76.5234 22.7036 76.3264 24.3045 75.9377C25.4541 75.6586 26.1365 74.5877 25.8284 73.5459C25.5205 72.5039 24.3393 71.8852 23.1891 72.1647C21.9515 72.4648 20.6755 72.6172 19.3958 72.6172C17.5046 72.6172 15.6565 72.2914 13.9029 71.6491C13.8884 71.6438 13.8736 71.6403 13.8591 71.6353C8.31903 69.5848 4.74101 64.7622 4.74101 59.3358C4.74101 54.2311 7.88046 49.6659 12.9367 47.4119C12.9492 47.4067 12.9619 47.4031 12.9744 47.3977C13.8158 47.0259 14.7001 46.7261 15.6029 46.507C16.7526 46.228 17.435 45.1572 17.1272 44.1152C16.8195 43.0733 15.6371 42.4542 14.4878 42.7341C13.8179 42.8967 13.1574 43.097 12.5093 43.3259C10.4628 41.2805 9.30997 38.6056 9.30997 35.8203C9.30997 32.1494 11.3244 28.7313 14.5796 26.6623C15.7363 28.4523 17.39 29.9555 19.3964 31.0052C19.7358 31.1827 20.1064 31.2672 20.472 31.2672C21.2169 31.2672 21.9412 30.9167 22.3403 30.2902C22.9357 29.3561 22.5824 28.1617 21.5515 27.6222C19.6936 26.65 18.2803 25.1041 17.5719 23.2692C17.5688 23.2611 17.5645 23.2539 17.5615 23.2459C17.3503 22.6931 17.2046 22.1187 17.1298 21.538C16.9919 20.4666 15.9212 19.7006 14.7395 19.8244C13.5572 19.9494 12.7106 20.9192 12.8486 21.9908C12.8891 22.3044 12.9432 22.617 13.0108 22.927C8.09187 25.6388 4.99963 30.5358 4.99963 35.8203C4.99963 39.2448 6.28972 42.5459 8.60696 45.193C3.50285 48.3734 0.430664 53.5905 0.430664 59.3358C0.430664 65.8614 4.42808 71.7127 10.7475 74.6367C10.7087 75.0567 10.6893 75.4783 10.6893 75.8986C10.6893 79.4997 12.1128 82.9853 14.6979 85.7145C16.9384 88.0795 19.9272 89.7534 23.227 90.5133C25.1 96.0817 30.8324 100 37.3703 100C42.7124 100 47.4013 97.4194 49.9996 93.5612C52.5979 97.4194 57.287 100 62.6289 100C69.167 100 74.8995 96.0817 76.7722 90.5133C80.072 89.7533 83.0608 88.0795 85.3013 85.7145C87.8865 82.9853 89.31 79.4997 89.31 75.8986C89.31 75.4783 89.2905 75.0567 89.2519 74.6367C95.571 71.7127 99.5686 65.8614 99.5686 59.3358ZM86.0962 71.652C85.1451 72.0006 84.5972 72.9087 84.7865 73.8225C84.9279 74.5055 84.9996 75.2039 84.9996 75.8984C84.9996 81.4048 80.6544 86.0417 74.6679 86.9238C73.7805 87.0545 73.076 87.6706 72.9 88.4697C71.9281 92.8875 67.6084 96.0938 62.6289 96.0938C56.8536 96.0938 52.1548 91.8355 52.1548 86.6016V78.5219H54.9369L57.0972 80.4798C55.9527 82.6573 56.3726 85.3473 58.3591 87.1477C59.6196 88.29 61.2753 88.8609 62.9308 88.8609C64.5865 88.8609 66.2422 88.2898 67.5026 87.1477C70.0236 84.8631 70.0236 81.1459 67.5026 78.8611C65.516 77.0608 62.5479 76.6803 60.1451 77.7177L57.3536 75.1875C56.9495 74.8213 56.4012 74.6155 55.8296 74.6155H52.1548V68.2803H59.2401C59.5508 69.0805 60.0582 69.8314 60.7632 70.4703C62.0238 71.6127 63.6793 72.1836 65.335 72.1836C66.9907 72.1836 68.6463 71.6123 69.9067 70.4703C72.4274 68.1858 72.4274 64.4686 69.9067 62.1838C67.3858 59.8994 63.2839 59.8994 60.7629 62.1838C60.0581 62.8227 59.5505 63.5736 59.24 64.3741H52.1548V54.608H73.5057L75.6632 56.5634C75.2519 57.3427 75.0341 58.2011 75.0341 59.0905C75.0341 60.6556 75.7067 62.1272 76.9279 63.2337C78.1884 64.3759 79.8439 64.9469 81.4996 64.9469C83.1553 64.9469 84.811 64.3758 86.0715 63.2337C87.2927 62.1269 87.9651 60.6556 87.9651 59.0905C87.9651 57.5252 87.2927 56.0539 86.0715 54.9472C84.085 53.1469 81.1169 52.7666 78.7141 53.8037L75.9226 51.2736C75.5184 50.9073 74.9701 50.7016 74.3986 50.7016H52.1548V44.6005H69.1334C69.705 44.6005 70.2532 44.3945 70.6574 44.0283L73.4462 41.5009C74.3058 41.8737 75.2534 42.0713 76.2348 42.0713C77.9619 42.0713 79.5855 41.4617 80.8065 40.355C82.0276 39.2484 82.7003 37.7769 82.7003 36.2117C82.7003 34.6466 82.0276 33.1752 80.8065 32.0686C79.5855 30.9619 77.9617 30.3523 76.2348 30.3523C74.5077 30.3523 72.8841 30.9619 71.6631 32.0686C70.4417 33.1752 69.7693 34.6466 69.7693 36.2117C69.7693 37.1009 69.9869 37.9598 70.3982 38.7389L68.2408 40.6944H52.1548V31.5634H58.4653C59.0369 31.5634 59.5851 31.3577 59.9893 30.9914L62.7781 28.4639C63.6377 28.8367 64.5851 29.0341 65.5665 29.0341C67.2936 29.0341 68.917 28.4244 70.1382 27.3178C71.3595 26.2111 72.032 24.7398 72.032 23.1745C72.032 21.6094 71.3593 20.138 70.1382 19.0312C68.917 17.9247 67.2934 17.315 65.5665 17.315C63.8395 17.315 62.2158 17.9247 60.9946 19.0312C59.7736 20.138 59.101 21.6094 59.101 23.1745C59.101 24.0639 59.3186 24.9227 59.73 25.7016L57.5726 27.657H52.1548V10.7031C52.1548 6.95547 55.5193 3.90625 59.6548 3.90625C63.7903 3.90625 67.1548 6.95528 67.1548 10.7031V11.4314C67.1548 12.0975 67.5295 12.7178 68.1486 13.0768C68.7674 13.4358 69.5458 13.4838 70.2132 13.2047C71.3929 12.7113 72.6555 12.4609 73.9651 12.4609C78.9088 12.4609 82.9307 16.1056 82.9307 20.5859C82.9307 21.5059 82.7622 22.4091 82.4298 23.2702C82.0641 24.2178 82.5505 25.2623 83.5548 25.6858C87.8889 27.5133 90.6893 31.4916 90.6893 35.8205C90.6893 39.0116 89.1767 42.058 86.54 44.1788C86.0022 44.6114 85.7377 45.2583 85.835 45.9039C85.9324 46.5495 86.3786 47.1086 87.0246 47.3945C92.1032 49.6425 95.2582 54.2183 95.2582 59.3359C95.2582 64.7764 91.6619 69.6108 86.0962 71.652ZM62.9308 81.0522C63.4829 81.0522 64.0348 81.2428 64.4548 81.6234C65.2951 82.3847 65.2951 83.6241 64.4548 84.3855C63.6146 85.1469 62.2472 85.1469 61.4069 84.3855C60.5667 83.6242 60.5667 82.385 61.4069 81.6234C61.8272 81.2428 62.3791 81.0522 62.9308 81.0522ZM63.811 64.9463C64.6515 64.1845 66.0188 64.185 66.8591 64.9463C67.6994 65.7077 67.6994 66.9469 66.8591 67.7084C66.0189 68.4698 64.6514 68.4697 63.8112 67.7084C62.971 66.947 62.971 65.7078 63.811 64.9463ZM79.9757 57.71C80.3957 57.3291 80.9477 57.1386 81.4996 57.1386C82.0515 57.1386 82.6034 57.3294 83.0238 57.71C83.4307 58.0789 83.6548 58.5692 83.6548 59.0908C83.6548 59.6127 83.4307 60.1031 83.0238 60.4719C82.1836 61.233 80.8162 61.2334 79.9757 60.4719C79.5686 60.103 79.3445 59.6127 79.3445 59.0908C79.3445 58.5692 79.5686 58.0787 79.9757 57.71ZM74.7108 37.5933C74.3038 37.2244 74.0796 36.7342 74.0796 36.2123C74.0796 35.6906 74.3038 35.2002 74.7108 34.8314C75.1179 34.4625 75.6591 34.2594 76.2348 34.2594C76.8103 34.2594 77.3515 34.4625 77.7588 34.8314C78.1658 35.2005 78.39 35.6906 78.39 36.2123C78.39 36.7342 78.1658 37.2245 77.7588 37.5933C77.3515 37.9623 76.8107 38.1655 76.2348 38.1655C75.6591 38.1652 75.1179 37.962 74.7108 37.5933ZM64.0427 24.5561C64.0426 24.5561 64.0426 24.5561 64.0427 24.5561C63.6357 24.187 63.4115 23.6969 63.4115 23.1752C63.4115 22.6533 63.6357 22.1628 64.0427 21.7941C64.4498 21.4252 64.991 21.222 65.5667 21.222C66.1422 21.222 66.6834 21.4252 67.0907 21.7941C67.4977 22.1631 67.7219 22.6533 67.7219 23.1752C67.7219 23.6969 67.4977 24.1873 67.0907 24.5561C66.6834 24.925 66.1426 25.1281 65.5667 25.1281C64.991 25.128 64.4498 24.9248 64.0427 24.5561Z" fill="#5EC8B5"/>
</svg>
