<svg width="90" height="100" viewBox="0 0 90 100" fill="none" xmlns="http://www.w3.org/2000/svg">
<path d="M88.9232 87.4367C88.8349 86.7092 88.1744 86.1533 87.3763 86.1343C87.301 86.1326 84.5827 86.0687 80.1739 85.9874C80.2095 82.5225 79.9665 78.7195 79.9544 78.5368C79.9057 77.7797 79.2341 77.182 78.4069 77.1593C78.3339 77.1575 75.085 77.07 70.0695 76.9718C69.069 69.7423 66.7968 63.7593 62.9589 58.2342C62.4847 57.552 61.497 57.3507 60.7528 57.7853C60.0084 58.22 59.7892 59.1252 60.2631 59.8076C63.7626 64.8457 65.8686 70.3166 66.838 76.9118C60.7009 76.8047 52.827 76.7033 45 76.7033C43.2952 76.7033 41.5063 76.708 39.6827 76.7176C38.8001 76.7221 38.0889 77.3816 38.0938 78.1908C38.0987 78.9968 38.8134 79.6472 39.6915 79.6472H39.7009C41.5184 79.6377 43.3012 79.633 45 79.633C58.6236 79.633 72.3974 79.9412 76.8379 80.0502C76.9074 81.4656 76.9983 83.7847 76.9781 85.9305C68.8061 85.7912 56.8603 85.6316 45.0002 85.6316C33.1402 85.6316 21.1941 85.7912 13.0223 85.9305C13.002 83.7847 13.0928 81.4656 13.1625 80.05C16.0159 79.9801 22.7209 79.8271 30.7221 79.728C31.6046 79.717 32.3103 79.0523 32.2982 78.2433C32.2862 77.4343 31.5588 76.7811 30.6786 76.7986C27.5925 76.837 24.699 76.8832 22.143 76.9297C22.2029 73.5025 21.5335 69.4228 20.7726 64.7967C19.4414 56.703 17.9327 47.5293 19.8509 38.761C22.0476 28.7205 28.4115 21.2218 39.3069 15.8367C39.8421 15.5722 40.1669 15.0521 40.1455 14.4951C40.1448 14.4797 40.1164 12.8953 41.2399 11.1746C42.6249 9.05312 45.105 7.66601 48.6236 7.04062L49.6686 16.0738C49.7229 16.5433 50.0212 16.9606 50.4694 17.1936C50.5849 17.2537 61.9623 23.2263 70.4226 32.277C70.4074 33.5681 70.1728 37.2242 68.1138 39.7287C66.7724 39.399 64.1012 38.5851 61.7445 36.9151C61.3399 36.6285 60.8107 36.5368 60.3202 36.6673C60.2002 36.6995 48.2403 39.8142 38.4032 35.7945C37.5974 35.4652 36.6521 35.7972 36.2929 36.5361C35.9338 37.275 36.2959 38.1412 37.102 38.4705C40.4297 39.8301 43.9232 40.4651 47.1872 40.6895C47.7015 45.4315 50.7921 48.8048 54.3236 52.657C54.862 53.2443 55.419 53.8516 55.9777 54.476C56.2937 54.8291 56.7521 55.0117 57.2141 55.0117C57.5709 55.0117 57.9296 54.9027 58.2268 54.6795C58.9091 54.1662 59.0085 53.2432 58.4489 52.6177C57.8778 51.9798 57.3152 51.3658 56.7705 50.7721C53.5811 47.2931 50.985 44.4593 50.4217 40.7887C55.054 40.7582 58.8501 40.0262 60.4346 39.6686C64.1759 42.0811 68.2353 42.77 68.416 42.7996C68.944 42.8853 69.4822 42.725 69.852 42.3707C73.9406 38.4562 73.6251 31.9326 73.6097 31.6566C73.5918 31.3382 73.4612 31.034 73.2375 30.7898C65.4963 22.3392 55.5171 16.545 52.7616 15.0301L51.6254 5.20703C51.5804 4.81856 51.3679 4.46231 51.0349 4.21816C50.7019 3.97402 50.2762 3.86113 49.8531 3.90644C43.1118 4.61913 39.9569 7.43418 38.4971 9.67012C37.4725 11.2393 37.1224 12.7256 37.0057 13.653C36.9748 13.6687 36.9452 13.6851 36.9142 13.701C36.7885 6.56152 34.5975 1.19472 34.4932 0.943552C34.3391 0.57324 34.0282 0.275975 33.6311 0.119334C33.2343 -0.037502 32.7847 -0.0394551 32.3854 0.112693C31.9608 0.274803 21.8876 4.20449 13.5679 14.7732C13.0515 15.4291 13.213 16.345 13.9286 16.8183C14.644 17.2916 15.6433 17.1437 16.1597 16.4877C22.0494 9.00606 28.9937 5.02949 32.0444 3.52988C32.7527 5.78437 33.8861 10.2799 33.7042 15.492C24.396 21.1115 18.8207 28.5701 16.7171 38.1851C14.6884 47.4576 16.2418 56.9013 17.6119 65.2333C17.724 65.9142 17.8338 66.5822 17.9395 67.2377C14.5702 68.2212 10.9536 68.3298 9.17043 68.3087C4.16418 50.1801 5.23805 34.6463 12.366 22.1238C12.7743 21.4065 12.4709 20.5217 11.6885 20.1475C10.9059 19.7735 9.94069 20.0513 9.53244 20.7686C1.88733 34.1998 0.825621 50.8 6.37648 70.1078C6.54991 70.7117 7.12221 71.1482 7.80148 71.1951C7.8835 71.2007 8.54274 71.2437 9.5791 71.2437C11.5871 71.2437 15.0097 71.0816 18.3906 70.1743C18.7547 72.715 18.9907 75.0087 18.9456 76.991C14.4843 77.0812 11.641 77.1582 11.5926 77.1593C10.7655 77.182 10.0941 77.7797 10.0451 78.5368C10.0332 78.7195 9.79025 82.5226 9.82562 85.9874C5.41682 86.0687 2.69828 86.1326 2.62328 86.1343C1.82513 86.1533 1.16461 86.7092 1.0764 87.4367C1.04998 87.6544 0.436986 92.8275 1.07598 98.1922C1.16291 98.9207 1.82384 99.4785 2.62328 99.4975C2.66952 99.4986 7.3112 99.608 14.2933 99.7235C15.1676 99.7423 15.904 99.094 15.9198 98.2851C15.9356 97.4763 15.2331 96.8087 14.3508 96.7941C9.64643 96.7166 6.00766 96.6416 4.12562 96.6006C3.87377 93.5347 4.01419 90.6285 4.13585 89.0311C9.24331 88.9207 27.2209 88.5615 44.9995 88.5615C62.7782 88.5615 80.7558 88.9207 85.8633 89.0311C85.9849 90.6287 86.1251 93.5347 85.8735 96.6006C80.7799 96.7106 62.7902 97.0704 45 97.0704C38.2305 97.0704 30.7562 97.0187 22.7845 96.9176C22.7767 96.9174 22.7694 96.9173 22.7619 96.9173C21.8895 96.9173 21.1766 97.56 21.1645 98.3618C21.1521 99.1711 21.8576 99.8357 22.7402 99.8471C30.7267 99.9485 38.2159 100 45 100C65.9459 100 87.1642 99.5025 87.3763 99.4975C88.1756 99.4785 88.8366 98.9208 88.9236 98.1922C89.5626 92.8273 88.9495 87.6544 88.9232 87.4367Z" fill="#5EC8B5"/>
<path d="M48.3282 22.7178C48.3282 21.9087 47.6125 21.2528 46.7296 21.2528C45.8465 21.2528 45.1309 21.9087 45.1309 22.7178C45.1309 23.5271 45.8465 24.1829 46.7296 24.1829C47.6125 24.1829 48.3282 23.5271 48.3282 22.7178Z" fill="#9E9E9E"/>
</svg>
